<?xml version="1.0" encoding="UTF-8" standalone="no"?>
<!DOCTYPE svg PUBLIC "-//W3C//DTD SVG 1.1//EN"
 "http://www.w3.org/Graphics/SVG/1.1/DTD/svg11.dtd">
<!-- Generated by graphviz version 2.38.0 (20140413.2041)
 -->
<!-- Title: %3 Pages: 1 -->
<svg width="851pt" height="404pt"
 viewBox="0.00 0.00 851.00 403.84" xmlns="http://www.w3.org/2000/svg" xmlns:xlink="http://www.w3.org/1999/xlink">
<g id="graph0" class="graph" transform="scale(1 1) rotate(0) translate(4 399.837)">
<title>%3</title>
<polygon fill="white" stroke="none" points="-4,4 -4,-399.837 847,-399.837 847,4 -4,4"/>
<g id="clust1" class="cluster"><title>clusterLegend</title>
<polygon fill="#ebebeb" stroke="#ebebeb" points="8,-57.8369 8,-230.837 179,-230.837 179,-57.8369 8,-57.8369"/>
</g>
<!-- pre0 -->
<g id="node1" class="node"><title>pre0</title>
<g id="a_node1"><a xlink:title="Built">
<path fill="#f5f5f5" stroke="black" stroke-dasharray="1,5" d="M115.167,-222.837C115.167,-222.837 71.8333,-222.837 71.8333,-222.837 68.1667,-222.837 64.5,-219.17 64.5,-215.504 64.5,-215.504 64.5,-208.17 64.5,-208.17 64.5,-204.504 68.1667,-200.837 71.8333,-200.837 71.8333,-200.837 115.167,-200.837 115.167,-200.837 118.833,-200.837 122.5,-204.504 122.5,-208.17 122.5,-208.17 122.5,-215.504 122.5,-215.504 122.5,-219.17 118.833,-222.837 115.167,-222.837"/>
<text text-anchor="middle" x="93.5" y="-209.037" font-family="Times New Roman,serif" font-size="11.00">Built in 5.0</text>
</a>
</g>
</g>
<!-- aspnetcore -->
<g id="node2" class="node"><title>aspnetcore</title>
<g id="a_node2"><a xlink:title="Built">
<path fill="#f5f5f5" stroke="black" stroke-dasharray="1,5" d="M681.167,-308.837C681.167,-308.837 636.833,-308.837 636.833,-308.837 633.167,-308.837 629.5,-305.17 629.5,-301.504 629.5,-301.504 629.5,-294.17 629.5,-294.17 629.5,-290.504 633.167,-286.837 636.833,-286.837 636.833,-286.837 681.167,-286.837 681.167,-286.837 684.833,-286.837 688.5,-290.504 688.5,-294.17 688.5,-294.17 688.5,-301.504 688.5,-301.504 688.5,-305.17 684.833,-308.837 681.167,-308.837"/>
<text text-anchor="middle" x="659" y="-295.037" font-family="Times New Roman,serif" font-size="11.00">aspnetcore</text>
</a>
</g>
</g>
<!-- installer -->
<g id="node4" class="node"><title>installer</title>
<g id="a_node4"><a xlink:title="Built">
<path fill="#f5f5f5" stroke="black" stroke-dasharray="1,5" d="M835.667,-168.837C835.667,-168.837 806.333,-168.837 806.333,-168.837 802.667,-168.837 799,-165.17 799,-161.504 799,-161.504 799,-154.17 799,-154.17 799,-150.504 802.667,-146.837 806.333,-146.837 806.333,-146.837 835.667,-146.837 835.667,-146.837 839.333,-146.837 843,-150.504 843,-154.17 843,-154.17 843,-161.504 843,-161.504 843,-165.17 839.333,-168.837 835.667,-168.837"/>
<text text-anchor="middle" x="821" y="-155.037" font-family="Times New Roman,serif" font-size="11.00">installer</text>
</a>
</g>
</g>
<!-- aspnetcore&#45;&gt;installer -->
<g id="edge18" class="edge"><title>aspnetcore&#45;&gt;installer</title>
<path fill="none" stroke="black" d="M688.718,-300.34C718.244,-301.25 763.659,-297.762 791,-271.837 817.663,-246.555 821.172,-200.499 820.903,-175.359"/>
<polygon fill="black" stroke="black" points="820.754,-169.149 823.597,-175.083 820.826,-172.149 820.898,-175.148 820.898,-175.148 820.898,-175.148 820.826,-172.149 818.199,-175.212 820.754,-169.149 820.754,-169.149"/>
</g>
<!-- fsharp -->
<g id="node3" class="node"><title>fsharp</title>
<g id="a_node3"><a xlink:title="Built">
<path fill="#f5f5f5" stroke="black" stroke-dasharray="1,5" d="M670.667,-128.837C670.667,-128.837 647.333,-128.837 647.333,-128.837 643.667,-128.837 640,-125.17 640,-121.504 640,-121.504 640,-114.17 640,-114.17 640,-110.504 643.667,-106.837 647.333,-106.837 647.333,-106.837 670.667,-106.837 670.667,-106.837 674.333,-106.837 678,-110.504 678,-114.17 678,-114.17 678,-121.504 678,-121.504 678,-125.17 674.333,-128.837 670.667,-128.837"/>
<text text-anchor="middle" x="659" y="-115.037" font-family="Times New Roman,serif" font-size="11.00">fsharp</text>
</a>
</g>
</g>
<!-- fsharp&#45;&gt;installer -->
<g id="edge20" class="edge"><title>fsharp&#45;&gt;installer</title>
<path fill="none" stroke="black" d="M678.15,-118.598C709.225,-120.119 771.184,-124.16 791,-132.837 796.277,-135.147 801.304,-138.758 805.646,-142.524"/>
<polygon fill="black" stroke="black" points="810.068,-146.618 803.831,-144.523 807.866,-144.58 805.665,-142.542 805.665,-142.542 805.665,-142.542 807.866,-144.58 807.499,-140.561 810.068,-146.618 810.068,-146.618"/>
</g>
<!-- sdk -->
<g id="node11" class="node"><title>sdk</title>
<g id="a_node11"><a xlink:title="Built">
<path fill="#f5f5f5" stroke="black" stroke-dasharray="1,5" d="M750.167,-168.837C750.167,-168.837 738.833,-168.837 738.833,-168.837 735.167,-168.837 731.5,-165.17 731.5,-161.504 731.5,-161.504 731.5,-154.17 731.5,-154.17 731.5,-150.504 735.167,-146.837 738.833,-146.837 738.833,-146.837 750.167,-146.837 750.167,-146.837 753.833,-146.837 757.5,-150.504 757.5,-154.17 757.5,-154.17 757.5,-161.504 757.5,-161.504 757.5,-165.17 753.833,-168.837 750.167,-168.837"/>
<text text-anchor="middle" x="744.5" y="-155.037" font-family="Times New Roman,serif" font-size="11.00">sdk</text>
</a>
</g>
</g>
<!-- fsharp&#45;&gt;sdk -->
<g id="edge65" class="edge"><title>fsharp&#45;&gt;sdk</title>
<path fill="none" stroke="black" d="M678.118,-126.516C692.22,-133.272 711.685,-142.596 725.704,-149.312"/>
<polygon fill="black" stroke="black" points="731.347,-152.015 724.77,-151.858 728.642,-150.719 725.936,-149.423 725.936,-149.423 725.936,-149.423 728.642,-150.719 727.103,-146.988 731.347,-152.015 731.347,-152.015"/>
</g>
<!-- msbuild -->
<g id="node5" class="node"><title>msbuild</title>
<g id="a_node5"><a xlink:title="Built">
<path fill="#f5f5f5" stroke="black" stroke-dasharray="1,5" d="M593.667,-259.837C593.667,-259.837 564.333,-259.837 564.333,-259.837 560.667,-259.837 557,-256.17 557,-252.504 557,-252.504 557,-245.17 557,-245.17 557,-241.504 560.667,-237.837 564.333,-237.837 564.333,-237.837 593.667,-237.837 593.667,-237.837 597.333,-237.837 601,-241.504 601,-245.17 601,-245.17 601,-252.504 601,-252.504 601,-256.17 597.333,-259.837 593.667,-259.837"/>
<text text-anchor="middle" x="579" y="-246.037" font-family="Times New Roman,serif" font-size="11.00">msbuild</text>
</a>
</g>
</g>
<!-- msbuild&#45;&gt;aspnetcore -->
<g id="edge6" class="edge"><title>msbuild&#45;&gt;aspnetcore</title>
<path fill="none" stroke="black" d="M597.699,-259.956C608.769,-266.91 623.142,-275.939 635.078,-283.437"/>
<polygon fill="black" stroke="black" points="640.371,-286.762 633.854,-285.857 637.83,-285.166 635.29,-283.57 635.29,-283.57 635.29,-283.57 637.83,-285.166 636.726,-281.284 640.371,-286.762 640.371,-286.762"/>
</g>
<!-- msbuild&#45;&gt;fsharp -->
<g id="edge12" class="edge"><title>msbuild&#45;&gt;fsharp</title>
<path fill="none" stroke="black" d="M595.649,-237.571C603.779,-231.081 613.37,-222.338 620,-212.837 637.153,-188.256 648.203,-154.806 653.743,-134.858"/>
<polygon fill="black" stroke="black" points="655.349,-128.884 656.399,-135.379 654.57,-131.781 653.791,-134.678 653.791,-134.678 653.791,-134.678 654.57,-131.781 651.184,-133.977 655.349,-128.884 655.349,-128.884"/>
</g>
<!-- msbuild&#45;&gt;installer -->
<g id="edge21" class="edge"><title>msbuild&#45;&gt;installer</title>
<path fill="none" stroke="black" d="M601.285,-250.596C648.759,-254.075 761.451,-259.726 791,-237.837 810.665,-223.27 817.023,-194.057 819.061,-175.252"/>
<polygon fill="black" stroke="black" points="819.634,-168.841 821.789,-175.058 819.367,-171.829 819.1,-174.818 819.1,-174.818 819.1,-174.818 819.367,-171.829 816.411,-174.578 819.634,-168.841 819.634,-168.841"/>
</g>
<!-- nuget&#45;client -->
<g id="node6" class="node"><title>nuget&#45;client</title>
<g id="a_node6"><a xlink:title="Built">
<path fill="#f5f5f5" stroke="black" stroke-dasharray="1,5" d="M682.667,-90.8369C682.667,-90.8369 635.333,-90.8369 635.333,-90.8369 631.667,-90.8369 628,-87.1702 628,-83.5035 628,-83.5035 628,-76.1702 628,-76.1702 628,-72.5035 631.667,-68.8369 635.333,-68.8369 635.333,-68.8369 682.667,-68.8369 682.667,-68.8369 686.333,-68.8369 690,-72.5035 690,-76.1702 690,-76.1702 690,-83.5035 690,-83.5035 690,-87.1702 686.333,-90.8369 682.667,-90.8369"/>
<text text-anchor="middle" x="659" y="-77.0369" font-family="Times New Roman,serif" font-size="11.00">nuget&#45;client</text>
</a>
</g>
</g>
<!-- msbuild&#45;&gt;nuget&#45;client -->
<g id="edge37" class="edge"><title>msbuild&#45;&gt;nuget&#45;client</title>
<path fill="none" stroke="black" d="M597.696,-237.676C605.969,-231.444 615.067,-222.905 620,-212.837 641.374,-169.217 605.369,-146.817 628,-103.837 629.631,-100.738 631.855,-97.9015 634.36,-95.3491"/>
<polygon fill="black" stroke="black" points="639.105,-91.067 636.46,-97.0913 636.878,-93.0769 634.651,-95.0868 634.651,-95.0868 634.651,-95.0868 636.878,-93.0769 632.842,-93.0824 639.105,-91.067 639.105,-91.067"/>
</g>
<!-- msbuild&#45;&gt;sdk -->
<g id="edge59" class="edge"><title>msbuild&#45;&gt;sdk</title>
<path fill="none" stroke="black" d="M601.271,-242.712C624.195,-235.581 661.254,-222.487 690,-204.837 704.253,-196.085 718.382,-183.458 728.538,-173.496"/>
<polygon fill="black" stroke="black" points="732.911,-169.129 730.573,-175.279 730.788,-171.249 728.665,-173.369 728.665,-173.369 728.665,-173.369 730.788,-171.249 726.757,-171.458 732.911,-169.129 732.911,-169.129"/>
</g>
<!-- nuget&#45;client&#45;&gt;installer -->
<g id="edge25" class="edge"><title>nuget&#45;client&#45;&gt;installer</title>
<path fill="none" stroke="black" d="M690.167,-81.7354C726.304,-84.2493 783.004,-89.0472 791,-94.8369 805.934,-105.65 813.378,-126.067 816.949,-140.731"/>
<polygon fill="black" stroke="black" points="818.253,-146.618 814.32,-141.344 817.604,-143.689 816.956,-140.76 816.956,-140.76 816.956,-140.76 817.604,-143.689 819.592,-140.176 818.253,-146.618 818.253,-146.618"/>
</g>
<!-- nuget&#45;client&#45;&gt;sdk -->
<g id="edge62" class="edge"><title>nuget&#45;client&#45;&gt;sdk</title>
<path fill="none" stroke="black" d="M685.926,-90.9422C687.41,-92.1262 688.788,-93.4218 690,-94.8369 697.59,-103.696 691.487,-110.158 698,-119.837 705.369,-130.787 716.774,-140.303 726.322,-147.073"/>
<polygon fill="black" stroke="black" points="731.398,-150.544 724.921,-149.386 728.921,-148.851 726.445,-147.157 726.445,-147.157 726.445,-147.157 728.921,-148.851 727.969,-144.929 731.398,-150.544 731.398,-150.544"/>
</g>
<!-- roslyn&#45;analyzers -->
<g id="node7" class="node"><title>roslyn&#45;analyzers</title>
<g id="a_node7"><a xlink:title="Built">
<path fill="#f5f5f5" stroke="black" stroke-dasharray="1,5" d="M612.667,-308.837C612.667,-308.837 545.333,-308.837 545.333,-308.837 541.667,-308.837 538,-305.17 538,-301.504 538,-301.504 538,-294.17 538,-294.17 538,-290.504 541.667,-286.837 545.333,-286.837 545.333,-286.837 612.667,-286.837 612.667,-286.837 616.333,-286.837 620,-290.504 620,-294.17 620,-294.17 620,-301.504 620,-301.504 620,-305.17 616.333,-308.837 612.667,-308.837"/>
<text text-anchor="middle" x="579" y="-295.037" font-family="Times New Roman,serif" font-size="11.00">roslyn&#45;analyzers</text>
</a>
</g>
</g>
<!-- roslyn&#45;analyzers&#45;&gt;aspnetcore -->
<g id="edge8" class="edge"><title>roslyn&#45;analyzers&#45;&gt;aspnetcore</title>
<path fill="none" stroke="black" d="M620.371,-297.837C621.3,-297.837 622.228,-297.837 623.154,-297.837"/>
<polygon fill="black" stroke="black" points="629.191,-297.837 623.191,-300.537 626.191,-297.837 623.191,-297.837 623.191,-297.837 623.191,-297.837 626.191,-297.837 623.191,-295.137 629.191,-297.837 629.191,-297.837"/>
</g>
<!-- roslyn&#45;analyzers&#45;&gt;sdk -->
<g id="edge63" class="edge"><title>roslyn&#45;analyzers&#45;&gt;sdk</title>
<path fill="none" stroke="black" d="M600.357,-286.631C623.469,-273.367 661.639,-249.78 690,-223.837 706.526,-208.72 722.27,-188.316 732.345,-174.216"/>
<polygon fill="black" stroke="black" points="736.046,-168.961 734.798,-175.421 734.319,-171.413 732.591,-173.866 732.591,-173.866 732.591,-173.866 734.319,-171.413 730.384,-172.311 736.046,-168.961 736.046,-168.961"/>
</g>
<!-- roslyn -->
<g id="node8" class="node"><title>roslyn</title>
<g id="a_node8"><a xlink:title="Built">
<path fill="#f5f5f5" stroke="black" stroke-dasharray="1,5" d="M397.167,-328.837C397.167,-328.837 374.833,-328.837 374.833,-328.837 371.167,-328.837 367.5,-325.17 367.5,-321.504 367.5,-321.504 367.5,-314.17 367.5,-314.17 367.5,-310.504 371.167,-306.837 374.833,-306.837 374.833,-306.837 397.167,-306.837 397.167,-306.837 400.833,-306.837 404.5,-310.504 404.5,-314.17 404.5,-314.17 404.5,-321.504 404.5,-321.504 404.5,-325.17 400.833,-328.837 397.167,-328.837"/>
<text text-anchor="middle" x="386" y="-315.037" font-family="Times New Roman,serif" font-size="11.00">roslyn</text>
</a>
</g>
</g>
<!-- roslyn&#45;&gt;aspnetcore -->
<g id="edge7" class="edge"><title>roslyn&#45;&gt;aspnetcore</title>
<path fill="none" stroke="black" d="M404.763,-319.171C444.034,-321.701 541.016,-325.623 620,-309.837 621.026,-309.632 622.064,-309.409 623.108,-309.171"/>
<polygon fill="black" stroke="black" points="629.123,-307.668 623.957,-311.742 626.213,-308.395 623.302,-309.123 623.302,-309.123 623.302,-309.123 626.213,-308.395 622.647,-306.503 629.123,-307.668 629.123,-307.668"/>
</g>
<!-- roslyn&#45;&gt;installer -->
<g id="edge26" class="edge"><title>roslyn&#45;&gt;installer</title>
<path fill="none" stroke="black" d="M404.684,-323.618C438.137,-334.024 513.15,-354.837 578,-354.837 578,-354.837 578,-354.837 660,-354.837 724.799,-354.837 750.989,-341.808 791,-290.837 817.884,-256.589 821.093,-202.754 820.779,-175.26"/>
<polygon fill="black" stroke="black" points="820.646,-169.18 823.477,-175.119 820.712,-172.179 820.777,-175.178 820.777,-175.178 820.777,-175.178 820.712,-172.179 818.078,-175.237 820.646,-169.18 820.646,-169.18"/>
</g>
<!-- roslyn&#45;&gt;msbuild -->
<g id="edge35" class="edge"><title>roslyn&#45;&gt;msbuild</title>
<path fill="none" stroke="black" d="M404.671,-316.395C440.647,-313.329 519.865,-305.867 530,-298.837 536.208,-294.53 533.302,-289.755 538,-283.837 543.78,-276.555 551.206,-269.584 558.087,-263.807"/>
<polygon fill="black" stroke="black" points="562.737,-260.009 559.798,-265.896 560.414,-261.907 558.09,-263.805 558.09,-263.805 558.09,-263.805 560.414,-261.907 556.382,-261.713 562.737,-260.009 562.737,-260.009"/>
</g>
<!-- roslyn&#45;&gt;roslyn&#45;analyzers -->
<g id="edge40" class="edge"><title>roslyn&#45;&gt;roslyn&#45;analyzers</title>
<path fill="none" stroke="black" d="M404.722,-317.918C431.856,-317.801 485.256,-316.619 530,-309.837 530.478,-309.764 530.958,-309.689 531.439,-309.612"/>
<polygon fill="black" stroke="black" points="537.78,-308.478 532.349,-312.192 534.827,-309.006 531.874,-309.534 531.874,-309.534 531.874,-309.534 534.827,-309.006 531.398,-306.877 537.78,-308.478 537.78,-308.478"/>
</g>
<!-- runtime&#45;portable -->
<g id="node9" class="node"><title>runtime&#45;portable</title>
<g id="a_node9"><a xlink:title="Built">
<path fill="#f5f5f5" stroke="black" stroke-dasharray="1,5" d="M522.667,-297.837C522.667,-297.837 454.333,-297.837 454.333,-297.837 450.667,-297.837 447,-294.17 447,-290.504 447,-290.504 447,-283.17 447,-283.17 447,-279.504 450.667,-275.837 454.333,-275.837 454.333,-275.837 522.667,-275.837 522.667,-275.837 526.333,-275.837 530,-279.504 530,-283.17 530,-283.17 530,-290.504 530,-290.504 530,-294.17 526.333,-297.837 522.667,-297.837"/>
<text text-anchor="middle" x="488.5" y="-284.037" font-family="Times New Roman,serif" font-size="11.00">runtime&#45;portable</text>
</a>
</g>
</g>
<!-- roslyn&#45;&gt;runtime&#45;portable -->
<g id="edge49" class="edge"><title>roslyn&#45;&gt;runtime&#45;portable</title>
<path fill="none" stroke="black" d="M404.859,-312.865C414.915,-310.021 427.689,-306.333 439,-302.837 442.177,-301.855 445.463,-300.818 448.76,-299.762"/>
<polygon fill="black" stroke="black" points="454.682,-297.85 449.802,-302.263 451.827,-298.772 448.972,-299.693 448.972,-299.693 448.972,-299.693 451.827,-298.772 448.142,-297.124 454.682,-297.85 454.682,-297.85"/>
</g>
<!-- runtime -->
<g id="node10" class="node"><title>runtime</title>
<g id="a_node10"><a xlink:title="Built">
<path fill="#f5f5f5" stroke="black" stroke-dasharray="1,5" d="M503.167,-270.837C503.167,-270.837 473.833,-270.837 473.833,-270.837 470.167,-270.837 466.5,-267.17 466.5,-263.504 466.5,-263.504 466.5,-256.17 466.5,-256.17 466.5,-252.504 470.167,-248.837 473.833,-248.837 473.833,-248.837 503.167,-248.837 503.167,-248.837 506.833,-248.837 510.5,-252.504 510.5,-256.17 510.5,-256.17 510.5,-263.504 510.5,-263.504 510.5,-267.17 506.833,-270.837 503.167,-270.837"/>
<text text-anchor="middle" x="488.5" y="-257.037" font-family="Times New Roman,serif" font-size="11.00">runtime</text>
</a>
</g>
</g>
<!-- roslyn&#45;&gt;runtime -->
<g id="edge55" class="edge"><title>roslyn&#45;&gt;runtime</title>
<path fill="none" stroke="black" d="M404.804,-312.778C415.843,-308.867 429.652,-302.469 439,-292.837 445.097,-286.555 440.616,-280.828 447,-274.837 450.851,-271.223 455.649,-268.462 460.581,-266.358"/>
<polygon fill="black" stroke="black" points="466.384,-264.179 461.717,-268.816 463.576,-265.234 460.767,-266.289 460.767,-266.289 460.767,-266.289 463.576,-265.234 459.818,-263.761 466.384,-264.179 466.384,-264.179"/>
</g>
<!-- runtime&#45;&gt;aspnetcore -->
<g id="edge5" class="edge"><title>runtime&#45;&gt;aspnetcore</title>
<path fill="none" stroke="black" d="M510.67,-265.433C519.137,-267.577 529,-269.958 538,-271.837 574.191,-279.393 584.066,-277.139 620,-285.837 621.16,-286.118 622.336,-286.415 623.521,-286.726"/>
<polygon fill="black" stroke="black" points="629.484,-288.371 622.982,-289.378 626.592,-287.573 623.7,-286.775 623.7,-286.775 623.7,-286.775 626.592,-287.573 624.419,-284.172 629.484,-288.371 629.484,-288.371"/>
</g>
<!-- runtime&#45;&gt;installer -->
<g id="edge27" class="edge"><title>runtime&#45;&gt;installer</title>
<path fill="none" stroke="black" d="M510.6,-262.255C571.819,-268.8 747.871,-284.164 791,-249.837 813.562,-231.879 818.893,-196.458 819.965,-175.189"/>
<polygon fill="black" stroke="black" points="820.176,-169.078 822.667,-175.167 820.072,-172.076 819.969,-175.074 819.969,-175.074 819.969,-175.074 820.072,-172.076 817.271,-174.981 820.176,-169.078 820.176,-169.078"/>
</g>
<!-- runtime&#45;&gt;msbuild -->
<g id="edge34" class="edge"><title>runtime&#45;&gt;msbuild</title>
<path fill="none" stroke="black" d="M510.923,-257.174C522.881,-255.688 537.901,-253.821 550.695,-252.231"/>
<polygon fill="black" stroke="black" points="556.774,-251.475 551.153,-254.895 553.797,-251.845 550.82,-252.215 550.82,-252.215 550.82,-252.215 553.797,-251.845 550.487,-249.536 556.774,-251.475 556.774,-251.475"/>
</g>
<!-- runtime&#45;&gt;roslyn&#45;analyzers -->
<g id="edge39" class="edge"><title>runtime&#45;&gt;roslyn&#45;analyzers</title>
<path fill="none" stroke="black" d="M510.5,-265.685C517.03,-268 524.066,-271.033 530,-274.837 534.233,-277.551 533.772,-280.115 538,-282.837 538.398,-283.093 538.8,-283.345 539.207,-283.594"/>
<polygon fill="black" stroke="black" points="544.712,-286.64 538.155,-286.098 542.087,-285.188 539.462,-283.736 539.462,-283.736 539.462,-283.736 542.087,-285.188 540.769,-281.373 544.712,-286.64 544.712,-286.64"/>
</g>
<!-- runtime&#45;&gt;sdk -->
<g id="edge58" class="edge"><title>runtime&#45;&gt;sdk</title>
<path fill="none" stroke="black" d="M508.901,-248.691C517.609,-243.991 528.126,-238.72 538,-234.837 573.225,-220.984 584.691,-225.473 620,-211.837 623.708,-210.405 624.365,-209.445 628,-207.837 655.022,-195.883 662.911,-195.638 690,-183.837 702.142,-178.547 715.546,-172.032 725.899,-166.847"/>
<polygon fill="black" stroke="black" points="731.31,-164.119 727.168,-169.231 728.631,-165.47 725.953,-166.82 725.953,-166.82 725.953,-166.82 728.631,-165.47 724.737,-164.409 731.31,-164.119 731.31,-164.119"/>
</g>
<!-- vstest -->
<g id="node13" class="node"><title>vstest</title>
<g id="a_node13"><a xlink:title="Built">
<path fill="#f5f5f5" stroke="black" stroke-dasharray="1,5" d="M589.667,-210.837C589.667,-210.837 568.333,-210.837 568.333,-210.837 564.667,-210.837 561,-207.17 561,-203.504 561,-203.504 561,-196.17 561,-196.17 561,-192.504 564.667,-188.837 568.333,-188.837 568.333,-188.837 589.667,-188.837 589.667,-188.837 593.333,-188.837 597,-192.504 597,-196.17 597,-196.17 597,-203.504 597,-203.504 597,-207.17 593.333,-210.837 589.667,-210.837"/>
<text text-anchor="middle" x="579" y="-197.037" font-family="Times New Roman,serif" font-size="11.00">vstest</text>
</a>
</g>
</g>
<!-- runtime&#45;&gt;vstest -->
<g id="edge71" class="edge"><title>runtime&#45;&gt;vstest</title>
<path fill="none" stroke="black" d="M502.991,-248.543C511.044,-241.633 521.352,-232.485 530,-223.837 533.784,-220.053 533.587,-217.865 538,-214.837 543.137,-211.312 549.209,-208.485 555.05,-206.278"/>
<polygon fill="black" stroke="black" points="560.771,-204.274 556,-208.806 557.939,-205.266 555.108,-206.257 555.108,-206.257 555.108,-206.257 557.939,-205.266 554.215,-203.709 560.771,-204.274 560.771,-204.274"/>
</g>
<!-- sdk&#45;&gt;installer -->
<g id="edge28" class="edge"><title>sdk&#45;&gt;installer</title>
<path fill="none" stroke="black" d="M757.802,-157.837C767.304,-157.837 780.815,-157.837 792.818,-157.837"/>
<polygon fill="black" stroke="black" points="798.928,-157.837 792.928,-160.537 795.928,-157.837 792.928,-157.837 792.928,-157.837 792.928,-157.837 795.928,-157.837 792.928,-155.137 798.928,-157.837 798.928,-157.837"/>
</g>
<!-- templating -->
<g id="node12" class="node"><title>templating</title>
<g id="a_node12"><a xlink:title="Built">
<path fill="#f5f5f5" stroke="black" stroke-dasharray="1,5" d="M509.167,-51.8369C509.167,-51.8369 467.833,-51.8369 467.833,-51.8369 464.167,-51.8369 460.5,-48.1702 460.5,-44.5035 460.5,-44.5035 460.5,-37.1702 460.5,-37.1702 460.5,-33.5035 464.167,-29.8369 467.833,-29.8369 467.833,-29.8369 509.167,-29.8369 509.167,-29.8369 512.833,-29.8369 516.5,-33.5035 516.5,-37.1702 516.5,-37.1702 516.5,-44.5035 516.5,-44.5035 516.5,-48.1702 512.833,-51.8369 509.167,-51.8369"/>
<text text-anchor="middle" x="488.5" y="-38.0369" font-family="Times New Roman,serif" font-size="11.00">templating</text>
</a>
</g>
</g>
<!-- templating&#45;&gt;installer -->
<g id="edge29" class="edge"><title>templating&#45;&gt;installer</title>
<path fill="none" stroke="black" d="M516.586,-38.2197C582.544,-32.4397 749.152,-21.5888 791,-54.8369 816.793,-75.3292 820.768,-116.853 820.775,-140.439"/>
<polygon fill="black" stroke="black" points="820.686,-146.584 818.073,-140.546 820.73,-143.584 820.773,-140.584 820.773,-140.584 820.773,-140.584 820.73,-143.584 823.472,-140.623 820.686,-146.584 820.686,-146.584"/>
</g>
<!-- vstest&#45;&gt;installer -->
<g id="edge31" class="edge"><title>vstest&#45;&gt;installer</title>
<path fill="none" stroke="black" d="M597.246,-201.936C634.357,-205.723 723.863,-210.9 791,-182.837 796.405,-180.578 801.525,-176.911 805.916,-173.074"/>
<polygon fill="black" stroke="black" points="810.374,-168.903 807.838,-174.974 808.183,-170.953 805.993,-173.003 805.993,-173.003 805.993,-173.003 808.183,-170.953 804.148,-171.031 810.374,-168.903 810.374,-168.903"/>
</g>
<!-- vstest&#45;&gt;sdk -->
<g id="edge64" class="edge"><title>vstest&#45;&gt;sdk</title>
<path fill="none" stroke="black" d="M597.157,-195.507C618.807,-190.036 657.181,-180.308 690,-171.837 701.702,-168.817 714.831,-165.382 725.154,-162.67"/>
<polygon fill="black" stroke="black" points="731.181,-161.085 726.065,-165.222 728.28,-161.848 725.379,-162.611 725.379,-162.611 725.379,-162.611 728.28,-161.848 724.692,-160 731.181,-161.085 731.181,-161.085"/>
</g>
<!-- pre1 -->
<g id="node14" class="node"><title>pre1</title>
<g id="a_node14"><a xlink:title="Inputs ready">
<polygon fill="#f7caac" stroke="black" points="126,-195.837 61,-195.837 61,-173.837 126,-173.837 126,-195.837"/>
<polyline fill="none" stroke="black" points="68.3333,-195.837 61,-188.504 "/>
<polyline fill="none" stroke="black" points="61,-181.17 68.3333,-173.837 "/>
<polyline fill="none" stroke="black" points="118.667,-173.837 126,-181.17 "/>
<polyline fill="none" stroke="black" points="126,-188.504 118.667,-195.837 "/>
<text text-anchor="middle" x="93.5" y="-182.037" font-family="Times New Roman,serif" font-size="11.00">Inputs ready</text>
</a>
</g>
</g>
<!-- aspnet&#45;xdt -->
<g id="node15" class="node"><title>aspnet&#45;xdt</title>
<g id="a_node15"><a xlink:title="Inputs ready">
<polygon fill="#f7caac" stroke="black" points="308.5,-89.8369 252.5,-89.8369 252.5,-67.8369 308.5,-67.8369 308.5,-89.8369"/>
<polyline fill="none" stroke="black" points="259.833,-89.8369 252.5,-82.5035 "/>
<polyline fill="none" stroke="black" points="252.5,-75.1702 259.833,-67.8369 "/>
<polyline fill="none" stroke="black" points="301.167,-67.8369 308.5,-75.1702 "/>
<polyline fill="none" stroke="black" points="308.5,-82.5035 301.167,-89.8369 "/>
<text text-anchor="middle" x="280.5" y="-76.0369" font-family="Times New Roman,serif" font-size="11.00">aspnet&#45;xdt</text>
</a>
</g>
</g>
<!-- aspnet&#45;xdt&#45;&gt;nuget&#45;client -->
<g id="edge38" class="edge"><title>aspnet&#45;xdt&#45;&gt;nuget&#45;client</title>
<path fill="none" stroke="black" d="M308.76,-78.2088C316.586,-78.0553 325.131,-77.9133 333,-77.8369 460.55,-76.5986 492.489,-74.4836 620,-77.8369 620.471,-77.8492 620.944,-77.8625 621.421,-77.8765"/>
<polygon fill="black" stroke="black" points="627.723,-78.0996 621.631,-80.5855 624.725,-77.9934 621.726,-77.8872 621.726,-77.8872 621.726,-77.8872 624.725,-77.9934 621.822,-75.1889 627.723,-78.0996 627.723,-78.0996"/>
</g>
<!-- clicommandlineparser -->
<g id="node16" class="node"><title>clicommandlineparser</title>
<g id="a_node16"><a xlink:title="Inputs ready">
<polygon fill="#f7caac" stroke="black" points="439,-51.8369 333,-51.8369 333,-29.8369 439,-29.8369 439,-51.8369"/>
<polyline fill="none" stroke="black" points="340.333,-51.8369 333,-44.5035 "/>
<polyline fill="none" stroke="black" points="333,-37.1702 340.333,-29.8369 "/>
<polyline fill="none" stroke="black" points="431.667,-29.8369 439,-37.1702 "/>
<polyline fill="none" stroke="black" points="439,-44.5035 431.667,-51.8369 "/>
<text text-anchor="middle" x="386" y="-38.0369" font-family="Times New Roman,serif" font-size="11.00">clicommandlineparser</text>
</a>
</g>
</g>
<!-- clicommandlineparser&#45;&gt;installer -->
<g id="edge19" class="edge"><title>clicommandlineparser&#45;&gt;installer</title>
<path fill="none" stroke="black" d="M439.285,-29.9191C441.888,-29.5202 444.471,-29.1557 447,-28.8369 504.848,-21.5451 519.695,-21.8369 578,-21.8369 578,-21.8369 578,-21.8369 660,-21.8369 689.214,-21.8369 768.909,-13.7214 791,-32.8369 807.121,-46.7862 815.346,-109.742 818.471,-140.634"/>
<polygon fill="black" stroke="black" points="819.062,-146.709 815.794,-140.999 818.771,-143.724 818.481,-140.738 818.481,-140.738 818.481,-140.738 818.771,-143.724 821.169,-140.476 819.062,-146.709 819.062,-146.709"/>
</g>
<!-- clicommandlineparser&#45;&gt;templating -->
<g id="edge67" class="edge"><title>clicommandlineparser&#45;&gt;templating</title>
<path fill="none" stroke="black" d="M439.016,-40.8369C444.202,-40.8369 449.364,-40.8369 454.278,-40.8369"/>
<polygon fill="black" stroke="black" points="460.355,-40.8369 454.355,-43.537 457.355,-40.8369 454.355,-40.837 454.355,-40.837 454.355,-40.837 457.355,-40.8369 454.355,-38.137 460.355,-40.8369 460.355,-40.8369"/>
</g>
<!-- command&#45;line&#45;api -->
<g id="node17" class="node"><title>command&#45;line&#45;api</title>
<g id="a_node17"><a xlink:title="Inputs ready">
<polygon fill="#f7caac" stroke="black" points="325,-356.837 236,-356.837 236,-334.837 325,-334.837 325,-356.837"/>
<polyline fill="none" stroke="black" points="243.333,-356.837 236,-349.504 "/>
<polyline fill="none" stroke="black" points="236,-342.17 243.333,-334.837 "/>
<polyline fill="none" stroke="black" points="317.667,-334.837 325,-342.17 "/>
<polyline fill="none" stroke="black" points="325,-349.504 317.667,-356.837 "/>
<text text-anchor="middle" x="280.5" y="-343.037" font-family="Times New Roman,serif" font-size="11.00">command&#45;line&#45;api</text>
</a>
</g>
</g>
<!-- command&#45;line&#45;api&#45;&gt;roslyn -->
<g id="edge42" class="edge"><title>command&#45;line&#45;api&#45;&gt;roslyn</title>
<path fill="none" stroke="black" d="M322.406,-334.771C335.564,-331.211 349.702,-327.386 361.206,-324.274"/>
<polygon fill="black" stroke="black" points="367.303,-322.624 362.217,-326.798 364.407,-323.408 361.511,-324.191 361.511,-324.191 361.511,-324.191 364.407,-323.408 360.806,-321.585 367.303,-322.624 367.303,-322.624"/>
</g>
<!-- diagnostics -->
<g id="node18" class="node"><title>diagnostics</title>
<g id="a_node18"><a xlink:title="Inputs ready">
<polygon fill="#f7caac" stroke="black" points="518,-221.837 459,-221.837 459,-199.837 518,-199.837 518,-221.837"/>
<polyline fill="none" stroke="black" points="466.333,-221.837 459,-214.504 "/>
<polyline fill="none" stroke="black" points="459,-207.17 466.333,-199.837 "/>
<polyline fill="none" stroke="black" points="510.667,-199.837 518,-207.17 "/>
<polyline fill="none" stroke="black" points="518,-214.504 510.667,-221.837 "/>
<text text-anchor="middle" x="488.5" y="-208.037" font-family="Times New Roman,serif" font-size="11.00">diagnostics</text>
</a>
</g>
</g>
<!-- diagnostics&#45;&gt;vstest -->
<g id="edge70" class="edge"><title>diagnostics&#45;&gt;vstest</title>
<path fill="none" stroke="black" d="M518.478,-207.235C530.193,-205.779 543.536,-204.121 554.615,-202.743"/>
<polygon fill="black" stroke="black" points="560.848,-201.969 555.227,-205.388 557.871,-202.339 554.894,-202.709 554.894,-202.709 554.894,-202.709 557.871,-202.339 554.561,-200.03 560.848,-201.969 560.848,-201.969"/>
</g>
<!-- linker -->
<g id="node19" class="node"><title>linker</title>
<g id="a_node19"><a xlink:title="Inputs ready">
<polygon fill="#f7caac" stroke="black" points="403.5,-290.837 368.5,-290.837 368.5,-268.837 403.5,-268.837 403.5,-290.837"/>
<polyline fill="none" stroke="black" points="375.833,-290.837 368.5,-283.504 "/>
<polyline fill="none" stroke="black" points="368.5,-276.17 375.833,-268.837 "/>
<polyline fill="none" stroke="black" points="396.167,-268.837 403.5,-276.17 "/>
<polyline fill="none" stroke="black" points="403.5,-283.504 396.167,-290.837 "/>
<text text-anchor="middle" x="386" y="-277.037" font-family="Times New Roman,serif" font-size="11.00">linker</text>
</a>
</g>
</g>
<!-- linker&#45;&gt;runtime&#45;portable -->
<g id="edge46" class="edge"><title>linker&#45;&gt;runtime&#45;portable</title>
<path fill="none" stroke="black" d="M403.596,-280.993C413.748,-281.7 427.294,-282.643 440.534,-283.566"/>
<polygon fill="black" stroke="black" points="446.582,-283.987 440.409,-286.263 443.589,-283.778 440.597,-283.57 440.597,-283.57 440.597,-283.57 443.589,-283.778 440.784,-280.876 446.582,-283.987 446.582,-283.987"/>
</g>
<!-- linker&#45;&gt;runtime -->
<g id="edge52" class="edge"><title>linker&#45;&gt;runtime</title>
<path fill="none" stroke="black" d="M403.596,-276.534C419.023,-273.464 442.283,-268.835 460.403,-265.229"/>
<polygon fill="black" stroke="black" points="466.332,-264.049 460.975,-267.869 463.39,-264.635 460.448,-265.22 460.448,-265.22 460.448,-265.22 463.39,-264.635 459.921,-262.572 466.332,-264.049 466.332,-264.049"/>
</g>
<!-- symreader -->
<g id="node20" class="node"><title>symreader</title>
<g id="a_node20"><a xlink:title="Inputs ready">
<polygon fill="#f7caac" stroke="black" points="309,-279.837 252,-279.837 252,-257.837 309,-257.837 309,-279.837"/>
<polyline fill="none" stroke="black" points="259.333,-279.837 252,-272.504 "/>
<polyline fill="none" stroke="black" points="252,-265.17 259.333,-257.837 "/>
<polyline fill="none" stroke="black" points="301.667,-257.837 309,-265.17 "/>
<polyline fill="none" stroke="black" points="309,-272.504 301.667,-279.837 "/>
<text text-anchor="middle" x="280.5" y="-266.037" font-family="Times New Roman,serif" font-size="11.00">symreader</text>
</a>
</g>
</g>
<!-- symreader&#45;&gt;runtime -->
<g id="edge51" class="edge"><title>symreader&#45;&gt;runtime</title>
<path fill="none" stroke="black" d="M309.282,-267.623C348.895,-265.892 421.146,-262.736 460.388,-261.021"/>
<polygon fill="black" stroke="black" points="466.392,-260.759 460.516,-263.718 463.395,-260.89 460.398,-261.021 460.398,-261.021 460.398,-261.021 463.395,-260.89 460.28,-258.324 466.392,-260.759 466.392,-260.759"/>
</g>
<!-- xliff&#45;tasks -->
<g id="node21" class="node"><title>xliff&#45;tasks</title>
<g id="a_node21"><a xlink:title="Inputs ready">
<polygon fill="#f7caac" stroke="black" points="307.5,-178.837 253.5,-178.837 253.5,-156.837 307.5,-156.837 307.5,-178.837"/>
<polyline fill="none" stroke="black" points="260.833,-178.837 253.5,-171.504 "/>
<polyline fill="none" stroke="black" points="253.5,-164.17 260.833,-156.837 "/>
<polyline fill="none" stroke="black" points="300.167,-156.837 307.5,-164.17 "/>
<polyline fill="none" stroke="black" points="307.5,-171.504 300.167,-178.837 "/>
<text text-anchor="middle" x="280.5" y="-165.037" font-family="Times New Roman,serif" font-size="11.00">xliff&#45;tasks</text>
</a>
</g>
</g>
<!-- xliff&#45;tasks&#45;&gt;fsharp -->
<g id="edge15" class="edge"><title>xliff&#45;tasks&#45;&gt;fsharp</title>
<path fill="none" stroke="black" d="M291.7,-156.659C301.292,-147.018 316.596,-133.742 333,-127.837 439.376,-89.5404 578.228,-105.046 633.632,-113.609"/>
<polygon fill="black" stroke="black" points="639.659,-114.565 633.31,-116.292 636.696,-114.095 633.733,-113.625 633.733,-113.625 633.733,-113.625 636.696,-114.095 634.156,-110.959 639.659,-114.565 639.659,-114.565"/>
</g>
<!-- xliff&#45;tasks&#45;&gt;installer -->
<g id="edge32" class="edge"><title>xliff&#45;tasks&#45;&gt;installer</title>
<path fill="none" stroke="black" d="M301.098,-179.004C310.525,-184.042 322.12,-189.762 333,-193.837 381.96,-212.171 395.125,-216.342 447,-222.837 523.052,-232.359 724.714,-236.318 791,-197.837 800.161,-192.518 807.233,-183.022 812.098,-174.617"/>
<polygon fill="black" stroke="black" points="815.113,-169.037 814.636,-175.599 813.687,-171.676 812.261,-174.316 812.261,-174.316 812.261,-174.316 813.687,-171.676 809.885,-173.032 815.113,-169.037 815.113,-169.037"/>
</g>
<!-- xliff&#45;tasks&#45;&gt;roslyn -->
<g id="edge44" class="edge"><title>xliff&#45;tasks&#45;&gt;roslyn</title>
<path fill="none" stroke="black" d="M288.237,-178.968C297.744,-195.132 315.046,-226.295 325,-254.837 330.684,-271.133 322.349,-279.256 333,-292.837 340.131,-301.93 351.394,-307.904 361.618,-311.724"/>
<polygon fill="black" stroke="black" points="367.478,-313.732 360.927,-314.341 364.64,-312.759 361.802,-311.787 361.802,-311.787 361.802,-311.787 364.64,-312.759 362.677,-309.233 367.478,-313.732 367.478,-313.732"/>
</g>
<!-- xliff&#45;tasks&#45;&gt;sdk -->
<g id="edge57" class="edge"><title>xliff&#45;tasks&#45;&gt;sdk</title>
<path fill="none" stroke="black" d="M286.954,-156.608C294.812,-141.864 310.845,-116.593 333,-105.837 390.375,-77.9815 556.233,-102.572 620,-103.837 651.118,-104.454 663.307,-89.8321 690,-105.837 696.146,-109.522 693.399,-114.342 698,-119.837 706.251,-129.691 717.278,-138.973 726.411,-145.897"/>
<polygon fill="black" stroke="black" points="731.26,-149.489 724.831,-148.087 728.849,-147.704 726.439,-145.918 726.439,-145.918 726.439,-145.918 728.849,-147.704 728.046,-143.748 731.26,-149.489 731.26,-149.489"/>
</g>
<!-- s1 -->
<g id="node22" class="node"><title>s1</title>
<g id="a_node22"><a xlink:title="1">
<path fill="#ffe599" stroke="black" stroke-dasharray="5,2" d="M155.667,-168.837C155.667,-168.837 31.3333,-168.837 31.3333,-168.837 27.6667,-168.837 24,-165.17 24,-161.504 24,-161.504 24,-154.17 24,-154.17 24,-150.504 27.6667,-146.837 31.3333,-146.837 31.3333,-146.837 155.667,-146.837 155.667,-146.837 159.333,-146.837 163,-150.504 163,-154.17 163,-154.17 163,-161.504 163,-161.504 163,-165.17 159.333,-168.837 155.667,-168.837"/>
<text text-anchor="middle" x="93.5" y="-155.037" font-family="Times New Roman,serif" font-size="11.00">#1 &#45; Local build infra merged</text>
</a>
</g>
</g>
<!-- s2 -->
<g id="node23" class="node"><title>s2</title>
<g id="a_node23"><a xlink:title="2">
<polygon fill="#f0fe86" stroke="black" stroke-dasharray="5,2" points="144,-141.837 43,-141.837 43,-119.837 144,-119.837 144,-141.837"/>
<text text-anchor="middle" x="93.5" y="-128.037" font-family="Times New Roman,serif" font-size="11.00">#2 &#45; CI implemented</text>
</a>
</g>
</g>
<!-- s3 -->
<g id="node24" class="node"><title>s3</title>
<g id="a_node24"><a xlink:title="3">
<path fill="#b4c6e7" stroke="black" stroke-width="2" d="M139.167,-114.837C139.167,-114.837 47.8333,-114.837 47.8333,-114.837 44.1667,-114.837 40.5,-111.17 40.5,-107.504 40.5,-107.504 40.5,-100.17 40.5,-100.17 40.5,-96.5035 44.1667,-92.8369 47.8333,-92.8369 47.8333,-92.8369 139.167,-92.8369 139.167,-92.8369 142.833,-92.8369 146.5,-96.5035 146.5,-100.17 146.5,-100.17 146.5,-107.504 146.5,-107.504 146.5,-111.17 142.833,-114.837 139.167,-114.837"/>
<text text-anchor="middle" x="93.5" y="-101.037" font-family="Times New Roman,serif" font-size="11.00">#3 &#45; Artifacts greenlit</text>
</a>
</g>
</g>
<!-- application&#45;insights -->
<g id="node25" class="node"><title>application&#45;insights</title>
<g id="a_node25"><a xlink:title="3">
<path fill="#b4c6e7" stroke="black" stroke-width="2" d="M783.667,-117.837C783.667,-117.837 705.333,-117.837 705.333,-117.837 701.667,-117.837 698,-114.17 698,-110.504 698,-110.504 698,-103.17 698,-103.17 698,-99.5035 701.667,-95.8369 705.333,-95.8369 705.333,-95.8369 783.667,-95.8369 783.667,-95.8369 787.333,-95.8369 791,-99.5035 791,-103.17 791,-103.17 791,-110.504 791,-110.504 791,-114.17 787.333,-117.837 783.667,-117.837"/>
<text text-anchor="middle" x="744.5" y="-104.037" font-family="Times New Roman,serif" font-size="11.00">application&#45;insights</text>
</a>
</g>
</g>
<!-- application&#45;insights&#45;&gt;installer -->
<g id="edge16" class="edge"><title>application&#45;insights&#45;&gt;installer</title>
<path fill="none" stroke="black" d="M784.475,-117.946C786.753,-119.123 788.948,-120.417 791,-121.837 798.467,-127.006 804.999,-134.639 809.963,-141.548"/>
<polygon fill="black" stroke="black" points="813.444,-146.637 807.828,-143.209 811.75,-144.161 810.057,-141.685 810.057,-141.685 810.057,-141.685 811.75,-144.161 812.285,-140.161 813.444,-146.637 813.444,-146.637"/>
</g>
<!-- arcade -->
<g id="node26" class="node"><title>arcade</title>
<g id="a_node26"><a xlink:title="3">
<path fill="#b4c6e7" stroke="black" stroke-width="2" d="M220.667,-260.837C220.667,-260.837 194.333,-260.837 194.333,-260.837 190.667,-260.837 187,-257.17 187,-253.504 187,-253.504 187,-246.17 187,-246.17 187,-242.504 190.667,-238.837 194.333,-238.837 194.333,-238.837 220.667,-238.837 220.667,-238.837 224.333,-238.837 228,-242.504 228,-246.17 228,-246.17 228,-253.504 228,-253.504 228,-257.17 224.333,-260.837 220.667,-260.837"/>
<text text-anchor="middle" x="207.5" y="-247.037" font-family="Times New Roman,serif" font-size="11.00">arcade</text>
</a>
</g>
</g>
<!-- arcade&#45;&gt;aspnetcore -->
<g id="edge3" class="edge"><title>arcade&#45;&gt;aspnetcore</title>
<path fill="none" stroke="black" d="M209.66,-261.05C212.522,-286.307 220.814,-346.423 236,-358.837 261.664,-379.816 351.852,-365.837 385,-365.837 385,-365.837 385,-365.837 489.5,-365.837 547.99,-365.837 569.534,-378.405 620,-348.837 633.591,-340.874 643.835,-325.949 650.242,-314.294"/>
<polygon fill="black" stroke="black" points="653.076,-308.879 652.685,-315.447 651.685,-311.537 650.293,-314.195 650.293,-314.195 650.293,-314.195 651.685,-311.537 647.901,-312.942 653.076,-308.879 653.076,-308.879"/>
</g>
<!-- arcade&#45;&gt;fsharp -->
<g id="edge11" class="edge"><title>arcade&#45;&gt;fsharp</title>
<path fill="none" stroke="black" d="M209.167,-238.646C210.821,-219.493 216.521,-179.97 236,-153.837 266.577,-112.814 283.89,-106.191 333,-91.8369 377.639,-78.7894 604.903,-100.625 620,-103.837 624.642,-104.824 629.478,-106.264 634.083,-107.85"/>
<polygon fill="black" stroke="black" points="639.76,-109.912 633.199,-110.401 636.94,-108.888 634.121,-107.863 634.121,-107.863 634.121,-107.863 636.94,-108.888 635.043,-105.326 639.76,-109.912 639.76,-109.912"/>
</g>
<!-- arcade&#45;&gt;installer -->
<g id="edge17" class="edge"><title>arcade&#45;&gt;installer</title>
<path fill="none" stroke="black" d="M208.179,-238.697C207.262,-198.19 206.369,-59.5409 236,-29.8369 283.147,17.4269 318.242,-10.8369 385,-10.8369 385,-10.8369 385,-10.8369 660,-10.8369 718.359,-10.8369 746.976,18.4744 791,-19.8369 808.92,-35.4312 816.336,-106.684 818.876,-140.25"/>
<polygon fill="black" stroke="black" points="819.32,-146.433 816.197,-140.642 819.105,-143.441 818.89,-140.449 818.89,-140.449 818.89,-140.449 819.105,-143.441 821.583,-140.255 819.32,-146.433 819.32,-146.433"/>
</g>
<!-- arcade&#45;&gt;msbuild -->
<g id="edge33" class="edge"><title>arcade&#45;&gt;msbuild</title>
<path fill="none" stroke="black" d="M228.072,-249.488C278.249,-248.645 415.581,-246.645 530,-247.837 536.764,-247.907 544.064,-248.034 550.879,-248.173"/>
<polygon fill="black" stroke="black" points="556.973,-248.304 550.916,-250.875 553.974,-248.24 550.974,-248.175 550.974,-248.175 550.974,-248.175 553.974,-248.24 551.032,-245.476 556.973,-248.304 556.973,-248.304"/>
</g>
<!-- arcade&#45;&gt;roslyn -->
<g id="edge41" class="edge"><title>arcade&#45;&gt;roslyn</title>
<path fill="none" stroke="black" d="M209.17,-260.914C210.81,-277.046 216.471,-306.527 236,-319.837 255.754,-333.3 324.638,-326.282 361.423,-321.338"/>
<polygon fill="black" stroke="black" points="367.469,-320.505 361.894,-323.999 364.497,-320.915 361.525,-321.324 361.525,-321.324 361.525,-321.324 364.497,-320.915 361.157,-318.65 367.469,-320.505 367.469,-320.505"/>
</g>
<!-- arcade&#45;&gt;runtime&#45;portable -->
<g id="edge45" class="edge"><title>arcade&#45;&gt;runtime&#45;portable</title>
<path fill="none" stroke="black" d="M214.932,-260.98C219.751,-268.22 227.042,-277.153 236,-281.837 276.024,-302.766 393.894,-294.156 439,-291.837 439.476,-291.812 439.954,-291.787 440.434,-291.76"/>
<polygon fill="black" stroke="black" points="446.772,-291.342 440.962,-294.431 443.778,-291.539 440.785,-291.737 440.785,-291.737 440.785,-291.737 443.778,-291.539 440.607,-289.042 446.772,-291.342 446.772,-291.342"/>
</g>
<!-- arcade&#45;&gt;runtime -->
<g id="edge50" class="edge"><title>arcade&#45;&gt;runtime</title>
<path fill="none" stroke="black" d="M228.119,-250.54C276.967,-252.291 404.13,-256.849 460.23,-258.859"/>
<polygon fill="black" stroke="black" points="466.391,-259.08 460.298,-261.564 463.393,-258.973 460.395,-258.865 460.395,-258.865 460.395,-258.865 463.393,-258.973 460.492,-256.167 466.391,-259.08 466.391,-259.08"/>
</g>
<!-- arcade&#45;&gt;sdk -->
<g id="edge56" class="edge"><title>arcade&#45;&gt;sdk</title>
<path fill="none" stroke="black" d="M208.417,-238.789C208.401,-202.8 210.423,-89.9251 236,-66.8369 260.606,-44.6259 351.852,-59.8369 385,-59.8369 385,-59.8369 385,-59.8369 580,-59.8369 628.988,-59.8369 653.899,-33.7231 690,-66.8369 707.556,-82.9399 686.321,-99.0739 698,-119.837 704.556,-131.492 716.179,-141.106 726.036,-147.747"/>
<polygon fill="black" stroke="black" points="731.287,-151.125 724.78,-150.15 728.764,-149.502 726.241,-147.879 726.241,-147.879 726.241,-147.879 728.764,-149.502 727.702,-145.608 731.287,-151.125 731.287,-151.125"/>
</g>
<!-- arcade&#45;&gt;aspnet&#45;xdt -->
<g id="edge2" class="edge"><title>arcade&#45;&gt;aspnet&#45;xdt</title>
<path fill="none" stroke="black" d="M209.029,-238.664C210.757,-206.704 217.252,-115.799 236,-93.8369 238.924,-90.4117 242.67,-87.7676 246.733,-85.7267"/>
<polygon fill="black" stroke="black" points="252.425,-83.3009 247.964,-88.1374 249.665,-84.4773 246.905,-85.6536 246.905,-85.6536 246.905,-85.6536 249.665,-84.4773 245.846,-83.1698 252.425,-83.3009 252.425,-83.3009"/>
</g>
<!-- arcade&#45;&gt;clicommandlineparser -->
<g id="edge9" class="edge"><title>arcade&#45;&gt;clicommandlineparser</title>
<path fill="none" stroke="black" d="M208.362,-238.713C208.148,-201.342 209.563,-81.225 236,-55.8369 259.558,-33.2142 295.875,-29.1823 326.757,-30.9431"/>
<polygon fill="black" stroke="black" points="332.855,-31.3687 326.682,-33.6444 329.862,-31.1598 326.87,-30.9509 326.87,-30.9509 326.87,-30.9509 329.862,-31.1598 327.058,-28.2575 332.855,-31.3687 332.855,-31.3687"/>
</g>
<!-- arcade&#45;&gt;command&#45;line&#45;api -->
<g id="edge10" class="edge"><title>arcade&#45;&gt;command&#45;line&#45;api</title>
<path fill="none" stroke="black" d="M209.228,-260.858C210.951,-278.098 216.724,-311.469 236,-330.837 236.092,-330.929 236.184,-331.02 236.276,-331.111"/>
<polygon fill="black" stroke="black" points="240.803,-334.835 234.454,-333.108 238.486,-332.929 236.169,-331.023 236.169,-331.023 236.169,-331.023 238.486,-332.929 237.884,-328.938 240.803,-334.835 240.803,-334.835"/>
</g>
<!-- arcade&#45;&gt;symreader -->
<g id="edge66" class="edge"><title>arcade&#45;&gt;symreader</title>
<path fill="none" stroke="black" d="M228.277,-255.129C233.755,-256.595 239.859,-258.229 245.89,-259.843"/>
<polygon fill="black" stroke="black" points="251.87,-261.443 245.376,-262.5 248.972,-260.667 246.074,-259.892 246.074,-259.892 246.074,-259.892 248.972,-260.667 246.772,-257.284 251.87,-261.443 251.87,-261.443"/>
</g>
<!-- test&#45;templates -->
<g id="node34" class="node"><title>test&#45;templates</title>
<g id="a_node34"><a xlink:title="3">
<path fill="#b4c6e7" stroke="black" stroke-width="2" d="M309.167,-395.837C309.167,-395.837 251.833,-395.837 251.833,-395.837 248.167,-395.837 244.5,-392.17 244.5,-388.504 244.5,-388.504 244.5,-381.17 244.5,-381.17 244.5,-377.504 248.167,-373.837 251.833,-373.837 251.833,-373.837 309.167,-373.837 309.167,-373.837 312.833,-373.837 316.5,-377.504 316.5,-381.17 316.5,-381.17 316.5,-388.504 316.5,-388.504 316.5,-392.17 312.833,-395.837 309.167,-395.837"/>
<text text-anchor="middle" x="280.5" y="-382.037" font-family="Times New Roman,serif" font-size="11.00">test&#45;templates</text>
</a>
</g>
</g>
<!-- arcade&#45;&gt;test&#45;templates -->
<g id="edge69" class="edge"><title>arcade&#45;&gt;test&#45;templates</title>
<path fill="none" stroke="black" d="M207.724,-261.03C206.743,-284.339 207.858,-338.517 236,-369.837 236.954,-370.899 237.988,-371.886 239.084,-372.803"/>
<polygon fill="black" stroke="black" points="244.247,-376.393 237.779,-375.184 241.784,-374.68 239.32,-372.968 239.32,-372.968 239.32,-372.968 241.784,-374.68 240.862,-370.751 244.247,-376.393 244.247,-376.393"/>
</g>
<!-- cssparser -->
<g id="node27" class="node"><title>cssparser</title>
<g id="a_node27"><a xlink:title="3">
<path fill="#b4c6e7" stroke="black" stroke-width="2" d="M598.167,-346.837C598.167,-346.837 559.833,-346.837 559.833,-346.837 556.167,-346.837 552.5,-343.17 552.5,-339.504 552.5,-339.504 552.5,-332.17 552.5,-332.17 552.5,-328.504 556.167,-324.837 559.833,-324.837 559.833,-324.837 598.167,-324.837 598.167,-324.837 601.833,-324.837 605.5,-328.504 605.5,-332.17 605.5,-332.17 605.5,-339.504 605.5,-339.504 605.5,-343.17 601.833,-346.837 598.167,-346.837"/>
<text text-anchor="middle" x="579" y="-333.037" font-family="Times New Roman,serif" font-size="11.00">cssparser</text>
</a>
</g>
</g>
<!-- cssparser&#45;&gt;aspnetcore -->
<g id="edge4" class="edge"><title>cssparser&#45;&gt;aspnetcore</title>
<path fill="none" stroke="black" d="M605.691,-327.01C610.513,-325.127 615.462,-323.037 620,-320.837 625.198,-318.316 630.607,-315.302 635.659,-312.298"/>
<polygon fill="black" stroke="black" points="640.974,-309.067 637.25,-314.491 638.411,-310.625 635.847,-312.184 635.847,-312.184 635.847,-312.184 638.411,-310.625 634.445,-309.876 640.974,-309.067 640.974,-309.067"/>
</g>
<!-- humanizer -->
<g id="node28" class="node"><title>humanizer</title>
<g id="a_node28"><a xlink:title="3">
<path fill="#b4c6e7" stroke="black" stroke-width="2" d="M301.167,-318.837C301.167,-318.837 259.833,-318.837 259.833,-318.837 256.167,-318.837 252.5,-315.17 252.5,-311.504 252.5,-311.504 252.5,-304.17 252.5,-304.17 252.5,-300.504 256.167,-296.837 259.833,-296.837 259.833,-296.837 301.167,-296.837 301.167,-296.837 304.833,-296.837 308.5,-300.504 308.5,-304.17 308.5,-304.17 308.5,-311.504 308.5,-311.504 308.5,-315.17 304.833,-318.837 301.167,-318.837"/>
<text text-anchor="middle" x="280.5" y="-305.037" font-family="Times New Roman,serif" font-size="11.00">humanizer</text>
</a>
</g>
</g>
<!-- humanizer&#45;&gt;roslyn -->
<g id="edge43" class="edge"><title>humanizer&#45;&gt;roslyn</title>
<path fill="none" stroke="black" d="M308.693,-310.464C324.939,-312.034 345.389,-314.01 361.028,-315.521"/>
<polygon fill="black" stroke="black" points="367.41,-316.137 361.178,-318.248 364.424,-315.849 361.437,-315.56 361.437,-315.56 361.437,-315.56 364.424,-315.849 361.697,-312.873 367.41,-316.137 367.41,-316.137"/>
</g>
<!-- netcorecli&#45;fsc -->
<g id="node29" class="node"><title>netcorecli&#45;fsc</title>
<g id="a_node29"><a xlink:title="3">
<path fill="#b4c6e7" stroke="black" stroke-width="2" d="M772.667,-79.8369C772.667,-79.8369 716.333,-79.8369 716.333,-79.8369 712.667,-79.8369 709,-76.1702 709,-72.5035 709,-72.5035 709,-65.1702 709,-65.1702 709,-61.5035 712.667,-57.8369 716.333,-57.8369 716.333,-57.8369 772.667,-57.8369 772.667,-57.8369 776.333,-57.8369 780,-61.5035 780,-65.1702 780,-65.1702 780,-72.5035 780,-72.5035 780,-76.1702 776.333,-79.8369 772.667,-79.8369"/>
<text text-anchor="middle" x="744.5" y="-66.0369" font-family="Times New Roman,serif" font-size="11.00">netcorecli&#45;fsc</text>
</a>
</g>
</g>
<!-- netcorecli&#45;fsc&#45;&gt;installer -->
<g id="edge22" class="edge"><title>netcorecli&#45;fsc&#45;&gt;installer</title>
<path fill="none" stroke="black" d="M780.146,-76.568C784.116,-78.4798 787.859,-80.8639 791,-83.8369 806.925,-98.9088 814.254,-123.782 817.522,-140.481"/>
<polygon fill="black" stroke="black" points="818.62,-146.657 814.911,-141.222 818.095,-143.704 817.57,-140.75 817.57,-140.75 817.57,-140.75 818.095,-143.704 820.228,-140.278 818.62,-146.657 818.62,-146.657"/>
</g>
<!-- newtonsoft&#45;json -->
<g id="node30" class="node"><title>newtonsoft&#45;json</title>
<g id="a_node30"><a xlink:title="3">
<path fill="#b4c6e7" stroke="black" stroke-width="2" d="M418.667,-152.837C418.667,-152.837 353.333,-152.837 353.333,-152.837 349.667,-152.837 346,-149.17 346,-145.504 346,-145.504 346,-138.17 346,-138.17 346,-134.504 349.667,-130.837 353.333,-130.837 353.333,-130.837 418.667,-130.837 418.667,-130.837 422.333,-130.837 426,-134.504 426,-138.17 426,-138.17 426,-145.504 426,-145.504 426,-149.17 422.333,-152.837 418.667,-152.837"/>
<text text-anchor="middle" x="386" y="-139.037" font-family="Times New Roman,serif" font-size="11.00">newtonsoft&#45;json</text>
</a>
</g>
</g>
<!-- newtonsoft&#45;json&#45;&gt;fsharp -->
<g id="edge14" class="edge"><title>newtonsoft&#45;json&#45;&gt;fsharp</title>
<path fill="none" stroke="black" d="M426.318,-135.491C433.199,-134.509 440.299,-133.576 447,-132.837 514.288,-125.41 594.074,-120.901 633.471,-118.959"/>
<polygon fill="black" stroke="black" points="639.893,-118.648 634.031,-121.635 636.897,-118.793 633.9,-118.938 633.9,-118.938 633.9,-118.938 636.897,-118.793 633.769,-116.242 639.893,-118.648 639.893,-118.648"/>
</g>
<!-- newtonsoft&#45;json&#45;&gt;installer -->
<g id="edge23" class="edge"><title>newtonsoft&#45;json&#45;&gt;installer</title>
<path fill="none" stroke="black" d="M426.133,-140.214C464.735,-138.754 525.424,-136.837 578,-136.837 578,-136.837 578,-136.837 660,-136.837 718.305,-136.837 734.53,-129.323 791,-143.837 791.88,-144.063 792.765,-144.317 793.651,-144.594"/>
<polygon fill="black" stroke="black" points="799.467,-146.714 792.906,-147.196 796.649,-145.686 793.83,-144.659 793.83,-144.659 793.83,-144.659 796.649,-145.686 794.755,-142.122 799.467,-146.714 799.467,-146.714"/>
</g>
<!-- newtonsoft&#45;json&#45;&gt;nuget&#45;client -->
<g id="edge36" class="edge"><title>newtonsoft&#45;json&#45;&gt;nuget&#45;client</title>
<path fill="none" stroke="black" d="M424.667,-130.755C432.048,-128.699 439.749,-126.635 447,-124.837 507.984,-109.712 579.646,-95.0866 621.806,-86.8006"/>
<polygon fill="black" stroke="black" points="627.807,-85.6248 622.438,-89.4281 624.863,-86.2016 621.919,-86.7785 621.919,-86.7785 621.919,-86.7785 624.863,-86.2016 621.4,-84.1288 627.807,-85.6248 627.807,-85.6248"/>
</g>
<!-- newtonsoft&#45;json&#45;&gt;runtime&#45;portable -->
<g id="edge47" class="edge"><title>newtonsoft&#45;json&#45;&gt;runtime&#45;portable</title>
<path fill="none" stroke="black" d="M422.934,-152.934C429.202,-156.426 434.988,-160.964 439,-166.837 451.272,-184.801 435.463,-243.967 447.45,-270.355"/>
<polygon fill="black" stroke="black" points="450.67,-275.748 445.276,-271.981 449.132,-273.172 447.594,-270.597 447.594,-270.597 447.594,-270.597 449.132,-273.172 449.912,-269.212 450.67,-275.748 450.67,-275.748"/>
</g>
<!-- newtonsoft&#45;json&#45;&gt;runtime -->
<g id="edge53" class="edge"><title>newtonsoft&#45;json&#45;&gt;runtime</title>
<path fill="none" stroke="black" d="M422.113,-152.847C428.604,-156.363 434.686,-160.933 439,-166.837 454.093,-187.492 434.92,-201.287 447,-223.837 451.331,-231.922 458.238,-239.071 465.13,-244.823"/>
<polygon fill="black" stroke="black" points="469.868,-248.577 463.488,-246.967 467.516,-246.714 465.165,-244.851 465.165,-244.851 465.165,-244.851 467.516,-246.714 466.842,-242.734 469.868,-248.577 469.868,-248.577"/>
</g>
<!-- newtonsoft&#45;json&#45;&gt;sdk -->
<g id="edge60" class="edge"><title>newtonsoft&#45;json&#45;&gt;sdk</title>
<path fill="none" stroke="black" d="M426.172,-143.595C502.822,-147.035 669.977,-154.537 725.308,-157.02"/>
<polygon fill="black" stroke="black" points="731.488,-157.298 725.372,-159.726 728.491,-157.163 725.494,-157.029 725.494,-157.029 725.494,-157.029 728.491,-157.163 725.615,-154.331 731.488,-157.298 731.488,-157.298"/>
</g>
<!-- newtonsoft&#45;json&#45;&gt;templating -->
<g id="edge68" class="edge"><title>newtonsoft&#45;json&#45;&gt;templating</title>
<path fill="none" stroke="black" d="M398.139,-130.642C416.099,-112.593 451.503,-77.0129 471.944,-56.4704"/>
<polygon fill="black" stroke="black" points="476.311,-52.0817 473.993,-58.2393 474.195,-54.2083 472.079,-56.3349 472.079,-56.3349 472.079,-56.3349 474.195,-54.2083 470.165,-54.4304 476.311,-52.0817 476.311,-52.0817"/>
</g>
<!-- newtonsoft&#45;json&#45;&gt;vstest -->
<g id="edge72" class="edge"><title>newtonsoft&#45;json&#45;&gt;vstest</title>
<path fill="none" stroke="black" d="M423.375,-152.883C462.095,-164.641 522.193,-182.89 554.893,-192.82"/>
<polygon fill="black" stroke="black" points="560.668,-194.574 554.143,-195.414 557.798,-193.702 554.927,-192.83 554.927,-192.83 554.927,-192.83 557.798,-193.702 555.712,-190.247 560.668,-194.574 560.668,-194.574"/>
</g>
<!-- newtonsoft&#45;json901 -->
<g id="node31" class="node"><title>newtonsoft&#45;json901</title>
<g id="a_node31"><a xlink:title="3">
<path fill="#b4c6e7" stroke="black" stroke-width="2" d="M426.667,-191.837C426.667,-191.837 345.333,-191.837 345.333,-191.837 341.667,-191.837 338,-188.17 338,-184.504 338,-184.504 338,-177.17 338,-177.17 338,-173.504 341.667,-169.837 345.333,-169.837 345.333,-169.837 426.667,-169.837 426.667,-169.837 430.333,-169.837 434,-173.504 434,-177.17 434,-177.17 434,-184.504 434,-184.504 434,-188.17 430.333,-191.837 426.667,-191.837"/>
<text text-anchor="middle" x="386" y="-178.037" font-family="Times New Roman,serif" font-size="11.00">newtonsoft&#45;json901</text>
</a>
</g>
</g>
<!-- newtonsoft&#45;json901&#45;&gt;fsharp -->
<g id="edge13" class="edge"><title>newtonsoft&#45;json901&#45;&gt;fsharp</title>
<path fill="none" stroke="black" d="M430.556,-169.822C436.086,-168.46 441.672,-167.103 447,-165.837 523.682,-147.611 543.206,-144.586 620,-126.837 624.451,-125.808 629.191,-124.698 633.759,-123.619"/>
<polygon fill="black" stroke="black" points="639.84,-122.18 634.624,-126.19 636.921,-122.871 634.002,-123.562 634.002,-123.562 634.002,-123.562 636.921,-122.871 633.38,-120.935 639.84,-122.18 639.84,-122.18"/>
</g>
<!-- newtonsoft&#45;json901&#45;&gt;installer -->
<g id="edge24" class="edge"><title>newtonsoft&#45;json901&#45;&gt;installer</title>
<path fill="none" stroke="black" d="M434.224,-181.996C525.823,-183.862 724.46,-185.932 791,-170.837 791.646,-170.69 792.295,-170.529 792.945,-170.355"/>
<polygon fill="black" stroke="black" points="798.791,-168.477 793.904,-172.882 795.935,-169.394 793.079,-170.312 793.079,-170.312 793.079,-170.312 795.935,-169.394 792.253,-167.741 798.791,-168.477 798.791,-168.477"/>
</g>
<!-- newtonsoft&#45;json901&#45;&gt;runtime&#45;portable -->
<g id="edge48" class="edge"><title>newtonsoft&#45;json901&#45;&gt;runtime&#45;portable</title>
<path fill="none" stroke="black" d="M391.555,-192.004C399.843,-211.004 419.143,-249.708 447,-271.837 447.11,-271.924 447.221,-272.011 447.332,-272.098"/>
<polygon fill="black" stroke="black" points="452.656,-275.678 446.171,-274.57 450.167,-274.004 447.677,-272.33 447.677,-272.33 447.677,-272.33 450.167,-274.004 449.184,-270.089 452.656,-275.678 452.656,-275.678"/>
</g>
<!-- newtonsoft&#45;json901&#45;&gt;runtime -->
<g id="edge54" class="edge"><title>newtonsoft&#45;json901&#45;&gt;runtime</title>
<path fill="none" stroke="black" d="M401.399,-192.156C419.112,-206.079 449.225,-229.75 468.734,-245.085"/>
<polygon fill="black" stroke="black" points="473.452,-248.794 467.066,-247.208 471.093,-246.94 468.734,-245.086 468.734,-245.086 468.734,-245.086 471.093,-246.94 470.403,-242.963 473.452,-248.794 473.452,-248.794"/>
</g>
<!-- newtonsoft&#45;json901&#45;&gt;sdk -->
<g id="edge61" class="edge"><title>newtonsoft&#45;json901&#45;&gt;sdk</title>
<path fill="none" stroke="black" d="M434.164,-177.681C438.503,-177.394 442.833,-177.109 447,-176.837 552.447,-169.943 679.005,-161.915 725.357,-158.983"/>
<polygon fill="black" stroke="black" points="731.355,-158.604 725.537,-161.677 728.361,-158.793 725.367,-158.983 725.367,-158.983 725.367,-158.983 728.361,-158.793 725.196,-156.288 731.355,-158.604 731.355,-158.604"/>
</g>
<!-- source&#45;build&#45;reference&#45;packages -->
<g id="node32" class="node"><title>source&#45;build&#45;reference&#45;packages</title>
<g id="a_node32"><a xlink:title="3">
<path fill="#b4c6e7" stroke="black" stroke-width="2" d="M163.667,-287.837C163.667,-287.837 23.3333,-287.837 23.3333,-287.837 19.6667,-287.837 16,-284.17 16,-280.504 16,-280.504 16,-273.17 16,-273.17 16,-269.504 19.6667,-265.837 23.3333,-265.837 23.3333,-265.837 163.667,-265.837 163.667,-265.837 167.333,-265.837 171,-269.504 171,-273.17 171,-273.17 171,-280.504 171,-280.504 171,-284.17 167.333,-287.837 163.667,-287.837"/>
<text text-anchor="middle" x="93.5" y="-274.037" font-family="Times New Roman,serif" font-size="11.00">source&#45;build&#45;reference&#45;packages</text>
</a>
</g>
</g>
<!-- sourcelink -->
<g id="node33" class="node"><title>sourcelink</title>
<g id="a_node33"><a xlink:title="3">
<path fill="#b4c6e7" stroke="black" stroke-width="2" d="M113.667,-260.837C113.667,-260.837 73.3333,-260.837 73.3333,-260.837 69.6667,-260.837 66,-257.17 66,-253.504 66,-253.504 66,-246.17 66,-246.17 66,-242.504 69.6667,-238.837 73.3333,-238.837 73.3333,-238.837 113.667,-238.837 113.667,-238.837 117.333,-238.837 121,-242.504 121,-246.17 121,-246.17 121,-253.504 121,-253.504 121,-257.17 117.333,-260.837 113.667,-260.837"/>
<text text-anchor="middle" x="93.5" y="-247.037" font-family="Times New Roman,serif" font-size="11.00">sourcelink</text>
</a>
</g>
</g>
<!-- sourcelink&#45;&gt;arcade -->
<g id="edge1" class="edge"><title>sourcelink&#45;&gt;arcade</title>
<path fill="none" stroke="black" d="M121.042,-249.837C139.017,-249.837 162.653,-249.837 180.51,-249.837"/>
<polygon fill="black" stroke="black" points="186.807,-249.837 180.807,-252.537 183.807,-249.837 180.807,-249.837 180.807,-249.837 180.807,-249.837 183.807,-249.837 180.807,-247.137 186.807,-249.837 186.807,-249.837"/>
</g>
<!-- test&#45;templates&#45;&gt;installer -->
<g id="edge30" class="edge"><title>test&#45;templates&#45;&gt;installer</title>
<path fill="none" stroke="black" d="M316.854,-383.733C357.884,-382.549 427.584,-380.837 487.5,-380.837 487.5,-380.837 487.5,-380.837 660,-380.837 723.146,-380.837 751.683,-375.249 791,-325.837 809.466,-302.629 816.793,-212.801 819.104,-174.881"/>
<polygon fill="black" stroke="black" points="819.456,-168.844 821.802,-174.991 819.281,-171.839 819.106,-174.834 819.106,-174.834 819.106,-174.834 819.281,-171.839 816.411,-174.676 819.456,-168.844 819.456,-168.844"/>
</g>
<!-- s4 -->
<g id="node35" class="node"><title>s4</title>
<g id="a_node35"><a xlink:title="4">
<polygon fill="#cfafe7" stroke="black" stroke-width="2" points="171,-87.8369 16,-87.8369 16,-65.8369 171,-65.8369 171,-87.8369"/>
<text text-anchor="middle" x="93.5" y="-74.0369" font-family="Times New Roman,serif" font-size="11.00">#4 &#45; Prebuilt regressions blocked</text>
</a>
</g>
</g>
</g>
</svg>
