<?xml version="1.0" encoding="UTF-8" standalone="no"?>
<!DOCTYPE svg PUBLIC "-//W3C//DTD SVG 1.1//EN"
 "http://www.w3.org/Graphics/SVG/1.1/DTD/svg11.dtd">
<!-- Generated by graphviz version 2.38.0 (20140413.2041)
 -->
<!-- Title: %441 Pages: 1 -->
<svg width="851pt" height="415pt"
 viewBox="0.00 0.00 851.00 415.25" xmlns="http://www.w3.org/2000/svg" xmlns:xlink="http://www.w3.org/1999/xlink">
<g id="graph0" class="graph" transform="scale(1 1) rotate(0) translate(4 411.249)">
<title>%441</title>
<polygon fill="white" stroke="none" points="-4,4 -4,-411.249 847,-411.249 847,4 -4,4"/>
<g id="clust1" class="cluster"><title>clusterLegend</title>
<polygon fill="#ebebeb" stroke="#ebebeb" points="8,-43.2486 8,-216.249 179,-216.249 179,-43.2486 8,-43.2486"/>
</g>
<!-- pre0 -->
<g id="node1" class="node"><title>pre0</title>
<g id="a_node1"><a xlink:title="Built">
<path fill="#f5f5f5" stroke="black" stroke-dasharray="1,5" d="M115.167,-208.249C115.167,-208.249 71.8333,-208.249 71.8333,-208.249 68.1667,-208.249 64.5,-204.582 64.5,-200.915 64.5,-200.915 64.5,-193.582 64.5,-193.582 64.5,-189.915 68.1667,-186.249 71.8333,-186.249 71.8333,-186.249 115.167,-186.249 115.167,-186.249 118.833,-186.249 122.5,-189.915 122.5,-193.582 122.5,-193.582 122.5,-200.915 122.5,-200.915 122.5,-204.582 118.833,-208.249 115.167,-208.249"/>
<text text-anchor="middle" x="93.5" y="-194.449" font-family="Times New Roman,serif" font-size="11.00">Built in 5.0</text>
</a>
</g>
</g>
<!-- aspnetcore -->
<g id="node2" class="node"><title>aspnetcore</title>
<g id="a_node2"><a xlink:title="Built">
<path fill="#f5f5f5" stroke="black" stroke-dasharray="1,5" d="M681.167,-354.249C681.167,-354.249 636.833,-354.249 636.833,-354.249 633.167,-354.249 629.5,-350.582 629.5,-346.915 629.5,-346.915 629.5,-339.582 629.5,-339.582 629.5,-335.915 633.167,-332.249 636.833,-332.249 636.833,-332.249 681.167,-332.249 681.167,-332.249 684.833,-332.249 688.5,-335.915 688.5,-339.582 688.5,-339.582 688.5,-346.915 688.5,-346.915 688.5,-350.582 684.833,-354.249 681.167,-354.249"/>
<text text-anchor="middle" x="659" y="-340.449" font-family="Times New Roman,serif" font-size="11.00">aspnetcore</text>
</a>
</g>
</g>
<!-- installer -->
<g id="node4" class="node"><title>installer</title>
<g id="a_node4"><a xlink:title="Built">
<path fill="#f5f5f5" stroke="black" stroke-dasharray="1,5" d="M835.667,-159.249C835.667,-159.249 806.333,-159.249 806.333,-159.249 802.667,-159.249 799,-155.582 799,-151.915 799,-151.915 799,-144.582 799,-144.582 799,-140.915 802.667,-137.249 806.333,-137.249 806.333,-137.249 835.667,-137.249 835.667,-137.249 839.333,-137.249 843,-140.915 843,-144.582 843,-144.582 843,-151.915 843,-151.915 843,-155.582 839.333,-159.249 835.667,-159.249"/>
<text text-anchor="middle" x="821" y="-145.449" font-family="Times New Roman,serif" font-size="11.00">installer</text>
</a>
</g>
</g>
<!-- aspnetcore&#45;&gt;installer -->
<g id="edge18" class="edge"><title>aspnetcore&#45;&gt;installer</title>
<path fill="none" stroke="black" d="M688.622,-348.953C718.288,-353.056 764.019,-354.023 791,-328.249 814.199,-306.087 818.841,-206.157 819.769,-165.517"/>
<polygon fill="black" stroke="black" points="819.892,-159.305 822.473,-165.357 819.833,-162.304 819.773,-165.303 819.773,-165.303 819.773,-165.303 819.833,-162.304 817.074,-165.25 819.892,-159.305 819.892,-159.305"/>
</g>
<!-- fsharp -->
<g id="node3" class="node"><title>fsharp</title>
<g id="a_node3"><a xlink:title="Built">
<path fill="#f5f5f5" stroke="black" stroke-dasharray="1,5" d="M670.667,-216.249C670.667,-216.249 647.333,-216.249 647.333,-216.249 643.667,-216.249 640,-212.582 640,-208.915 640,-208.915 640,-201.582 640,-201.582 640,-197.915 643.667,-194.249 647.333,-194.249 647.333,-194.249 670.667,-194.249 670.667,-194.249 674.333,-194.249 678,-197.915 678,-201.582 678,-201.582 678,-208.915 678,-208.915 678,-212.582 674.333,-216.249 670.667,-216.249"/>
<text text-anchor="middle" x="659" y="-202.449" font-family="Times New Roman,serif" font-size="11.00">fsharp</text>
</a>
</g>
</g>
<!-- fsharp&#45;&gt;installer -->
<g id="edge20" class="edge"><title>fsharp&#45;&gt;installer</title>
<path fill="none" stroke="black" d="M678.399,-207.22C705.166,-209.176 755.514,-209.34 791,-188.249 800.106,-182.836 807.175,-173.337 812.054,-164.953"/>
<polygon fill="black" stroke="black" points="815.079,-159.391 814.584,-165.952 813.646,-162.027 812.212,-164.662 812.212,-164.662 812.212,-164.662 813.646,-162.027 809.84,-163.372 815.079,-159.391 815.079,-159.391"/>
</g>
<!-- sdk -->
<g id="node11" class="node"><title>sdk</title>
<g id="a_node11"><a xlink:title="Built">
<path fill="#f5f5f5" stroke="black" stroke-dasharray="1,5" d="M750.167,-186.249C750.167,-186.249 738.833,-186.249 738.833,-186.249 735.167,-186.249 731.5,-182.582 731.5,-178.915 731.5,-178.915 731.5,-171.582 731.5,-171.582 731.5,-167.915 735.167,-164.249 738.833,-164.249 738.833,-164.249 750.167,-164.249 750.167,-164.249 753.833,-164.249 757.5,-167.915 757.5,-171.582 757.5,-171.582 757.5,-178.915 757.5,-178.915 757.5,-182.582 753.833,-186.249 750.167,-186.249"/>
<text text-anchor="middle" x="744.5" y="-172.449" font-family="Times New Roman,serif" font-size="11.00">sdk</text>
</a>
</g>
</g>
<!-- fsharp&#45;&gt;sdk -->
<g id="edge65" class="edge"><title>fsharp&#45;&gt;sdk</title>
<path fill="none" stroke="black" d="M678.118,-198.739C692.094,-193.718 711.338,-186.804 725.327,-181.778"/>
<polygon fill="black" stroke="black" points="731.347,-179.615 726.614,-184.185 728.524,-180.629 725.701,-181.644 725.701,-181.644 725.701,-181.644 728.524,-180.629 724.788,-179.103 731.347,-179.615 731.347,-179.615"/>
</g>
<!-- msbuild -->
<g id="node5" class="node"><title>msbuild</title>
<g id="a_node5"><a xlink:title="Built">
<path fill="#f5f5f5" stroke="black" stroke-dasharray="1,5" d="M593.667,-260.249C593.667,-260.249 564.333,-260.249 564.333,-260.249 560.667,-260.249 557,-256.582 557,-252.915 557,-252.915 557,-245.582 557,-245.582 557,-241.915 560.667,-238.249 564.333,-238.249 564.333,-238.249 593.667,-238.249 593.667,-238.249 597.333,-238.249 601,-241.915 601,-245.582 601,-245.582 601,-252.915 601,-252.915 601,-256.582 597.333,-260.249 593.667,-260.249"/>
<text text-anchor="middle" x="579" y="-246.449" font-family="Times New Roman,serif" font-size="11.00">msbuild</text>
</a>
</g>
</g>
<!-- msbuild&#45;&gt;aspnetcore -->
<g id="edge6" class="edge"><title>msbuild&#45;&gt;aspnetcore</title>
<path fill="none" stroke="black" d="M601.042,-259.075C607.653,-262.855 614.622,-267.634 620,-273.249 634.862,-288.765 645.681,-311.232 651.891,-326.497"/>
<polygon fill="black" stroke="black" points="654.118,-332.162 649.41,-327.567 653.021,-329.37 651.923,-326.579 651.923,-326.579 651.923,-326.579 653.021,-329.37 654.435,-325.59 654.118,-332.162 654.118,-332.162"/>
</g>
<!-- msbuild&#45;&gt;fsharp -->
<g id="edge12" class="edge"><title>msbuild&#45;&gt;fsharp</title>
<path fill="none" stroke="black" d="M599.683,-238.146C610.31,-232.151 623.496,-224.712 634.641,-218.426"/>
<polygon fill="black" stroke="black" points="639.928,-215.443 636.028,-220.743 637.315,-216.917 634.702,-218.391 634.702,-218.391 634.702,-218.391 637.315,-216.917 633.375,-216.04 639.928,-215.443 639.928,-215.443"/>
</g>
<!-- msbuild&#45;&gt;installer -->
<g id="edge21" class="edge"><title>msbuild&#45;&gt;installer</title>
<path fill="none" stroke="black" d="M601.314,-250.899C643.208,-252.924 736.9,-251.254 791,-202.249 802.014,-192.271 809.642,-177.109 814.3,-165.389"/>
<polygon fill="black" stroke="black" points="816.467,-159.619 816.885,-166.185 815.412,-162.427 814.357,-165.236 814.357,-165.236 814.357,-165.236 815.412,-162.427 811.83,-164.286 816.467,-159.619 816.467,-159.619"/>
</g>
<!-- nuget&#45;client -->
<g id="node6" class="node"><title>nuget&#45;client</title>
<g id="a_node6"><a xlink:title="Built">
<path fill="#f5f5f5" stroke="black" stroke-dasharray="1,5" d="M682.667,-80.2486C682.667,-80.2486 635.333,-80.2486 635.333,-80.2486 631.667,-80.2486 628,-76.5819 628,-72.9153 628,-72.9153 628,-65.5819 628,-65.5819 628,-61.9153 631.667,-58.2486 635.333,-58.2486 635.333,-58.2486 682.667,-58.2486 682.667,-58.2486 686.333,-58.2486 690,-61.9153 690,-65.5819 690,-65.5819 690,-72.9153 690,-72.9153 690,-76.5819 686.333,-80.2486 682.667,-80.2486"/>
<text text-anchor="middle" x="659" y="-66.4486" font-family="Times New Roman,serif" font-size="11.00">nuget&#45;client</text>
</a>
</g>
</g>
<!-- msbuild&#45;&gt;nuget&#45;client -->
<g id="edge37" class="edge"><title>msbuild&#45;&gt;nuget&#45;client</title>
<path fill="none" stroke="black" d="M584.879,-237.989C598.121,-207.431 634.795,-122.798 650.598,-86.3299"/>
<polygon fill="black" stroke="black" points="653.123,-80.5041 653.214,-87.083 651.93,-83.2568 650.737,-86.0095 650.737,-86.0095 650.737,-86.0095 651.93,-83.2568 648.259,-84.9359 653.123,-80.5041 653.123,-80.5041"/>
</g>
<!-- msbuild&#45;&gt;sdk -->
<g id="edge59" class="edge"><title>msbuild&#45;&gt;sdk</title>
<path fill="none" stroke="black" d="M601.116,-248.086C628.629,-246.28 674.994,-242.154 690,-234.249 708.575,-224.462 723.937,-205.528 733.363,-191.741"/>
<polygon fill="black" stroke="black" points="736.796,-186.556 735.735,-193.05 735.14,-189.058 733.483,-191.559 733.483,-191.559 733.483,-191.559 735.14,-189.058 731.232,-190.068 736.796,-186.556 736.796,-186.556"/>
</g>
<!-- nuget&#45;client&#45;&gt;installer -->
<g id="edge25" class="edge"><title>nuget&#45;client&#45;&gt;installer</title>
<path fill="none" stroke="black" d="M690.231,-59.7846C718.845,-52.8014 761.67,-47.6833 791,-68.2486 811.038,-82.2987 817.286,-111.664 819.201,-130.64"/>
<polygon fill="black" stroke="black" points="819.727,-137.114 816.55,-131.353 819.484,-134.124 819.241,-131.134 819.241,-131.134 819.241,-131.134 819.484,-134.124 821.932,-130.915 819.727,-137.114 819.727,-137.114"/>
</g>
<!-- nuget&#45;client&#45;&gt;sdk -->
<g id="edge62" class="edge"><title>nuget&#45;client&#45;&gt;sdk</title>
<path fill="none" stroke="black" d="M668.836,-80.5013C675.212,-88.937 683.76,-100.929 690,-112.249 694.424,-120.272 692.824,-123.688 698,-131.249 705.929,-142.831 717.274,-153.809 726.651,-161.903"/>
<polygon fill="black" stroke="black" points="731.347,-165.86 725.019,-164.058 729.053,-163.927 726.759,-161.994 726.759,-161.994 726.759,-161.994 729.053,-163.927 728.499,-159.929 731.347,-165.86 731.347,-165.86"/>
</g>
<!-- roslyn&#45;analyzers -->
<g id="node7" class="node"><title>roslyn&#45;analyzers</title>
<g id="a_node7"><a xlink:title="Built">
<path fill="#f5f5f5" stroke="black" stroke-dasharray="1,5" d="M612.667,-298.249C612.667,-298.249 545.333,-298.249 545.333,-298.249 541.667,-298.249 538,-294.582 538,-290.915 538,-290.915 538,-283.582 538,-283.582 538,-279.915 541.667,-276.249 545.333,-276.249 545.333,-276.249 612.667,-276.249 612.667,-276.249 616.333,-276.249 620,-279.915 620,-283.582 620,-283.582 620,-290.915 620,-290.915 620,-294.582 616.333,-298.249 612.667,-298.249"/>
<text text-anchor="middle" x="579" y="-284.449" font-family="Times New Roman,serif" font-size="11.00">roslyn&#45;analyzers</text>
</a>
</g>
</g>
<!-- roslyn&#45;analyzers&#45;&gt;aspnetcore -->
<g id="edge8" class="edge"><title>roslyn&#45;analyzers&#45;&gt;aspnetcore</title>
<path fill="none" stroke="black" d="M597.758,-298.296C604.782,-302.793 612.866,-308.131 620,-313.249 626.509,-317.919 633.439,-323.27 639.574,-328.148"/>
<polygon fill="black" stroke="black" points="644.514,-332.108 638.144,-330.461 642.173,-330.231 639.833,-328.355 639.833,-328.355 639.833,-328.355 642.173,-330.231 641.522,-326.248 644.514,-332.108 644.514,-332.108"/>
</g>
<!-- roslyn&#45;analyzers&#45;&gt;sdk -->
<g id="edge63" class="edge"><title>roslyn&#45;analyzers&#45;&gt;sdk</title>
<path fill="none" stroke="black" d="M620.018,-277.293C642.123,-270.461 669.225,-259.779 690,-244.249 709.139,-229.941 724.993,-207.09 734.351,-191.643"/>
<polygon fill="black" stroke="black" points="737.499,-186.316 736.771,-192.855 735.973,-188.899 734.447,-191.482 734.447,-191.482 734.447,-191.482 735.973,-188.899 732.122,-190.108 737.499,-186.316 737.499,-186.316"/>
</g>
<!-- roslyn -->
<g id="node8" class="node"><title>roslyn</title>
<g id="a_node8"><a xlink:title="Built">
<path fill="#f5f5f5" stroke="black" stroke-dasharray="1,5" d="M397.167,-339.249C397.167,-339.249 374.833,-339.249 374.833,-339.249 371.167,-339.249 367.5,-335.582 367.5,-331.915 367.5,-331.915 367.5,-324.582 367.5,-324.582 367.5,-320.915 371.167,-317.249 374.833,-317.249 374.833,-317.249 397.167,-317.249 397.167,-317.249 400.833,-317.249 404.5,-320.915 404.5,-324.582 404.5,-324.582 404.5,-331.915 404.5,-331.915 404.5,-335.582 400.833,-339.249 397.167,-339.249"/>
<text text-anchor="middle" x="386" y="-325.449" font-family="Times New Roman,serif" font-size="11.00">roslyn</text>
</a>
</g>
</g>
<!-- roslyn&#45;&gt;aspnetcore -->
<g id="edge7" class="edge"><title>roslyn&#45;&gt;aspnetcore</title>
<path fill="none" stroke="black" d="M404.586,-329.488C416.543,-330.315 432.723,-331.401 447,-332.249 508.996,-335.931 581.28,-339.554 623.126,-341.585"/>
<polygon fill="black" stroke="black" points="629.325,-341.886 623.201,-344.292 626.328,-341.74 623.332,-341.595 623.332,-341.595 623.332,-341.595 626.328,-341.74 623.462,-338.898 629.325,-341.886 629.325,-341.886"/>
</g>
<!-- roslyn&#45;&gt;installer -->
<g id="edge26" class="edge"><title>roslyn&#45;&gt;installer</title>
<path fill="none" stroke="black" d="M404.934,-328.739C479.399,-330.603 761.682,-335.915 791,-310.249 812.44,-291.479 818.075,-203.613 819.519,-165.717"/>
<polygon fill="black" stroke="black" points="819.729,-159.665 822.219,-165.756 819.625,-162.663 819.52,-165.662 819.52,-165.662 819.52,-165.662 819.625,-162.663 816.822,-165.568 819.729,-159.665 819.729,-159.665"/>
</g>
<!-- roslyn&#45;&gt;msbuild -->
<g id="edge35" class="edge"><title>roslyn&#45;&gt;msbuild</title>
<path fill="none" stroke="black" d="M404.693,-319.232C416.423,-313.594 432.305,-306.602 447,-302.249 482.869,-291.623 499.639,-310.106 530,-288.249 536.132,-283.834 532.794,-278.724 538,-273.249 541.934,-269.111 546.735,-265.432 551.627,-262.273"/>
<polygon fill="black" stroke="black" points="556.934,-259.052 553.206,-264.473 554.369,-260.608 551.805,-262.165 551.805,-262.165 551.805,-262.165 554.369,-260.608 550.404,-259.857 556.934,-259.052 556.934,-259.052"/>
</g>
<!-- roslyn&#45;&gt;roslyn&#45;analyzers -->
<g id="edge40" class="edge"><title>roslyn&#45;&gt;roslyn&#45;analyzers</title>
<path fill="none" stroke="black" d="M404.666,-324.931C431.727,-319.789 485.033,-309.424 530,-299.249 530.649,-299.102 531.303,-298.953 531.961,-298.802"/>
<polygon fill="black" stroke="black" points="537.96,-297.401 532.731,-301.395 535.038,-298.083 532.117,-298.765 532.117,-298.765 532.117,-298.765 535.038,-298.083 531.503,-296.136 537.96,-297.401 537.96,-297.401"/>
</g>
<!-- runtime&#45;portable -->
<g id="node9" class="node"><title>runtime&#45;portable</title>
<g id="a_node9"><a xlink:title="Built">
<path fill="#f5f5f5" stroke="black" stroke-dasharray="1,5" d="M522.667,-249.249C522.667,-249.249 454.333,-249.249 454.333,-249.249 450.667,-249.249 447,-245.582 447,-241.915 447,-241.915 447,-234.582 447,-234.582 447,-230.915 450.667,-227.249 454.333,-227.249 454.333,-227.249 522.667,-227.249 522.667,-227.249 526.333,-227.249 530,-230.915 530,-234.582 530,-234.582 530,-241.915 530,-241.915 530,-245.582 526.333,-249.249 522.667,-249.249"/>
<text text-anchor="middle" x="488.5" y="-235.449" font-family="Times New Roman,serif" font-size="11.00">runtime&#45;portable</text>
</a>
</g>
</g>
<!-- roslyn&#45;&gt;runtime&#45;portable -->
<g id="edge49" class="edge"><title>roslyn&#45;&gt;runtime&#45;portable</title>
<path fill="none" stroke="black" d="M401.091,-317.032C412.352,-307.557 428.015,-293.179 439,-278.249 443.712,-271.845 441.582,-268.067 447,-262.249 450.29,-258.716 454.217,-255.536 458.313,-252.733"/>
<polygon fill="black" stroke="black" points="463.556,-249.388 459.95,-254.892 461.027,-251.002 458.498,-252.615 458.498,-252.615 458.498,-252.615 461.027,-251.002 457.045,-250.339 463.556,-249.388 463.556,-249.388"/>
</g>
<!-- runtime -->
<g id="node10" class="node"><title>runtime</title>
<g id="a_node10"><a xlink:title="Built">
<path fill="#f5f5f5" stroke="black" stroke-dasharray="1,5" d="M503.167,-287.249C503.167,-287.249 473.833,-287.249 473.833,-287.249 470.167,-287.249 466.5,-283.582 466.5,-279.915 466.5,-279.915 466.5,-272.582 466.5,-272.582 466.5,-268.915 470.167,-265.249 473.833,-265.249 473.833,-265.249 503.167,-265.249 503.167,-265.249 506.833,-265.249 510.5,-268.915 510.5,-272.582 510.5,-272.582 510.5,-279.915 510.5,-279.915 510.5,-283.582 506.833,-287.249 503.167,-287.249"/>
<text text-anchor="middle" x="488.5" y="-273.449" font-family="Times New Roman,serif" font-size="11.00">runtime</text>
</a>
</g>
</g>
<!-- roslyn&#45;&gt;runtime -->
<g id="edge55" class="edge"><title>roslyn&#45;&gt;runtime</title>
<path fill="none" stroke="black" d="M404.599,-319.976C415.037,-314.701 428.279,-307.35 439,-299.249 443.012,-296.217 442.767,-293.962 447,-291.249 451.172,-288.574 455.889,-286.281 460.592,-284.35"/>
<polygon fill="black" stroke="black" points="466.5,-282.097 461.856,-286.758 463.697,-283.166 460.894,-284.235 460.894,-284.235 460.894,-284.235 463.697,-283.166 459.931,-281.712 466.5,-282.097 466.5,-282.097"/>
</g>
<!-- runtime&#45;&gt;aspnetcore -->
<g id="edge5" class="edge"><title>runtime&#45;&gt;aspnetcore</title>
<path fill="none" stroke="black" d="M510.5,-287.301C518.944,-291.57 528.835,-296.354 538,-300.249 566.165,-312.216 598.916,-323.801 623.08,-331.925"/>
<polygon fill="black" stroke="black" points="629.031,-333.914 622.484,-334.573 626.185,-332.963 623.34,-332.012 623.34,-332.012 623.34,-332.012 626.185,-332.963 624.196,-329.451 629.031,-333.914 629.031,-333.914"/>
</g>
<!-- runtime&#45;&gt;installer -->
<g id="edge27" class="edge"><title>runtime&#45;&gt;installer</title>
<path fill="none" stroke="black" d="M510.765,-275.704C572.438,-273.69 749.612,-264.697 791,-227.249 808.657,-211.272 815.586,-183.617 818.29,-165.63"/>
<polygon fill="black" stroke="black" points="819.107,-159.48 820.993,-165.784 818.712,-162.454 818.317,-165.428 818.317,-165.428 818.317,-165.428 818.712,-162.454 815.64,-165.073 819.107,-159.48 819.107,-159.48"/>
</g>
<!-- runtime&#45;&gt;msbuild -->
<g id="edge34" class="edge"><title>runtime&#45;&gt;msbuild</title>
<path fill="none" stroke="black" d="M510.923,-269.713C522.881,-266.065 537.901,-261.482 550.695,-257.579"/>
<polygon fill="black" stroke="black" points="556.774,-255.724 551.823,-260.058 553.904,-256.6 551.035,-257.475 551.035,-257.475 551.035,-257.475 553.904,-256.6 550.247,-254.893 556.774,-255.724 556.774,-255.724"/>
</g>
<!-- runtime&#45;&gt;roslyn&#45;analyzers -->
<g id="edge39" class="edge"><title>runtime&#45;&gt;roslyn&#45;analyzers</title>
<path fill="none" stroke="black" d="M510.923,-278.911C517.238,-279.696 524.407,-280.587 531.65,-281.488"/>
<polygon fill="black" stroke="black" points="537.736,-282.244 531.448,-284.183 534.759,-281.874 531.781,-281.504 531.781,-281.504 531.781,-281.504 534.759,-281.874 532.115,-278.824 537.736,-282.244 537.736,-282.244"/>
</g>
<!-- runtime&#45;&gt;sdk -->
<g id="edge58" class="edge"><title>runtime&#45;&gt;sdk</title>
<path fill="none" stroke="black" d="M510.9,-272.195C517.758,-269.965 524.89,-266.529 530,-261.249 537.818,-253.168 529.305,-244.377 538,-237.249 564.325,-215.667 662.447,-238.239 690,-218.249 696.759,-213.345 692.334,-207.383 698,-201.249 705.668,-192.947 716.608,-186.58 725.838,-182.225"/>
<polygon fill="black" stroke="black" points="731.32,-179.774 726.945,-184.688 728.581,-180.998 725.843,-182.223 725.843,-182.223 725.843,-182.223 728.581,-180.998 724.741,-179.758 731.32,-179.774 731.32,-179.774"/>
</g>
<!-- vstest -->
<g id="node13" class="node"><title>vstest</title>
<g id="a_node13"><a xlink:title="Built">
<path fill="#f5f5f5" stroke="black" stroke-dasharray="1,5" d="M589.667,-123.249C589.667,-123.249 568.333,-123.249 568.333,-123.249 564.667,-123.249 561,-119.582 561,-115.915 561,-115.915 561,-108.582 561,-108.582 561,-104.915 564.667,-101.249 568.333,-101.249 568.333,-101.249 589.667,-101.249 589.667,-101.249 593.333,-101.249 597,-104.915 597,-108.582 597,-108.582 597,-115.915 597,-115.915 597,-119.582 593.333,-123.249 589.667,-123.249"/>
<text text-anchor="middle" x="579" y="-109.449" font-family="Times New Roman,serif" font-size="11.00">vstest</text>
</a>
</g>
</g>
<!-- runtime&#45;&gt;vstest -->
<g id="edge71" class="edge"><title>runtime&#45;&gt;vstest</title>
<path fill="none" stroke="black" d="M510.618,-266.963C517.616,-262.996 524.91,-257.757 530,-251.249 537.187,-242.059 534.291,-237.309 538,-226.249 549.582,-191.712 563.859,-151.568 571.844,-129.32"/>
<polygon fill="black" stroke="black" points="573.922,-123.539 574.433,-130.099 572.907,-126.362 571.892,-129.186 571.892,-129.186 571.892,-129.186 572.907,-126.362 569.351,-128.272 573.922,-123.539 573.922,-123.539"/>
</g>
<!-- sdk&#45;&gt;installer -->
<g id="edge28" class="edge"><title>sdk&#45;&gt;installer</title>
<path fill="none" stroke="black" d="M757.802,-170.79C767.392,-167.315 781.064,-162.36 793.148,-157.98"/>
<polygon fill="black" stroke="black" points="798.928,-155.885 794.207,-160.468 796.108,-156.908 793.287,-157.93 793.287,-157.93 793.287,-157.93 796.108,-156.908 792.367,-155.391 798.928,-155.885 798.928,-155.885"/>
</g>
<!-- templating -->
<g id="node12" class="node"><title>templating</title>
<g id="a_node12"><a xlink:title="Built">
<path fill="#f5f5f5" stroke="black" stroke-dasharray="1,5" d="M509.167,-52.2486C509.167,-52.2486 467.833,-52.2486 467.833,-52.2486 464.167,-52.2486 460.5,-48.5819 460.5,-44.9153 460.5,-44.9153 460.5,-37.5819 460.5,-37.5819 460.5,-33.9153 464.167,-30.2486 467.833,-30.2486 467.833,-30.2486 509.167,-30.2486 509.167,-30.2486 512.833,-30.2486 516.5,-33.9153 516.5,-37.5819 516.5,-37.5819 516.5,-44.9153 516.5,-44.9153 516.5,-48.5819 512.833,-52.2486 509.167,-52.2486"/>
<text text-anchor="middle" x="488.5" y="-38.4486" font-family="Times New Roman,serif" font-size="11.00">templating</text>
</a>
</g>
</g>
<!-- templating&#45;&gt;installer -->
<g id="edge29" class="edge"><title>templating&#45;&gt;installer</title>
<path fill="none" stroke="black" d="M516.529,-38.4926C582.358,-32.3684 748.695,-20.6085 791,-53.2486 814.859,-71.6567 819.658,-109.2 820.301,-131.177"/>
<polygon fill="black" stroke="black" points="820.384,-137.197 817.601,-131.235 820.342,-134.197 820.301,-131.198 820.301,-131.198 820.301,-131.198 820.342,-134.197 823.001,-131.16 820.384,-137.197 820.384,-137.197"/>
</g>
<!-- vstest&#45;&gt;installer -->
<g id="edge31" class="edge"><title>vstest&#45;&gt;installer</title>
<path fill="none" stroke="black" d="M597.178,-109.644C641.317,-103.283 757.576,-88.7096 791,-106.249 801.136,-111.568 808.428,-122.214 813.164,-131.456"/>
<polygon fill="black" stroke="black" points="815.785,-136.97 810.77,-132.71 814.497,-134.26 813.209,-131.551 813.209,-131.551 813.209,-131.551 814.497,-134.26 815.647,-130.391 815.785,-136.97 815.785,-136.97"/>
</g>
<!-- vstest&#45;&gt;sdk -->
<g id="edge64" class="edge"><title>vstest&#45;&gt;sdk</title>
<path fill="none" stroke="black" d="M597.275,-110.169C620.433,-108.3 661.881,-108.275 690,-127.249 695.941,-131.257 693.252,-135.88 698,-141.249 706.082,-150.388 716.979,-158.634 726.083,-164.716"/>
<polygon fill="black" stroke="black" points="731.201,-168.038 724.698,-167.036 728.684,-166.405 726.168,-164.772 726.168,-164.772 726.168,-164.772 728.684,-166.405 727.638,-162.507 731.201,-168.038 731.201,-168.038"/>
</g>
<!-- pre1 -->
<g id="node14" class="node"><title>pre1</title>
<g id="a_node14"><a xlink:title="Inputs ready">
<polygon fill="#f7caac" stroke="black" points="126,-181.249 61,-181.249 61,-159.249 126,-159.249 126,-181.249"/>
<polyline fill="none" stroke="black" points="68.3333,-181.249 61,-173.915 "/>
<polyline fill="none" stroke="black" points="61,-166.582 68.3333,-159.249 "/>
<polyline fill="none" stroke="black" points="118.667,-159.249 126,-166.582 "/>
<polyline fill="none" stroke="black" points="126,-173.915 118.667,-181.249 "/>
<text text-anchor="middle" x="93.5" y="-167.449" font-family="Times New Roman,serif" font-size="11.00">Inputs ready</text>
</a>
</g>
</g>
<!-- aspnet&#45;xdt -->
<g id="node15" class="node"><title>aspnet&#45;xdt</title>
<g id="a_node15"><a xlink:title="Inputs ready">
<polygon fill="#f7caac" stroke="black" points="308.5,-113.249 252.5,-113.249 252.5,-91.2486 308.5,-91.2486 308.5,-113.249"/>
<polyline fill="none" stroke="black" points="259.833,-113.249 252.5,-105.915 "/>
<polyline fill="none" stroke="black" points="252.5,-98.5819 259.833,-91.2486 "/>
<polyline fill="none" stroke="black" points="301.167,-91.2486 308.5,-98.5819 "/>
<polyline fill="none" stroke="black" points="308.5,-105.915 301.167,-113.249 "/>
<text text-anchor="middle" x="280.5" y="-99.4486" font-family="Times New Roman,serif" font-size="11.00">aspnet&#45;xdt</text>
</a>
</g>
</g>
<!-- aspnet&#45;xdt&#45;&gt;nuget&#45;client -->
<g id="edge38" class="edge"><title>aspnet&#45;xdt&#45;&gt;nuget&#45;client</title>
<path fill="none" stroke="black" d="M308.788,-95.1845C341.401,-87.1206 397.753,-74.3839 447,-69.2486 487.229,-65.0537 497.554,-68.4708 538,-68.2486 574.444,-68.0484 583.559,-67.7692 620,-68.2486 620.47,-68.2548 620.944,-68.2614 621.42,-68.2684"/>
<polygon fill="black" stroke="black" points="627.718,-68.3799 621.672,-70.9732 624.719,-68.3268 621.719,-68.2736 621.719,-68.2736 621.719,-68.2736 624.719,-68.3268 621.767,-65.574 627.718,-68.3799 627.718,-68.3799"/>
</g>
<!-- clicommandlineparser -->
<g id="node16" class="node"><title>clicommandlineparser</title>
<g id="a_node16"><a xlink:title="Inputs ready">
<polygon fill="#f7caac" stroke="black" points="439,-52.2486 333,-52.2486 333,-30.2486 439,-30.2486 439,-52.2486"/>
<polyline fill="none" stroke="black" points="340.333,-52.2486 333,-44.9153 "/>
<polyline fill="none" stroke="black" points="333,-37.5819 340.333,-30.2486 "/>
<polyline fill="none" stroke="black" points="431.667,-30.2486 439,-37.5819 "/>
<polyline fill="none" stroke="black" points="439,-44.9153 431.667,-52.2486 "/>
<text text-anchor="middle" x="386" y="-38.4486" font-family="Times New Roman,serif" font-size="11.00">clicommandlineparser</text>
</a>
</g>
</g>
<!-- clicommandlineparser&#45;&gt;installer -->
<g id="edge19" class="edge"><title>clicommandlineparser&#45;&gt;installer</title>
<path fill="none" stroke="black" d="M439.285,-30.3308C441.888,-29.932 444.471,-29.5674 447,-29.2486 504.848,-21.9568 519.695,-22.2486 578,-22.2486 578,-22.2486 578,-22.2486 660,-22.2486 689.196,-22.2486 768.689,-13.4178 791,-32.2486 805.97,-44.8829 814.629,-101.933 818.146,-131.044"/>
<polygon fill="black" stroke="black" points="818.856,-137.139 815.48,-131.492 818.509,-134.159 818.161,-131.179 818.161,-131.179 818.161,-131.179 818.509,-134.159 820.843,-130.867 818.856,-137.139 818.856,-137.139"/>
</g>
<!-- clicommandlineparser&#45;&gt;templating -->
<g id="edge67" class="edge"><title>clicommandlineparser&#45;&gt;templating</title>
<path fill="none" stroke="black" d="M439.016,-41.2486C444.202,-41.2486 449.364,-41.2486 454.278,-41.2486"/>
<polygon fill="black" stroke="black" points="460.355,-41.2486 454.355,-43.9487 457.355,-41.2486 454.355,-41.2487 454.355,-41.2487 454.355,-41.2487 457.355,-41.2486 454.355,-38.5487 460.355,-41.2486 460.355,-41.2486"/>
</g>
<!-- command&#45;line&#45;api -->
<g id="node17" class="node"><title>command&#45;line&#45;api</title>
<g id="a_node17"><a xlink:title="Inputs ready">
<polygon fill="#f7caac" stroke="black" points="325,-369.249 236,-369.249 236,-347.249 325,-347.249 325,-369.249"/>
<polyline fill="none" stroke="black" points="243.333,-369.249 236,-361.915 "/>
<polyline fill="none" stroke="black" points="236,-354.582 243.333,-347.249 "/>
<polyline fill="none" stroke="black" points="317.667,-347.249 325,-354.582 "/>
<polyline fill="none" stroke="black" points="325,-361.915 317.667,-369.249 "/>
<text text-anchor="middle" x="280.5" y="-355.449" font-family="Times New Roman,serif" font-size="11.00">command&#45;line&#45;api</text>
</a>
</g>
</g>
<!-- command&#45;line&#45;api&#45;&gt;roslyn -->
<g id="edge42" class="edge"><title>command&#45;line&#45;api&#45;&gt;roslyn</title>
<path fill="none" stroke="black" d="M319.452,-347.248C333.533,-343.167 349.084,-338.659 361.504,-335.059"/>
<polygon fill="black" stroke="black" points="367.329,-333.371 362.318,-337.634 364.448,-334.206 361.566,-335.041 361.566,-335.041 361.566,-335.041 364.448,-334.206 360.814,-332.448 367.329,-333.371 367.329,-333.371"/>
</g>
<!-- s1 -->
<g id="node18" class="node"><title>s1</title>
<g id="a_node18"><a xlink:title="1">
<path fill="#ffe599" stroke="black" stroke-dasharray="5,2" d="M155.667,-154.249C155.667,-154.249 31.3333,-154.249 31.3333,-154.249 27.6667,-154.249 24,-150.582 24,-146.915 24,-146.915 24,-139.582 24,-139.582 24,-135.915 27.6667,-132.249 31.3333,-132.249 31.3333,-132.249 155.667,-132.249 155.667,-132.249 159.333,-132.249 163,-135.915 163,-139.582 163,-139.582 163,-146.915 163,-146.915 163,-150.582 159.333,-154.249 155.667,-154.249"/>
<text text-anchor="middle" x="93.5" y="-140.449" font-family="Times New Roman,serif" font-size="11.00">#1 &#45; Local build infra merged</text>
</a>
</g>
</g>
<!-- diagnostics -->
<g id="node19" class="node"><title>diagnostics</title>
<g id="a_node19"><a xlink:title="1">
<path fill="#ffe599" stroke="black" stroke-dasharray="5,2" d="M510.667,-123.249C510.667,-123.249 466.333,-123.249 466.333,-123.249 462.667,-123.249 459,-119.582 459,-115.915 459,-115.915 459,-108.582 459,-108.582 459,-104.915 462.667,-101.249 466.333,-101.249 466.333,-101.249 510.667,-101.249 510.667,-101.249 514.333,-101.249 518,-104.915 518,-108.582 518,-108.582 518,-115.915 518,-115.915 518,-119.582 514.333,-123.249 510.667,-123.249"/>
<text text-anchor="middle" x="488.5" y="-109.449" font-family="Times New Roman,serif" font-size="11.00">diagnostics</text>
</a>
</g>
</g>
<!-- diagnostics&#45;&gt;vstest -->
<g id="edge70" class="edge"><title>diagnostics&#45;&gt;vstest</title>
<path fill="none" stroke="black" d="M518.478,-112.249C530.193,-112.249 543.536,-112.249 554.615,-112.249"/>
<polygon fill="black" stroke="black" points="560.848,-112.249 554.848,-114.949 557.848,-112.249 554.848,-112.249 554.848,-112.249 554.848,-112.249 557.848,-112.249 554.848,-109.549 560.848,-112.249 560.848,-112.249"/>
</g>
<!-- s2 -->
<g id="node20" class="node"><title>s2</title>
<g id="a_node20"><a xlink:title="2">
<polygon fill="#f0fe86" stroke="black" stroke-dasharray="5,2" points="144,-127.249 43,-127.249 43,-105.249 144,-105.249 144,-127.249"/>
<text text-anchor="middle" x="93.5" y="-113.449" font-family="Times New Roman,serif" font-size="11.00">#2 &#45; CI implemented</text>
</a>
</g>
</g>
<!-- linker -->
<g id="node21" class="node"><title>linker</title>
<g id="a_node21"><a xlink:title="2">
<polygon fill="#f0fe86" stroke="black" stroke-dasharray="5,2" points="403.5,-276.249 368.5,-276.249 368.5,-254.249 403.5,-254.249 403.5,-276.249"/>
<text text-anchor="middle" x="386" y="-262.449" font-family="Times New Roman,serif" font-size="11.00">linker</text>
</a>
</g>
</g>
<!-- linker&#45;&gt;runtime&#45;portable -->
<g id="edge46" class="edge"><title>linker&#45;&gt;runtime&#45;portable</title>
<path fill="none" stroke="black" d="M403.596,-260.79C413.748,-258.062 427.294,-254.423 440.534,-250.866"/>
<polygon fill="black" stroke="black" points="446.582,-249.241 441.488,-253.406 443.685,-250.02 440.788,-250.798 440.788,-250.798 440.788,-250.798 443.685,-250.02 440.087,-248.191 446.582,-249.241 446.582,-249.241"/>
</g>
<!-- linker&#45;&gt;runtime -->
<g id="edge52" class="edge"><title>linker&#45;&gt;runtime</title>
<path fill="none" stroke="black" d="M403.596,-267.065C418.889,-268.739 441.879,-271.255 459.929,-273.231"/>
<polygon fill="black" stroke="black" points="466.332,-273.932 460.074,-275.963 463.35,-273.605 460.368,-273.279 460.368,-273.279 460.368,-273.279 463.35,-273.605 460.662,-270.595 466.332,-273.932 466.332,-273.932"/>
</g>
<!-- symreader -->
<g id="node22" class="node"><title>symreader</title>
<g id="a_node22"><a xlink:title="2">
<polygon fill="#f0fe86" stroke="black" stroke-dasharray="5,2" points="309,-304.249 252,-304.249 252,-282.249 309,-282.249 309,-304.249"/>
<text text-anchor="middle" x="280.5" y="-290.449" font-family="Times New Roman,serif" font-size="11.00">symreader</text>
</a>
</g>
</g>
<!-- symreader&#45;&gt;runtime -->
<g id="edge51" class="edge"><title>symreader&#45;&gt;runtime</title>
<path fill="none" stroke="black" d="M309.246,-294.126C340.826,-294.718 393.877,-294.476 439,-288.249 445.973,-287.286 453.4,-285.728 460.291,-284.048"/>
<polygon fill="black" stroke="black" points="466.441,-282.486 461.291,-286.58 463.533,-283.225 460.626,-283.963 460.626,-283.963 460.626,-283.963 463.533,-283.225 459.961,-281.347 466.441,-282.486 466.441,-282.486"/>
</g>
<!-- s3 -->
<g id="node23" class="node"><title>s3</title>
<g id="a_node23"><a xlink:title="3">
<path fill="#b4c6e7" stroke="black" stroke-width="2" d="M139.167,-100.249C139.167,-100.249 47.8333,-100.249 47.8333,-100.249 44.1667,-100.249 40.5,-96.5819 40.5,-92.9153 40.5,-92.9153 40.5,-85.5819 40.5,-85.5819 40.5,-81.9153 44.1667,-78.2486 47.8333,-78.2486 47.8333,-78.2486 139.167,-78.2486 139.167,-78.2486 142.833,-78.2486 146.5,-81.9153 146.5,-85.5819 146.5,-85.5819 146.5,-92.9153 146.5,-92.9153 146.5,-96.5819 142.833,-100.249 139.167,-100.249"/>
<text text-anchor="middle" x="93.5" y="-86.4486" font-family="Times New Roman,serif" font-size="11.00">#3 &#45; Artifacts greenlit</text>
</a>
</g>
</g>
<!-- application&#45;insights -->
<g id="node24" class="node"><title>application&#45;insights</title>
<g id="a_node24"><a xlink:title="3">
<path fill="#b4c6e7" stroke="black" stroke-width="2" d="M783.667,-129.249C783.667,-129.249 705.333,-129.249 705.333,-129.249 701.667,-129.249 698,-125.582 698,-121.915 698,-121.915 698,-114.582 698,-114.582 698,-110.915 701.667,-107.249 705.333,-107.249 705.333,-107.249 783.667,-107.249 783.667,-107.249 787.333,-107.249 791,-110.915 791,-114.582 791,-114.582 791,-121.915 791,-121.915 791,-125.582 787.333,-129.249 783.667,-129.249"/>
<text text-anchor="middle" x="744.5" y="-115.449" font-family="Times New Roman,serif" font-size="11.00">application&#45;insights</text>
</a>
</g>
</g>
<!-- application&#45;insights&#45;&gt;installer -->
<g id="edge16" class="edge"><title>application&#45;insights&#45;&gt;installer</title>
<path fill="none" stroke="black" d="M780.977,-129.332C784.391,-130.582 787.78,-131.895 791,-133.249 791.97,-133.656 792.952,-134.084 793.939,-134.526"/>
<polygon fill="black" stroke="black" points="799.597,-137.185 793.019,-137.077 796.882,-135.909 794.167,-134.633 794.167,-134.633 794.167,-134.633 796.882,-135.909 795.315,-132.189 799.597,-137.185 799.597,-137.185"/>
</g>
<!-- arcade -->
<g id="node25" class="node"><title>arcade</title>
<g id="a_node25"><a xlink:title="3">
<path fill="#b4c6e7" stroke="black" stroke-width="2" d="M220.667,-246.249C220.667,-246.249 194.333,-246.249 194.333,-246.249 190.667,-246.249 187,-242.582 187,-238.915 187,-238.915 187,-231.582 187,-231.582 187,-227.915 190.667,-224.249 194.333,-224.249 194.333,-224.249 220.667,-224.249 220.667,-224.249 224.333,-224.249 228,-227.915 228,-231.582 228,-231.582 228,-238.915 228,-238.915 228,-242.582 224.333,-246.249 220.667,-246.249"/>
<text text-anchor="middle" x="207.5" y="-232.449" font-family="Times New Roman,serif" font-size="11.00">arcade</text>
</a>
</g>
</g>
<!-- arcade&#45;&gt;aspnetcore -->
<g id="edge3" class="edge"><title>arcade&#45;&gt;aspnetcore</title>
<path fill="none" stroke="black" d="M209.071,-246.423C210.823,-275.817 217.2,-354.142 236,-370.249 261.173,-391.815 351.852,-377.249 385,-377.249 385,-377.249 385,-377.249 489.5,-377.249 547.583,-377.249 565.158,-389.381 620,-370.249 627.522,-367.624 634.878,-363.026 641.083,-358.36"/>
<polygon fill="black" stroke="black" points="646.003,-354.466 642.974,-360.307 643.651,-356.328 641.298,-358.19 641.298,-358.19 641.298,-358.19 643.651,-356.328 639.623,-356.073 646.003,-354.466 646.003,-354.466"/>
</g>
<!-- arcade&#45;&gt;fsharp -->
<g id="edge11" class="edge"><title>arcade&#45;&gt;fsharp</title>
<path fill="none" stroke="black" d="M228.203,-225.902C252.285,-215.045 294.58,-197.787 333,-191.249 444.014,-172.356 579.259,-191.387 633.64,-200.727"/>
<polygon fill="black" stroke="black" points="639.864,-201.815 633.489,-203.441 636.909,-201.298 633.954,-200.781 633.954,-200.781 633.954,-200.781 636.909,-201.298 634.419,-198.122 639.864,-201.815 639.864,-201.815"/>
</g>
<!-- arcade&#45;&gt;installer -->
<g id="edge17" class="edge"><title>arcade&#45;&gt;installer</title>
<path fill="none" stroke="black" d="M208.521,-224.216C208.822,-187.698 211.706,-71.5842 236,-45.2486 282.056,4.6775 317.076,-11.2486 385,-11.2486 385,-11.2486 385,-11.2486 660,-11.2486 718.331,-11.2486 746.587,18.5663 791,-19.2486 807.807,-33.5584 815.728,-99.1725 818.629,-130.93"/>
<polygon fill="black" stroke="black" points="819.174,-137.162 815.962,-131.42 818.912,-134.173 818.651,-131.185 818.651,-131.185 818.651,-131.185 818.912,-134.173 821.341,-130.95 819.174,-137.162 819.174,-137.162"/>
</g>
<!-- arcade&#45;&gt;msbuild -->
<g id="edge33" class="edge"><title>arcade&#45;&gt;msbuild</title>
<path fill="none" stroke="black" d="M228.182,-233.419C288.816,-227.983 472.147,-213.104 530,-226.249 538.186,-228.109 546.606,-231.545 554.064,-235.204"/>
<polygon fill="black" stroke="black" points="559.56,-238.024 552.989,-237.687 556.891,-236.654 554.222,-235.285 554.222,-235.285 554.222,-235.285 556.891,-236.654 555.454,-232.883 559.56,-238.024 559.56,-238.024"/>
</g>
<!-- arcade&#45;&gt;roslyn -->
<g id="edge41" class="edge"><title>arcade&#45;&gt;roslyn</title>
<path fill="none" stroke="black" d="M207.78,-246.28C207.105,-267.09 209.05,-311.877 236,-332.249 255.075,-346.668 324.261,-338.184 361.266,-332.35"/>
<polygon fill="black" stroke="black" points="367.349,-331.369 361.855,-334.99 364.387,-331.847 361.425,-332.324 361.425,-332.324 361.425,-332.324 364.387,-331.847 360.996,-329.659 367.349,-331.369 367.349,-331.369"/>
</g>
<!-- arcade&#45;&gt;runtime&#45;portable -->
<g id="edge45" class="edge"><title>arcade&#45;&gt;runtime&#45;portable</title>
<path fill="none" stroke="black" d="M228.119,-235.46C271.889,-235.93 378.537,-237.077 440.598,-237.744"/>
<polygon fill="black" stroke="black" points="446.83,-237.811 440.801,-240.447 443.83,-237.779 440.83,-237.747 440.83,-237.747 440.83,-237.747 443.83,-237.779 440.859,-235.047 446.83,-237.811 446.83,-237.811"/>
</g>
<!-- arcade&#45;&gt;runtime -->
<g id="edge50" class="edge"><title>arcade&#45;&gt;runtime</title>
<path fill="none" stroke="black" d="M228.02,-238.857C230.699,-239.335 233.416,-239.811 236,-240.249 255.739,-243.595 309.636,-241.411 325,-254.249 333.305,-261.188 324.179,-270.977 333,-277.249 371.397,-304.546 391.891,-277.734 439,-277.249 445.835,-277.178 453.21,-277.052 460.097,-276.912"/>
<polygon fill="black" stroke="black" points="466.254,-276.781 460.313,-279.608 463.255,-276.845 460.255,-276.909 460.255,-276.909 460.255,-276.909 463.255,-276.845 460.198,-274.21 466.254,-276.781 466.254,-276.781"/>
</g>
<!-- arcade&#45;&gt;sdk -->
<g id="edge56" class="edge"><title>arcade&#45;&gt;sdk</title>
<path fill="none" stroke="black" d="M212.565,-224.231C216.837,-214.259 224.542,-199.983 236,-192.249 291.848,-154.549 317.619,-164.249 385,-164.249 385,-164.249 385,-164.249 580,-164.249 632.634,-164.249 694.584,-169.994 724.896,-173.18"/>
<polygon fill="black" stroke="black" points="731.213,-173.855 724.96,-175.902 728.23,-173.536 725.247,-173.217 725.247,-173.217 725.247,-173.217 728.23,-173.536 725.534,-170.533 731.213,-173.855 731.213,-173.855"/>
</g>
<!-- arcade&#45;&gt;aspnet&#45;xdt -->
<g id="edge2" class="edge"><title>arcade&#45;&gt;aspnet&#45;xdt</title>
<path fill="none" stroke="black" d="M211.466,-224.138C215.722,-209.104 224.352,-181.699 236,-160.249 244.23,-145.093 256.111,-129.546 265.378,-118.368"/>
<polygon fill="black" stroke="black" points="269.429,-113.557 267.63,-119.885 267.496,-115.851 265.564,-118.146 265.564,-118.146 265.564,-118.146 267.496,-115.851 263.499,-116.407 269.429,-113.557 269.429,-113.557"/>
</g>
<!-- arcade&#45;&gt;clicommandlineparser -->
<g id="edge9" class="edge"><title>arcade&#45;&gt;clicommandlineparser</title>
<path fill="none" stroke="black" d="M209.163,-223.826C211.18,-192.914 218.225,-108.575 236,-88.2486 258.599,-62.4065 295.27,-50.6287 326.577,-45.3251"/>
<polygon fill="black" stroke="black" points="332.761,-44.3485 327.255,-47.9515 329.798,-44.8165 326.834,-45.2845 326.834,-45.2845 326.834,-45.2845 329.798,-44.8165 326.413,-42.6176 332.761,-44.3485 332.761,-44.3485"/>
</g>
<!-- arcade&#45;&gt;command&#45;line&#45;api -->
<g id="edge10" class="edge"><title>arcade&#45;&gt;command&#45;line&#45;api</title>
<path fill="none" stroke="black" d="M208.084,-246.325C207.903,-266.841 210.333,-311.21 236.274,-342.567"/>
<polygon fill="black" stroke="black" points="240.275,-347.095 234.278,-344.386 238.288,-344.847 236.302,-342.599 236.302,-342.599 236.302,-342.599 238.288,-344.847 238.325,-340.811 240.275,-347.095 240.275,-347.095"/>
</g>
<!-- arcade&#45;&gt;symreader -->
<g id="edge66" class="edge"><title>arcade&#45;&gt;symreader</title>
<path fill="none" stroke="black" d="M213.012,-246.268C217.504,-255.961 225.278,-269.807 236,-278.249 239.048,-280.648 242.505,-282.677 246.106,-284.39"/>
<polygon fill="black" stroke="black" points="251.846,-286.829 245.268,-286.967 249.085,-285.656 246.324,-284.482 246.324,-284.482 246.324,-284.482 249.085,-285.656 247.379,-281.997 251.846,-286.829 251.846,-286.829"/>
</g>
<!-- test&#45;templates -->
<g id="node33" class="node"><title>test&#45;templates</title>
<g id="a_node33"><a xlink:title="3">
<path fill="#b4c6e7" stroke="black" stroke-width="2" d="M309.167,-407.249C309.167,-407.249 251.833,-407.249 251.833,-407.249 248.167,-407.249 244.5,-403.582 244.5,-399.915 244.5,-399.915 244.5,-392.582 244.5,-392.582 244.5,-388.915 248.167,-385.249 251.833,-385.249 251.833,-385.249 309.167,-385.249 309.167,-385.249 312.833,-385.249 316.5,-388.915 316.5,-392.582 316.5,-392.582 316.5,-399.915 316.5,-399.915 316.5,-403.582 312.833,-407.249 309.167,-407.249"/>
<text text-anchor="middle" x="280.5" y="-393.449" font-family="Times New Roman,serif" font-size="11.00">test&#45;templates</text>
</a>
</g>
</g>
<!-- arcade&#45;&gt;test&#45;templates -->
<g id="edge69" class="edge"><title>arcade&#45;&gt;test&#45;templates</title>
<path fill="none" stroke="black" d="M209.188,-246.581C211.27,-277.253 218.465,-360.949 236,-381.249 236.862,-382.246 237.793,-383.177 238.781,-384.047"/>
<polygon fill="black" stroke="black" points="244.141,-387.898 237.693,-386.589 241.704,-386.147 239.268,-384.397 239.268,-384.397 239.268,-384.397 241.704,-386.147 240.844,-382.204 244.141,-387.898 244.141,-387.898"/>
</g>
<!-- cssparser -->
<g id="node26" class="node"><title>cssparser</title>
<g id="a_node26"><a xlink:title="3">
<path fill="#b4c6e7" stroke="black" stroke-width="2" d="M598.167,-369.249C598.167,-369.249 559.833,-369.249 559.833,-369.249 556.167,-369.249 552.5,-365.582 552.5,-361.915 552.5,-361.915 552.5,-354.582 552.5,-354.582 552.5,-350.915 556.167,-347.249 559.833,-347.249 559.833,-347.249 598.167,-347.249 598.167,-347.249 601.833,-347.249 605.5,-350.915 605.5,-354.582 605.5,-354.582 605.5,-361.915 605.5,-361.915 605.5,-365.582 601.833,-369.249 598.167,-369.249"/>
<text text-anchor="middle" x="579" y="-355.449" font-family="Times New Roman,serif" font-size="11.00">cssparser</text>
</a>
</g>
</g>
<!-- cssparser&#45;&gt;aspnetcore -->
<g id="edge4" class="edge"><title>cssparser&#45;&gt;aspnetcore</title>
<path fill="none" stroke="black" d="M605.54,-353.337C611.272,-352.235 617.445,-351.048 623.474,-349.888"/>
<polygon fill="black" stroke="black" points="629.433,-348.742 624.051,-352.527 626.487,-349.309 623.541,-349.875 623.541,-349.875 623.541,-349.875 626.487,-349.309 623.031,-347.224 629.433,-348.742 629.433,-348.742"/>
</g>
<!-- humanizer -->
<g id="node27" class="node"><title>humanizer</title>
<g id="a_node27"><a xlink:title="3">
<path fill="#b4c6e7" stroke="black" stroke-width="2" d="M301.167,-331.249C301.167,-331.249 259.833,-331.249 259.833,-331.249 256.167,-331.249 252.5,-327.582 252.5,-323.915 252.5,-323.915 252.5,-316.582 252.5,-316.582 252.5,-312.915 256.167,-309.249 259.833,-309.249 259.833,-309.249 301.167,-309.249 301.167,-309.249 304.833,-309.249 308.5,-312.915 308.5,-316.582 308.5,-316.582 308.5,-323.915 308.5,-323.915 308.5,-327.582 304.833,-331.249 301.167,-331.249"/>
<text text-anchor="middle" x="280.5" y="-317.449" font-family="Times New Roman,serif" font-size="11.00">humanizer</text>
</a>
</g>
</g>
<!-- humanizer&#45;&gt;roslyn -->
<g id="edge43" class="edge"><title>humanizer&#45;&gt;roslyn</title>
<path fill="none" stroke="black" d="M308.693,-322.35C324.939,-323.606 345.389,-325.187 361.028,-326.396"/>
<polygon fill="black" stroke="black" points="367.41,-326.889 361.219,-329.118 364.419,-326.658 361.428,-326.426 361.428,-326.426 361.428,-326.426 364.419,-326.658 361.636,-323.735 367.41,-326.889 367.41,-326.889"/>
</g>
<!-- netcorecli&#45;fsc -->
<g id="node28" class="node"><title>netcorecli&#45;fsc</title>
<g id="a_node28"><a xlink:title="3">
<path fill="#b4c6e7" stroke="black" stroke-width="2" d="M772.667,-91.2486C772.667,-91.2486 716.333,-91.2486 716.333,-91.2486 712.667,-91.2486 709,-87.5819 709,-83.9153 709,-83.9153 709,-76.5819 709,-76.5819 709,-72.9153 712.667,-69.2486 716.333,-69.2486 716.333,-69.2486 772.667,-69.2486 772.667,-69.2486 776.333,-69.2486 780,-72.9153 780,-76.5819 780,-76.5819 780,-83.9153 780,-83.9153 780,-87.5819 776.333,-91.2486 772.667,-91.2486"/>
<text text-anchor="middle" x="744.5" y="-77.4486" font-family="Times New Roman,serif" font-size="11.00">netcorecli&#45;fsc</text>
</a>
</g>
</g>
<!-- netcorecli&#45;fsc&#45;&gt;installer -->
<g id="edge22" class="edge"><title>netcorecli&#45;fsc&#45;&gt;installer</title>
<path fill="none" stroke="black" d="M780.262,-88.5865C784.121,-90.394 787.804,-92.5877 791,-95.2486 802.257,-104.621 809.863,-119.541 814.45,-131.166"/>
<polygon fill="black" stroke="black" points="816.578,-136.898 811.959,-132.212 815.534,-134.085 814.49,-131.273 814.49,-131.273 814.49,-131.273 815.534,-134.085 817.021,-130.333 816.578,-136.898 816.578,-136.898"/>
</g>
<!-- newtonsoft&#45;json -->
<g id="node29" class="node"><title>newtonsoft&#45;json</title>
<g id="a_node29"><a xlink:title="3">
<path fill="#b4c6e7" stroke="black" stroke-width="2" d="M418.667,-123.249C418.667,-123.249 353.333,-123.249 353.333,-123.249 349.667,-123.249 346,-119.582 346,-115.915 346,-115.915 346,-108.582 346,-108.582 346,-104.915 349.667,-101.249 353.333,-101.249 353.333,-101.249 418.667,-101.249 418.667,-101.249 422.333,-101.249 426,-104.915 426,-108.582 426,-108.582 426,-115.915 426,-115.915 426,-119.582 422.333,-123.249 418.667,-123.249"/>
<text text-anchor="middle" x="386" y="-109.449" font-family="Times New Roman,serif" font-size="11.00">newtonsoft&#45;json</text>
</a>
</g>
</g>
<!-- newtonsoft&#45;json&#45;&gt;fsharp -->
<g id="edge14" class="edge"><title>newtonsoft&#45;json&#45;&gt;fsharp</title>
<path fill="none" stroke="black" d="M414.984,-123.28C425.041,-127.164 436.495,-131.495 447,-135.249 514.273,-159.287 594.571,-185.159 633.89,-197.646"/>
<polygon fill="black" stroke="black" points="639.841,-199.533 633.305,-200.293 636.981,-198.626 634.121,-197.719 634.121,-197.719 634.121,-197.719 636.981,-198.626 634.938,-195.146 639.841,-199.533 639.841,-199.533"/>
</g>
<!-- newtonsoft&#45;json&#45;&gt;installer -->
<g id="edge23" class="edge"><title>newtonsoft&#45;json&#45;&gt;installer</title>
<path fill="none" stroke="black" d="M422.227,-101.221C430.288,-99.1558 438.876,-97.3132 447,-96.2486 483.576,-91.4555 493.113,-95.8388 530,-96.2486 601.341,-97.0412 634.584,-64.3126 690,-109.249 697.758,-115.539 690.213,-123.994 698,-130.249 698.927,-130.993 757.363,-139.379 793.014,-144.438"/>
<polygon fill="black" stroke="black" points="798.957,-145.28 792.637,-147.111 795.986,-144.859 793.016,-144.438 793.016,-144.438 793.016,-144.438 795.986,-144.859 793.395,-141.764 798.957,-145.28 798.957,-145.28"/>
</g>
<!-- newtonsoft&#45;json&#45;&gt;nuget&#45;client -->
<g id="edge36" class="edge"><title>newtonsoft&#45;json&#45;&gt;nuget&#45;client</title>
<path fill="none" stroke="black" d="M401.887,-101.147C413.514,-93.1622 430.426,-82.9981 447,-78.2486 478.753,-69.1492 570.329,-68.4002 621.79,-68.7547"/>
<polygon fill="black" stroke="black" points="627.861,-68.803 621.839,-71.4551 624.861,-68.7791 621.861,-68.7552 621.861,-68.7552 621.861,-68.7552 624.861,-68.7791 621.882,-66.0553 627.861,-68.803 627.861,-68.803"/>
</g>
<!-- newtonsoft&#45;json&#45;&gt;runtime&#45;portable -->
<g id="edge47" class="edge"><title>newtonsoft&#45;json&#45;&gt;runtime&#45;portable</title>
<path fill="none" stroke="black" d="M395.919,-123.43C413.753,-145.79 453.875,-196.091 474.586,-222.058"/>
<polygon fill="black" stroke="black" points="478.457,-226.911 472.605,-223.904 476.586,-224.566 474.715,-222.22 474.715,-222.22 474.715,-222.22 476.586,-224.566 476.826,-220.537 478.457,-226.911 478.457,-226.911"/>
</g>
<!-- newtonsoft&#45;json&#45;&gt;runtime -->
<g id="edge53" class="edge"><title>newtonsoft&#45;json&#45;&gt;runtime</title>
<path fill="none" stroke="black" d="M396.721,-123.385C408.81,-137.915 429.064,-164.637 439,-191.249 448.41,-216.452 432.366,-228.674 447,-251.249 450.439,-256.553 455.439,-260.919 460.76,-264.435"/>
<polygon fill="black" stroke="black" points="466.142,-267.67 459.609,-266.893 463.571,-266.125 461,-264.579 461,-264.579 461,-264.579 463.571,-266.125 462.391,-262.265 466.142,-267.67 466.142,-267.67"/>
</g>
<!-- newtonsoft&#45;json&#45;&gt;sdk -->
<g id="edge60" class="edge"><title>newtonsoft&#45;json&#45;&gt;sdk</title>
<path fill="none" stroke="black" d="M426.322,-120.407C433.203,-121.751 440.302,-123.083 447,-124.249 554.563,-142.96 583.225,-137.466 690,-160.249 701.875,-162.782 715.007,-166.451 725.288,-169.526"/>
<polygon fill="black" stroke="black" points="731.285,-171.348 724.759,-172.187 728.415,-170.476 725.544,-169.603 725.544,-169.603 725.544,-169.603 728.415,-170.476 726.329,-167.02 731.285,-171.348 731.285,-171.348"/>
</g>
<!-- newtonsoft&#45;json&#45;&gt;templating -->
<g id="edge68" class="edge"><title>newtonsoft&#45;json&#45;&gt;templating</title>
<path fill="none" stroke="black" d="M401.091,-101.223C413.117,-91.9255 430.959,-78.3911 447,-67.2486 452.569,-63.3801 458.678,-59.3514 464.424,-55.6528"/>
<polygon fill="black" stroke="black" points="469.573,-52.363 465.97,-57.8687 467.045,-53.9782 464.517,-55.5934 464.517,-55.5934 464.517,-55.5934 467.045,-53.9782 463.063,-53.3181 469.573,-52.363 469.573,-52.363"/>
</g>
<!-- newtonsoft&#45;json&#45;&gt;vstest -->
<g id="edge72" class="edge"><title>newtonsoft&#45;json&#45;&gt;vstest</title>
<path fill="none" stroke="black" d="M426.208,-103.254C433.102,-102.003 440.234,-100.919 447,-100.249 483.709,-96.6136 493.387,-95.7414 530,-100.249 538.126,-101.249 546.855,-103.168 554.611,-105.183"/>
<polygon fill="black" stroke="black" points="560.863,-106.879 554.365,-107.914 557.968,-106.094 555.072,-105.308 555.072,-105.308 555.072,-105.308 557.968,-106.094 555.78,-102.702 560.863,-106.879 560.863,-106.879"/>
</g>
<!-- newtonsoft&#45;json901 -->
<g id="node30" class="node"><title>newtonsoft&#45;json901</title>
<g id="a_node30"><a xlink:title="3">
<path fill="#b4c6e7" stroke="black" stroke-width="2" d="M426.667,-216.249C426.667,-216.249 345.333,-216.249 345.333,-216.249 341.667,-216.249 338,-212.582 338,-208.915 338,-208.915 338,-201.582 338,-201.582 338,-197.915 341.667,-194.249 345.333,-194.249 345.333,-194.249 426.667,-194.249 426.667,-194.249 430.333,-194.249 434,-197.915 434,-201.582 434,-201.582 434,-208.915 434,-208.915 434,-212.582 430.333,-216.249 426.667,-216.249"/>
<text text-anchor="middle" x="386" y="-202.449" font-family="Times New Roman,serif" font-size="11.00">newtonsoft&#45;json901</text>
</a>
</g>
</g>
<!-- newtonsoft&#45;json901&#45;&gt;fsharp -->
<g id="edge13" class="edge"><title>newtonsoft&#45;json901&#45;&gt;fsharp</title>
<path fill="none" stroke="black" d="M434.205,-205.249C492.309,-205.249 588.781,-205.249 633.655,-205.249"/>
<polygon fill="black" stroke="black" points="639.891,-205.249 633.891,-207.949 636.891,-205.249 633.891,-205.249 633.891,-205.249 633.891,-205.249 636.891,-205.249 633.89,-202.549 639.891,-205.249 639.891,-205.249"/>
</g>
<!-- newtonsoft&#45;json901&#45;&gt;installer -->
<g id="edge24" class="edge"><title>newtonsoft&#45;json901&#45;&gt;installer</title>
<path fill="none" stroke="black" d="M429.188,-194.247C435.151,-192.825 441.218,-191.449 447,-190.249 526.841,-173.68 546.981,-169.47 628,-160.249 686.504,-153.589 755.488,-150.411 792.77,-149.077"/>
<polygon fill="black" stroke="black" points="798.914,-148.864 793.012,-151.771 795.916,-148.968 792.918,-149.072 792.918,-149.072 792.918,-149.072 795.916,-148.968 792.824,-146.374 798.914,-148.864 798.914,-148.864"/>
</g>
<!-- newtonsoft&#45;json901&#45;&gt;runtime&#45;portable -->
<g id="edge48" class="edge"><title>newtonsoft&#45;json901&#45;&gt;runtime&#45;portable</title>
<path fill="none" stroke="black" d="M420.745,-216.329C429.445,-219.186 438.889,-222.287 447.859,-225.232"/>
<polygon fill="black" stroke="black" points="453.673,-227.141 447.13,-227.835 450.823,-226.205 447.973,-225.269 447.973,-225.269 447.973,-225.269 450.823,-226.205 448.815,-222.704 453.673,-227.141 453.673,-227.141"/>
</g>
<!-- newtonsoft&#45;json901&#45;&gt;runtime -->
<g id="edge54" class="edge"><title>newtonsoft&#45;json901&#45;&gt;runtime</title>
<path fill="none" stroke="black" d="M400.528,-216.249C412.501,-225.831 430.574,-239.925 447,-251.249 452.204,-254.836 457.915,-258.512 463.364,-261.903"/>
<polygon fill="black" stroke="black" points="468.698,-265.186 462.173,-264.341 466.143,-263.613 463.588,-262.041 463.588,-262.041 463.588,-262.041 466.143,-263.613 465.003,-259.742 468.698,-265.186 468.698,-265.186"/>
</g>
<!-- newtonsoft&#45;json901&#45;&gt;sdk -->
<g id="edge61" class="edge"><title>newtonsoft&#45;json901&#45;&gt;sdk</title>
<path fill="none" stroke="black" d="M434.061,-200.271C482.608,-195.251 560.536,-187.511 628,-182.249 662.27,-179.576 702.328,-177.349 725.127,-176.166"/>
<polygon fill="black" stroke="black" points="731.351,-175.846 725.498,-178.85 728.355,-176 725.359,-176.154 725.359,-176.154 725.359,-176.154 728.355,-176 725.221,-173.457 731.351,-175.846 731.351,-175.846"/>
</g>
<!-- source&#45;build&#45;reference&#45;packages -->
<g id="node31" class="node"><title>source&#45;build&#45;reference&#45;packages</title>
<g id="a_node31"><a xlink:title="3">
<path fill="#b4c6e7" stroke="black" stroke-width="2" d="M163.667,-273.249C163.667,-273.249 23.3333,-273.249 23.3333,-273.249 19.6667,-273.249 16,-269.582 16,-265.915 16,-265.915 16,-258.582 16,-258.582 16,-254.915 19.6667,-251.249 23.3333,-251.249 23.3333,-251.249 163.667,-251.249 163.667,-251.249 167.333,-251.249 171,-254.915 171,-258.582 171,-258.582 171,-265.915 171,-265.915 171,-269.582 167.333,-273.249 163.667,-273.249"/>
<text text-anchor="middle" x="93.5" y="-259.449" font-family="Times New Roman,serif" font-size="11.00">source&#45;build&#45;reference&#45;packages</text>
</a>
</g>
</g>
<!-- sourcelink -->
<g id="node32" class="node"><title>sourcelink</title>
<g id="a_node32"><a xlink:title="3">
<path fill="#b4c6e7" stroke="black" stroke-width="2" d="M113.667,-246.249C113.667,-246.249 73.3333,-246.249 73.3333,-246.249 69.6667,-246.249 66,-242.582 66,-238.915 66,-238.915 66,-231.582 66,-231.582 66,-227.915 69.6667,-224.249 73.3333,-224.249 73.3333,-224.249 113.667,-224.249 113.667,-224.249 117.333,-224.249 121,-227.915 121,-231.582 121,-231.582 121,-238.915 121,-238.915 121,-242.582 117.333,-246.249 113.667,-246.249"/>
<text text-anchor="middle" x="93.5" y="-232.449" font-family="Times New Roman,serif" font-size="11.00">sourcelink</text>
</a>
</g>
</g>
<!-- sourcelink&#45;&gt;arcade -->
<g id="edge1" class="edge"><title>sourcelink&#45;&gt;arcade</title>
<path fill="none" stroke="black" d="M121.042,-235.249C139.017,-235.249 162.653,-235.249 180.51,-235.249"/>
<polygon fill="black" stroke="black" points="186.807,-235.249 180.807,-237.949 183.807,-235.249 180.807,-235.249 180.807,-235.249 180.807,-235.249 183.807,-235.249 180.807,-232.549 186.807,-235.249 186.807,-235.249"/>
</g>
<!-- test&#45;templates&#45;&gt;installer -->
<g id="edge30" class="edge"><title>test&#45;templates&#45;&gt;installer</title>
<path fill="none" stroke="black" d="M316.854,-395.145C357.884,-393.961 427.584,-392.249 487.5,-392.249 487.5,-392.249 487.5,-392.249 660,-392.249 722.008,-392.249 751.854,-392.338 791,-344.249 813.211,-316.964 818.442,-208.141 819.648,-165.506"/>
<polygon fill="black" stroke="black" points="819.809,-159.255 822.354,-165.322 819.732,-162.254 819.655,-165.253 819.655,-165.253 819.655,-165.253 819.732,-162.254 816.955,-165.183 819.809,-159.255 819.809,-159.255"/>
</g>
<!-- xliff&#45;tasks -->
<g id="node34" class="node"><title>xliff&#45;tasks</title>
<g id="a_node34"><a xlink:title="3">
<path fill="#b4c6e7" stroke="black" stroke-width="2" d="M300.167,-277.249C300.167,-277.249 260.833,-277.249 260.833,-277.249 257.167,-277.249 253.5,-273.582 253.5,-269.915 253.5,-269.915 253.5,-262.582 253.5,-262.582 253.5,-258.915 257.167,-255.249 260.833,-255.249 260.833,-255.249 300.167,-255.249 300.167,-255.249 303.833,-255.249 307.5,-258.915 307.5,-262.582 307.5,-262.582 307.5,-269.915 307.5,-269.915 307.5,-273.582 303.833,-277.249 300.167,-277.249"/>
<text text-anchor="middle" x="280.5" y="-263.449" font-family="Times New Roman,serif" font-size="11.00">xliff&#45;tasks</text>
</a>
</g>
</g>
<!-- xliff&#45;tasks&#45;&gt;fsharp -->
<g id="edge15" class="edge"><title>xliff&#45;tasks&#45;&gt;fsharp</title>
<path fill="none" stroke="black" d="M307.736,-258.377C315.768,-256.307 324.681,-254.347 333,-253.249 338.426,-252.532 525.585,-253.482 530,-250.249 539.071,-243.605 529.482,-233.587 538,-226.249 545.135,-220.101 600.438,-212.342 633.423,-208.19"/>
<polygon fill="black" stroke="black" points="639.702,-207.409 634.081,-210.829 636.725,-207.779 633.748,-208.149 633.748,-208.149 633.748,-208.149 636.725,-207.779 633.415,-205.47 639.702,-207.409 639.702,-207.409"/>
</g>
<!-- xliff&#45;tasks&#45;&gt;installer -->
<g id="edge32" class="edge"><title>xliff&#45;tasks&#45;&gt;installer</title>
<path fill="none" stroke="black" d="M307.528,-273.387C313.466,-275.51 319.61,-278.123 325,-281.249 329.087,-283.618 328.623,-286.469 333,-288.249 392.123,-312.291 556.869,-308.635 620,-299.249 698.573,-287.566 735.119,-303.706 791,-247.249 812.902,-225.121 818.431,-187.394 819.724,-165.457"/>
<polygon fill="black" stroke="black" points="819.995,-159.453 822.422,-165.568 819.86,-162.45 819.724,-165.446 819.724,-165.446 819.724,-165.446 819.86,-162.45 817.027,-165.325 819.995,-159.453 819.995,-159.453"/>
</g>
<!-- xliff&#45;tasks&#45;&gt;roslyn -->
<g id="edge44" class="edge"><title>xliff&#45;tasks&#45;&gt;roslyn</title>
<path fill="none" stroke="black" d="M307.883,-270.764C314.224,-272.986 320.466,-276.302 325,-281.249 334.905,-292.056 322.821,-302.698 333,-313.249 340.347,-320.864 351.294,-324.682 361.252,-326.57"/>
<polygon fill="black" stroke="black" points="367.283,-327.513 360.938,-329.254 364.319,-327.049 361.355,-326.586 361.355,-326.586 361.355,-326.586 364.319,-327.049 361.772,-323.918 367.283,-327.513 367.283,-327.513"/>
</g>
<!-- xliff&#45;tasks&#45;&gt;sdk -->
<g id="edge57" class="edge"><title>xliff&#45;tasks&#45;&gt;sdk</title>
<path fill="none" stroke="black" d="M285.601,-255.151C292.484,-238.324 308.103,-206.877 333,-193.249 393.295,-160.244 418.763,-186.249 487.5,-186.249 487.5,-186.249 487.5,-186.249 580,-186.249 632.634,-186.249 694.584,-180.504 724.896,-177.317"/>
<polygon fill="black" stroke="black" points="731.213,-176.642 725.534,-179.964 728.23,-176.961 725.247,-177.28 725.247,-177.28 725.247,-177.28 728.23,-176.961 724.96,-174.595 731.213,-176.642 731.213,-176.642"/>
</g>
<!-- s4 -->
<g id="node35" class="node"><title>s4</title>
<g id="a_node35"><a xlink:title="4">
<polygon fill="#cfafe7" stroke="black" stroke-width="2" points="171,-73.2486 16,-73.2486 16,-51.2486 171,-51.2486 171,-73.2486"/>
<text text-anchor="middle" x="93.5" y="-59.4486" font-family="Times New Roman,serif" font-size="11.00">#4 &#45; Prebuilt regressions blocked</text>
</a>
</g>
</g>
</g>
</svg>
