<?xml version="1.0" encoding="UTF-8" standalone="no"?>
<!DOCTYPE svg PUBLIC "-//W3C//DTD SVG 1.1//EN"
 "http://www.w3.org/Graphics/SVG/1.1/DTD/svg11.dtd">
<!-- Generated by graphviz version 2.38.0 (20140413.2041)
 -->
<!-- Title: %3 Pages: 1 -->
<svg width="881pt" height="432pt"
 viewBox="0.00 0.00 881.00 432.32" xmlns="http://www.w3.org/2000/svg" xmlns:xlink="http://www.w3.org/1999/xlink">
<g id="graph0" class="graph" transform="scale(1 1) rotate(0) translate(4 428.323)">
<title>%3</title>
<polygon fill="white" stroke="none" points="-4,4 -4,-428.323 877,-428.323 877,4 -4,4"/>
<g id="clust1" class="cluster"><title>clusterLegend</title>
<polygon fill="#ebebeb" stroke="#ebebeb" points="8,-86.3231 8,-259.323 209,-259.323 209,-86.3231 8,-86.3231"/>
</g>
<!-- s1 -->
<g id="node1" class="node"><title>s1</title>
<g id="a_node1"><a xlink:title="1">
<path fill="#f5f5f5" stroke="black" stroke-dasharray="5,2" d="M135.167,-251.323C135.167,-251.323 81.8333,-251.323 81.8333,-251.323 78.1667,-251.323 74.5,-247.656 74.5,-243.99 74.5,-243.99 74.5,-236.656 74.5,-236.656 74.5,-232.99 78.1667,-229.323 81.8333,-229.323 81.8333,-229.323 135.167,-229.323 135.167,-229.323 138.833,-229.323 142.5,-232.99 142.5,-236.656 142.5,-236.656 142.5,-243.99 142.5,-243.99 142.5,-247.656 138.833,-251.323 135.167,-251.323"/>
<text text-anchor="middle" x="108.5" y="-237.523" font-family="Times New Roman,serif" font-size="11.00">#1 &#45; Built 5.0</text>
</a>
</g>
</g>
<!-- arcade -->
<g id="node2" class="node"><title>arcade</title>
<g id="a_node2"><a xlink:title="1">
<path fill="#f5f5f5" stroke="black" stroke-dasharray="5,2" d="M250.667,-289.323C250.667,-289.323 224.333,-289.323 224.333,-289.323 220.667,-289.323 217,-285.656 217,-281.99 217,-281.99 217,-274.656 217,-274.656 217,-270.99 220.667,-267.323 224.333,-267.323 224.333,-267.323 250.667,-267.323 250.667,-267.323 254.333,-267.323 258,-270.99 258,-274.656 258,-274.656 258,-281.99 258,-281.99 258,-285.656 254.333,-289.323 250.667,-289.323"/>
<text text-anchor="middle" x="237.5" y="-275.523" font-family="Times New Roman,serif" font-size="11.00">arcade</text>
</a>
</g>
</g>
<!-- aspnet&#45;xdt -->
<g id="node3" class="node"><title>aspnet&#45;xdt</title>
<g id="a_node3"><a xlink:title="1">
<path fill="#f5f5f5" stroke="black" stroke-dasharray="5,2" d="M331.167,-240.323C331.167,-240.323 289.833,-240.323 289.833,-240.323 286.167,-240.323 282.5,-236.656 282.5,-232.99 282.5,-232.99 282.5,-225.656 282.5,-225.656 282.5,-221.99 286.167,-218.323 289.833,-218.323 289.833,-218.323 331.167,-218.323 331.167,-218.323 334.833,-218.323 338.5,-221.99 338.5,-225.656 338.5,-225.656 338.5,-232.99 338.5,-232.99 338.5,-236.656 334.833,-240.323 331.167,-240.323"/>
<text text-anchor="middle" x="310.5" y="-226.523" font-family="Times New Roman,serif" font-size="11.00">aspnet&#45;xdt</text>
</a>
</g>
</g>
<!-- arcade&#45;&gt;aspnet&#45;xdt -->
<g id="edge2" class="edge"><title>arcade&#45;&gt;aspnet&#45;xdt</title>
<path fill="none" stroke="black" d="M250.128,-267.277C254.877,-263.009 260.532,-258.224 266,-254.323 271.212,-250.605 277.017,-246.962 282.645,-243.656"/>
<polygon fill="black" stroke="black" points="288.185,-240.473 284.328,-245.803 285.584,-241.967 282.983,-243.462 282.983,-243.462 282.983,-243.462 285.584,-241.967 281.638,-241.121 288.185,-240.473 288.185,-240.473"/>
</g>
<!-- aspnetcore -->
<g id="node4" class="node"><title>aspnetcore</title>
<g id="a_node4"><a xlink:title="1">
<path fill="#f5f5f5" stroke="black" stroke-dasharray="5,2" d="M711.167,-360.323C711.167,-360.323 666.833,-360.323 666.833,-360.323 663.167,-360.323 659.5,-356.656 659.5,-352.99 659.5,-352.99 659.5,-345.656 659.5,-345.656 659.5,-341.99 663.167,-338.323 666.833,-338.323 666.833,-338.323 711.167,-338.323 711.167,-338.323 714.833,-338.323 718.5,-341.99 718.5,-345.656 718.5,-345.656 718.5,-352.99 718.5,-352.99 718.5,-356.656 714.833,-360.323 711.167,-360.323"/>
<text text-anchor="middle" x="689" y="-346.523" font-family="Times New Roman,serif" font-size="11.00">aspnetcore</text>
</a>
</g>
</g>
<!-- arcade&#45;&gt;aspnetcore -->
<g id="edge3" class="edge"><title>arcade&#45;&gt;aspnetcore</title>
<path fill="none" stroke="black" d="M237.828,-289.349C237.234,-310.171 239.312,-355.089 266,-376.323 291.939,-396.961 381.852,-383.323 415,-383.323 415,-383.323 415,-383.323 519.5,-383.323 577.583,-383.323 595.158,-395.456 650,-376.323 657.522,-373.699 664.878,-369.101 671.083,-364.435"/>
<polygon fill="black" stroke="black" points="676.003,-360.541 672.974,-366.382 673.651,-362.403 671.298,-364.264 671.298,-364.264 671.298,-364.264 673.651,-362.403 669.623,-362.147 676.003,-360.541 676.003,-360.541"/>
</g>
<!-- clicommandlineparser -->
<g id="node5" class="node"><title>clicommandlineparser</title>
<g id="a_node5"><a xlink:title="1">
<path fill="#f5f5f5" stroke="black" stroke-dasharray="5,2" d="M461.667,-42.3231C461.667,-42.3231 370.333,-42.3231 370.333,-42.3231 366.667,-42.3231 363,-38.6564 363,-34.9897 363,-34.9897 363,-27.6564 363,-27.6564 363,-23.9897 366.667,-20.3231 370.333,-20.3231 370.333,-20.3231 461.667,-20.3231 461.667,-20.3231 465.333,-20.3231 469,-23.9897 469,-27.6564 469,-27.6564 469,-34.9897 469,-34.9897 469,-38.6564 465.333,-42.3231 461.667,-42.3231"/>
<text text-anchor="middle" x="416" y="-28.5231" font-family="Times New Roman,serif" font-size="11.00">clicommandlineparser</text>
</a>
</g>
</g>
<!-- arcade&#45;&gt;clicommandlineparser -->
<g id="edge9" class="edge"><title>arcade&#45;&gt;clicommandlineparser</title>
<path fill="none" stroke="black" d="M239.02,-267.08C241.175,-222.787 250.051,-61.9928 266,-46.3231 289.298,-23.433 325.611,-19.3961 356.554,-21.2212"/>
<polygon fill="black" stroke="black" points="362.666,-21.6606 356.488,-23.9233 359.674,-21.4454 356.682,-21.2303 356.682,-21.2303 356.682,-21.2303 359.674,-21.4454 356.875,-18.5372 362.666,-21.6606 362.666,-21.6606"/>
</g>
<!-- command&#45;line&#45;api -->
<g id="node6" class="node"><title>command&#45;line&#45;api</title>
<g id="a_node6"><a xlink:title="1">
<path fill="#f5f5f5" stroke="black" stroke-dasharray="5,2" d="M347.667,-375.323C347.667,-375.323 273.333,-375.323 273.333,-375.323 269.667,-375.323 266,-371.656 266,-367.99 266,-367.99 266,-360.656 266,-360.656 266,-356.99 269.667,-353.323 273.333,-353.323 273.333,-353.323 347.667,-353.323 347.667,-353.323 351.333,-353.323 355,-356.99 355,-360.656 355,-360.656 355,-367.99 355,-367.99 355,-371.656 351.333,-375.323 347.667,-375.323"/>
<text text-anchor="middle" x="310.5" y="-361.523" font-family="Times New Roman,serif" font-size="11.00">command&#45;line&#45;api</text>
</a>
</g>
</g>
<!-- arcade&#45;&gt;command&#45;line&#45;api -->
<g id="edge10" class="edge"><title>arcade&#45;&gt;command&#45;line&#45;api</title>
<path fill="none" stroke="black" d="M239.883,-289.534C242.378,-305.051 249.054,-333 266,-349.323 266.093,-349.413 266.188,-349.503 266.282,-349.592"/>
<polygon fill="black" stroke="black" points="270.877,-353.245 264.501,-351.625 268.529,-351.378 266.181,-349.511 266.181,-349.511 266.181,-349.511 268.529,-351.378 267.861,-347.398 270.877,-353.245 270.877,-353.245"/>
</g>
<!-- fsharp -->
<g id="node7" class="node"><title>fsharp</title>
<g id="a_node7"><a xlink:title="1">
<path fill="#f5f5f5" stroke="black" stroke-dasharray="5,2" d="M700.667,-127.323C700.667,-127.323 677.333,-127.323 677.333,-127.323 673.667,-127.323 670,-123.656 670,-119.99 670,-119.99 670,-112.656 670,-112.656 670,-108.99 673.667,-105.323 677.333,-105.323 677.333,-105.323 700.667,-105.323 700.667,-105.323 704.333,-105.323 708,-108.99 708,-112.656 708,-112.656 708,-119.99 708,-119.99 708,-123.656 704.333,-127.323 700.667,-127.323"/>
<text text-anchor="middle" x="689" y="-113.523" font-family="Times New Roman,serif" font-size="11.00">fsharp</text>
</a>
</g>
</g>
<!-- arcade&#45;&gt;fsharp -->
<g id="edge12" class="edge"><title>arcade&#45;&gt;fsharp</title>
<path fill="none" stroke="black" d="M239.36,-267.101C241.281,-248.694 247.345,-211.703 266,-187.323 313.437,-125.327 336.937,-94.3231 415,-94.3231 415,-94.3231 415,-94.3231 519.5,-94.3231 577.67,-94.3231 592.89,-93.2698 650,-104.323 654.483,-105.191 659.18,-106.409 663.683,-107.738"/>
<polygon fill="black" stroke="black" points="669.665,-109.599 663.134,-110.395 666.8,-108.708 663.935,-107.817 663.935,-107.817 663.935,-107.817 666.8,-108.708 664.737,-105.239 669.665,-109.599 669.665,-109.599"/>
</g>
<!-- msbuild -->
<g id="node8" class="node"><title>msbuild</title>
<g id="a_node8"><a xlink:title="1">
<path fill="#f5f5f5" stroke="black" stroke-dasharray="5,2" d="M623.667,-277.323C623.667,-277.323 594.333,-277.323 594.333,-277.323 590.667,-277.323 587,-273.656 587,-269.99 587,-269.99 587,-262.656 587,-262.656 587,-258.99 590.667,-255.323 594.333,-255.323 594.333,-255.323 623.667,-255.323 623.667,-255.323 627.333,-255.323 631,-258.99 631,-262.656 631,-262.656 631,-269.99 631,-269.99 631,-273.656 627.333,-277.323 623.667,-277.323"/>
<text text-anchor="middle" x="609" y="-263.523" font-family="Times New Roman,serif" font-size="11.00">msbuild</text>
</a>
</g>
</g>
<!-- arcade&#45;&gt;msbuild -->
<g id="edge34" class="edge"><title>arcade&#45;&gt;msbuild</title>
<path fill="none" stroke="black" d="M258,-275.236C260.683,-274.885 263.406,-274.566 266,-274.323 396.156,-262.113 429.279,-263.962 560,-265.323 566.764,-265.394 574.064,-265.52 580.879,-265.659"/>
<polygon fill="black" stroke="black" points="586.973,-265.79 580.916,-268.361 583.974,-265.726 580.974,-265.661 580.974,-265.661 580.974,-265.661 583.974,-265.726 581.032,-262.962 586.973,-265.79 586.973,-265.79"/>
</g>
<!-- newtonsoft&#45;json -->
<g id="node9" class="node"><title>newtonsoft&#45;json</title>
<g id="a_node9"><a xlink:title="1">
<path fill="#f5f5f5" stroke="black" stroke-dasharray="5,2" d="M448.667,-201.323C448.667,-201.323 383.333,-201.323 383.333,-201.323 379.667,-201.323 376,-197.656 376,-193.99 376,-193.99 376,-186.656 376,-186.656 376,-182.99 379.667,-179.323 383.333,-179.323 383.333,-179.323 448.667,-179.323 448.667,-179.323 452.333,-179.323 456,-182.99 456,-186.656 456,-186.656 456,-193.99 456,-193.99 456,-197.656 452.333,-201.323 448.667,-201.323"/>
<text text-anchor="middle" x="416" y="-187.523" font-family="Times New Roman,serif" font-size="11.00">newtonsoft&#45;json</text>
</a>
</g>
</g>
<!-- arcade&#45;&gt;newtonsoft&#45;json -->
<g id="edge37" class="edge"><title>arcade&#45;&gt;newtonsoft&#45;json</title>
<path fill="none" stroke="black" d="M240.072,-267.252C242.731,-252.894 249.536,-228.173 266,-215.323 295.174,-192.553 337.451,-187.288 369.525,-187.149"/>
<polygon fill="black" stroke="black" points="375.797,-187.186 369.781,-189.851 372.797,-187.169 369.797,-187.151 369.797,-187.151 369.797,-187.151 372.797,-187.169 369.813,-184.451 375.797,-187.186 375.797,-187.186"/>
</g>
<!-- roslyn -->
<g id="node11" class="node"><title>roslyn</title>
<g id="a_node11"><a xlink:title="1">
<path fill="#f5f5f5" stroke="black" stroke-dasharray="5,2" d="M427.167,-348.323C427.167,-348.323 404.833,-348.323 404.833,-348.323 401.167,-348.323 397.5,-344.656 397.5,-340.99 397.5,-340.99 397.5,-333.656 397.5,-333.656 397.5,-329.99 401.167,-326.323 404.833,-326.323 404.833,-326.323 427.167,-326.323 427.167,-326.323 430.833,-326.323 434.5,-329.99 434.5,-333.656 434.5,-333.656 434.5,-340.99 434.5,-340.99 434.5,-344.656 430.833,-348.323 427.167,-348.323"/>
<text text-anchor="middle" x="416" y="-334.523" font-family="Times New Roman,serif" font-size="11.00">roslyn</text>
</a>
</g>
</g>
<!-- arcade&#45;&gt;roslyn -->
<g id="edge44" class="edge"><title>arcade&#45;&gt;roslyn</title>
<path fill="none" stroke="black" d="M244.728,-289.336C249.546,-296.785 256.919,-306.171 266,-311.323 300.828,-331.081 315.582,-318.284 355,-325.323 367.088,-327.482 380.493,-330.138 391.561,-332.402"/>
<polygon fill="black" stroke="black" points="397.446,-333.613 391.025,-335.048 394.508,-333.008 391.569,-332.403 391.569,-332.403 391.569,-332.403 394.508,-333.008 392.114,-329.759 397.446,-333.613 397.446,-333.613"/>
</g>
<!-- runtime -->
<g id="node13" class="node"><title>runtime</title>
<g id="a_node13"><a xlink:title="1">
<path fill="#f5f5f5" stroke="black" stroke-dasharray="5,2" d="M533.167,-315.323C533.167,-315.323 503.833,-315.323 503.833,-315.323 500.167,-315.323 496.5,-311.656 496.5,-307.99 496.5,-307.99 496.5,-300.656 496.5,-300.656 496.5,-296.99 500.167,-293.323 503.833,-293.323 503.833,-293.323 533.167,-293.323 533.167,-293.323 536.833,-293.323 540.5,-296.99 540.5,-300.656 540.5,-300.656 540.5,-307.99 540.5,-307.99 540.5,-311.656 536.833,-315.323 533.167,-315.323"/>
<text text-anchor="middle" x="518.5" y="-301.523" font-family="Times New Roman,serif" font-size="11.00">runtime</text>
</a>
</g>
</g>
<!-- arcade&#45;&gt;runtime -->
<g id="edge53" class="edge"><title>arcade&#45;&gt;runtime</title>
<path fill="none" stroke="black" d="M249.282,-289.465C253.997,-293.623 259.852,-297.914 266,-300.323 308.028,-316.788 423.884,-308.717 469,-307.323 475.843,-307.112 483.222,-306.733 490.109,-306.314"/>
<polygon fill="black" stroke="black" points="496.266,-305.922 490.449,-308.998 493.272,-306.112 490.278,-306.303 490.278,-306.303 490.278,-306.303 493.272,-306.112 490.106,-303.609 496.266,-305.922 496.266,-305.922"/>
</g>
<!-- runtime&#45;portable -->
<g id="node14" class="node"><title>runtime&#45;portable</title>
<g id="a_node14"><a xlink:title="1">
<path fill="#f5f5f5" stroke="black" stroke-dasharray="5,2" d="M552.667,-288.323C552.667,-288.323 484.333,-288.323 484.333,-288.323 480.667,-288.323 477,-284.656 477,-280.99 477,-280.99 477,-273.656 477,-273.656 477,-269.99 480.667,-266.323 484.333,-266.323 484.333,-266.323 552.667,-266.323 552.667,-266.323 556.333,-266.323 560,-269.99 560,-273.656 560,-273.656 560,-280.99 560,-280.99 560,-284.656 556.333,-288.323 552.667,-288.323"/>
<text text-anchor="middle" x="518.5" y="-274.523" font-family="Times New Roman,serif" font-size="11.00">runtime&#45;portable</text>
</a>
</g>
</g>
<!-- arcade&#45;&gt;runtime&#45;portable -->
<g id="edge48" class="edge"><title>arcade&#45;&gt;runtime&#45;portable</title>
<path fill="none" stroke="black" d="M258.02,-276.728C260.7,-276.56 263.417,-276.417 266,-276.323 356.163,-273.049 378.783,-275.393 469,-276.323 469.474,-276.328 469.95,-276.333 470.429,-276.339"/>
<polygon fill="black" stroke="black" points="476.749,-276.422 470.714,-279.042 473.749,-276.382 470.75,-276.343 470.75,-276.343 470.75,-276.343 473.749,-276.382 470.785,-273.643 476.749,-276.422 476.749,-276.422"/>
</g>
<!-- sdk -->
<g id="node15" class="node"><title>sdk</title>
<g id="a_node15"><a xlink:title="1">
<path fill="#f5f5f5" stroke="black" stroke-dasharray="5,2" d="M780.167,-185.323C780.167,-185.323 768.833,-185.323 768.833,-185.323 765.167,-185.323 761.5,-181.656 761.5,-177.99 761.5,-177.99 761.5,-170.656 761.5,-170.656 761.5,-166.99 765.167,-163.323 768.833,-163.323 768.833,-163.323 780.167,-163.323 780.167,-163.323 783.833,-163.323 787.5,-166.99 787.5,-170.656 787.5,-170.656 787.5,-177.99 787.5,-177.99 787.5,-181.656 783.833,-185.323 780.167,-185.323"/>
<text text-anchor="middle" x="774.5" y="-171.523" font-family="Times New Roman,serif" font-size="11.00">sdk</text>
</a>
</g>
</g>
<!-- arcade&#45;&gt;sdk -->
<g id="edge59" class="edge"><title>arcade&#45;&gt;sdk</title>
<path fill="none" stroke="black" d="M239.06,-267.136C241.306,-224.539 250.299,-74.1679 266,-60.3231 284.927,-43.6337 700.522,-58.28 720,-74.3231 729.99,-82.5514 722.712,-90.5105 728,-102.323 737.068,-122.578 751.141,-143.829 761.235,-157.947"/>
<polygon fill="black" stroke="black" points="765.023,-163.174 759.316,-159.9 763.262,-160.745 761.502,-158.316 761.502,-158.316 761.502,-158.316 763.262,-160.745 763.688,-156.731 765.023,-163.174 765.023,-163.174"/>
</g>
<!-- installer -->
<g id="node18" class="node"><title>installer</title>
<g id="a_node18"><a xlink:title="1">
<path fill="#f5f5f5" stroke="black" stroke-dasharray="5,2" d="M865.667,-204.323C865.667,-204.323 836.333,-204.323 836.333,-204.323 832.667,-204.323 829,-200.656 829,-196.99 829,-196.99 829,-189.656 829,-189.656 829,-185.99 832.667,-182.323 836.333,-182.323 836.333,-182.323 865.667,-182.323 865.667,-182.323 869.333,-182.323 873,-185.99 873,-189.656 873,-189.656 873,-196.99 873,-196.99 873,-200.656 869.333,-204.323 865.667,-204.323"/>
<text text-anchor="middle" x="851" y="-190.523" font-family="Times New Roman,serif" font-size="11.00">installer</text>
</a>
</g>
</g>
<!-- arcade&#45;&gt;installer -->
<g id="edge18" class="edge"><title>arcade&#45;&gt;installer</title>
<path fill="none" stroke="black" d="M239.682,-289.427C242.59,-314.442 250.973,-373.982 266,-386.323 291.625,-407.367 381.841,-394.323 415,-394.323 415,-394.323 415,-394.323 690,-394.323 751.419,-394.323 780.747,-396.712 821,-350.323 838.957,-329.629 846.474,-247.267 848.967,-210.825"/>
<polygon fill="black" stroke="black" points="849.375,-204.58 851.678,-210.743 849.179,-207.573 848.984,-210.567 848.984,-210.567 848.984,-210.567 849.179,-207.573 846.289,-210.391 849.375,-204.58 849.375,-204.58"/>
</g>
<!-- symreader -->
<g id="node19" class="node"><title>symreader</title>
<g id="a_node19"><a xlink:title="1">
<path fill="#f5f5f5" stroke="black" stroke-dasharray="5,2" d="M331.667,-299.323C331.667,-299.323 289.333,-299.323 289.333,-299.323 285.667,-299.323 282,-295.656 282,-291.99 282,-291.99 282,-284.656 282,-284.656 282,-280.99 285.667,-277.323 289.333,-277.323 289.333,-277.323 331.667,-277.323 331.667,-277.323 335.333,-277.323 339,-280.99 339,-284.656 339,-284.656 339,-291.99 339,-291.99 339,-295.656 335.333,-299.323 331.667,-299.323"/>
<text text-anchor="middle" x="310.5" y="-285.523" font-family="Times New Roman,serif" font-size="11.00">symreader</text>
</a>
</g>
</g>
<!-- arcade&#45;&gt;symreader -->
<g id="edge69" class="edge"><title>arcade&#45;&gt;symreader</title>
<path fill="none" stroke="black" d="M258.277,-281.109C263.755,-281.88 269.859,-282.74 275.89,-283.589"/>
<polygon fill="black" stroke="black" points="281.87,-284.432 275.552,-286.268 278.899,-284.013 275.929,-283.595 275.929,-283.595 275.929,-283.595 278.899,-284.013 276.305,-280.921 281.87,-284.432 281.87,-284.432"/>
</g>
<!-- test&#45;templates -->
<g id="node21" class="node"><title>test&#45;templates</title>
<g id="a_node21"><a xlink:title="1">
<path fill="#f5f5f5" stroke="black" stroke-dasharray="5,2" d="M339.167,-424.323C339.167,-424.323 281.833,-424.323 281.833,-424.323 278.167,-424.323 274.5,-420.656 274.5,-416.99 274.5,-416.99 274.5,-409.656 274.5,-409.656 274.5,-405.99 278.167,-402.323 281.833,-402.323 281.833,-402.323 339.167,-402.323 339.167,-402.323 342.833,-402.323 346.5,-405.99 346.5,-409.656 346.5,-409.656 346.5,-416.99 346.5,-416.99 346.5,-420.656 342.833,-424.323 339.167,-424.323"/>
<text text-anchor="middle" x="310.5" y="-410.523" font-family="Times New Roman,serif" font-size="11.00">test&#45;templates</text>
</a>
</g>
</g>
<!-- arcade&#45;&gt;test&#45;templates -->
<g id="edge72" class="edge"><title>arcade&#45;&gt;test&#45;templates</title>
<path fill="none" stroke="black" d="M237.724,-289.516C236.743,-312.825 237.858,-367.003 266,-398.323 266.954,-399.385 267.988,-400.372 269.084,-401.289"/>
<polygon fill="black" stroke="black" points="274.247,-404.879 267.779,-403.671 271.784,-403.166 269.32,-401.454 269.32,-401.454 269.32,-401.454 271.784,-403.166 270.862,-399.237 274.247,-404.879 274.247,-404.879"/>
</g>
<!-- nuget&#45;client -->
<g id="node10" class="node"><title>nuget&#45;client</title>
<g id="a_node10"><a xlink:title="1">
<path fill="#f5f5f5" stroke="black" stroke-dasharray="5,2" d="M712.667,-195.323C712.667,-195.323 665.333,-195.323 665.333,-195.323 661.667,-195.323 658,-191.656 658,-187.99 658,-187.99 658,-180.656 658,-180.656 658,-176.99 661.667,-173.323 665.333,-173.323 665.333,-173.323 712.667,-173.323 712.667,-173.323 716.333,-173.323 720,-176.99 720,-180.656 720,-180.656 720,-187.99 720,-187.99 720,-191.656 716.333,-195.323 712.667,-195.323"/>
<text text-anchor="middle" x="689" y="-181.523" font-family="Times New Roman,serif" font-size="11.00">nuget&#45;client</text>
</a>
</g>
</g>
<!-- aspnet&#45;xdt&#45;&gt;nuget&#45;client -->
<g id="edge41" class="edge"><title>aspnet&#45;xdt&#45;&gt;nuget&#45;client</title>
<path fill="none" stroke="black" d="M338.627,-227.413C407.982,-222.413 590.486,-208.482 650,-196.323 650.644,-196.192 651.292,-196.053 651.944,-195.909"/>
<polygon fill="black" stroke="black" points="657.867,-194.464 652.678,-198.509 654.952,-195.175 652.038,-195.886 652.038,-195.886 652.038,-195.886 654.952,-195.175 651.398,-193.263 657.867,-194.464 657.867,-194.464"/>
</g>
<!-- aspnetcore&#45;&gt;installer -->
<g id="edge19" class="edge"><title>aspnetcore&#45;&gt;installer</title>
<path fill="none" stroke="black" d="M718.676,-354.83C748.168,-358.709 793.554,-359.433 821,-334.323 838.978,-317.875 846.394,-244.674 848.907,-210.723"/>
<polygon fill="black" stroke="black" points="849.346,-204.485 851.618,-210.66 849.136,-207.478 848.925,-210.47 848.925,-210.47 848.925,-210.47 849.136,-207.478 846.232,-210.281 849.346,-204.485 849.346,-204.485"/>
</g>
<!-- templating -->
<g id="node16" class="node"><title>templating</title>
<g id="a_node16"><a xlink:title="1">
<path fill="#f5f5f5" stroke="black" stroke-dasharray="5,2" d="M539.167,-53.3231C539.167,-53.3231 497.833,-53.3231 497.833,-53.3231 494.167,-53.3231 490.5,-49.6564 490.5,-45.9897 490.5,-45.9897 490.5,-38.6564 490.5,-38.6564 490.5,-34.9897 494.167,-31.3231 497.833,-31.3231 497.833,-31.3231 539.167,-31.3231 539.167,-31.3231 542.833,-31.3231 546.5,-34.9897 546.5,-38.6564 546.5,-38.6564 546.5,-45.9897 546.5,-45.9897 546.5,-49.6564 542.833,-53.3231 539.167,-53.3231"/>
<text text-anchor="middle" x="518.5" y="-39.5231" font-family="Times New Roman,serif" font-size="11.00">templating</text>
</a>
</g>
</g>
<!-- clicommandlineparser&#45;&gt;templating -->
<g id="edge70" class="edge"><title>clicommandlineparser&#45;&gt;templating</title>
<path fill="none" stroke="black" d="M469.016,-37.0164C474.202,-37.5841 479.364,-38.1489 484.278,-38.6869"/>
<polygon fill="black" stroke="black" points="490.355,-39.352 484.097,-41.3831 487.373,-39.0255 484.391,-38.6991 484.391,-38.6991 484.391,-38.6991 487.373,-39.0255 484.684,-36.0151 490.355,-39.352 490.355,-39.352"/>
</g>
<!-- clicommandlineparser&#45;&gt;installer -->
<g id="edge20" class="edge"><title>clicommandlineparser&#45;&gt;installer</title>
<path fill="none" stroke="black" d="M469.285,-20.4053C471.888,-20.0065 474.471,-19.6419 477,-19.3231 534.848,-12.0313 549.695,-12.3231 608,-12.3231 608,-12.3231 608,-12.3231 690,-12.3231 748.305,-12.3231 777.534,19.5379 821,-19.3231 843.985,-39.8729 848.754,-135.738 849.742,-175.73"/>
<polygon fill="black" stroke="black" points="849.878,-182.085 847.05,-176.144 849.814,-179.085 849.749,-176.086 849.749,-176.086 849.749,-176.086 849.814,-179.085 852.449,-176.028 849.878,-182.085 849.878,-182.085"/>
</g>
<!-- command&#45;line&#45;api&#45;&gt;roslyn -->
<g id="edge45" class="edge"><title>command&#45;line&#45;api&#45;&gt;roslyn</title>
<path fill="none" stroke="black" d="M353.896,-353.263C366.708,-349.921 380.311,-346.372 391.422,-343.474"/>
<polygon fill="black" stroke="black" points="397.318,-341.936 392.194,-346.063 394.415,-342.693 391.512,-343.45 391.512,-343.45 391.512,-343.45 394.415,-342.693 390.831,-340.838 397.318,-341.936 397.318,-341.936"/>
</g>
<!-- fsharp&#45;&gt;sdk -->
<g id="edge68" class="edge"><title>fsharp&#45;&gt;sdk</title>
<path fill="none" stroke="black" d="M706.1,-127.506C720.45,-137.474 741.402,-152.027 756.127,-162.256"/>
<polygon fill="black" stroke="black" points="761.247,-165.812 754.778,-164.606 758.783,-164.1 756.319,-162.389 756.319,-162.389 756.319,-162.389 758.783,-164.1 757.859,-160.171 761.247,-165.812 761.247,-165.812"/>
</g>
<!-- fsharp&#45;&gt;installer -->
<g id="edge21" class="edge"><title>fsharp&#45;&gt;installer</title>
<path fill="none" stroke="black" d="M708.421,-114.784C735.667,-113.48 787.128,-114.839 821,-139.323 833.338,-148.241 840.943,-164.056 845.252,-176.274"/>
<polygon fill="black" stroke="black" points="847.212,-182.28 842.783,-177.414 846.281,-179.428 845.35,-176.576 845.35,-176.576 845.35,-176.576 846.281,-179.428 847.917,-175.738 847.212,-182.28 847.212,-182.28"/>
</g>
<!-- msbuild&#45;&gt;aspnetcore -->
<g id="edge6" class="edge"><title>msbuild&#45;&gt;aspnetcore</title>
<path fill="none" stroke="black" d="M631.213,-276.629C637.687,-280.384 644.532,-285.026 650,-290.323 662.749,-302.673 673.294,-320.075 680.015,-332.778"/>
<polygon fill="black" stroke="black" points="682.828,-338.25 677.683,-334.148 681.456,-335.582 680.084,-332.914 680.084,-332.914 680.084,-332.914 681.456,-335.582 682.486,-331.679 682.828,-338.25 682.828,-338.25"/>
</g>
<!-- msbuild&#45;&gt;fsharp -->
<g id="edge13" class="edge"><title>msbuild&#45;&gt;fsharp</title>
<path fill="none" stroke="black" d="M615.317,-255.302C624.012,-237.37 641.917,-200.814 658,-170.323 664.67,-157.677 672.529,-143.558 678.529,-132.93"/>
<polygon fill="black" stroke="black" points="681.652,-127.416 681.045,-133.967 680.174,-130.026 678.695,-132.636 678.695,-132.636 678.695,-132.636 680.174,-130.026 676.346,-131.306 681.652,-127.416 681.652,-127.416"/>
</g>
<!-- msbuild&#45;&gt;nuget&#45;client -->
<g id="edge40" class="edge"><title>msbuild&#45;&gt;nuget&#45;client</title>
<path fill="none" stroke="black" d="M620.519,-255.264C634.011,-241.081 657.5,-216.388 672.899,-200.199"/>
<polygon fill="black" stroke="black" points="677.398,-195.469 675.219,-201.677 675.33,-197.642 673.263,-199.816 673.263,-199.816 673.263,-199.816 675.33,-197.642 671.306,-197.955 677.398,-195.469 677.398,-195.469"/>
</g>
<!-- msbuild&#45;&gt;sdk -->
<g id="edge62" class="edge"><title>msbuild&#45;&gt;sdk</title>
<path fill="none" stroke="black" d="M631.121,-259.1C653.916,-250.857 690.866,-236.18 720,-218.323 733.393,-210.114 747.048,-198.827 757.21,-189.74"/>
<polygon fill="black" stroke="black" points="761.902,-185.479 759.275,-191.511 759.681,-187.496 757.46,-189.513 757.46,-189.513 757.46,-189.513 759.681,-187.496 755.645,-187.514 761.902,-185.479 761.902,-185.479"/>
</g>
<!-- msbuild&#45;&gt;installer -->
<g id="edge22" class="edge"><title>msbuild&#45;&gt;installer</title>
<path fill="none" stroke="black" d="M631.024,-271.137C671.601,-279.17 761.915,-290.804 821,-251.323 834.962,-241.994 842.499,-223.846 846.358,-210.324"/>
<polygon fill="black" stroke="black" points="847.882,-204.484 848.979,-210.972 847.125,-207.387 846.367,-210.29 846.367,-210.29 846.367,-210.29 847.125,-207.387 843.755,-209.608 847.882,-204.484 847.882,-204.484"/>
</g>
<!-- newtonsoft&#45;json&#45;&gt;fsharp -->
<g id="edge15" class="edge"><title>newtonsoft&#45;json&#45;&gt;fsharp</title>
<path fill="none" stroke="black" d="M421.61,-179.165C429.736,-161.176 448.491,-126.361 477,-112.323 509.165,-96.4849 615.472,-107.201 663.758,-113.127"/>
<polygon fill="black" stroke="black" points="669.899,-113.893 663.61,-115.829 666.922,-113.522 663.945,-113.15 663.945,-113.15 663.945,-113.15 666.922,-113.522 664.279,-110.471 669.899,-113.893 669.899,-113.893"/>
</g>
<!-- newtonsoft&#45;json&#45;&gt;nuget&#45;client -->
<g id="edge39" class="edge"><title>newtonsoft&#45;json&#45;&gt;nuget&#45;client</title>
<path fill="none" stroke="black" d="M456.011,-194.793C462.991,-195.43 470.204,-195.984 477,-196.323 513.843,-198.161 523.151,-198.047 560,-196.323 591.064,-194.87 626.23,-191.444 651.831,-188.623"/>
<polygon fill="black" stroke="black" points="657.797,-187.958 652.134,-191.306 654.816,-188.29 651.834,-188.623 651.834,-188.623 651.834,-188.623 654.816,-188.29 651.535,-185.94 657.797,-187.958 657.797,-187.958"/>
</g>
<!-- newtonsoft&#45;json&#45;&gt;runtime -->
<g id="edge56" class="edge"><title>newtonsoft&#45;json&#45;&gt;runtime</title>
<path fill="none" stroke="black" d="M442.059,-201.386C452.056,-207.087 462.672,-215.034 469,-225.323 484.017,-249.741 459.194,-266.858 477,-289.323 480.489,-293.725 485.403,-296.835 490.611,-299.032"/>
<polygon fill="black" stroke="black" points="496.322,-301.076 489.763,-301.596 493.498,-300.065 490.673,-299.054 490.673,-299.054 490.673,-299.054 493.498,-300.065 491.583,-296.512 496.322,-301.076 496.322,-301.076"/>
</g>
<!-- newtonsoft&#45;json&#45;&gt;runtime&#45;portable -->
<g id="edge50" class="edge"><title>newtonsoft&#45;json&#45;&gt;runtime&#45;portable</title>
<path fill="none" stroke="black" d="M435.54,-201.348C445.809,-207.806 458.569,-216.424 469,-225.323 482.031,-236.44 495.184,-250.782 504.498,-261.587"/>
<polygon fill="black" stroke="black" points="508.494,-266.278 502.548,-263.461 506.548,-263.994 504.603,-261.71 504.603,-261.71 504.603,-261.71 506.548,-263.994 506.659,-259.96 508.494,-266.278 508.494,-266.278"/>
</g>
<!-- newtonsoft&#45;json&#45;&gt;sdk -->
<g id="edge63" class="edge"><title>newtonsoft&#45;json&#45;&gt;sdk</title>
<path fill="none" stroke="black" d="M447.443,-179.32C456.796,-176.45 467.208,-173.76 477,-172.323 581.34,-157.009 708.563,-167.486 755.225,-172.283"/>
<polygon fill="black" stroke="black" points="761.264,-172.918 755.014,-174.975 758.28,-172.604 755.297,-172.29 755.297,-172.29 755.297,-172.29 758.28,-172.604 755.579,-169.605 761.264,-172.918 761.264,-172.918"/>
</g>
<!-- newtonsoft&#45;json&#45;&gt;templating -->
<g id="edge71" class="edge"><title>newtonsoft&#45;json&#45;&gt;templating</title>
<path fill="none" stroke="black" d="M424.547,-179.063C435.89,-162.154 458.029,-129.211 477,-101.323 486.817,-86.8918 498.056,-70.5318 506.2,-58.7058"/>
<polygon fill="black" stroke="black" points="509.708,-53.6145 508.527,-60.0872 508.006,-56.0849 506.304,-58.5554 506.304,-58.5554 506.304,-58.5554 508.006,-56.0849 504.08,-57.0235 509.708,-53.6145 509.708,-53.6145"/>
</g>
<!-- vstest -->
<g id="node17" class="node"><title>vstest</title>
<g id="a_node17"><a xlink:title="1">
<path fill="#f5f5f5" stroke="black" stroke-dasharray="5,2" d="M619.667,-157.323C619.667,-157.323 598.333,-157.323 598.333,-157.323 594.667,-157.323 591,-153.656 591,-149.99 591,-149.99 591,-142.656 591,-142.656 591,-138.99 594.667,-135.323 598.333,-135.323 598.333,-135.323 619.667,-135.323 619.667,-135.323 623.333,-135.323 627,-138.99 627,-142.656 627,-142.656 627,-149.99 627,-149.99 627,-153.656 623.333,-157.323 619.667,-157.323"/>
<text text-anchor="middle" x="609" y="-143.523" font-family="Times New Roman,serif" font-size="11.00">vstest</text>
</a>
</g>
</g>
<!-- newtonsoft&#45;json&#45;&gt;vstest -->
<g id="edge75" class="edge"><title>newtonsoft&#45;json&#45;&gt;vstest</title>
<path fill="none" stroke="black" d="M424.776,-179.095C434.952,-165.5 454.199,-143.31 477,-134.323 512.754,-120.23 558.105,-129.849 584.989,-138.097"/>
<polygon fill="black" stroke="black" points="590.759,-139.933 584.223,-140.686 587.901,-139.023 585.042,-138.113 585.042,-138.113 585.042,-138.113 587.901,-139.023 585.861,-135.541 590.759,-139.933 590.759,-139.933"/>
</g>
<!-- newtonsoft&#45;json&#45;&gt;installer -->
<g id="edge24" class="edge"><title>newtonsoft&#45;json&#45;&gt;installer</title>
<path fill="none" stroke="black" d="M456.234,-198.569C463.125,-199.715 470.25,-200.709 477,-201.323 606.094,-213.059 761.301,-201.557 822.9,-195.977"/>
<polygon fill="black" stroke="black" points="828.911,-195.424 823.184,-198.663 825.924,-195.699 822.936,-195.974 822.936,-195.974 822.936,-195.974 825.924,-195.699 822.689,-193.285 828.911,-195.424 828.911,-195.424"/>
</g>
<!-- common -->
<g id="node20" class="node"><title>common</title>
<g id="a_node20"><a xlink:title="1">
<path fill="#f5f5f5" stroke="black" stroke-dasharray="5,2" d="M535.167,-195.323C535.167,-195.323 501.833,-195.323 501.833,-195.323 498.167,-195.323 494.5,-191.656 494.5,-187.99 494.5,-187.99 494.5,-180.656 494.5,-180.656 494.5,-176.99 498.167,-173.323 501.833,-173.323 501.833,-173.323 535.167,-173.323 535.167,-173.323 538.833,-173.323 542.5,-176.99 542.5,-180.656 542.5,-180.656 542.5,-187.99 542.5,-187.99 542.5,-191.656 538.833,-195.323 535.167,-195.323"/>
<text text-anchor="middle" x="518.5" y="-181.523" font-family="Times New Roman,serif" font-size="11.00">common</text>
</a>
</g>
</g>
<!-- newtonsoft&#45;json&#45;&gt;common -->
<g id="edge11" class="edge"><title>newtonsoft&#45;json&#45;&gt;common</title>
<path fill="none" stroke="black" d="M456.144,-187.986C466.824,-187.349 478.209,-186.669 488.235,-186.07"/>
<polygon fill="black" stroke="black" points="494.284,-185.709 488.455,-188.762 491.289,-185.888 488.294,-186.067 488.294,-186.067 488.294,-186.067 491.289,-185.888 488.133,-183.372 494.284,-185.709 494.284,-185.709"/>
</g>
<!-- nuget&#45;client&#45;&gt;sdk -->
<g id="edge65" class="edge"><title>nuget&#45;client&#45;&gt;sdk</title>
<path fill="none" stroke="black" d="M720.145,-180.713C731.906,-179.304 745,-177.736 755.274,-176.506"/>
<polygon fill="black" stroke="black" points="761.269,-175.788 755.633,-179.182 758.29,-176.145 755.312,-176.501 755.312,-176.501 755.312,-176.501 758.29,-176.145 754.99,-173.821 761.269,-175.788 761.269,-175.788"/>
</g>
<!-- nuget&#45;client&#45;&gt;installer -->
<g id="edge26" class="edge"><title>nuget&#45;client&#45;&gt;installer</title>
<path fill="none" stroke="black" d="M720.095,-186.016C749.55,-187.673 794.034,-190.175 822.548,-191.779"/>
<polygon fill="black" stroke="black" points="828.73,-192.127 822.588,-194.485 825.735,-191.958 822.739,-191.79 822.739,-191.79 822.739,-191.79 825.735,-191.958 822.891,-189.094 828.73,-192.127 828.73,-192.127"/>
</g>
<!-- roslyn&#45;&gt;aspnetcore -->
<g id="edge7" class="edge"><title>roslyn&#45;&gt;aspnetcore</title>
<path fill="none" stroke="black" d="M434.714,-341.823C446.588,-344.602 462.623,-347.899 477,-349.323 510.036,-352.594 602.06,-351.233 652.985,-350.16"/>
<polygon fill="black" stroke="black" points="659.286,-350.024 653.345,-352.853 656.286,-350.089 653.287,-350.153 653.287,-350.153 653.287,-350.153 656.286,-350.089 653.229,-347.454 659.286,-350.024 659.286,-350.024"/>
</g>
<!-- roslyn&#45;&gt;msbuild -->
<g id="edge36" class="edge"><title>roslyn&#45;&gt;msbuild</title>
<path fill="none" stroke="black" d="M434.687,-335.234C471.901,-330.77 555.275,-320.377 560,-316.323 569.176,-308.451 560.545,-299.841 568,-290.323 571.594,-285.735 576.328,-281.829 581.278,-278.585"/>
<polygon fill="black" stroke="black" points="586.69,-275.324 582.944,-280.734 584.12,-276.873 581.551,-278.421 581.551,-278.421 581.551,-278.421 584.12,-276.873 580.157,-276.109 586.69,-275.324 586.69,-275.324"/>
</g>
<!-- roslyn&#45;analyzers -->
<g id="node12" class="node"><title>roslyn&#45;analyzers</title>
<g id="a_node12"><a xlink:title="1">
<path fill="#f5f5f5" stroke="black" stroke-dasharray="5,2" d="M642.667,-315.323C642.667,-315.323 575.333,-315.323 575.333,-315.323 571.667,-315.323 568,-311.656 568,-307.99 568,-307.99 568,-300.656 568,-300.656 568,-296.99 571.667,-293.323 575.333,-293.323 575.333,-293.323 642.667,-293.323 642.667,-293.323 646.333,-293.323 650,-296.99 650,-300.656 650,-300.656 650,-307.99 650,-307.99 650,-311.656 646.333,-315.323 642.667,-315.323"/>
<text text-anchor="middle" x="609" y="-301.523" font-family="Times New Roman,serif" font-size="11.00">roslyn&#45;analyzers</text>
</a>
</g>
</g>
<!-- roslyn&#45;&gt;roslyn&#45;analyzers -->
<g id="edge43" class="edge"><title>roslyn&#45;&gt;roslyn&#45;analyzers</title>
<path fill="none" stroke="black" d="M434.511,-338.186C461.815,-339.069 515.968,-338.958 560,-327.323 567.974,-325.216 576.222,-321.783 583.584,-318.204"/>
<polygon fill="black" stroke="black" points="589.021,-315.458 584.882,-320.573 586.343,-316.811 583.665,-318.163 583.665,-318.163 583.665,-318.163 586.343,-316.811 582.448,-315.753 589.021,-315.458 589.021,-315.458"/>
</g>
<!-- roslyn&#45;&gt;runtime -->
<g id="edge58" class="edge"><title>roslyn&#45;&gt;runtime</title>
<path fill="none" stroke="black" d="M434.915,-332.527C444.989,-329.737 457.761,-326.045 469,-322.323 472.605,-321.129 473.442,-320.649 477,-319.323 481.446,-317.666 486.169,-315.912 490.76,-314.209"/>
<polygon fill="black" stroke="black" points="496.474,-312.092 491.786,-316.709 493.661,-313.135 490.848,-314.177 490.848,-314.177 490.848,-314.177 493.661,-313.135 489.909,-311.645 496.474,-312.092 496.474,-312.092"/>
</g>
<!-- roslyn&#45;&gt;runtime&#45;portable -->
<g id="edge52" class="edge"><title>roslyn&#45;&gt;runtime&#45;portable</title>
<path fill="none" stroke="black" d="M434.625,-326.623C445.072,-319.923 458.314,-310.787 469,-301.323 473.006,-297.775 472.581,-295.342 477,-292.323 477.395,-292.053 477.795,-291.788 478.2,-291.526"/>
<polygon fill="black" stroke="black" points="483.702,-288.355 479.852,-293.69 481.103,-289.853 478.504,-291.351 478.504,-291.351 478.504,-291.351 481.103,-289.853 477.155,-289.012 483.702,-288.355 483.702,-288.355"/>
</g>
<!-- roslyn&#45;&gt;installer -->
<g id="edge27" class="edge"><title>roslyn&#45;&gt;installer</title>
<path fill="none" stroke="black" d="M434.803,-337.855C505.178,-339.578 762.948,-342.194 821,-290.323 843.785,-269.964 848.998,-232.526 849.997,-210.592"/>
<polygon fill="black" stroke="black" points="850.182,-204.582 852.696,-210.662 850.09,-207.58 849.997,-210.579 849.997,-210.579 849.997,-210.579 850.09,-207.58 847.298,-210.495 850.182,-204.582 850.182,-204.582"/>
</g>
<!-- roslyn&#45;analyzers&#45;&gt;aspnetcore -->
<g id="edge8" class="edge"><title>roslyn&#45;analyzers&#45;&gt;aspnetcore</title>
<path fill="none" stroke="black" d="M642.277,-315.418C644.938,-316.635 647.545,-317.939 650,-319.323 657.468,-323.535 665.017,-329.153 671.398,-334.388"/>
<polygon fill="black" stroke="black" points="676.028,-338.287 669.7,-336.488 673.733,-336.355 671.439,-334.423 671.439,-334.423 671.439,-334.423 673.733,-336.355 673.178,-332.357 676.028,-338.287 676.028,-338.287"/>
</g>
<!-- roslyn&#45;analyzers&#45;&gt;sdk -->
<g id="edge66" class="edge"><title>roslyn&#45;analyzers&#45;&gt;sdk</title>
<path fill="none" stroke="black" d="M633.38,-293.21C656.72,-281.473 692.918,-261.482 720,-238.323 736.518,-224.198 752.056,-204.639 762.086,-190.871"/>
<polygon fill="black" stroke="black" points="765.778,-185.721 764.476,-192.171 764.03,-188.159 762.282,-190.597 762.282,-190.597 762.282,-190.597 764.03,-188.159 760.088,-189.024 765.778,-185.721 765.778,-185.721"/>
</g>
<!-- runtime&#45;&gt;aspnetcore -->
<g id="edge5" class="edge"><title>runtime&#45;&gt;aspnetcore</title>
<path fill="none" stroke="black" d="M540.841,-310.022C569.102,-317.57 619.307,-330.978 653.119,-340.008"/>
<polygon fill="black" stroke="black" points="659.233,-341.64 652.739,-342.701 656.334,-340.866 653.436,-340.092 653.436,-340.092 653.436,-340.092 656.334,-340.866 654.133,-337.484 659.233,-341.64 659.233,-341.64"/>
</g>
<!-- runtime&#45;&gt;msbuild -->
<g id="edge35" class="edge"><title>runtime&#45;&gt;msbuild</title>
<path fill="none" stroke="black" d="M540.5,-298.475C547.03,-296.16 554.066,-293.127 560,-289.323 564.233,-286.609 563.772,-284.045 568,-281.323 572.034,-278.726 576.583,-276.483 581.13,-274.582"/>
<polygon fill="black" stroke="black" points="586.848,-272.356 582.237,-277.049 584.053,-273.444 581.257,-274.533 581.257,-274.533 581.257,-274.533 584.053,-273.444 580.277,-272.016 586.848,-272.356 586.848,-272.356"/>
</g>
<!-- runtime&#45;&gt;roslyn&#45;analyzers -->
<g id="edge42" class="edge"><title>runtime&#45;&gt;roslyn&#45;analyzers</title>
<path fill="none" stroke="black" d="M540.923,-304.323C547.238,-304.323 554.407,-304.323 561.65,-304.323"/>
<polygon fill="black" stroke="black" points="567.736,-304.323 561.736,-307.023 564.736,-304.323 561.736,-304.323 561.736,-304.323 561.736,-304.323 564.736,-304.323 561.736,-301.623 567.736,-304.323 567.736,-304.323"/>
</g>
<!-- runtime&#45;&gt;sdk -->
<g id="edge61" class="edge"><title>runtime&#45;&gt;sdk</title>
<path fill="none" stroke="black" d="M540.815,-300.711C547.832,-298.515 555.087,-294.987 560,-289.323 571.024,-276.614 556.83,-264.905 568,-252.323 614.774,-199.636 654.767,-233.939 720,-207.323 732.907,-202.057 746.253,-193.83 756.387,-186.909"/>
<polygon fill="black" stroke="black" points="761.374,-183.43 757.997,-189.077 758.914,-185.147 756.453,-186.863 756.453,-186.863 756.453,-186.863 758.914,-185.147 754.908,-184.648 761.374,-183.43 761.374,-183.43"/>
</g>
<!-- runtime&#45;&gt;vstest -->
<g id="edge74" class="edge"><title>runtime&#45;&gt;vstest</title>
<path fill="none" stroke="black" d="M540.629,-301.037C547.801,-298.872 555.204,-295.281 560,-289.323 576.041,-269.396 560.749,-256.855 568,-232.323 575.464,-207.07 589.213,-179.807 598.481,-162.9"/>
<polygon fill="black" stroke="black" points="601.437,-157.581 600.882,-164.137 599.979,-160.203 598.522,-162.826 598.522,-162.826 598.522,-162.826 599.979,-160.203 596.162,-161.514 601.437,-157.581 601.437,-157.581"/>
</g>
<!-- runtime&#45;&gt;installer -->
<g id="edge28" class="edge"><title>runtime&#45;&gt;installer</title>
<path fill="none" stroke="black" d="M540.601,-298.362C549.059,-296.167 558.933,-293.848 568,-292.323 679.345,-273.599 731.011,-337.516 821,-269.323 839.345,-255.421 846.086,-228.416 848.562,-210.626"/>
<polygon fill="black" stroke="black" points="849.295,-204.531 851.259,-210.81 848.937,-207.509 848.579,-210.488 848.579,-210.488 848.579,-210.488 848.937,-207.509 845.898,-210.165 849.295,-204.531 849.295,-204.531"/>
</g>
<!-- sdk&#45;&gt;installer -->
<g id="edge29" class="edge"><title>sdk&#45;&gt;installer</title>
<path fill="none" stroke="black" d="M787.802,-177.461C797.304,-179.884 810.815,-183.33 822.818,-186.391"/>
<polygon fill="black" stroke="black" points="828.928,-187.949 822.447,-189.083 826.021,-187.208 823.114,-186.466 823.114,-186.466 823.114,-186.466 826.021,-187.208 823.782,-183.85 828.928,-187.949 828.928,-187.949"/>
</g>
<!-- templating&#45;&gt;installer -->
<g id="edge30" class="edge"><title>templating&#45;&gt;installer</title>
<path fill="none" stroke="black" d="M546.82,-35.7097C588.806,-27.2683 669.609,-18.0643 720,-57.3231 728.87,-64.2333 720.126,-73.2965 728,-81.3231 758.713,-112.632 789.82,-83.479 821,-114.323 837.929,-131.069 845.057,-158.514 848.001,-176.246"/>
<polygon fill="black" stroke="black" points="848.907,-182.302 845.349,-176.768 848.463,-179.335 848.019,-176.368 848.019,-176.368 848.019,-176.368 848.463,-179.335 850.69,-175.969 848.907,-182.302 848.907,-182.302"/>
</g>
<!-- vstest&#45;&gt;sdk -->
<g id="edge67" class="edge"><title>vstest&#45;&gt;sdk</title>
<path fill="none" stroke="black" d="M627.236,-148.118C648.968,-150.508 687.426,-155.162 720,-161.323 731.822,-163.559 744.953,-166.739 755.247,-169.395"/>
<polygon fill="black" stroke="black" points="761.253,-170.967 754.765,-172.059 758.351,-170.207 755.449,-169.447 755.449,-169.447 755.449,-169.447 758.351,-170.207 756.133,-166.835 761.253,-170.967 761.253,-170.967"/>
</g>
<!-- vstest&#45;&gt;installer -->
<g id="edge32" class="edge"><title>vstest&#45;&gt;installer</title>
<path fill="none" stroke="black" d="M627.033,-143.182C664.485,-137.148 755.842,-127.279 821,-160.323 828.44,-164.096 834.816,-170.669 839.68,-176.961"/>
<polygon fill="black" stroke="black" points="843.399,-182.112 837.698,-178.828 841.643,-179.679 839.886,-177.247 839.886,-177.247 839.886,-177.247 841.643,-179.679 842.075,-175.666 843.399,-182.112 843.399,-182.112"/>
</g>
<!-- symreader&#45;&gt;runtime -->
<g id="edge54" class="edge"><title>symreader&#45;&gt;runtime</title>
<path fill="none" stroke="black" d="M339.109,-295.843C346.787,-297.637 355.169,-299.32 363,-300.323 407.228,-305.989 459.139,-305.984 490.122,-305.284"/>
<polygon fill="black" stroke="black" points="496.405,-305.125 490.475,-307.976 493.406,-305.201 490.407,-305.277 490.407,-305.277 490.407,-305.277 493.406,-305.201 490.339,-302.577 496.405,-305.125 496.405,-305.125"/>
</g>
<!-- common&#45;&gt;nuget&#45;client -->
<g id="edge38" class="edge"><title>common&#45;&gt;nuget&#45;client</title>
<path fill="none" stroke="black" d="M542.576,-184.323C570.63,-184.323 618.317,-184.323 651.4,-184.323"/>
<polygon fill="black" stroke="black" points="657.812,-184.323 651.812,-187.023 654.812,-184.323 651.812,-184.323 651.812,-184.323 651.812,-184.323 654.812,-184.323 651.812,-181.623 657.812,-184.323 657.812,-184.323"/>
</g>
<!-- test&#45;templates&#45;&gt;installer -->
<g id="edge31" class="edge"><title>test&#45;templates&#45;&gt;installer</title>
<path fill="none" stroke="black" d="M346.854,-412.219C387.884,-411.035 457.584,-409.323 517.5,-409.323 517.5,-409.323 517.5,-409.323 690,-409.323 748.427,-409.323 778.53,-438.448 821,-398.323 847.957,-372.854 850.298,-255.249 850.193,-210.59"/>
<polygon fill="black" stroke="black" points="850.162,-204.55 852.892,-210.536 850.177,-207.55 850.192,-210.55 850.192,-210.55 850.192,-210.55 850.177,-207.55 847.493,-210.564 850.162,-204.55 850.162,-204.55"/>
</g>
<!-- s2 -->
<g id="node22" class="node"><title>s2</title>
<g id="a_node22"><a xlink:title="2">
<polygon fill="#f7caac" stroke="black" stroke-dasharray="5,2" points="151.5,-224.323 65.5,-224.323 65.5,-202.323 151.5,-202.323 151.5,-224.323"/>
<text text-anchor="middle" x="108.5" y="-210.523" font-family="Times New Roman,serif" font-size="11.00">#2 &#45; Inputs ready</text>
</a>
</g>
</g>
<!-- application&#45;insights -->
<g id="node23" class="node"><title>application&#45;insights</title>
<g id="a_node23"><a xlink:title="2">
<polygon fill="#f7caac" stroke="black" stroke-dasharray="5,2" points="821,-80.3231 728,-80.3231 728,-58.3231 821,-58.3231 821,-80.3231"/>
<text text-anchor="middle" x="774.5" y="-66.5231" font-family="Times New Roman,serif" font-size="11.00">application&#45;insights</text>
</a>
</g>
</g>
<!-- application&#45;insights&#45;&gt;installer -->
<g id="edge17" class="edge"><title>application&#45;insights&#45;&gt;installer</title>
<path fill="none" stroke="black" d="M816.501,-80.3744C818.118,-81.5592 819.63,-82.8709 821,-84.3231 844.826,-109.583 849.559,-152.149 850.217,-175.925"/>
<polygon fill="black" stroke="black" points="850.308,-182.103 847.52,-176.143 850.264,-179.103 850.22,-176.103 850.22,-176.103 850.22,-176.103 850.264,-179.103 852.92,-176.064 850.308,-182.103 850.308,-182.103"/>
</g>
<!-- netcorecli&#45;fsc -->
<g id="node24" class="node"><title>netcorecli&#45;fsc</title>
<g id="a_node24"><a xlink:title="2">
<polygon fill="#f7caac" stroke="black" stroke-dasharray="5,2" points="810,-53.3231 739,-53.3231 739,-31.3231 810,-31.3231 810,-53.3231"/>
<text text-anchor="middle" x="774.5" y="-39.5231" font-family="Times New Roman,serif" font-size="11.00">netcorecli&#45;fsc</text>
</a>
</g>
</g>
<!-- netcorecli&#45;fsc&#45;&gt;installer -->
<g id="edge23" class="edge"><title>netcorecli&#45;fsc&#45;&gt;installer</title>
<path fill="none" stroke="black" d="M810.178,-49.3576C814.242,-51.3796 818.001,-53.9798 821,-57.3231 836.567,-74.6757 845.151,-143.246 848.428,-175.882"/>
<polygon fill="black" stroke="black" points="849.014,-181.904 845.746,-176.193 848.723,-178.918 848.433,-175.932 848.433,-175.932 848.433,-175.932 848.723,-178.918 851.121,-175.671 849.014,-181.904 849.014,-181.904"/>
</g>
<!-- newtonsoft&#45;json901 -->
<g id="node25" class="node"><title>newtonsoft&#45;json901</title>
<g id="a_node25"><a xlink:title="2">
<polygon fill="#f7caac" stroke="black" stroke-dasharray="5,2" points="464,-250.323 368,-250.323 368,-228.323 464,-228.323 464,-250.323"/>
<text text-anchor="middle" x="416" y="-236.523" font-family="Times New Roman,serif" font-size="11.00">newtonsoft&#45;json901</text>
</a>
</g>
</g>
<!-- newtonsoft&#45;json901&#45;&gt;fsharp -->
<g id="edge14" class="edge"><title>newtonsoft&#45;json901&#45;&gt;fsharp</title>
<path fill="none" stroke="black" d="M441.321,-228.299C451.564,-222.382 462.578,-214.068 469,-203.323 477.146,-189.694 465.57,-143.343 477,-132.323 503.06,-107.198 614.037,-111.274 663.749,-114.482"/>
<polygon fill="black" stroke="black" points="669.779,-114.887 663.612,-117.179 666.786,-114.686 663.793,-114.485 663.793,-114.485 663.793,-114.485 666.786,-114.686 663.974,-111.791 669.779,-114.887 669.779,-114.887"/>
</g>
<!-- newtonsoft&#45;json901&#45;&gt;runtime -->
<g id="edge57" class="edge"><title>newtonsoft&#45;json901&#45;&gt;runtime</title>
<path fill="none" stroke="black" d="M438.283,-250.406C448.478,-256.47 460.324,-264.709 469,-274.323 474.062,-279.932 471.309,-284.354 477,-289.323 480.897,-292.726 485.636,-295.384 490.479,-297.452"/>
<polygon fill="black" stroke="black" points="496.169,-299.617 489.6,-300.006 493.365,-298.55 490.561,-297.483 490.561,-297.483 490.561,-297.483 493.365,-298.55 491.521,-294.959 496.169,-299.617 496.169,-299.617"/>
</g>
<!-- newtonsoft&#45;json901&#45;&gt;runtime&#45;portable -->
<g id="edge51" class="edge"><title>newtonsoft&#45;json901&#45;&gt;runtime&#45;portable</title>
<path fill="none" stroke="black" d="M446.339,-250.416C457.691,-254.709 470.776,-259.656 482.605,-264.129"/>
<polygon fill="black" stroke="black" points="488.298,-266.282 481.731,-266.685 485.492,-265.221 482.686,-264.16 482.686,-264.16 482.686,-264.16 485.492,-265.221 483.641,-261.634 488.298,-266.282 488.298,-266.282"/>
</g>
<!-- newtonsoft&#45;json901&#45;&gt;sdk -->
<g id="edge64" class="edge"><title>newtonsoft&#45;json901&#45;&gt;sdk</title>
<path fill="none" stroke="black" d="M464.049,-233.304C542.98,-223.108 695.843,-202.905 720,-196.323 732.312,-192.968 745.582,-187.524 755.826,-182.891"/>
<polygon fill="black" stroke="black" points="761.477,-180.279 757.164,-185.247 758.754,-181.537 756.031,-182.796 756.031,-182.796 756.031,-182.796 758.754,-181.537 754.898,-180.345 761.477,-180.279 761.477,-180.279"/>
</g>
<!-- newtonsoft&#45;json901&#45;&gt;installer -->
<g id="edge25" class="edge"><title>newtonsoft&#45;json901&#45;&gt;installer</title>
<path fill="none" stroke="black" d="M464.073,-242.393C502.718,-244.649 558.881,-247.323 608,-247.323 608,-247.323 608,-247.323 690,-247.323 739.955,-247.323 794.294,-223.4 825.05,-207.4"/>
<polygon fill="black" stroke="black" points="830.511,-204.512 826.469,-209.703 827.859,-205.914 825.207,-207.316 825.207,-207.316 825.207,-207.316 827.859,-205.914 823.945,-204.929 830.511,-204.512 830.511,-204.512"/>
</g>
<!-- xliff&#45;tasks -->
<g id="node26" class="node"><title>xliff&#45;tasks</title>
<g id="a_node26"><a xlink:title="2">
<polygon fill="#f7caac" stroke="black" stroke-dasharray="5,2" points="337.5,-85.3231 283.5,-85.3231 283.5,-63.3231 337.5,-63.3231 337.5,-85.3231"/>
<text text-anchor="middle" x="310.5" y="-71.5231" font-family="Times New Roman,serif" font-size="11.00">xliff&#45;tasks</text>
</a>
</g>
</g>
<!-- xliff&#45;tasks&#45;&gt;fsharp -->
<g id="edge16" class="edge"><title>xliff&#45;tasks&#45;&gt;fsharp</title>
<path fill="none" stroke="black" d="M337.683,-75.37C415.855,-78.5203 642.618,-87.8469 650,-90.3231 657.342,-92.7858 664.569,-97.1078 670.716,-101.529"/>
<polygon fill="black" stroke="black" points="675.605,-105.228 669.191,-103.761 673.213,-103.418 670.82,-101.608 670.82,-101.608 670.82,-101.608 673.213,-103.418 672.449,-99.4548 675.605,-105.228 675.605,-105.228"/>
</g>
<!-- xliff&#45;tasks&#45;&gt;roslyn -->
<g id="edge47" class="edge"><title>xliff&#45;tasks&#45;&gt;roslyn</title>
<path fill="none" stroke="black" d="M315.8,-85.4512C324.71,-109.009 345.172,-165.823 355,-215.323 358.738,-234.149 353.313,-284.753 363,-301.323 369.606,-312.624 381.337,-321.207 391.987,-327.152"/>
<polygon fill="black" stroke="black" points="397.424,-330.021 390.858,-329.609 394.771,-328.621 392.118,-327.221 392.118,-327.221 392.118,-327.221 394.771,-328.621 393.378,-324.833 397.424,-330.021 397.424,-330.021"/>
</g>
<!-- xliff&#45;tasks&#45;&gt;sdk -->
<g id="edge60" class="edge"><title>xliff&#45;tasks&#45;&gt;sdk</title>
<path fill="none" stroke="black" d="M337.514,-73.9087C376.591,-73.3229 452.764,-72.3231 517.5,-72.3231 517.5,-72.3231 517.5,-72.3231 610,-72.3231 660.674,-72.3231 678.148,-73.7518 720,-102.323 740.619,-116.399 756.394,-141.081 765.306,-157.565"/>
<polygon fill="black" stroke="black" points="768.275,-163.233 763.099,-159.171 766.883,-160.575 765.491,-157.918 765.491,-157.918 765.491,-157.918 766.883,-160.575 767.883,-156.665 768.275,-163.233 768.275,-163.233"/>
</g>
<!-- xliff&#45;tasks&#45;&gt;installer -->
<g id="edge33" class="edge"><title>xliff&#45;tasks&#45;&gt;installer</title>
<path fill="none" stroke="black" d="M337.56,-72.0057C376.695,-68.0922 448.27,-59.1203 469,-44.3231 474.833,-40.1595 470.9,-34.0843 477,-30.3231 501.815,-15.0229 578.847,-23.3231 608,-23.3231 608,-23.3231 608,-23.3231 690,-23.3231 719.153,-23.3231 799.161,-11.0116 821,-30.3231 842.576,-49.4019 848.143,-138.501 849.544,-176.3"/>
<polygon fill="black" stroke="black" points="849.747,-182.321 846.846,-176.416 849.646,-179.323 849.544,-176.325 849.544,-176.325 849.544,-176.325 849.646,-179.323 852.243,-176.234 849.747,-182.321 849.747,-182.321"/>
</g>
<!-- humanizer -->
<g id="node27" class="node"><title>humanizer</title>
<g id="a_node27"><a xlink:title="2">
<polygon fill="#f7caac" stroke="black" stroke-dasharray="5,2" points="338.5,-348.323 282.5,-348.323 282.5,-326.323 338.5,-326.323 338.5,-348.323"/>
<text text-anchor="middle" x="310.5" y="-334.523" font-family="Times New Roman,serif" font-size="11.00">humanizer</text>
</a>
</g>
</g>
<!-- humanizer&#45;&gt;roslyn -->
<g id="edge46" class="edge"><title>humanizer&#45;&gt;roslyn</title>
<path fill="none" stroke="black" d="M338.693,-337.323C354.939,-337.323 375.389,-337.323 391.028,-337.323"/>
<polygon fill="black" stroke="black" points="397.41,-337.323 391.41,-340.023 394.41,-337.323 391.41,-337.323 391.41,-337.323 391.41,-337.323 394.41,-337.323 391.41,-334.623 397.41,-337.323 397.41,-337.323"/>
</g>
<!-- linker -->
<g id="node28" class="node"><title>linker</title>
<g id="a_node28"><a xlink:title="2">
<polygon fill="#f7caac" stroke="black" stroke-dasharray="5,2" points="433.5,-299.323 398.5,-299.323 398.5,-277.323 433.5,-277.323 433.5,-299.323"/>
<text text-anchor="middle" x="416" y="-285.523" font-family="Times New Roman,serif" font-size="11.00">linker</text>
</a>
</g>
</g>
<!-- linker&#45;&gt;runtime -->
<g id="edge55" class="edge"><title>linker&#45;&gt;runtime</title>
<path fill="none" stroke="black" d="M433.596,-290.965C449.023,-293.421 472.283,-297.124 490.403,-300.009"/>
<polygon fill="black" stroke="black" points="496.332,-300.953 489.982,-302.676 493.37,-300.481 490.407,-300.01 490.407,-300.01 490.407,-300.01 493.37,-300.481 490.832,-297.343 496.332,-300.953 496.332,-300.953"/>
</g>
<!-- linker&#45;&gt;runtime&#45;portable -->
<g id="edge49" class="edge"><title>linker&#45;&gt;runtime&#45;portable</title>
<path fill="none" stroke="black" d="M433.596,-286.507C443.748,-285.395 457.294,-283.913 470.534,-282.464"/>
<polygon fill="black" stroke="black" points="476.582,-281.802 470.911,-285.139 473.6,-282.128 470.618,-282.455 470.618,-282.455 470.618,-282.455 473.6,-282.128 470.324,-279.771 476.582,-281.802 476.582,-281.802"/>
</g>
<!-- cssparser -->
<g id="node29" class="node"><title>cssparser</title>
<g id="a_node29"><a xlink:title="2">
<polygon fill="#f7caac" stroke="black" stroke-dasharray="5,2" points="635.5,-375.323 582.5,-375.323 582.5,-353.323 635.5,-353.323 635.5,-375.323"/>
<text text-anchor="middle" x="609" y="-361.523" font-family="Times New Roman,serif" font-size="11.00">cssparser</text>
</a>
</g>
</g>
<!-- cssparser&#45;&gt;aspnetcore -->
<g id="edge4" class="edge"><title>cssparser&#45;&gt;aspnetcore</title>
<path fill="none" stroke="black" d="M635.54,-359.412C641.272,-358.309 647.445,-357.122 653.474,-355.963"/>
<polygon fill="black" stroke="black" points="659.433,-354.817 654.051,-358.601 656.487,-355.383 653.541,-355.95 653.541,-355.95 653.541,-355.95 656.487,-355.383 653.031,-353.298 659.433,-354.817 659.433,-354.817"/>
</g>
<!-- diagnostics -->
<g id="node30" class="node"><title>diagnostics</title>
<g id="a_node30"><a xlink:title="2">
<polygon fill="#f7caac" stroke="black" stroke-dasharray="5,2" points="548,-157.323 489,-157.323 489,-135.323 548,-135.323 548,-157.323"/>
<text text-anchor="middle" x="518.5" y="-143.523" font-family="Times New Roman,serif" font-size="11.00">diagnostics</text>
</a>
</g>
</g>
<!-- diagnostics&#45;&gt;vstest -->
<g id="edge73" class="edge"><title>diagnostics&#45;&gt;vstest</title>
<path fill="none" stroke="black" d="M548.478,-146.323C560.193,-146.323 573.536,-146.323 584.615,-146.323"/>
<polygon fill="black" stroke="black" points="590.848,-146.323 584.848,-149.023 587.848,-146.323 584.848,-146.323 584.848,-146.323 584.848,-146.323 587.848,-146.323 584.848,-143.623 590.848,-146.323 590.848,-146.323"/>
</g>
<!-- s3 -->
<g id="node31" class="node"><title>s3</title>
<g id="a_node31"><a xlink:title="3">
<path fill="#ffe599" stroke="black" stroke-dasharray="1,5" d="M193.667,-197.323C193.667,-197.323 23.3333,-197.323 23.3333,-197.323 19.6667,-197.323 16,-193.656 16,-189.99 16,-189.99 16,-182.656 16,-182.656 16,-178.99 19.6667,-175.323 23.3333,-175.323 23.3333,-175.323 193.667,-175.323 193.667,-175.323 197.333,-175.323 201,-178.99 201,-182.656 201,-182.656 201,-189.99 201,-189.99 201,-193.656 197.333,-197.323 193.667,-197.323"/>
<text text-anchor="middle" x="108.5" y="-183.523" font-family="Times New Roman,serif" font-size="11.00">#3 &#45; Merged patches &amp; local build infra</text>
</a>
</g>
</g>
<!-- sourcelink -->
<g id="node32" class="node"><title>sourcelink</title>
<g id="a_node32"><a xlink:title="3">
<path fill="#ffe599" stroke="black" stroke-dasharray="1,5" d="M128.667,-289.323C128.667,-289.323 88.3333,-289.323 88.3333,-289.323 84.6667,-289.323 81,-285.656 81,-281.99 81,-281.99 81,-274.656 81,-274.656 81,-270.99 84.6667,-267.323 88.3333,-267.323 88.3333,-267.323 128.667,-267.323 128.667,-267.323 132.333,-267.323 136,-270.99 136,-274.656 136,-274.656 136,-281.99 136,-281.99 136,-285.656 132.333,-289.323 128.667,-289.323"/>
<text text-anchor="middle" x="108.5" y="-275.523" font-family="Times New Roman,serif" font-size="11.00">sourcelink</text>
</a>
</g>
</g>
<!-- sourcelink&#45;&gt;arcade -->
<g id="edge1" class="edge"><title>sourcelink&#45;&gt;arcade</title>
<path fill="none" stroke="black" d="M136.123,-278.323C158.102,-278.323 189.1,-278.323 210.816,-278.323"/>
<polygon fill="black" stroke="black" points="216.958,-278.323 210.958,-281.023 213.958,-278.323 210.958,-278.323 210.958,-278.323 210.958,-278.323 213.958,-278.323 210.958,-275.623 216.958,-278.323 216.958,-278.323"/>
</g>
<!-- s4 -->
<g id="node33" class="node"><title>s4</title>
<g id="a_node33"><a xlink:title="4">
<path fill="#f0fe86" stroke="black" stroke-dasharray="5,2" d="M193.667,-170.323C193.667,-170.323 23.3333,-170.323 23.3333,-170.323 19.6667,-170.323 16,-166.656 16,-162.99 16,-162.99 16,-155.656 16,-155.656 16,-151.99 19.6667,-148.323 23.3333,-148.323 23.3333,-148.323 193.667,-148.323 193.667,-148.323 197.333,-148.323 201,-151.99 201,-155.656 201,-155.656 201,-162.99 201,-162.99 201,-166.656 197.333,-170.323 193.667,-170.323"/>
<text text-anchor="middle" x="108.5" y="-156.523" font-family="Times New Roman,serif" font-size="11.00">#4 &#45; Merged CI, generated official build</text>
</a>
</g>
</g>
<!-- s5 -->
<g id="node34" class="node"><title>s5</title>
<g id="a_node34"><a xlink:title="5">
<path fill="#b4c6e7" stroke="black" stroke-width="2" d="M162.167,-143.323C162.167,-143.323 54.8333,-143.323 54.8333,-143.323 51.1667,-143.323 47.5,-139.656 47.5,-135.99 47.5,-135.99 47.5,-128.656 47.5,-128.656 47.5,-124.99 51.1667,-121.323 54.8333,-121.323 54.8333,-121.323 162.167,-121.323 162.167,-121.323 165.833,-121.323 169.5,-124.99 169.5,-128.656 169.5,-128.656 169.5,-135.99 169.5,-135.99 169.5,-139.656 165.833,-143.323 162.167,-143.323"/>
<text text-anchor="middle" x="108.5" y="-129.523" font-family="Times New Roman,serif" font-size="11.00">#5 &#45; Validated &amp; merged</text>
</a>
</g>
</g>
<!-- source&#45;build&#45;reference&#45;packages -->
<g id="node35" class="node"><title>source&#45;build&#45;reference&#45;packages</title>
<g id="a_node35"><a xlink:title="5">
<path fill="#b4c6e7" stroke="black" stroke-width="2" d="M178.667,-316.323C178.667,-316.323 38.3333,-316.323 38.3333,-316.323 34.6667,-316.323 31,-312.656 31,-308.99 31,-308.99 31,-301.656 31,-301.656 31,-297.99 34.6667,-294.323 38.3333,-294.323 38.3333,-294.323 178.667,-294.323 178.667,-294.323 182.333,-294.323 186,-297.99 186,-301.656 186,-301.656 186,-308.99 186,-308.99 186,-312.656 182.333,-316.323 178.667,-316.323"/>
<text text-anchor="middle" x="108.5" y="-302.523" font-family="Times New Roman,serif" font-size="11.00">source&#45;build&#45;reference&#45;packages</text>
</a>
</g>
</g>
<!-- s6 -->
<g id="node36" class="node"><title>s6</title>
<g id="a_node36"><a xlink:title="6">
<polygon fill="#cfafe7" stroke="black" points="177,-116.323 40,-116.323 40,-94.3231 177,-94.3231 177,-116.323"/>
<text text-anchor="middle" x="108.5" y="-102.523" font-family="Times New Roman,serif" font-size="11.00">#6 &#45; Prebuilt enforcement on</text>
</a>
</g>
</g>
</g>
</svg>
