<?xml version="1.0" encoding="UTF-8" standalone="no"?>
<!DOCTYPE svg PUBLIC "-//W3C//DTD SVG 1.1//EN"
 "http://www.w3.org/Graphics/SVG/1.1/DTD/svg11.dtd">
<!-- Generated by graphviz version 2.38.0 (20140413.2041)
 -->
<!-- Title: %3 Pages: 1 -->
<svg width="851pt" height="454pt"
 viewBox="0.00 0.00 851.00 454.00" xmlns="http://www.w3.org/2000/svg" xmlns:xlink="http://www.w3.org/1999/xlink">
<g id="graph0" class="graph" transform="scale(1 1) rotate(0) translate(4 450)">
<title>%3</title>
<polygon fill="white" stroke="none" points="-4,4 -4,-450 847,-450 847,4 -4,4"/>
<g id="clust1" class="cluster"><title>clusterLegend</title>
<polygon fill="#ebebeb" stroke="#ebebeb" points="8,-106 8,-279 179,-279 179,-106 8,-106"/>
</g>
<!-- pre0 -->
<g id="node1" class="node"><title>pre0</title>
<g id="a_node1"><a xlink:title="Built">
<path fill="#f5f5f5" stroke="black" stroke-dasharray="1,5" d="M115.167,-271C115.167,-271 71.8333,-271 71.8333,-271 68.1667,-271 64.5,-267.333 64.5,-263.667 64.5,-263.667 64.5,-256.333 64.5,-256.333 64.5,-252.667 68.1667,-249 71.8333,-249 71.8333,-249 115.167,-249 115.167,-249 118.833,-249 122.5,-252.667 122.5,-256.333 122.5,-256.333 122.5,-263.667 122.5,-263.667 122.5,-267.333 118.833,-271 115.167,-271"/>
<text text-anchor="middle" x="93.5" y="-257.2" font-family="Times New Roman,serif" font-size="11.00">Built in 5.0</text>
</a>
</g>
</g>
<!-- arcade -->
<g id="node2" class="node"><title>arcade</title>
<g id="a_node2"><a xlink:title="Built">
<path fill="#f5f5f5" stroke="black" stroke-dasharray="1,5" d="M220.667,-309C220.667,-309 194.333,-309 194.333,-309 190.667,-309 187,-305.333 187,-301.667 187,-301.667 187,-294.333 187,-294.333 187,-290.667 190.667,-287 194.333,-287 194.333,-287 220.667,-287 220.667,-287 224.333,-287 228,-290.667 228,-294.333 228,-294.333 228,-301.667 228,-301.667 228,-305.333 224.333,-309 220.667,-309"/>
<text text-anchor="middle" x="207.5" y="-295.2" font-family="Times New Roman,serif" font-size="11.00">arcade</text>
</a>
</g>
</g>
<!-- aspnet&#45;xdt -->
<g id="node3" class="node"><title>aspnet&#45;xdt</title>
<g id="a_node3"><a xlink:title="Built">
<path fill="#f5f5f5" stroke="black" stroke-dasharray="1,5" d="M301.167,-202C301.167,-202 259.833,-202 259.833,-202 256.167,-202 252.5,-198.333 252.5,-194.667 252.5,-194.667 252.5,-187.333 252.5,-187.333 252.5,-183.667 256.167,-180 259.833,-180 259.833,-180 301.167,-180 301.167,-180 304.833,-180 308.5,-183.667 308.5,-187.333 308.5,-187.333 308.5,-194.667 308.5,-194.667 308.5,-198.333 304.833,-202 301.167,-202"/>
<text text-anchor="middle" x="280.5" y="-188.2" font-family="Times New Roman,serif" font-size="11.00">aspnet&#45;xdt</text>
</a>
</g>
</g>
<!-- arcade&#45;&gt;aspnet&#45;xdt -->
<g id="edge2" class="edge"><title>arcade&#45;&gt;aspnet&#45;xdt</title>
<path fill="none" stroke="black" d="M208.785,-286.928C209.862,-268.071 214.716,-229.578 236,-207 239.036,-203.78 242.775,-201.204 246.775,-199.146"/>
<polygon fill="black" stroke="black" points="252.35,-196.647 247.98,-201.565 249.613,-197.874 246.875,-199.101 246.875,-199.101 246.875,-199.101 249.613,-197.874 245.771,-196.637 252.35,-196.647 252.35,-196.647"/>
</g>
<!-- aspnetcore -->
<g id="node4" class="node"><title>aspnetcore</title>
<g id="a_node4"><a xlink:title="Built">
<path fill="#f5f5f5" stroke="black" stroke-dasharray="1,5" d="M681.167,-382C681.167,-382 636.833,-382 636.833,-382 633.167,-382 629.5,-378.333 629.5,-374.667 629.5,-374.667 629.5,-367.333 629.5,-367.333 629.5,-363.667 633.167,-360 636.833,-360 636.833,-360 681.167,-360 681.167,-360 684.833,-360 688.5,-363.667 688.5,-367.333 688.5,-367.333 688.5,-374.667 688.5,-374.667 688.5,-378.333 684.833,-382 681.167,-382"/>
<text text-anchor="middle" x="659" y="-368.2" font-family="Times New Roman,serif" font-size="11.00">aspnetcore</text>
</a>
</g>
</g>
<!-- arcade&#45;&gt;aspnetcore -->
<g id="edge3" class="edge"><title>arcade&#45;&gt;aspnetcore</title>
<path fill="none" stroke="black" d="M208.997,-309.095C210.402,-326.382 215.749,-359.566 236,-377 287.065,-420.961 317.619,-405 385,-405 385,-405 385,-405 489.5,-405 547.583,-405 565.158,-417.133 620,-398 627.522,-395.376 634.878,-390.778 641.083,-386.111"/>
<polygon fill="black" stroke="black" points="646.003,-382.218 642.974,-388.058 643.651,-384.079 641.298,-385.941 641.298,-385.941 641.298,-385.941 643.651,-384.079 639.623,-383.824 646.003,-382.218 646.003,-382.218"/>
</g>
<!-- clicommandlineparser -->
<g id="node5" class="node"><title>clicommandlineparser</title>
<g id="a_node5"><a xlink:title="Built">
<path fill="#f5f5f5" stroke="black" stroke-dasharray="1,5" d="M431.667,-22C431.667,-22 340.333,-22 340.333,-22 336.667,-22 333,-18.3333 333,-14.6667 333,-14.6667 333,-7.33333 333,-7.33333 333,-3.66667 336.667,-0 340.333,-0 340.333,-0 431.667,-0 431.667,-0 435.333,-0 439,-3.66667 439,-7.33333 439,-7.33333 439,-14.6667 439,-14.6667 439,-18.3333 435.333,-22 431.667,-22"/>
<text text-anchor="middle" x="386" y="-8.2" font-family="Times New Roman,serif" font-size="11.00">clicommandlineparser</text>
</a>
</g>
</g>
<!-- arcade&#45;&gt;clicommandlineparser -->
<g id="edge9" class="edge"><title>arcade&#45;&gt;clicommandlineparser</title>
<path fill="none" stroke="black" d="M208.309,-286.862C207.811,-244.98 208.103,-97.5238 236,-62 257.61,-34.4823 294.847,-21.7319 326.688,-15.861"/>
<polygon fill="black" stroke="black" points="332.978,-14.7762 327.524,-18.4567 330.021,-15.2861 327.065,-15.796 327.065,-15.796 327.065,-15.796 330.021,-15.2861 326.606,-13.1353 332.978,-14.7762 332.978,-14.7762"/>
</g>
<!-- command&#45;line&#45;api -->
<g id="node6" class="node"><title>command&#45;line&#45;api</title>
<g id="a_node6"><a xlink:title="Built">
<path fill="#f5f5f5" stroke="black" stroke-dasharray="1,5" d="M317.667,-366C317.667,-366 243.333,-366 243.333,-366 239.667,-366 236,-362.333 236,-358.667 236,-358.667 236,-351.333 236,-351.333 236,-347.667 239.667,-344 243.333,-344 243.333,-344 317.667,-344 317.667,-344 321.333,-344 325,-347.667 325,-351.333 325,-351.333 325,-358.667 325,-358.667 325,-362.333 321.333,-366 317.667,-366"/>
<text text-anchor="middle" x="280.5" y="-352.2" font-family="Times New Roman,serif" font-size="11.00">command&#45;line&#45;api</text>
</a>
</g>
</g>
<!-- arcade&#45;&gt;command&#45;line&#45;api -->
<g id="edge10" class="edge"><title>arcade&#45;&gt;command&#45;line&#45;api</title>
<path fill="none" stroke="black" d="M213.253,-309.133C217.812,-318.581 225.547,-331.861 236,-340 236.11,-340.086 236.221,-340.171 236.332,-340.256"/>
<polygon fill="black" stroke="black" points="241.647,-343.769 235.153,-342.713 239.144,-342.115 236.642,-340.461 236.642,-340.461 236.642,-340.461 239.144,-342.115 238.131,-338.208 241.647,-343.769 241.647,-343.769"/>
</g>
<!-- fsharp -->
<g id="node7" class="node"><title>fsharp</title>
<g id="a_node7"><a xlink:title="Built">
<path fill="#f5f5f5" stroke="black" stroke-dasharray="1,5" d="M670.667,-132C670.667,-132 647.333,-132 647.333,-132 643.667,-132 640,-128.333 640,-124.667 640,-124.667 640,-117.333 640,-117.333 640,-113.667 643.667,-110 647.333,-110 647.333,-110 670.667,-110 670.667,-110 674.333,-110 678,-113.667 678,-117.333 678,-117.333 678,-124.667 678,-124.667 678,-128.333 674.333,-132 670.667,-132"/>
<text text-anchor="middle" x="659" y="-118.2" font-family="Times New Roman,serif" font-size="11.00">fsharp</text>
</a>
</g>
</g>
<!-- arcade&#45;&gt;fsharp -->
<g id="edge12" class="edge"><title>arcade&#45;&gt;fsharp</title>
<path fill="none" stroke="black" d="M208.606,-286.887C209.178,-250.653 212.82,-136.726 236,-110 281.241,-57.8365 315.951,-66 385,-66 385,-66 385,-66 489.5,-66 548.82,-66 565.705,-70.1069 620,-94 627.06,-97.1069 634.131,-101.643 640.225,-106.113"/>
<polygon fill="black" stroke="black" points="645.093,-109.82 638.684,-108.333 642.706,-108.003 640.32,-106.185 640.32,-106.185 640.32,-106.185 642.706,-108.003 641.955,-104.037 645.093,-109.82 645.093,-109.82"/>
</g>
<!-- msbuild -->
<g id="node8" class="node"><title>msbuild</title>
<g id="a_node8"><a xlink:title="Built">
<path fill="#f5f5f5" stroke="black" stroke-dasharray="1,5" d="M593.667,-299C593.667,-299 564.333,-299 564.333,-299 560.667,-299 557,-295.333 557,-291.667 557,-291.667 557,-284.333 557,-284.333 557,-280.667 560.667,-277 564.333,-277 564.333,-277 593.667,-277 593.667,-277 597.333,-277 601,-280.667 601,-284.333 601,-284.333 601,-291.667 601,-291.667 601,-295.333 597.333,-299 593.667,-299"/>
<text text-anchor="middle" x="579" y="-285.2" font-family="Times New Roman,serif" font-size="11.00">msbuild</text>
</a>
</g>
</g>
<!-- arcade&#45;&gt;msbuild -->
<g id="edge34" class="edge"><title>arcade&#45;&gt;msbuild</title>
<path fill="none" stroke="black" d="M228.29,-301.227C230.877,-301.546 233.498,-301.819 236,-302 366.333,-311.429 400.414,-315.825 530,-299 536.751,-298.123 543.946,-296.728 550.655,-295.221"/>
<polygon fill="black" stroke="black" points="556.654,-293.818 551.427,-297.814 553.733,-294.501 550.812,-295.185 550.812,-295.185 550.812,-295.185 553.733,-294.501 550.197,-292.556 556.654,-293.818 556.654,-293.818"/>
</g>
<!-- roslyn -->
<g id="node10" class="node"><title>roslyn</title>
<g id="a_node10"><a xlink:title="Built">
<path fill="#f5f5f5" stroke="black" stroke-dasharray="1,5" d="M397.167,-344C397.167,-344 374.833,-344 374.833,-344 371.167,-344 367.5,-340.333 367.5,-336.667 367.5,-336.667 367.5,-329.333 367.5,-329.333 367.5,-325.667 371.167,-322 374.833,-322 374.833,-322 397.167,-322 397.167,-322 400.833,-322 404.5,-325.667 404.5,-329.333 404.5,-329.333 404.5,-336.667 404.5,-336.667 404.5,-340.333 400.833,-344 397.167,-344"/>
<text text-anchor="middle" x="386" y="-330.2" font-family="Times New Roman,serif" font-size="11.00">roslyn</text>
</a>
</g>
</g>
<!-- arcade&#45;&gt;roslyn -->
<g id="edge43" class="edge"><title>arcade&#45;&gt;roslyn</title>
<path fill="none" stroke="black" d="M209.252,-309.189C210.997,-325.154 216.787,-353.975 236,-367 275.282,-393.631 332.411,-366.45 363.27,-347.653"/>
<polygon fill="black" stroke="black" points="368.716,-344.255 365.055,-349.722 366.171,-345.843 363.625,-347.431 363.625,-347.431 363.625,-347.431 366.171,-345.843 362.196,-345.14 368.716,-344.255 368.716,-344.255"/>
</g>
<!-- runtime -->
<g id="node12" class="node"><title>runtime</title>
<g id="a_node12"><a xlink:title="Built">
<path fill="#f5f5f5" stroke="black" stroke-dasharray="1,5" d="M503.167,-287C503.167,-287 473.833,-287 473.833,-287 470.167,-287 466.5,-283.333 466.5,-279.667 466.5,-279.667 466.5,-272.333 466.5,-272.333 466.5,-268.667 470.167,-265 473.833,-265 473.833,-265 503.167,-265 503.167,-265 506.833,-265 510.5,-268.667 510.5,-272.333 510.5,-272.333 510.5,-279.667 510.5,-279.667 510.5,-283.333 506.833,-287 503.167,-287"/>
<text text-anchor="middle" x="488.5" y="-273.2" font-family="Times New Roman,serif" font-size="11.00">runtime</text>
</a>
</g>
</g>
<!-- arcade&#45;&gt;runtime -->
<g id="edge52" class="edge"><title>arcade&#45;&gt;runtime</title>
<path fill="none" stroke="black" d="M228.007,-294.983C230.689,-294.621 233.41,-294.281 236,-294 317.26,-285.194 413.775,-279.658 460.064,-277.307"/>
<polygon fill="black" stroke="black" points="466.255,-276.996 460.398,-279.993 463.259,-277.146 460.263,-277.297 460.263,-277.297 460.263,-277.297 463.259,-277.146 460.127,-274.6 466.255,-276.996 466.255,-276.996"/>
</g>
<!-- runtime&#45;portable -->
<g id="node13" class="node"><title>runtime&#45;portable</title>
<g id="a_node13"><a xlink:title="Built">
<path fill="#f5f5f5" stroke="black" stroke-dasharray="1,5" d="M522.667,-260C522.667,-260 454.333,-260 454.333,-260 450.667,-260 447,-256.333 447,-252.667 447,-252.667 447,-245.333 447,-245.333 447,-241.667 450.667,-238 454.333,-238 454.333,-238 522.667,-238 522.667,-238 526.333,-238 530,-241.667 530,-245.333 530,-245.333 530,-252.667 530,-252.667 530,-256.333 526.333,-260 522.667,-260"/>
<text text-anchor="middle" x="488.5" y="-246.2" font-family="Times New Roman,serif" font-size="11.00">runtime&#45;portable</text>
</a>
</g>
</g>
<!-- arcade&#45;&gt;runtime&#45;portable -->
<g id="edge47" class="edge"><title>arcade&#45;&gt;runtime&#45;portable</title>
<path fill="none" stroke="black" d="M212.997,-286.785C217.479,-276.906 225.246,-262.764 236,-254 271.646,-224.95 287.74,-226.128 333,-218 379.369,-209.673 393.781,-204.783 439,-218 439.399,-218.117 452.474,-226.479 464.946,-234.488"/>
<polygon fill="black" stroke="black" points="470.216,-237.874 463.709,-236.902 467.692,-236.253 465.168,-234.631 465.168,-234.631 465.168,-234.631 467.692,-236.253 466.628,-232.359 470.216,-237.874 470.216,-237.874"/>
</g>
<!-- sdk -->
<g id="node14" class="node"><title>sdk</title>
<g id="a_node14"><a xlink:title="Built">
<path fill="#f5f5f5" stroke="black" stroke-dasharray="1,5" d="M750.167,-230C750.167,-230 738.833,-230 738.833,-230 735.167,-230 731.5,-226.333 731.5,-222.667 731.5,-222.667 731.5,-215.333 731.5,-215.333 731.5,-211.667 735.167,-208 738.833,-208 738.833,-208 750.167,-208 750.167,-208 753.833,-208 757.5,-211.667 757.5,-215.333 757.5,-215.333 757.5,-222.667 757.5,-222.667 757.5,-226.333 753.833,-230 750.167,-230"/>
<text text-anchor="middle" x="744.5" y="-216.2" font-family="Times New Roman,serif" font-size="11.00">sdk</text>
</a>
</g>
</g>
<!-- arcade&#45;&gt;sdk -->
<g id="edge58" class="edge"><title>arcade&#45;&gt;sdk</title>
<path fill="none" stroke="black" d="M228.119,-298.425C293.856,-299.708 503.698,-302.607 530,-288 535.604,-284.888 532.726,-279.643 538,-276 595.036,-236.597 623.944,-262.031 690,-241 702.159,-237.129 715.428,-231.681 725.71,-227.175"/>
<polygon fill="black" stroke="black" points="731.387,-224.65 727.002,-229.555 728.646,-225.869 725.905,-227.088 725.905,-227.088 725.905,-227.088 728.646,-225.869 724.808,-224.621 731.387,-224.65 731.387,-224.65"/>
</g>
<!-- installer -->
<g id="node17" class="node"><title>installer</title>
<g id="a_node17"><a xlink:title="Built">
<path fill="#f5f5f5" stroke="black" stroke-dasharray="1,5" d="M835.667,-200C835.667,-200 806.333,-200 806.333,-200 802.667,-200 799,-196.333 799,-192.667 799,-192.667 799,-185.333 799,-185.333 799,-181.667 802.667,-178 806.333,-178 806.333,-178 835.667,-178 835.667,-178 839.333,-178 843,-181.667 843,-185.333 843,-185.333 843,-192.667 843,-192.667 843,-196.333 839.333,-200 835.667,-200"/>
<text text-anchor="middle" x="821" y="-186.2" font-family="Times New Roman,serif" font-size="11.00">installer</text>
</a>
</g>
</g>
<!-- arcade&#45;&gt;installer -->
<g id="edge18" class="edge"><title>arcade&#45;&gt;installer</title>
<path fill="none" stroke="black" d="M207.941,-309.267C207.582,-330.107 210.101,-374.588 236,-397 286.481,-440.684 318.242,-416 385,-416 385,-416 385,-416 660,-416 721.419,-416 751.341,-418.898 791,-372 812.053,-347.104 817.948,-246.889 819.49,-206.249"/>
<polygon fill="black" stroke="black" points="819.709,-200.039 822.196,-206.13 819.603,-203.037 819.498,-206.035 819.498,-206.035 819.498,-206.035 819.603,-203.037 816.799,-205.94 819.709,-200.039 819.709,-200.039"/>
</g>
<!-- symreader -->
<g id="node18" class="node"><title>symreader</title>
<g id="a_node18"><a xlink:title="Built">
<path fill="#f5f5f5" stroke="black" stroke-dasharray="1,5" d="M301.667,-279C301.667,-279 259.333,-279 259.333,-279 255.667,-279 252,-275.333 252,-271.667 252,-271.667 252,-264.333 252,-264.333 252,-260.667 255.667,-257 259.333,-257 259.333,-257 301.667,-257 301.667,-257 305.333,-257 309,-260.667 309,-264.333 309,-264.333 309,-271.667 309,-271.667 309,-275.333 305.333,-279 301.667,-279"/>
<text text-anchor="middle" x="280.5" y="-265.2" font-family="Times New Roman,serif" font-size="11.00">symreader</text>
</a>
</g>
</g>
<!-- arcade&#45;&gt;symreader -->
<g id="edge68" class="edge"><title>arcade&#45;&gt;symreader</title>
<path fill="none" stroke="black" d="M227.827,-286.936C230.537,-285.539 233.313,-284.186 236,-283 239.106,-281.629 242.38,-280.3 245.679,-279.036"/>
<polygon fill="black" stroke="black" points="251.617,-276.838 246.928,-281.453 248.804,-277.88 245.991,-278.921 245.991,-278.921 245.991,-278.921 248.804,-277.88 245.053,-276.389 251.617,-276.838 251.617,-276.838"/>
</g>
<!-- test&#45;templates -->
<g id="node20" class="node"><title>test&#45;templates</title>
<g id="a_node20"><a xlink:title="Built">
<path fill="#f5f5f5" stroke="black" stroke-dasharray="1,5" d="M309.167,-446C309.167,-446 251.833,-446 251.833,-446 248.167,-446 244.5,-442.333 244.5,-438.667 244.5,-438.667 244.5,-431.333 244.5,-431.333 244.5,-427.667 248.167,-424 251.833,-424 251.833,-424 309.167,-424 309.167,-424 312.833,-424 316.5,-427.667 316.5,-431.333 316.5,-431.333 316.5,-438.667 316.5,-438.667 316.5,-442.333 312.833,-446 309.167,-446"/>
<text text-anchor="middle" x="280.5" y="-432.2" font-family="Times New Roman,serif" font-size="11.00">test&#45;templates</text>
</a>
</g>
</g>
<!-- arcade&#45;&gt;test&#45;templates -->
<g id="edge71" class="edge"><title>arcade&#45;&gt;test&#45;templates</title>
<path fill="none" stroke="black" d="M209.614,-309.014C212.536,-335.826 221.228,-403.5 236,-420 236.952,-421.064 237.984,-422.052 239.079,-422.971"/>
<polygon fill="black" stroke="black" points="244.237,-426.565 237.771,-425.35 241.776,-424.85 239.314,-423.134 239.314,-423.134 239.314,-423.134 241.776,-424.85 240.858,-420.919 244.237,-426.565 244.237,-426.565"/>
</g>
<!-- nuget&#45;client -->
<g id="node9" class="node"><title>nuget&#45;client</title>
<g id="a_node9"><a xlink:title="Built">
<path fill="#f5f5f5" stroke="black" stroke-dasharray="1,5" d="M682.667,-200C682.667,-200 635.333,-200 635.333,-200 631.667,-200 628,-196.333 628,-192.667 628,-192.667 628,-185.333 628,-185.333 628,-181.667 631.667,-178 635.333,-178 635.333,-178 682.667,-178 682.667,-178 686.333,-178 690,-181.667 690,-185.333 690,-185.333 690,-192.667 690,-192.667 690,-196.333 686.333,-200 682.667,-200"/>
<text text-anchor="middle" x="659" y="-186.2" font-family="Times New Roman,serif" font-size="11.00">nuget&#45;client</text>
</a>
</g>
</g>
<!-- aspnet&#45;xdt&#45;&gt;nuget&#45;client -->
<g id="edge40" class="edge"><title>aspnet&#45;xdt&#45;&gt;nuget&#45;client</title>
<path fill="none" stroke="black" d="M308.706,-191.135C366.19,-191.373 504.24,-191.694 620,-190 620.47,-189.993 620.944,-189.986 621.42,-189.978"/>
<polygon fill="black" stroke="black" points="627.718,-189.861 621.77,-192.672 624.719,-189.917 621.719,-189.973 621.719,-189.973 621.719,-189.973 624.719,-189.917 621.669,-187.273 627.718,-189.861 627.718,-189.861"/>
</g>
<!-- aspnetcore&#45;&gt;installer -->
<g id="edge19" class="edge"><title>aspnetcore&#45;&gt;installer</title>
<path fill="none" stroke="black" d="M688.56,-376.639C718.174,-380.688 763.862,-381.609 791,-356 812.445,-335.762 818.086,-244.867 819.525,-206.343"/>
<polygon fill="black" stroke="black" points="819.735,-200.207 822.228,-206.296 819.632,-203.205 819.53,-206.203 819.53,-206.203 819.53,-206.203 819.632,-203.205 816.831,-206.111 819.735,-200.207 819.735,-200.207"/>
</g>
<!-- templating -->
<g id="node15" class="node"><title>templating</title>
<g id="a_node15"><a xlink:title="Built">
<path fill="#f5f5f5" stroke="black" stroke-dasharray="1,5" d="M509.167,-58C509.167,-58 467.833,-58 467.833,-58 464.167,-58 460.5,-54.3333 460.5,-50.6667 460.5,-50.6667 460.5,-43.3333 460.5,-43.3333 460.5,-39.6667 464.167,-36 467.833,-36 467.833,-36 509.167,-36 509.167,-36 512.833,-36 516.5,-39.6667 516.5,-43.3333 516.5,-43.3333 516.5,-50.6667 516.5,-50.6667 516.5,-54.3333 512.833,-58 509.167,-58"/>
<text text-anchor="middle" x="488.5" y="-44.2" font-family="Times New Roman,serif" font-size="11.00">templating</text>
</a>
</g>
</g>
<!-- clicommandlineparser&#45;&gt;templating -->
<g id="edge69" class="edge"><title>clicommandlineparser&#45;&gt;templating</title>
<path fill="none" stroke="black" d="M417.973,-22.0949C429.571,-26.2494 442.784,-30.9824 454.554,-35.1985"/>
<polygon fill="black" stroke="black" points="460.203,-37.2219 453.644,-37.7403 457.379,-36.2102 454.554,-35.1985 454.554,-35.1985 454.554,-35.1985 457.379,-36.2102 455.465,-32.6566 460.203,-37.2219 460.203,-37.2219"/>
</g>
<!-- clicommandlineparser&#45;&gt;installer -->
<g id="edge20" class="edge"><title>clicommandlineparser&#45;&gt;installer</title>
<path fill="none" stroke="black" d="M439.282,-12.6848C477.665,-13.7779 531.069,-15 578,-15 578,-15 578,-15 660,-15 718.359,-15 747.617,15.0357 791,-24 812.665,-43.4939 818.182,-133.584 819.556,-171.794"/>
<polygon fill="black" stroke="black" points="819.755,-177.88 816.861,-171.972 819.657,-174.882 819.559,-171.883 819.559,-171.883 819.559,-171.883 819.657,-174.882 822.258,-171.795 819.755,-177.88 819.755,-177.88"/>
</g>
<!-- command&#45;line&#45;api&#45;&gt;roslyn -->
<g id="edge44" class="edge"><title>command&#45;line&#45;api&#45;&gt;roslyn</title>
<path fill="none" stroke="black" d="M325.093,-345.734C337.562,-343.083 350.68,-340.295 361.451,-338.006"/>
<polygon fill="black" stroke="black" points="367.498,-336.72 362.191,-340.609 364.564,-337.344 361.63,-337.968 361.63,-337.968 361.63,-337.968 364.564,-337.344 361.068,-335.327 367.498,-336.72 367.498,-336.72"/>
</g>
<!-- fsharp&#45;&gt;sdk -->
<g id="edge67" class="edge"><title>fsharp&#45;&gt;sdk</title>
<path fill="none" stroke="black" d="M669.579,-132.242C684.427,-149.669 713.051,-183.264 729.993,-203.148"/>
<polygon fill="black" stroke="black" points="734.033,-207.889 728.087,-205.073 732.088,-205.606 730.142,-203.322 730.142,-203.322 730.142,-203.322 732.088,-205.606 732.197,-201.571 734.033,-207.889 734.033,-207.889"/>
</g>
<!-- fsharp&#45;&gt;installer -->
<g id="edge21" class="edge"><title>fsharp&#45;&gt;installer</title>
<path fill="none" stroke="black" d="M678.378,-121.81C705.118,-123.759 755.434,-130.397 791,-153 798.773,-157.94 805.404,-165.684 810.355,-172.727"/>
<polygon fill="black" stroke="black" points="813.805,-177.917 808.235,-174.415 812.145,-175.418 810.484,-172.92 810.484,-172.92 810.484,-172.92 812.145,-175.418 812.733,-171.425 813.805,-177.917 813.805,-177.917"/>
</g>
<!-- msbuild&#45;&gt;aspnetcore -->
<g id="edge6" class="edge"><title>msbuild&#45;&gt;aspnetcore</title>
<path fill="none" stroke="black" d="M601.213,-298.306C607.687,-302.06 614.532,-306.703 620,-312 632.749,-324.35 643.294,-341.752 650.015,-354.455"/>
<polygon fill="black" stroke="black" points="652.828,-359.927 647.683,-355.825 651.456,-357.259 650.084,-354.591 650.084,-354.591 650.084,-354.591 651.456,-357.259 652.486,-353.356 652.828,-359.927 652.828,-359.927"/>
</g>
<!-- msbuild&#45;&gt;fsharp -->
<g id="edge13" class="edge"><title>msbuild&#45;&gt;fsharp</title>
<path fill="none" stroke="black" d="M584.256,-276.919C592.207,-256.478 610.131,-211.58 628,-175 634.196,-162.316 641.951,-148.4 648.024,-137.872"/>
<polygon fill="black" stroke="black" points="651.205,-132.4 650.524,-138.945 649.697,-134.994 648.189,-137.588 648.189,-137.588 648.189,-137.588 649.697,-134.994 645.855,-136.231 651.205,-132.4 651.205,-132.4"/>
</g>
<!-- msbuild&#45;&gt;nuget&#45;client -->
<g id="edge39" class="edge"><title>msbuild&#45;&gt;nuget&#45;client</title>
<path fill="none" stroke="black" d="M588.948,-276.643C602.818,-259.039 629.557,-225.101 645.383,-205.014"/>
<polygon fill="black" stroke="black" points="649.157,-200.224 647.564,-206.608 647.3,-202.581 645.443,-204.937 645.443,-204.937 645.443,-204.937 647.3,-202.581 643.323,-203.266 649.157,-200.224 649.157,-200.224"/>
</g>
<!-- msbuild&#45;&gt;sdk -->
<g id="edge61" class="edge"><title>msbuild&#45;&gt;sdk</title>
<path fill="none" stroke="black" d="M601.076,-280.088C613.882,-275.281 627.816,-270.055 628,-270 655.066,-261.911 664.132,-267.353 690,-256 703.033,-250.28 716.2,-241.224 726.211,-233.504"/>
<polygon fill="black" stroke="black" points="731.14,-229.613 728.103,-235.45 728.785,-231.472 726.43,-233.33 726.43,-233.33 726.43,-233.33 728.785,-231.472 724.758,-231.211 731.14,-229.613 731.14,-229.613"/>
</g>
<!-- msbuild&#45;&gt;installer -->
<g id="edge22" class="edge"><title>msbuild&#45;&gt;installer</title>
<path fill="none" stroke="black" d="M601.311,-291.231C648.84,-297.95 761.638,-311.057 791,-289 816.629,-269.748 820.667,-229.185 820.728,-206.073"/>
<polygon fill="black" stroke="black" points="820.655,-200.049 823.428,-206.016 820.691,-203.049 820.728,-206.049 820.728,-206.049 820.728,-206.049 820.691,-203.049 818.028,-206.082 820.655,-200.049 820.655,-200.049"/>
</g>
<!-- nuget&#45;client&#45;&gt;sdk -->
<g id="edge64" class="edge"><title>nuget&#45;client&#45;&gt;sdk</title>
<path fill="none" stroke="black" d="M690.145,-199.831C702.017,-204.096 715.248,-208.849 725.564,-212.556"/>
<polygon fill="black" stroke="black" points="731.269,-214.606 724.709,-215.118 728.446,-213.591 725.622,-212.577 725.622,-212.577 725.622,-212.577 728.446,-213.591 726.535,-210.036 731.269,-214.606 731.269,-214.606"/>
</g>
<!-- nuget&#45;client&#45;&gt;installer -->
<g id="edge26" class="edge"><title>nuget&#45;client&#45;&gt;installer</title>
<path fill="none" stroke="black" d="M690.095,-189C719.55,-189 764.034,-189 792.548,-189"/>
<polygon fill="black" stroke="black" points="798.73,-189 792.73,-191.7 795.73,-189 792.73,-189 792.73,-189 792.73,-189 795.73,-189 792.73,-186.3 798.73,-189 798.73,-189"/>
</g>
<!-- roslyn&#45;&gt;aspnetcore -->
<g id="edge7" class="edge"><title>roslyn&#45;&gt;aspnetcore</title>
<path fill="none" stroke="black" d="M404.756,-343.098C416.381,-349.17 432.123,-356.399 447,-360 507.656,-374.681 580.882,-374.707 623.181,-373.073"/>
<polygon fill="black" stroke="black" points="629.192,-372.821 623.311,-375.77 626.195,-372.946 623.198,-373.072 623.198,-373.072 623.198,-373.072 626.195,-372.946 623.085,-370.374 629.192,-372.821 629.192,-372.821"/>
</g>
<!-- roslyn&#45;&gt;msbuild -->
<g id="edge36" class="edge"><title>roslyn&#45;&gt;msbuild</title>
<path fill="none" stroke="black" d="M404.511,-331.715C431.814,-329.374 485.967,-323.362 530,-310 537.127,-307.837 544.565,-304.831 551.399,-301.735"/>
<polygon fill="black" stroke="black" points="556.978,-299.13 552.684,-304.115 554.259,-300.399 551.541,-301.669 551.541,-301.669 551.541,-301.669 554.259,-300.399 550.399,-299.223 556.978,-299.13 556.978,-299.13"/>
</g>
<!-- roslyn&#45;analyzers -->
<g id="node11" class="node"><title>roslyn&#45;analyzers</title>
<g id="a_node11"><a xlink:title="Built">
<path fill="#f5f5f5" stroke="black" stroke-dasharray="1,5" d="M612.667,-337C612.667,-337 545.333,-337 545.333,-337 541.667,-337 538,-333.333 538,-329.667 538,-329.667 538,-322.333 538,-322.333 538,-318.667 541.667,-315 545.333,-315 545.333,-315 612.667,-315 612.667,-315 616.333,-315 620,-318.667 620,-322.333 620,-322.333 620,-329.667 620,-329.667 620,-333.333 616.333,-337 612.667,-337"/>
<text text-anchor="middle" x="579" y="-323.2" font-family="Times New Roman,serif" font-size="11.00">roslyn&#45;analyzers</text>
</a>
</g>
</g>
<!-- roslyn&#45;&gt;roslyn&#45;analyzers -->
<g id="edge42" class="edge"><title>roslyn&#45;&gt;roslyn&#45;analyzers</title>
<path fill="none" stroke="black" d="M404.636,-333.541C431.657,-334.22 484.912,-334.965 530,-332 530.649,-331.957 531.304,-331.912 531.961,-331.863"/>
<polygon fill="black" stroke="black" points="537.961,-331.361 532.207,-334.552 534.972,-331.612 531.982,-331.862 531.982,-331.862 531.982,-331.862 534.972,-331.612 531.757,-329.171 537.961,-331.361 537.961,-331.361"/>
</g>
<!-- roslyn&#45;&gt;runtime -->
<g id="edge57" class="edge"><title>roslyn&#45;&gt;runtime</title>
<path fill="none" stroke="black" d="M404.506,-323.071C420.509,-313.995 444.36,-300.467 462.393,-290.24"/>
<polygon fill="black" stroke="black" points="467.787,-287.181 463.9,-292.489 465.177,-288.661 462.568,-290.141 462.568,-290.141 462.568,-290.141 465.177,-288.661 461.236,-287.792 467.787,-287.181 467.787,-287.181"/>
</g>
<!-- roslyn&#45;&gt;runtime&#45;portable -->
<g id="edge51" class="edge"><title>roslyn&#45;&gt;runtime&#45;portable</title>
<path fill="none" stroke="black" d="M394.012,-321.908C404.052,-306.847 423.887,-279.978 447,-264 447.393,-263.728 447.792,-263.461 448.196,-263.197"/>
<polygon fill="black" stroke="black" points="453.684,-260.006 449.854,-265.356 451.091,-261.514 448.497,-263.022 448.497,-263.022 448.497,-263.022 451.091,-261.514 447.14,-260.688 453.684,-260.006 453.684,-260.006"/>
</g>
<!-- roslyn&#45;&gt;installer -->
<g id="edge27" class="edge"><title>roslyn&#45;&gt;installer</title>
<path fill="none" stroke="black" d="M404.893,-334.802C475.612,-341.507 734.514,-362.011 791,-309 805.748,-295.16 814.512,-236.508 818.1,-206.638"/>
<polygon fill="black" stroke="black" points="818.825,-200.386 820.816,-206.658 818.48,-203.366 818.134,-206.346 818.134,-206.346 818.134,-206.346 818.48,-203.366 815.452,-206.035 818.825,-200.386 818.825,-200.386"/>
</g>
<!-- roslyn&#45;analyzers&#45;&gt;aspnetcore -->
<g id="edge8" class="edge"><title>roslyn&#45;analyzers&#45;&gt;aspnetcore</title>
<path fill="none" stroke="black" d="M612.277,-337.095C614.938,-338.311 617.545,-339.615 620,-341 627.468,-345.212 635.017,-350.83 641.398,-356.065"/>
<polygon fill="black" stroke="black" points="646.028,-359.964 639.7,-358.165 643.733,-358.032 641.439,-356.099 641.439,-356.099 641.439,-356.099 643.733,-358.032 643.178,-354.034 646.028,-359.964 646.028,-359.964"/>
</g>
<!-- roslyn&#45;analyzers&#45;&gt;sdk -->
<g id="edge65" class="edge"><title>roslyn&#45;analyzers&#45;&gt;sdk</title>
<path fill="none" stroke="black" d="M604.573,-314.913C627.532,-304.078 662.325,-286.416 690,-267 703.819,-257.305 717.973,-244.452 728.249,-234.487"/>
<polygon fill="black" stroke="black" points="732.682,-230.133 730.293,-236.263 730.542,-232.235 728.401,-234.337 728.401,-234.337 728.401,-234.337 730.542,-232.235 726.509,-232.41 732.682,-230.133 732.682,-230.133"/>
</g>
<!-- runtime&#45;&gt;aspnetcore -->
<g id="edge5" class="edge"><title>runtime&#45;&gt;aspnetcore</title>
<path fill="none" stroke="black" d="M495.42,-287.436C503.269,-301.46 518.438,-324.968 538,-338 545.216,-342.807 590.557,-354.559 623.379,-362.657"/>
<polygon fill="black" stroke="black" points="629.35,-364.124 622.879,-365.315 626.436,-363.409 623.523,-362.693 623.523,-362.693 623.523,-362.693 626.436,-363.409 624.167,-360.071 629.35,-364.124 629.35,-364.124"/>
</g>
<!-- runtime&#45;&gt;msbuild -->
<g id="edge35" class="edge"><title>runtime&#45;&gt;msbuild</title>
<path fill="none" stroke="black" d="M510.923,-278.905C522.881,-280.526 537.901,-282.563 550.695,-284.298"/>
<polygon fill="black" stroke="black" points="556.774,-285.122 550.465,-286.991 553.801,-284.719 550.828,-284.316 550.828,-284.316 550.828,-284.316 553.801,-284.719 551.191,-281.64 556.774,-285.122 556.774,-285.122"/>
</g>
<!-- runtime&#45;&gt;roslyn&#45;analyzers -->
<g id="edge41" class="edge"><title>runtime&#45;&gt;roslyn&#45;analyzers</title>
<path fill="none" stroke="black" d="M509.141,-287.097C522.088,-294.411 539.157,-304.055 553.061,-311.91"/>
<polygon fill="black" stroke="black" points="558.414,-314.934 551.862,-314.334 555.802,-313.459 553.19,-311.983 553.19,-311.983 553.19,-311.983 555.802,-313.459 554.518,-309.632 558.414,-314.934 558.414,-314.934"/>
</g>
<!-- runtime&#45;&gt;sdk -->
<g id="edge60" class="edge"><title>runtime&#45;&gt;sdk</title>
<path fill="none" stroke="black" d="M510.769,-269.762C517.174,-267.457 524.072,-264.527 530,-261 534.06,-258.584 533.695,-255.947 538,-254 600.081,-225.916 623.249,-247.677 690,-234 701.895,-231.563 715.027,-227.896 725.304,-224.798"/>
<polygon fill="black" stroke="black" points="731.297,-222.958 726.354,-227.3 728.429,-223.838 725.561,-224.719 725.561,-224.719 725.561,-224.719 728.429,-223.838 724.769,-222.138 731.297,-222.958 731.297,-222.958"/>
</g>
<!-- vstest -->
<g id="node16" class="node"><title>vstest</title>
<g id="a_node16"><a xlink:title="Built">
<path fill="#f5f5f5" stroke="black" stroke-dasharray="1,5" d="M589.667,-167C589.667,-167 568.333,-167 568.333,-167 564.667,-167 561,-163.333 561,-159.667 561,-159.667 561,-152.333 561,-152.333 561,-148.667 564.667,-145 568.333,-145 568.333,-145 589.667,-145 589.667,-145 593.333,-145 597,-148.667 597,-152.333 597,-152.333 597,-159.667 597,-159.667 597,-163.333 593.333,-167 589.667,-167"/>
<text text-anchor="middle" x="579" y="-153.2" font-family="Times New Roman,serif" font-size="11.00">vstest</text>
</a>
</g>
</g>
<!-- runtime&#45;&gt;vstest -->
<g id="edge73" class="edge"><title>runtime&#45;&gt;vstest</title>
<path fill="none" stroke="black" d="M510.9,-271.946C517.758,-269.717 524.89,-266.281 530,-261 537.818,-252.92 533.723,-247.398 538,-237 547.405,-214.135 560.395,-188.715 568.988,-172.557"/>
<polygon fill="black" stroke="black" points="571.94,-167.046 571.487,-173.609 570.524,-169.69 569.107,-172.335 569.107,-172.335 569.107,-172.335 570.524,-169.69 566.727,-171.06 571.94,-167.046 571.94,-167.046"/>
</g>
<!-- runtime&#45;&gt;installer -->
<g id="edge28" class="edge"><title>runtime&#45;&gt;installer</title>
<path fill="none" stroke="black" d="M510.651,-275.112C571.217,-272.231 743.976,-261.559 791,-232 800.848,-225.809 808.142,-214.916 812.952,-205.644"/>
<polygon fill="black" stroke="black" points="815.626,-200.136 815.434,-206.713 814.316,-202.835 813.005,-205.533 813.005,-205.533 813.005,-205.533 814.316,-202.835 810.576,-204.354 815.626,-200.136 815.626,-200.136"/>
</g>
<!-- sdk&#45;&gt;installer -->
<g id="edge29" class="edge"><title>sdk&#45;&gt;installer</title>
<path fill="none" stroke="black" d="M757.802,-214.046C767.392,-210.185 781.064,-204.679 793.148,-199.813"/>
<polygon fill="black" stroke="black" points="798.928,-197.485 794.371,-202.231 796.145,-198.606 793.363,-199.727 793.363,-199.727 793.363,-199.727 796.145,-198.606 792.354,-197.222 798.928,-197.485 798.928,-197.485"/>
</g>
<!-- templating&#45;&gt;installer -->
<g id="edge30" class="edge"><title>templating&#45;&gt;installer</title>
<path fill="none" stroke="black" d="M516.673,-43.5352C582.828,-35.7246 749.853,-19.9561 791,-54 808.922,-68.8278 816.337,-138.753 818.876,-171.72"/>
<polygon fill="black" stroke="black" points="819.32,-177.794 816.19,-172.007 819.101,-174.802 818.882,-171.81 818.882,-171.81 818.882,-171.81 819.101,-174.802 821.575,-171.613 819.32,-177.794 819.32,-177.794"/>
</g>
<!-- vstest&#45;&gt;sdk -->
<g id="edge66" class="edge"><title>vstest&#45;&gt;sdk</title>
<path fill="none" stroke="black" d="M597.354,-158.096C624.037,-161.495 673.757,-168.581 690,-176 704.664,-182.697 718.769,-194.324 728.812,-203.8"/>
<polygon fill="black" stroke="black" points="733.128,-207.977 726.939,-205.745 730.972,-205.891 728.817,-203.805 728.817,-203.805 728.817,-203.805 730.972,-205.891 730.694,-201.864 733.128,-207.977 733.128,-207.977"/>
</g>
<!-- vstest&#45;&gt;installer -->
<g id="edge32" class="edge"><title>vstest&#45;&gt;installer</title>
<path fill="none" stroke="black" d="M597.212,-156.626C618.917,-157.559 657.349,-159.688 690,-164 725.86,-168.735 766.762,-177.097 792.953,-182.837"/>
<polygon fill="black" stroke="black" points="798.958,-184.163 792.517,-185.505 796.029,-183.516 793.099,-182.869 793.099,-182.869 793.099,-182.869 796.029,-183.516 793.682,-180.233 798.958,-184.163 798.958,-184.163"/>
</g>
<!-- symreader&#45;&gt;runtime -->
<g id="edge53" class="edge"><title>symreader&#45;&gt;runtime</title>
<path fill="none" stroke="black" d="M309.282,-269.079C348.895,-270.617 421.146,-273.423 460.388,-274.947"/>
<polygon fill="black" stroke="black" points="466.392,-275.18 460.292,-277.645 463.395,-275.064 460.397,-274.947 460.397,-274.947 460.397,-274.947 463.395,-275.064 460.502,-272.249 466.392,-275.18 466.392,-275.18"/>
</g>
<!-- common -->
<g id="node19" class="node"><title>common</title>
<g id="a_node19"><a xlink:title="Built">
<path fill="#f5f5f5" stroke="black" stroke-dasharray="1,5" d="M505.167,-178C505.167,-178 471.833,-178 471.833,-178 468.167,-178 464.5,-174.333 464.5,-170.667 464.5,-170.667 464.5,-163.333 464.5,-163.333 464.5,-159.667 468.167,-156 471.833,-156 471.833,-156 505.167,-156 505.167,-156 508.833,-156 512.5,-159.667 512.5,-163.333 512.5,-163.333 512.5,-170.667 512.5,-170.667 512.5,-174.333 508.833,-178 505.167,-178"/>
<text text-anchor="middle" x="488.5" y="-164.2" font-family="Times New Roman,serif" font-size="11.00">common</text>
</a>
</g>
</g>
<!-- common&#45;&gt;nuget&#45;client -->
<g id="edge37" class="edge"><title>common&#45;&gt;nuget&#45;client</title>
<path fill="none" stroke="black" d="M512.664,-169.184C538.802,-171.76 582.559,-176.406 620,-182 620.473,-182.071 620.949,-182.143 621.427,-182.216"/>
<polygon fill="black" stroke="black" points="627.748,-183.236 621.394,-184.946 624.786,-182.758 621.825,-182.28 621.825,-182.28 621.825,-182.28 624.786,-182.758 622.255,-179.615 627.748,-183.236 627.748,-183.236"/>
</g>
<!-- test&#45;templates&#45;&gt;installer -->
<g id="edge31" class="edge"><title>test&#45;templates&#45;&gt;installer</title>
<path fill="none" stroke="black" d="M316.854,-433.896C357.884,-432.712 427.584,-431 487.5,-431 487.5,-431 487.5,-431 660,-431 718.427,-431 748.845,-460.456 791,-420 821.498,-390.731 821.519,-255.085 820.506,-206.429"/>
<polygon fill="black" stroke="black" points="820.359,-200.161 823.199,-206.096 820.429,-203.16 820.499,-206.159 820.499,-206.159 820.499,-206.159 820.429,-203.16 817.8,-206.223 820.359,-200.161 820.359,-200.161"/>
</g>
<!-- pre1 -->
<g id="node21" class="node"><title>pre1</title>
<g id="a_node21"><a xlink:title="Inputs ready">
<polygon fill="#f7caac" stroke="black" points="126,-244 61,-244 61,-222 126,-222 126,-244"/>
<polyline fill="none" stroke="black" points="68.3333,-244 61,-236.667 "/>
<polyline fill="none" stroke="black" points="61,-229.333 68.3333,-222 "/>
<polyline fill="none" stroke="black" points="118.667,-222 126,-229.333 "/>
<polyline fill="none" stroke="black" points="126,-236.667 118.667,-244 "/>
<text text-anchor="middle" x="93.5" y="-230.2" font-family="Times New Roman,serif" font-size="11.00">Inputs ready</text>
</a>
</g>
</g>
<!-- application&#45;insights -->
<g id="node22" class="node"><title>application&#45;insights</title>
<g id="a_node22"><a xlink:title="Inputs ready">
<polygon fill="#f7caac" stroke="black" points="791,-104 698,-104 698,-82 791,-82 791,-104"/>
<polyline fill="none" stroke="black" points="705.333,-104 698,-96.6667 "/>
<polyline fill="none" stroke="black" points="698,-89.3333 705.333,-82 "/>
<polyline fill="none" stroke="black" points="783.667,-82 791,-89.3333 "/>
<polyline fill="none" stroke="black" points="791,-96.6667 783.667,-104 "/>
<text text-anchor="middle" x="744.5" y="-90.2" font-family="Times New Roman,serif" font-size="11.00">application&#45;insights</text>
</a>
</g>
</g>
<!-- application&#45;insights&#45;&gt;installer -->
<g id="edge17" class="edge"><title>application&#45;insights&#45;&gt;installer</title>
<path fill="none" stroke="black" d="M786.354,-104.196C788.009,-105.342 789.571,-106.606 791,-108 808.526,-125.087 815.498,-153.49 818.245,-171.719"/>
<polygon fill="black" stroke="black" points="819.078,-177.935 815.605,-172.347 818.68,-174.962 818.281,-171.988 818.281,-171.988 818.281,-171.988 818.68,-174.962 820.957,-171.63 819.078,-177.935 819.078,-177.935"/>
</g>
<!-- netcorecli&#45;fsc -->
<g id="node23" class="node"><title>netcorecli&#45;fsc</title>
<g id="a_node23"><a xlink:title="Inputs ready">
<polygon fill="#f7caac" stroke="black" points="780,-77 709,-77 709,-55 780,-55 780,-77"/>
<polyline fill="none" stroke="black" points="716.333,-77 709,-69.6667 "/>
<polyline fill="none" stroke="black" points="709,-62.3333 716.333,-55 "/>
<polyline fill="none" stroke="black" points="772.667,-55 780,-62.3333 "/>
<polyline fill="none" stroke="black" points="780,-69.6667 772.667,-77 "/>
<text text-anchor="middle" x="744.5" y="-63.2" font-family="Times New Roman,serif" font-size="11.00">netcorecli&#45;fsc</text>
</a>
</g>
</g>
<!-- netcorecli&#45;fsc&#45;&gt;installer -->
<g id="edge23" class="edge"><title>netcorecli&#45;fsc&#45;&gt;installer</title>
<path fill="none" stroke="black" d="M780.017,-73.183C784.106,-75.1819 787.914,-77.7362 791,-81 814.651,-106.017 819.451,-148.196 820.168,-171.758"/>
<polygon fill="black" stroke="black" points="820.274,-177.88 817.47,-171.928 820.222,-174.881 820.17,-171.881 820.17,-171.881 820.17,-171.881 820.222,-174.881 822.869,-171.834 820.274,-177.88 820.274,-177.88"/>
</g>
<!-- newtonsoft&#45;json -->
<g id="node24" class="node"><title>newtonsoft&#45;json</title>
<g id="a_node24"><a xlink:title="Inputs ready">
<polygon fill="#f7caac" stroke="black" points="426,-178 346,-178 346,-156 426,-156 426,-178"/>
<polyline fill="none" stroke="black" points="353.333,-178 346,-170.667 "/>
<polyline fill="none" stroke="black" points="346,-163.333 353.333,-156 "/>
<polyline fill="none" stroke="black" points="418.667,-156 426,-163.333 "/>
<polyline fill="none" stroke="black" points="426,-170.667 418.667,-178 "/>
<text text-anchor="middle" x="386" y="-164.2" font-family="Times New Roman,serif" font-size="11.00">newtonsoft&#45;json</text>
</a>
</g>
</g>
<!-- newtonsoft&#45;json&#45;&gt;fsharp -->
<g id="edge15" class="edge"><title>newtonsoft&#45;json&#45;&gt;fsharp</title>
<path fill="none" stroke="black" d="M396.251,-155.912C407.015,-143.955 426.012,-125.611 447,-118 511.076,-94.7625 593.46,-106.885 633.699,-115.245"/>
<polygon fill="black" stroke="black" points="639.786,-116.549 633.353,-117.932 636.852,-115.92 633.919,-115.292 633.919,-115.292 633.919,-115.292 636.852,-115.92 634.484,-112.652 639.786,-116.549 639.786,-116.549"/>
</g>
<!-- newtonsoft&#45;json&#45;&gt;nuget&#45;client -->
<g id="edge38" class="edge"><title>newtonsoft&#45;json&#45;&gt;nuget&#45;client</title>
<path fill="none" stroke="black" d="M426.238,-175.724C433.128,-177.005 440.252,-178.17 447,-179 507.934,-186.494 579.404,-188.463 621.573,-188.929"/>
<polygon fill="black" stroke="black" points="627.83,-188.989 621.804,-191.631 624.83,-188.96 621.83,-188.931 621.83,-188.931 621.83,-188.931 624.83,-188.96 621.856,-186.231 627.83,-188.989 627.83,-188.989"/>
</g>
<!-- newtonsoft&#45;json&#45;&gt;runtime -->
<g id="edge55" class="edge"><title>newtonsoft&#45;json&#45;&gt;runtime</title>
<path fill="none" stroke="black" d="M403.769,-178.278C415.541,-187.123 430.625,-200.504 439,-216 448.659,-233.87 433.976,-245.411 447,-261 450.601,-265.31 455.562,-268.382 460.779,-270.572"/>
<polygon fill="black" stroke="black" points="466.488,-272.618 459.929,-273.135 463.664,-271.606 460.84,-270.593 460.84,-270.593 460.84,-270.593 463.664,-271.606 461.751,-268.052 466.488,-272.618 466.488,-272.618"/>
</g>
<!-- newtonsoft&#45;json&#45;&gt;runtime&#45;portable -->
<g id="edge49" class="edge"><title>newtonsoft&#45;json&#45;&gt;runtime&#45;portable</title>
<path fill="none" stroke="black" d="M402.199,-178.325C412.665,-186.213 426.825,-197.059 439,-207 449.58,-215.638 461.152,-225.638 470.339,-233.712"/>
<polygon fill="black" stroke="black" points="474.908,-237.742 468.622,-235.798 472.658,-235.757 470.408,-233.773 470.408,-233.773 470.408,-233.773 472.658,-235.757 472.194,-231.748 474.908,-237.742 474.908,-237.742"/>
</g>
<!-- newtonsoft&#45;json&#45;&gt;sdk -->
<g id="edge62" class="edge"><title>newtonsoft&#45;json&#45;&gt;sdk</title>
<path fill="none" stroke="black" d="M415.946,-178.041C425.689,-181.381 436.701,-184.755 447,-187 500.593,-198.683 668.59,-212.948 724.896,-217.518"/>
<polygon fill="black" stroke="black" points="731.194,-218.026 724.996,-220.234 728.204,-217.785 725.213,-217.543 725.213,-217.543 725.213,-217.543 728.204,-217.785 725.431,-214.852 731.194,-218.026 731.194,-218.026"/>
</g>
<!-- newtonsoft&#45;json&#45;&gt;templating -->
<g id="edge70" class="edge"><title>newtonsoft&#45;json&#45;&gt;templating</title>
<path fill="none" stroke="black" d="M393.917,-155.987C404.456,-139.565 425.581,-108.02 447,-84 453.798,-76.3766 462.008,-68.6467 469.255,-62.2376"/>
<polygon fill="black" stroke="black" points="474.088,-58.029 471.336,-64.0054 471.825,-59.9991 469.563,-61.9691 469.563,-61.9691 469.563,-61.9691 471.825,-59.9991 467.79,-59.9329 474.088,-58.029 474.088,-58.029"/>
</g>
<!-- newtonsoft&#45;json&#45;&gt;vstest -->
<g id="edge74" class="edge"><title>newtonsoft&#45;json&#45;&gt;vstest</title>
<path fill="none" stroke="black" d="M398.705,-155.779C410.029,-145.765 428.196,-131.811 447,-126 482.244,-115.108 494.541,-115.83 530,-126 540.639,-129.051 551.207,-135.224 559.708,-141.182"/>
<polygon fill="black" stroke="black" points="564.715,-144.833 558.277,-143.48 562.291,-143.066 559.867,-141.298 559.867,-141.298 559.867,-141.298 562.291,-143.066 561.458,-139.116 564.715,-144.833 564.715,-144.833"/>
</g>
<!-- newtonsoft&#45;json&#45;&gt;installer -->
<g id="edge24" class="edge"><title>newtonsoft&#45;json&#45;&gt;installer</title>
<path fill="none" stroke="black" d="M395.755,-155.881C409.095,-139.298 434.297,-109.444 447,-104 546.275,-61.4535 582.584,-95.7023 690,-107 735.271,-111.761 755.01,-96.1285 791,-124 806.046,-135.652 813.484,-156.807 817.023,-171.815"/>
<polygon fill="black" stroke="black" points="818.311,-177.826 814.413,-172.525 817.682,-174.892 817.053,-171.959 817.053,-171.959 817.053,-171.959 817.682,-174.892 819.693,-171.393 818.311,-177.826 818.311,-177.826"/>
</g>
<!-- newtonsoft&#45;json&#45;&gt;common -->
<g id="edge11" class="edge"><title>newtonsoft&#45;json&#45;&gt;common</title>
<path fill="none" stroke="black" d="M426.144,-167C436.824,-167 448.209,-167 458.235,-167"/>
<polygon fill="black" stroke="black" points="464.284,-167 458.284,-169.7 461.284,-167 458.284,-167 458.284,-167 458.284,-167 461.284,-167 458.283,-164.3 464.284,-167 464.284,-167"/>
</g>
<!-- newtonsoft&#45;json901 -->
<g id="node25" class="node"><title>newtonsoft&#45;json901</title>
<g id="a_node25"><a xlink:title="Inputs ready">
<polygon fill="#f7caac" stroke="black" points="434,-241 338,-241 338,-219 434,-219 434,-241"/>
<polyline fill="none" stroke="black" points="345.333,-241 338,-233.667 "/>
<polyline fill="none" stroke="black" points="338,-226.333 345.333,-219 "/>
<polyline fill="none" stroke="black" points="426.667,-219 434,-226.333 "/>
<polyline fill="none" stroke="black" points="434,-233.667 426.667,-241 "/>
<text text-anchor="middle" x="386" y="-227.2" font-family="Times New Roman,serif" font-size="11.00">newtonsoft&#45;json901</text>
</a>
</g>
</g>
<!-- newtonsoft&#45;json901&#45;&gt;fsharp -->
<g id="edge14" class="edge"><title>newtonsoft&#45;json901&#45;&gt;fsharp</title>
<path fill="none" stroke="black" d="M403.379,-218.854C415.276,-209.826 430.691,-196.006 439,-180 449.773,-159.247 429.508,-143.518 447,-128 460.668,-115.875 581.05,-118.391 633.618,-120.097"/>
<polygon fill="black" stroke="black" points="639.681,-120.3 633.594,-122.798 636.683,-120.199 633.685,-120.099 633.685,-120.099 633.685,-120.099 636.683,-120.199 633.775,-117.401 639.681,-120.3 639.681,-120.3"/>
</g>
<!-- newtonsoft&#45;json901&#45;&gt;runtime -->
<g id="edge56" class="edge"><title>newtonsoft&#45;json901&#45;&gt;runtime</title>
<path fill="none" stroke="black" d="M433.444,-241.075C435.401,-242.254 437.267,-243.558 439,-245 445.112,-250.085 441.08,-255.693 447,-261 450.852,-264.454 455.57,-267.135 460.407,-269.21"/>
<polygon fill="black" stroke="black" points="466.095,-271.377 459.527,-271.764 463.292,-270.309 460.488,-269.241 460.488,-269.241 460.488,-269.241 463.292,-270.309 461.449,-266.718 466.095,-271.377 466.095,-271.377"/>
</g>
<!-- newtonsoft&#45;json901&#45;&gt;runtime&#45;portable -->
<g id="edge50" class="edge"><title>newtonsoft&#45;json901&#45;&gt;runtime&#45;portable</title>
<path fill="none" stroke="black" d="M434.013,-238.888C436.293,-239.319 438.582,-239.752 440.86,-240.183"/>
<polygon fill="black" stroke="black" points="446.856,-241.316 440.459,-242.854 443.908,-240.759 440.96,-240.201 440.96,-240.201 440.96,-240.201 443.908,-240.759 441.462,-237.548 446.856,-241.316 446.856,-241.316"/>
</g>
<!-- newtonsoft&#45;json901&#45;&gt;sdk -->
<g id="edge63" class="edge"><title>newtonsoft&#45;json901&#45;&gt;sdk</title>
<path fill="none" stroke="black" d="M434.002,-229.664C493.592,-229.066 599.473,-227.427 690,-223 701.71,-222.427 714.839,-221.451 725.161,-220.606"/>
<polygon fill="black" stroke="black" points="731.187,-220.102 725.433,-223.293 728.197,-220.352 725.207,-220.602 725.207,-220.602 725.207,-220.602 728.197,-220.352 724.982,-217.912 731.187,-220.102 731.187,-220.102"/>
</g>
<!-- newtonsoft&#45;json901&#45;&gt;installer -->
<g id="edge25" class="edge"><title>newtonsoft&#45;json901&#45;&gt;installer</title>
<path fill="none" stroke="black" d="M434.44,-240.843C436.082,-242.086 437.614,-243.466 439,-245 452.327,-259.746 432.533,-275.37 447,-289 461.916,-303.053 765.936,-319.357 791,-300 805.74,-288.616 814.42,-234.631 818.028,-206.36"/>
<polygon fill="black" stroke="black" points="818.799,-200.092 820.746,-206.376 818.433,-203.069 818.067,-206.047 818.067,-206.047 818.067,-206.047 818.433,-203.069 815.387,-205.718 818.799,-200.092 818.799,-200.092"/>
</g>
<!-- xliff&#45;tasks -->
<g id="node26" class="node"><title>xliff&#45;tasks</title>
<g id="a_node26"><a xlink:title="Inputs ready">
<polygon fill="#f7caac" stroke="black" points="307.5,-135 253.5,-135 253.5,-113 307.5,-113 307.5,-135"/>
<polyline fill="none" stroke="black" points="260.833,-135 253.5,-127.667 "/>
<polyline fill="none" stroke="black" points="253.5,-120.333 260.833,-113 "/>
<polyline fill="none" stroke="black" points="300.167,-113 307.5,-120.333 "/>
<polyline fill="none" stroke="black" points="307.5,-127.667 300.167,-135 "/>
<text text-anchor="middle" x="280.5" y="-121.2" font-family="Times New Roman,serif" font-size="11.00">xliff&#45;tasks</text>
</a>
</g>
</g>
<!-- xliff&#45;tasks&#45;&gt;fsharp -->
<g id="edge16" class="edge"><title>xliff&#45;tasks&#45;&gt;fsharp</title>
<path fill="none" stroke="black" d="M307.764,-117.734C365.146,-105.065 505.719,-79.6022 620,-104 624.771,-105.019 629.668,-106.682 634.293,-108.579"/>
<polygon fill="black" stroke="black" points="639.975,-111.076 633.396,-111.134 637.229,-109.869 634.482,-108.662 634.482,-108.662 634.482,-108.662 637.229,-109.869 635.568,-106.191 639.975,-111.076 639.975,-111.076"/>
</g>
<!-- xliff&#45;tasks&#45;&gt;roslyn -->
<g id="edge46" class="edge"><title>xliff&#45;tasks&#45;&gt;roslyn</title>
<path fill="none" stroke="black" d="M294.236,-135.229C304.491,-145.108 318.269,-160.462 325,-177 340.64,-215.425 317.307,-231.597 333,-270 340.577,-288.544 355.624,-305.804 367.59,-317.551"/>
<polygon fill="black" stroke="black" points="372.168,-321.928 365.965,-319.733 370,-319.855 367.831,-317.782 367.831,-317.782 367.831,-317.782 370,-319.855 369.697,-315.83 372.168,-321.928 372.168,-321.928"/>
</g>
<!-- xliff&#45;tasks&#45;&gt;sdk -->
<g id="edge59" class="edge"><title>xliff&#45;tasks&#45;&gt;sdk</title>
<path fill="none" stroke="black" d="M288.315,-135.151C296.961,-148.237 313.163,-169.479 333,-180 402.386,-216.799 654.402,-219.167 725.003,-219.093"/>
<polygon fill="black" stroke="black" points="731.257,-219.079 725.263,-221.792 728.257,-219.086 725.257,-219.092 725.257,-219.092 725.257,-219.092 728.257,-219.086 725.251,-216.392 731.257,-219.079 731.257,-219.079"/>
</g>
<!-- xliff&#45;tasks&#45;&gt;installer -->
<g id="edge33" class="edge"><title>xliff&#45;tasks&#45;&gt;installer</title>
<path fill="none" stroke="black" d="M296.487,-112.954C324.406,-93.0858 387.003,-51.824 447,-35 503.14,-19.2576 519.695,-28 578,-28 578,-28 578,-28 660,-28 689.153,-28 769.064,-15.7986 791,-35 811.235,-52.7128 817.512,-134.909 819.321,-171.43"/>
<polygon fill="black" stroke="black" points="819.61,-177.693 816.636,-171.823 819.472,-174.696 819.334,-171.699 819.334,-171.699 819.334,-171.699 819.472,-174.696 822.031,-171.575 819.61,-177.693 819.61,-177.693"/>
</g>
<!-- humanizer -->
<g id="node27" class="node"><title>humanizer</title>
<g id="a_node27"><a xlink:title="Inputs ready">
<polygon fill="#f7caac" stroke="black" points="308.5,-339 252.5,-339 252.5,-317 308.5,-317 308.5,-339"/>
<polyline fill="none" stroke="black" points="259.833,-339 252.5,-331.667 "/>
<polyline fill="none" stroke="black" points="252.5,-324.333 259.833,-317 "/>
<polyline fill="none" stroke="black" points="301.167,-317 308.5,-324.333 "/>
<polyline fill="none" stroke="black" points="308.5,-331.667 301.167,-339 "/>
<text text-anchor="middle" x="280.5" y="-325.2" font-family="Times New Roman,serif" font-size="11.00">humanizer</text>
</a>
</g>
</g>
<!-- humanizer&#45;&gt;roslyn -->
<g id="edge45" class="edge"><title>humanizer&#45;&gt;roslyn</title>
<path fill="none" stroke="black" d="M308.693,-329.314C324.939,-330.099 345.389,-331.086 361.028,-331.842"/>
<polygon fill="black" stroke="black" points="367.41,-332.15 361.286,-334.557 364.413,-332.005 361.417,-331.861 361.417,-331.861 361.417,-331.861 364.413,-332.005 361.547,-329.164 367.41,-332.15 367.41,-332.15"/>
</g>
<!-- linker -->
<g id="node28" class="node"><title>linker</title>
<g id="a_node28"><a xlink:title="Inputs ready">
<polygon fill="#f7caac" stroke="black" points="403.5,-268 368.5,-268 368.5,-246 403.5,-246 403.5,-268"/>
<polyline fill="none" stroke="black" points="375.833,-268 368.5,-260.667 "/>
<polyline fill="none" stroke="black" points="368.5,-253.333 375.833,-246 "/>
<polyline fill="none" stroke="black" points="396.167,-246 403.5,-253.333 "/>
<polyline fill="none" stroke="black" points="403.5,-260.667 396.167,-268 "/>
<text text-anchor="middle" x="386" y="-254.2" font-family="Times New Roman,serif" font-size="11.00">linker</text>
</a>
</g>
</g>
<!-- linker&#45;&gt;runtime -->
<g id="edge54" class="edge"><title>linker&#45;&gt;runtime</title>
<path fill="none" stroke="black" d="M403.596,-260.137C419.023,-263.054 442.283,-267.452 460.403,-270.877"/>
<polygon fill="black" stroke="black" points="466.332,-271.998 459.935,-273.536 463.385,-271.441 460.437,-270.883 460.437,-270.883 460.437,-270.883 463.385,-271.441 460.938,-268.23 466.332,-271.998 466.332,-271.998"/>
</g>
<!-- linker&#45;&gt;runtime&#45;portable -->
<g id="edge48" class="edge"><title>linker&#45;&gt;runtime&#45;portable</title>
<path fill="none" stroke="black" d="M403.596,-255.679C413.748,-254.871 427.294,-253.793 440.534,-252.739"/>
<polygon fill="black" stroke="black" points="446.582,-252.257 440.815,-255.425 443.592,-252.495 440.601,-252.733 440.601,-252.733 440.601,-252.733 443.592,-252.495 440.387,-250.042 446.582,-252.257 446.582,-252.257"/>
</g>
<!-- cssparser -->
<g id="node29" class="node"><title>cssparser</title>
<g id="a_node29"><a xlink:title="Inputs ready">
<polygon fill="#f7caac" stroke="black" points="605.5,-397 552.5,-397 552.5,-375 605.5,-375 605.5,-397"/>
<polyline fill="none" stroke="black" points="559.833,-397 552.5,-389.667 "/>
<polyline fill="none" stroke="black" points="552.5,-382.333 559.833,-375 "/>
<polyline fill="none" stroke="black" points="598.167,-375 605.5,-382.333 "/>
<polyline fill="none" stroke="black" points="605.5,-389.667 598.167,-397 "/>
<text text-anchor="middle" x="579" y="-383.2" font-family="Times New Roman,serif" font-size="11.00">cssparser</text>
</a>
</g>
</g>
<!-- cssparser&#45;&gt;aspnetcore -->
<g id="edge4" class="edge"><title>cssparser&#45;&gt;aspnetcore</title>
<path fill="none" stroke="black" d="M605.54,-381.088C611.272,-379.986 617.445,-378.799 623.474,-377.64"/>
<polygon fill="black" stroke="black" points="629.433,-376.494 624.051,-380.278 626.487,-377.06 623.541,-377.627 623.541,-377.627 623.541,-377.627 626.487,-377.06 623.031,-374.975 629.433,-376.494 629.433,-376.494"/>
</g>
<!-- diagnostics -->
<g id="node30" class="node"><title>diagnostics</title>
<g id="a_node30"><a xlink:title="Inputs ready">
<polygon fill="#f7caac" stroke="black" points="518,-151 459,-151 459,-129 518,-129 518,-151"/>
<polyline fill="none" stroke="black" points="466.333,-151 459,-143.667 "/>
<polyline fill="none" stroke="black" points="459,-136.333 466.333,-129 "/>
<polyline fill="none" stroke="black" points="510.667,-129 518,-136.333 "/>
<polyline fill="none" stroke="black" points="518,-143.667 510.667,-151 "/>
<text text-anchor="middle" x="488.5" y="-137.2" font-family="Times New Roman,serif" font-size="11.00">diagnostics</text>
</a>
</g>
</g>
<!-- diagnostics&#45;&gt;vstest -->
<g id="edge72" class="edge"><title>diagnostics&#45;&gt;vstest</title>
<path fill="none" stroke="black" d="M518.478,-145.239C530.303,-147.377 543.785,-149.814 554.925,-151.828"/>
<polygon fill="black" stroke="black" points="560.848,-152.899 554.463,-154.488 557.896,-152.365 554.943,-151.832 554.943,-151.832 554.943,-151.832 557.896,-152.365 555.424,-149.175 560.848,-152.899 560.848,-152.899"/>
</g>
<!-- s1 -->
<g id="node31" class="node"><title>s1</title>
<g id="a_node31"><a xlink:title="1">
<path fill="#ffe599" stroke="black" stroke-dasharray="5,2" d="M137.667,-217C137.667,-217 49.3333,-217 49.3333,-217 45.6667,-217 42,-213.333 42,-209.667 42,-209.667 42,-202.333 42,-202.333 42,-198.667 45.6667,-195 49.3333,-195 49.3333,-195 137.667,-195 137.667,-195 141.333,-195 145,-198.667 145,-202.333 145,-202.333 145,-209.667 145,-209.667 145,-213.333 141.333,-217 137.667,-217"/>
<text text-anchor="middle" x="93.5" y="-203.2" font-family="Times New Roman,serif" font-size="11.00">#1 &#45; Local build infra</text>
</a>
</g>
</g>
<!-- s2 -->
<g id="node32" class="node"><title>s2</title>
<g id="a_node32"><a xlink:title="2">
<polygon fill="#f0fe86" stroke="black" stroke-dasharray="5,2" points="144,-190 43,-190 43,-168 144,-168 144,-190"/>
<text text-anchor="middle" x="93.5" y="-176.2" font-family="Times New Roman,serif" font-size="11.00">#2 &#45; CI implemented</text>
</a>
</g>
</g>
<!-- sourcelink -->
<g id="node33" class="node"><title>sourcelink</title>
<g id="a_node33"><a xlink:title="2">
<polygon fill="#f0fe86" stroke="black" stroke-dasharray="5,2" points="121,-309 66,-309 66,-287 121,-287 121,-309"/>
<text text-anchor="middle" x="93.5" y="-295.2" font-family="Times New Roman,serif" font-size="11.00">sourcelink</text>
</a>
</g>
</g>
<!-- sourcelink&#45;&gt;arcade -->
<g id="edge1" class="edge"><title>sourcelink&#45;&gt;arcade</title>
<path fill="none" stroke="black" d="M121.042,-298C139.017,-298 162.653,-298 180.51,-298"/>
<polygon fill="black" stroke="black" points="186.807,-298 180.807,-300.7 183.807,-298 180.807,-298 180.807,-298 180.807,-298 183.807,-298 180.807,-295.3 186.807,-298 186.807,-298"/>
</g>
<!-- s3 -->
<g id="node34" class="node"><title>s3</title>
<g id="a_node34"><a xlink:title="3">
<path fill="#b4c6e7" stroke="black" stroke-width="2" d="M139.167,-163C139.167,-163 47.8333,-163 47.8333,-163 44.1667,-163 40.5,-159.333 40.5,-155.667 40.5,-155.667 40.5,-148.333 40.5,-148.333 40.5,-144.667 44.1667,-141 47.8333,-141 47.8333,-141 139.167,-141 139.167,-141 142.833,-141 146.5,-144.667 146.5,-148.333 146.5,-148.333 146.5,-155.667 146.5,-155.667 146.5,-159.333 142.833,-163 139.167,-163"/>
<text text-anchor="middle" x="93.5" y="-149.2" font-family="Times New Roman,serif" font-size="11.00">#3 &#45; Artifacts greenlit</text>
</a>
</g>
</g>
<!-- source&#45;build&#45;reference&#45;packages -->
<g id="node35" class="node"><title>source&#45;build&#45;reference&#45;packages</title>
<g id="a_node35"><a xlink:title="3">
<path fill="#b4c6e7" stroke="black" stroke-width="2" d="M163.667,-336C163.667,-336 23.3333,-336 23.3333,-336 19.6667,-336 16,-332.333 16,-328.667 16,-328.667 16,-321.333 16,-321.333 16,-317.667 19.6667,-314 23.3333,-314 23.3333,-314 163.667,-314 163.667,-314 167.333,-314 171,-317.667 171,-321.333 171,-321.333 171,-328.667 171,-328.667 171,-332.333 167.333,-336 163.667,-336"/>
<text text-anchor="middle" x="93.5" y="-322.2" font-family="Times New Roman,serif" font-size="11.00">source&#45;build&#45;reference&#45;packages</text>
</a>
</g>
</g>
<!-- s4 -->
<g id="node36" class="node"><title>s4</title>
<g id="a_node36"><a xlink:title="4">
<polygon fill="#cfafe7" stroke="black" stroke-width="2" points="171,-136 16,-136 16,-114 171,-114 171,-136"/>
<text text-anchor="middle" x="93.5" y="-122.2" font-family="Times New Roman,serif" font-size="11.00">#4 &#45; Prebuilt regressions blocked</text>
</a>
</g>
</g>
</g>
</svg>
