<?xml version="1.0" encoding="UTF-8" standalone="no"?>
<!DOCTYPE svg PUBLIC "-//W3C//DTD SVG 1.1//EN"
 "http://www.w3.org/Graphics/SVG/1.1/DTD/svg11.dtd">
<!-- Generated by graphviz version 2.38.0 (20140413.2041)
 -->
<!-- Title: %3 Pages: 1 -->
<svg width="851pt" height="399pt"
 viewBox="0.00 0.00 851.00 399.28" xmlns="http://www.w3.org/2000/svg" xmlns:xlink="http://www.w3.org/1999/xlink">
<g id="graph0" class="graph" transform="scale(1 1) rotate(0) translate(4 395.283)">
<title>%3</title>
<polygon fill="white" stroke="none" points="-4,4 -4,-395.283 847,-395.283 847,4 -4,4"/>
<g id="clust1" class="cluster"><title>clusterLegend</title>
<polygon fill="#ebebeb" stroke="#ebebeb" points="8,-58.9547 8,-231.955 179,-231.955 179,-58.9547 8,-58.9547"/>
</g>
<!-- pre0 -->
<g id="node1" class="node"><title>pre0</title>
<g id="a_node1"><a xlink:title="Built">
<path fill="#f5f5f5" stroke="black" stroke-dasharray="1,5" d="M115.167,-223.955C115.167,-223.955 71.8333,-223.955 71.8333,-223.955 68.1667,-223.955 64.5,-220.288 64.5,-216.621 64.5,-216.621 64.5,-209.288 64.5,-209.288 64.5,-205.621 68.1667,-201.955 71.8333,-201.955 71.8333,-201.955 115.167,-201.955 115.167,-201.955 118.833,-201.955 122.5,-205.621 122.5,-209.288 122.5,-209.288 122.5,-216.621 122.5,-216.621 122.5,-220.288 118.833,-223.955 115.167,-223.955"/>
<text text-anchor="middle" x="93.5" y="-210.155" font-family="Times New Roman,serif" font-size="11.00">Built in 5.0</text>
</a>
</g>
</g>
<!-- aspnetcore -->
<g id="node2" class="node"><title>aspnetcore</title>
<g id="a_node2"><a xlink:title="Built">
<path fill="#f5f5f5" stroke="black" stroke-dasharray="1,5" d="M681.167,-309.955C681.167,-309.955 636.833,-309.955 636.833,-309.955 633.167,-309.955 629.5,-306.288 629.5,-302.621 629.5,-302.621 629.5,-295.288 629.5,-295.288 629.5,-291.621 633.167,-287.955 636.833,-287.955 636.833,-287.955 681.167,-287.955 681.167,-287.955 684.833,-287.955 688.5,-291.621 688.5,-295.288 688.5,-295.288 688.5,-302.621 688.5,-302.621 688.5,-306.288 684.833,-309.955 681.167,-309.955"/>
<text text-anchor="middle" x="659" y="-296.155" font-family="Times New Roman,serif" font-size="11.00">aspnetcore</text>
</a>
</g>
</g>
<!-- installer -->
<g id="node4" class="node"><title>installer</title>
<g id="a_node4"><a xlink:title="Built">
<path fill="#f5f5f5" stroke="black" stroke-dasharray="1,5" d="M835.667,-169.955C835.667,-169.955 806.333,-169.955 806.333,-169.955 802.667,-169.955 799,-166.288 799,-162.621 799,-162.621 799,-155.288 799,-155.288 799,-151.621 802.667,-147.955 806.333,-147.955 806.333,-147.955 835.667,-147.955 835.667,-147.955 839.333,-147.955 843,-151.621 843,-155.288 843,-155.288 843,-162.621 843,-162.621 843,-166.288 839.333,-169.955 835.667,-169.955"/>
<text text-anchor="middle" x="821" y="-156.155" font-family="Times New Roman,serif" font-size="11.00">installer</text>
</a>
</g>
</g>
<!-- aspnetcore&#45;&gt;installer -->
<g id="edge18" class="edge"><title>aspnetcore&#45;&gt;installer</title>
<path fill="none" stroke="black" d="M688.718,-301.458C718.244,-302.368 763.659,-298.88 791,-272.955 817.663,-247.673 821.172,-201.617 820.903,-176.476"/>
<polygon fill="black" stroke="black" points="820.754,-170.267 823.597,-176.201 820.826,-173.266 820.898,-176.266 820.898,-176.266 820.898,-176.266 820.826,-173.266 818.199,-176.33 820.754,-170.267 820.754,-170.267"/>
</g>
<!-- fsharp -->
<g id="node3" class="node"><title>fsharp</title>
<g id="a_node3"><a xlink:title="Built">
<path fill="#f5f5f5" stroke="black" stroke-dasharray="1,5" d="M670.667,-129.955C670.667,-129.955 647.333,-129.955 647.333,-129.955 643.667,-129.955 640,-126.288 640,-122.621 640,-122.621 640,-115.288 640,-115.288 640,-111.621 643.667,-107.955 647.333,-107.955 647.333,-107.955 670.667,-107.955 670.667,-107.955 674.333,-107.955 678,-111.621 678,-115.288 678,-115.288 678,-122.621 678,-122.621 678,-126.288 674.333,-129.955 670.667,-129.955"/>
<text text-anchor="middle" x="659" y="-116.155" font-family="Times New Roman,serif" font-size="11.00">fsharp</text>
</a>
</g>
</g>
<!-- fsharp&#45;&gt;installer -->
<g id="edge20" class="edge"><title>fsharp&#45;&gt;installer</title>
<path fill="none" stroke="black" d="M678.15,-119.716C709.225,-121.237 771.184,-125.278 791,-133.955 796.277,-136.265 801.304,-139.876 805.646,-143.642"/>
<polygon fill="black" stroke="black" points="810.068,-147.736 803.831,-145.641 807.866,-145.698 805.665,-143.66 805.665,-143.66 805.665,-143.66 807.866,-145.698 807.499,-141.678 810.068,-147.736 810.068,-147.736"/>
</g>
<!-- sdk -->
<g id="node11" class="node"><title>sdk</title>
<g id="a_node11"><a xlink:title="Built">
<path fill="#f5f5f5" stroke="black" stroke-dasharray="1,5" d="M750.167,-169.955C750.167,-169.955 738.833,-169.955 738.833,-169.955 735.167,-169.955 731.5,-166.288 731.5,-162.621 731.5,-162.621 731.5,-155.288 731.5,-155.288 731.5,-151.621 735.167,-147.955 738.833,-147.955 738.833,-147.955 750.167,-147.955 750.167,-147.955 753.833,-147.955 757.5,-151.621 757.5,-155.288 757.5,-155.288 757.5,-162.621 757.5,-162.621 757.5,-166.288 753.833,-169.955 750.167,-169.955"/>
<text text-anchor="middle" x="744.5" y="-156.155" font-family="Times New Roman,serif" font-size="11.00">sdk</text>
</a>
</g>
</g>
<!-- fsharp&#45;&gt;sdk -->
<g id="edge65" class="edge"><title>fsharp&#45;&gt;sdk</title>
<path fill="none" stroke="black" d="M678.118,-127.634C692.22,-134.389 711.685,-143.714 725.704,-150.43"/>
<polygon fill="black" stroke="black" points="731.347,-153.133 724.77,-152.976 728.642,-151.837 725.936,-150.541 725.936,-150.541 725.936,-150.541 728.642,-151.837 727.103,-148.106 731.347,-153.133 731.347,-153.133"/>
</g>
<!-- msbuild -->
<g id="node5" class="node"><title>msbuild</title>
<g id="a_node5"><a xlink:title="Built">
<path fill="#f5f5f5" stroke="black" stroke-dasharray="1,5" d="M593.667,-260.955C593.667,-260.955 564.333,-260.955 564.333,-260.955 560.667,-260.955 557,-257.288 557,-253.621 557,-253.621 557,-246.288 557,-246.288 557,-242.621 560.667,-238.955 564.333,-238.955 564.333,-238.955 593.667,-238.955 593.667,-238.955 597.333,-238.955 601,-242.621 601,-246.288 601,-246.288 601,-253.621 601,-253.621 601,-257.288 597.333,-260.955 593.667,-260.955"/>
<text text-anchor="middle" x="579" y="-247.155" font-family="Times New Roman,serif" font-size="11.00">msbuild</text>
</a>
</g>
</g>
<!-- msbuild&#45;&gt;aspnetcore -->
<g id="edge6" class="edge"><title>msbuild&#45;&gt;aspnetcore</title>
<path fill="none" stroke="black" d="M597.699,-261.074C608.769,-268.028 623.142,-277.057 635.078,-284.555"/>
<polygon fill="black" stroke="black" points="640.371,-287.88 633.854,-286.974 637.83,-286.284 635.29,-284.688 635.29,-284.688 635.29,-284.688 637.83,-286.284 636.726,-282.402 640.371,-287.88 640.371,-287.88"/>
</g>
<!-- msbuild&#45;&gt;fsharp -->
<g id="edge12" class="edge"><title>msbuild&#45;&gt;fsharp</title>
<path fill="none" stroke="black" d="M595.649,-238.689C603.779,-232.199 613.37,-223.455 620,-213.955 637.153,-189.374 648.203,-155.924 653.743,-135.976"/>
<polygon fill="black" stroke="black" points="655.349,-130.002 656.399,-136.497 654.57,-132.899 653.791,-135.796 653.791,-135.796 653.791,-135.796 654.57,-132.899 651.184,-135.095 655.349,-130.002 655.349,-130.002"/>
</g>
<!-- msbuild&#45;&gt;installer -->
<g id="edge21" class="edge"><title>msbuild&#45;&gt;installer</title>
<path fill="none" stroke="black" d="M601.285,-251.714C648.759,-255.193 761.451,-260.844 791,-238.955 810.665,-224.388 817.023,-195.175 819.061,-176.37"/>
<polygon fill="black" stroke="black" points="819.634,-169.959 821.789,-176.176 819.367,-172.947 819.1,-175.935 819.1,-175.935 819.1,-175.935 819.367,-172.947 816.411,-175.695 819.634,-169.959 819.634,-169.959"/>
</g>
<!-- nuget&#45;client -->
<g id="node6" class="node"><title>nuget&#45;client</title>
<g id="a_node6"><a xlink:title="Built">
<path fill="#f5f5f5" stroke="black" stroke-dasharray="1,5" d="M682.667,-91.9547C682.667,-91.9547 635.333,-91.9547 635.333,-91.9547 631.667,-91.9547 628,-88.2881 628,-84.6214 628,-84.6214 628,-77.2881 628,-77.2881 628,-73.6214 631.667,-69.9547 635.333,-69.9547 635.333,-69.9547 682.667,-69.9547 682.667,-69.9547 686.333,-69.9547 690,-73.6214 690,-77.2881 690,-77.2881 690,-84.6214 690,-84.6214 690,-88.2881 686.333,-91.9547 682.667,-91.9547"/>
<text text-anchor="middle" x="659" y="-78.1547" font-family="Times New Roman,serif" font-size="11.00">nuget&#45;client</text>
</a>
</g>
</g>
<!-- msbuild&#45;&gt;nuget&#45;client -->
<g id="edge37" class="edge"><title>msbuild&#45;&gt;nuget&#45;client</title>
<path fill="none" stroke="black" d="M597.696,-238.794C605.969,-232.562 615.067,-224.022 620,-213.955 641.374,-170.335 605.369,-147.935 628,-104.955 629.631,-101.856 631.855,-99.0193 634.36,-96.4669"/>
<polygon fill="black" stroke="black" points="639.105,-92.1848 636.46,-98.2092 636.878,-94.1948 634.651,-96.2047 634.651,-96.2047 634.651,-96.2047 636.878,-94.1948 632.842,-94.2002 639.105,-92.1848 639.105,-92.1848"/>
</g>
<!-- msbuild&#45;&gt;sdk -->
<g id="edge59" class="edge"><title>msbuild&#45;&gt;sdk</title>
<path fill="none" stroke="black" d="M601.271,-243.83C624.195,-236.698 661.254,-223.605 690,-205.955 704.253,-197.203 718.382,-184.576 728.538,-174.614"/>
<polygon fill="black" stroke="black" points="732.911,-170.247 730.573,-176.397 730.788,-172.367 728.665,-174.487 728.665,-174.487 728.665,-174.487 730.788,-172.367 726.757,-172.576 732.911,-170.247 732.911,-170.247"/>
</g>
<!-- nuget&#45;client&#45;&gt;installer -->
<g id="edge25" class="edge"><title>nuget&#45;client&#45;&gt;installer</title>
<path fill="none" stroke="black" d="M684.962,-92.0117C686.749,-93.2249 688.454,-94.5391 690,-95.9547 695.003,-100.536 692.341,-105.213 698,-108.955 732.865,-132.011 754.748,-102.148 791,-122.955 798.987,-127.539 805.641,-135.247 810.551,-142.357"/>
<polygon fill="black" stroke="black" points="813.96,-147.616 808.431,-144.049 812.328,-145.098 810.697,-142.581 810.697,-142.581 810.697,-142.581 812.328,-145.098 812.962,-141.112 813.96,-147.616 813.96,-147.616"/>
</g>
<!-- nuget&#45;client&#45;&gt;sdk -->
<g id="edge62" class="edge"><title>nuget&#45;client&#45;&gt;sdk</title>
<path fill="none" stroke="black" d="M685.907,-92.0769C687.395,-93.2569 688.779,-94.547 690,-95.9547 697.367,-104.449 691.726,-110.624 698,-119.955 705.445,-131.028 716.85,-140.794 726.379,-147.784"/>
<polygon fill="black" stroke="black" points="731.442,-151.372 724.986,-150.106 728.995,-149.638 726.547,-147.903 726.547,-147.903 726.547,-147.903 728.995,-149.638 728.108,-145.7 731.442,-151.372 731.442,-151.372"/>
</g>
<!-- roslyn&#45;analyzers -->
<g id="node7" class="node"><title>roslyn&#45;analyzers</title>
<g id="a_node7"><a xlink:title="Built">
<path fill="#f5f5f5" stroke="black" stroke-dasharray="1,5" d="M612.667,-309.955C612.667,-309.955 545.333,-309.955 545.333,-309.955 541.667,-309.955 538,-306.288 538,-302.621 538,-302.621 538,-295.288 538,-295.288 538,-291.621 541.667,-287.955 545.333,-287.955 545.333,-287.955 612.667,-287.955 612.667,-287.955 616.333,-287.955 620,-291.621 620,-295.288 620,-295.288 620,-302.621 620,-302.621 620,-306.288 616.333,-309.955 612.667,-309.955"/>
<text text-anchor="middle" x="579" y="-296.155" font-family="Times New Roman,serif" font-size="11.00">roslyn&#45;analyzers</text>
</a>
</g>
</g>
<!-- roslyn&#45;analyzers&#45;&gt;aspnetcore -->
<g id="edge8" class="edge"><title>roslyn&#45;analyzers&#45;&gt;aspnetcore</title>
<path fill="none" stroke="black" d="M620.371,-298.955C621.3,-298.955 622.228,-298.955 623.154,-298.955"/>
<polygon fill="black" stroke="black" points="629.191,-298.955 623.191,-301.655 626.191,-298.955 623.191,-298.955 623.191,-298.955 623.191,-298.955 626.191,-298.955 623.191,-296.255 629.191,-298.955 629.191,-298.955"/>
</g>
<!-- roslyn&#45;analyzers&#45;&gt;sdk -->
<g id="edge63" class="edge"><title>roslyn&#45;analyzers&#45;&gt;sdk</title>
<path fill="none" stroke="black" d="M600.357,-287.749C623.469,-274.484 661.639,-250.898 690,-224.955 706.526,-209.838 722.27,-189.434 732.345,-175.333"/>
<polygon fill="black" stroke="black" points="736.046,-170.078 734.798,-176.539 734.319,-172.531 732.591,-174.984 732.591,-174.984 732.591,-174.984 734.319,-172.531 730.384,-173.429 736.046,-170.078 736.046,-170.078"/>
</g>
<!-- roslyn -->
<g id="node8" class="node"><title>roslyn</title>
<g id="a_node8"><a xlink:title="Built">
<path fill="#f5f5f5" stroke="black" stroke-dasharray="1,5" d="M397.167,-329.955C397.167,-329.955 374.833,-329.955 374.833,-329.955 371.167,-329.955 367.5,-326.288 367.5,-322.621 367.5,-322.621 367.5,-315.288 367.5,-315.288 367.5,-311.621 371.167,-307.955 374.833,-307.955 374.833,-307.955 397.167,-307.955 397.167,-307.955 400.833,-307.955 404.5,-311.621 404.5,-315.288 404.5,-315.288 404.5,-322.621 404.5,-322.621 404.5,-326.288 400.833,-329.955 397.167,-329.955"/>
<text text-anchor="middle" x="386" y="-316.155" font-family="Times New Roman,serif" font-size="11.00">roslyn</text>
</a>
</g>
</g>
<!-- roslyn&#45;&gt;aspnetcore -->
<g id="edge7" class="edge"><title>roslyn&#45;&gt;aspnetcore</title>
<path fill="none" stroke="black" d="M404.763,-320.289C444.034,-322.819 541.016,-326.741 620,-310.955 621.026,-310.75 622.064,-310.527 623.108,-310.289"/>
<polygon fill="black" stroke="black" points="629.123,-308.786 623.957,-312.86 626.213,-309.513 623.302,-310.241 623.302,-310.241 623.302,-310.241 626.213,-309.513 622.647,-307.621 629.123,-308.786 629.123,-308.786"/>
</g>
<!-- roslyn&#45;&gt;installer -->
<g id="edge26" class="edge"><title>roslyn&#45;&gt;installer</title>
<path fill="none" stroke="black" d="M404.684,-324.736C438.137,-335.142 513.15,-355.955 578,-355.955 578,-355.955 578,-355.955 660,-355.955 724.799,-355.955 750.989,-342.925 791,-291.955 817.884,-257.707 821.093,-203.872 820.779,-176.378"/>
<polygon fill="black" stroke="black" points="820.646,-170.297 823.477,-176.237 820.712,-173.297 820.777,-176.296 820.777,-176.296 820.777,-176.296 820.712,-173.297 818.078,-176.355 820.646,-170.297 820.646,-170.297"/>
</g>
<!-- roslyn&#45;&gt;msbuild -->
<g id="edge35" class="edge"><title>roslyn&#45;&gt;msbuild</title>
<path fill="none" stroke="black" d="M404.671,-317.513C440.647,-314.447 519.865,-306.985 530,-299.955 536.208,-295.648 533.302,-290.872 538,-284.955 543.78,-277.673 551.206,-270.702 558.087,-264.925"/>
<polygon fill="black" stroke="black" points="562.737,-261.127 559.798,-267.014 560.414,-263.025 558.09,-264.922 558.09,-264.922 558.09,-264.922 560.414,-263.025 556.382,-262.831 562.737,-261.127 562.737,-261.127"/>
</g>
<!-- roslyn&#45;&gt;roslyn&#45;analyzers -->
<g id="edge40" class="edge"><title>roslyn&#45;&gt;roslyn&#45;analyzers</title>
<path fill="none" stroke="black" d="M404.722,-319.036C431.856,-318.919 485.256,-317.737 530,-310.955 530.478,-310.882 530.958,-310.807 531.439,-310.73"/>
<polygon fill="black" stroke="black" points="537.78,-309.596 532.349,-313.31 534.827,-310.124 531.874,-310.652 531.874,-310.652 531.874,-310.652 534.827,-310.124 531.398,-307.994 537.78,-309.596 537.78,-309.596"/>
</g>
<!-- runtime&#45;portable -->
<g id="node9" class="node"><title>runtime&#45;portable</title>
<g id="a_node9"><a xlink:title="Built">
<path fill="#f5f5f5" stroke="black" stroke-dasharray="1,5" d="M522.667,-298.955C522.667,-298.955 454.333,-298.955 454.333,-298.955 450.667,-298.955 447,-295.288 447,-291.621 447,-291.621 447,-284.288 447,-284.288 447,-280.621 450.667,-276.955 454.333,-276.955 454.333,-276.955 522.667,-276.955 522.667,-276.955 526.333,-276.955 530,-280.621 530,-284.288 530,-284.288 530,-291.621 530,-291.621 530,-295.288 526.333,-298.955 522.667,-298.955"/>
<text text-anchor="middle" x="488.5" y="-285.155" font-family="Times New Roman,serif" font-size="11.00">runtime&#45;portable</text>
</a>
</g>
</g>
<!-- roslyn&#45;&gt;runtime&#45;portable -->
<g id="edge49" class="edge"><title>roslyn&#45;&gt;runtime&#45;portable</title>
<path fill="none" stroke="black" d="M404.859,-313.983C414.915,-311.139 427.689,-307.45 439,-303.955 442.177,-302.973 445.463,-301.935 448.76,-300.88"/>
<polygon fill="black" stroke="black" points="454.682,-298.968 449.802,-303.381 451.827,-299.889 448.972,-300.811 448.972,-300.811 448.972,-300.811 451.827,-299.889 448.142,-298.242 454.682,-298.968 454.682,-298.968"/>
</g>
<!-- runtime -->
<g id="node10" class="node"><title>runtime</title>
<g id="a_node10"><a xlink:title="Built">
<path fill="#f5f5f5" stroke="black" stroke-dasharray="1,5" d="M503.167,-271.955C503.167,-271.955 473.833,-271.955 473.833,-271.955 470.167,-271.955 466.5,-268.288 466.5,-264.621 466.5,-264.621 466.5,-257.288 466.5,-257.288 466.5,-253.621 470.167,-249.955 473.833,-249.955 473.833,-249.955 503.167,-249.955 503.167,-249.955 506.833,-249.955 510.5,-253.621 510.5,-257.288 510.5,-257.288 510.5,-264.621 510.5,-264.621 510.5,-268.288 506.833,-271.955 503.167,-271.955"/>
<text text-anchor="middle" x="488.5" y="-258.155" font-family="Times New Roman,serif" font-size="11.00">runtime</text>
</a>
</g>
</g>
<!-- roslyn&#45;&gt;runtime -->
<g id="edge55" class="edge"><title>roslyn&#45;&gt;runtime</title>
<path fill="none" stroke="black" d="M404.804,-313.896C415.843,-309.985 429.652,-303.587 439,-293.955 445.097,-287.672 440.616,-281.945 447,-275.955 450.851,-272.341 455.649,-269.58 460.581,-267.476"/>
<polygon fill="black" stroke="black" points="466.384,-265.297 461.717,-269.934 463.576,-266.352 460.767,-267.407 460.767,-267.407 460.767,-267.407 463.576,-266.352 459.818,-264.879 466.384,-265.297 466.384,-265.297"/>
</g>
<!-- runtime&#45;&gt;aspnetcore -->
<g id="edge5" class="edge"><title>runtime&#45;&gt;aspnetcore</title>
<path fill="none" stroke="black" d="M510.67,-266.551C519.137,-268.695 529,-271.076 538,-272.955 574.191,-280.511 584.066,-278.257 620,-286.955 621.16,-287.235 622.336,-287.533 623.521,-287.843"/>
<polygon fill="black" stroke="black" points="629.484,-289.489 622.982,-290.496 626.592,-288.691 623.7,-287.893 623.7,-287.893 623.7,-287.893 626.592,-288.691 624.419,-285.29 629.484,-289.489 629.484,-289.489"/>
</g>
<!-- runtime&#45;&gt;installer -->
<g id="edge27" class="edge"><title>runtime&#45;&gt;installer</title>
<path fill="none" stroke="black" d="M510.6,-263.372C571.819,-269.918 747.871,-285.281 791,-250.955 813.562,-232.997 818.893,-197.576 819.965,-176.307"/>
<polygon fill="black" stroke="black" points="820.176,-170.195 822.667,-176.285 820.072,-173.194 819.969,-176.192 819.969,-176.192 819.969,-176.192 820.072,-173.194 817.271,-176.099 820.176,-170.195 820.176,-170.195"/>
</g>
<!-- runtime&#45;&gt;msbuild -->
<g id="edge34" class="edge"><title>runtime&#45;&gt;msbuild</title>
<path fill="none" stroke="black" d="M510.923,-258.292C522.881,-256.806 537.901,-254.939 550.695,-253.349"/>
<polygon fill="black" stroke="black" points="556.774,-252.593 551.153,-256.013 553.797,-252.963 550.82,-253.333 550.82,-253.333 550.82,-253.333 553.797,-252.963 550.487,-250.654 556.774,-252.593 556.774,-252.593"/>
</g>
<!-- runtime&#45;&gt;roslyn&#45;analyzers -->
<g id="edge39" class="edge"><title>runtime&#45;&gt;roslyn&#45;analyzers</title>
<path fill="none" stroke="black" d="M510.5,-266.803C517.03,-269.118 524.066,-272.151 530,-275.955 534.233,-278.668 533.772,-281.232 538,-283.955 538.398,-284.211 538.8,-284.463 539.207,-284.712"/>
<polygon fill="black" stroke="black" points="544.712,-287.758 538.155,-287.216 542.087,-286.306 539.462,-284.853 539.462,-284.853 539.462,-284.853 542.087,-286.306 540.769,-282.491 544.712,-287.758 544.712,-287.758"/>
</g>
<!-- runtime&#45;&gt;sdk -->
<g id="edge58" class="edge"><title>runtime&#45;&gt;sdk</title>
<path fill="none" stroke="black" d="M508.901,-249.809C517.609,-245.108 528.126,-239.838 538,-235.955 573.225,-222.101 584.691,-226.591 620,-212.955 623.708,-211.523 624.365,-210.563 628,-208.955 655.022,-197.001 662.911,-196.756 690,-184.955 702.142,-179.665 715.546,-173.15 725.899,-167.965"/>
<polygon fill="black" stroke="black" points="731.31,-165.237 727.168,-170.349 728.631,-166.588 725.953,-167.938 725.953,-167.938 725.953,-167.938 728.631,-166.588 724.737,-165.527 731.31,-165.237 731.31,-165.237"/>
</g>
<!-- vstest -->
<g id="node13" class="node"><title>vstest</title>
<g id="a_node13"><a xlink:title="Built">
<path fill="#f5f5f5" stroke="black" stroke-dasharray="1,5" d="M589.667,-211.955C589.667,-211.955 568.333,-211.955 568.333,-211.955 564.667,-211.955 561,-208.288 561,-204.621 561,-204.621 561,-197.288 561,-197.288 561,-193.621 564.667,-189.955 568.333,-189.955 568.333,-189.955 589.667,-189.955 589.667,-189.955 593.333,-189.955 597,-193.621 597,-197.288 597,-197.288 597,-204.621 597,-204.621 597,-208.288 593.333,-211.955 589.667,-211.955"/>
<text text-anchor="middle" x="579" y="-198.155" font-family="Times New Roman,serif" font-size="11.00">vstest</text>
</a>
</g>
</g>
<!-- runtime&#45;&gt;vstest -->
<g id="edge71" class="edge"><title>runtime&#45;&gt;vstest</title>
<path fill="none" stroke="black" d="M502.991,-249.661C511.044,-242.751 521.352,-233.602 530,-224.955 533.784,-221.17 533.587,-218.983 538,-215.955 543.137,-212.429 549.209,-209.603 555.05,-207.396"/>
<polygon fill="black" stroke="black" points="560.771,-205.392 556,-209.924 557.939,-206.384 555.108,-207.375 555.108,-207.375 555.108,-207.375 557.939,-206.384 554.215,-204.827 560.771,-205.392 560.771,-205.392"/>
</g>
<!-- sdk&#45;&gt;installer -->
<g id="edge28" class="edge"><title>sdk&#45;&gt;installer</title>
<path fill="none" stroke="black" d="M757.802,-158.955C767.304,-158.955 780.815,-158.955 792.818,-158.955"/>
<polygon fill="black" stroke="black" points="798.928,-158.955 792.928,-161.655 795.928,-158.955 792.928,-158.955 792.928,-158.955 792.928,-158.955 795.928,-158.955 792.928,-156.255 798.928,-158.955 798.928,-158.955"/>
</g>
<!-- templating -->
<g id="node12" class="node"><title>templating</title>
<g id="a_node12"><a xlink:title="Built">
<path fill="#f5f5f5" stroke="black" stroke-dasharray="1,5" d="M509.167,-52.9547C509.167,-52.9547 467.833,-52.9547 467.833,-52.9547 464.167,-52.9547 460.5,-49.2881 460.5,-45.6214 460.5,-45.6214 460.5,-38.2881 460.5,-38.2881 460.5,-34.6214 464.167,-30.9547 467.833,-30.9547 467.833,-30.9547 509.167,-30.9547 509.167,-30.9547 512.833,-30.9547 516.5,-34.6214 516.5,-38.2881 516.5,-38.2881 516.5,-45.6214 516.5,-45.6214 516.5,-49.2881 512.833,-52.9547 509.167,-52.9547"/>
<text text-anchor="middle" x="488.5" y="-39.1547" font-family="Times New Roman,serif" font-size="11.00">templating</text>
</a>
</g>
</g>
<!-- templating&#45;&gt;installer -->
<g id="edge29" class="edge"><title>templating&#45;&gt;installer</title>
<path fill="none" stroke="black" d="M516.597,-42.4612C555.298,-43.5283 628.521,-46.8241 690,-56.9547 735.736,-64.4911 756.432,-52.0744 791,-82.9547 807.922,-98.0715 815.026,-124.15 817.97,-141.476"/>
<polygon fill="black" stroke="black" points="818.936,-147.867 815.37,-142.338 818.488,-144.901 818.04,-141.935 818.04,-141.935 818.04,-141.935 818.488,-144.901 820.709,-141.531 818.936,-147.867 818.936,-147.867"/>
</g>
<!-- vstest&#45;&gt;installer -->
<g id="edge31" class="edge"><title>vstest&#45;&gt;installer</title>
<path fill="none" stroke="black" d="M597.246,-203.054C634.357,-206.84 723.863,-212.018 791,-183.955 796.405,-181.696 801.525,-178.029 805.916,-174.192"/>
<polygon fill="black" stroke="black" points="810.374,-170.02 807.838,-176.092 808.183,-172.07 805.993,-174.12 805.993,-174.12 805.993,-174.12 808.183,-172.07 804.148,-172.149 810.374,-170.02 810.374,-170.02"/>
</g>
<!-- vstest&#45;&gt;sdk -->
<g id="edge64" class="edge"><title>vstest&#45;&gt;sdk</title>
<path fill="none" stroke="black" d="M597.157,-196.625C618.807,-191.153 657.181,-181.426 690,-172.955 701.702,-169.934 714.831,-166.5 725.154,-163.788"/>
<polygon fill="black" stroke="black" points="731.181,-162.203 726.065,-166.34 728.28,-162.966 725.379,-163.729 725.379,-163.729 725.379,-163.729 728.28,-162.966 724.692,-161.118 731.181,-162.203 731.181,-162.203"/>
</g>
<!-- pre1 -->
<g id="node14" class="node"><title>pre1</title>
<g id="a_node14"><a xlink:title="Inputs ready">
<polygon fill="#f7caac" stroke="black" points="126,-196.955 61,-196.955 61,-174.955 126,-174.955 126,-196.955"/>
<polyline fill="none" stroke="black" points="68.3333,-196.955 61,-189.621 "/>
<polyline fill="none" stroke="black" points="61,-182.288 68.3333,-174.955 "/>
<polyline fill="none" stroke="black" points="118.667,-174.955 126,-182.288 "/>
<polyline fill="none" stroke="black" points="126,-189.621 118.667,-196.955 "/>
<text text-anchor="middle" x="93.5" y="-183.155" font-family="Times New Roman,serif" font-size="11.00">Inputs ready</text>
</a>
</g>
</g>
<!-- aspnet&#45;xdt -->
<g id="node15" class="node"><title>aspnet&#45;xdt</title>
<g id="a_node15"><a xlink:title="Inputs ready">
<polygon fill="#f7caac" stroke="black" points="308.5,-90.9547 252.5,-90.9547 252.5,-68.9547 308.5,-68.9547 308.5,-90.9547"/>
<polyline fill="none" stroke="black" points="259.833,-90.9547 252.5,-83.6214 "/>
<polyline fill="none" stroke="black" points="252.5,-76.2881 259.833,-68.9547 "/>
<polyline fill="none" stroke="black" points="301.167,-68.9547 308.5,-76.2881 "/>
<polyline fill="none" stroke="black" points="308.5,-83.6214 301.167,-90.9547 "/>
<text text-anchor="middle" x="280.5" y="-77.1547" font-family="Times New Roman,serif" font-size="11.00">aspnet&#45;xdt</text>
</a>
</g>
</g>
<!-- aspnet&#45;xdt&#45;&gt;nuget&#45;client -->
<g id="edge38" class="edge"><title>aspnet&#45;xdt&#45;&gt;nuget&#45;client</title>
<path fill="none" stroke="black" d="M308.76,-79.3267C316.586,-79.1732 325.131,-79.0311 333,-78.9547 460.55,-77.7165 492.489,-75.6015 620,-78.9547 620.471,-78.9671 620.944,-78.9803 621.421,-78.9944"/>
<polygon fill="black" stroke="black" points="627.723,-79.2174 621.631,-81.7034 624.725,-79.1113 621.726,-79.0051 621.726,-79.0051 621.726,-79.0051 624.725,-79.1113 621.822,-76.3068 627.723,-79.2174 627.723,-79.2174"/>
</g>
<!-- clicommandlineparser -->
<g id="node16" class="node"><title>clicommandlineparser</title>
<g id="a_node16"><a xlink:title="Inputs ready">
<polygon fill="#f7caac" stroke="black" points="439,-52.9547 333,-52.9547 333,-30.9547 439,-30.9547 439,-52.9547"/>
<polyline fill="none" stroke="black" points="340.333,-52.9547 333,-45.6214 "/>
<polyline fill="none" stroke="black" points="333,-38.2881 340.333,-30.9547 "/>
<polyline fill="none" stroke="black" points="431.667,-30.9547 439,-38.2881 "/>
<polyline fill="none" stroke="black" points="439,-45.6214 431.667,-52.9547 "/>
<text text-anchor="middle" x="386" y="-39.1547" font-family="Times New Roman,serif" font-size="11.00">clicommandlineparser</text>
</a>
</g>
</g>
<!-- clicommandlineparser&#45;&gt;installer -->
<g id="edge19" class="edge"><title>clicommandlineparser&#45;&gt;installer</title>
<path fill="none" stroke="black" d="M439.285,-31.037C441.888,-30.6381 444.471,-30.2736 447,-29.9547 504.848,-22.663 519.695,-22.9547 578,-22.9547 578,-22.9547 578,-22.9547 660,-22.9547 689.153,-22.9547 768.732,-11.1401 791,-29.9547 807.861,-44.2005 815.755,-109.847 818.639,-141.624"/>
<polygon fill="black" stroke="black" points="819.18,-147.86 815.972,-142.116 818.921,-144.872 818.662,-141.883 818.662,-141.883 818.662,-141.883 818.921,-144.872 821.352,-141.649 819.18,-147.86 819.18,-147.86"/>
</g>
<!-- clicommandlineparser&#45;&gt;templating -->
<g id="edge67" class="edge"><title>clicommandlineparser&#45;&gt;templating</title>
<path fill="none" stroke="black" d="M439.016,-41.9547C444.202,-41.9547 449.364,-41.9547 454.278,-41.9547"/>
<polygon fill="black" stroke="black" points="460.355,-41.9547 454.355,-44.6548 457.355,-41.9548 454.355,-41.9548 454.355,-41.9548 454.355,-41.9548 457.355,-41.9548 454.355,-39.2548 460.355,-41.9547 460.355,-41.9547"/>
</g>
<!-- command&#45;line&#45;api -->
<g id="node17" class="node"><title>command&#45;line&#45;api</title>
<g id="a_node17"><a xlink:title="Inputs ready">
<polygon fill="#f7caac" stroke="black" points="325,-357.955 236,-357.955 236,-335.955 325,-335.955 325,-357.955"/>
<polyline fill="none" stroke="black" points="243.333,-357.955 236,-350.621 "/>
<polyline fill="none" stroke="black" points="236,-343.288 243.333,-335.955 "/>
<polyline fill="none" stroke="black" points="317.667,-335.955 325,-343.288 "/>
<polyline fill="none" stroke="black" points="325,-350.621 317.667,-357.955 "/>
<text text-anchor="middle" x="280.5" y="-344.155" font-family="Times New Roman,serif" font-size="11.00">command&#45;line&#45;api</text>
</a>
</g>
</g>
<!-- command&#45;line&#45;api&#45;&gt;roslyn -->
<g id="edge42" class="edge"><title>command&#45;line&#45;api&#45;&gt;roslyn</title>
<path fill="none" stroke="black" d="M322.406,-335.888C335.564,-332.329 349.702,-328.504 361.206,-325.392"/>
<polygon fill="black" stroke="black" points="367.303,-323.742 362.217,-327.915 364.407,-324.526 361.511,-325.309 361.511,-325.309 361.511,-325.309 364.407,-324.526 360.806,-322.703 367.303,-323.742 367.303,-323.742"/>
</g>
<!-- diagnostics -->
<g id="node18" class="node"><title>diagnostics</title>
<g id="a_node18"><a xlink:title="Inputs ready">
<polygon fill="#f7caac" stroke="black" points="518,-222.955 459,-222.955 459,-200.955 518,-200.955 518,-222.955"/>
<polyline fill="none" stroke="black" points="466.333,-222.955 459,-215.621 "/>
<polyline fill="none" stroke="black" points="459,-208.288 466.333,-200.955 "/>
<polyline fill="none" stroke="black" points="510.667,-200.955 518,-208.288 "/>
<polyline fill="none" stroke="black" points="518,-215.621 510.667,-222.955 "/>
<text text-anchor="middle" x="488.5" y="-209.155" font-family="Times New Roman,serif" font-size="11.00">diagnostics</text>
</a>
</g>
</g>
<!-- diagnostics&#45;&gt;vstest -->
<g id="edge70" class="edge"><title>diagnostics&#45;&gt;vstest</title>
<path fill="none" stroke="black" d="M518.478,-208.353C530.193,-206.897 543.536,-205.238 554.615,-203.861"/>
<polygon fill="black" stroke="black" points="560.848,-203.087 555.227,-206.506 557.871,-203.457 554.894,-203.827 554.894,-203.827 554.894,-203.827 557.871,-203.457 554.561,-201.147 560.848,-203.087 560.848,-203.087"/>
</g>
<!-- linker -->
<g id="node19" class="node"><title>linker</title>
<g id="a_node19"><a xlink:title="Inputs ready">
<polygon fill="#f7caac" stroke="black" points="403.5,-291.955 368.5,-291.955 368.5,-269.955 403.5,-269.955 403.5,-291.955"/>
<polyline fill="none" stroke="black" points="375.833,-291.955 368.5,-284.621 "/>
<polyline fill="none" stroke="black" points="368.5,-277.288 375.833,-269.955 "/>
<polyline fill="none" stroke="black" points="396.167,-269.955 403.5,-277.288 "/>
<polyline fill="none" stroke="black" points="403.5,-284.621 396.167,-291.955 "/>
<text text-anchor="middle" x="386" y="-278.155" font-family="Times New Roman,serif" font-size="11.00">linker</text>
</a>
</g>
</g>
<!-- linker&#45;&gt;runtime&#45;portable -->
<g id="edge46" class="edge"><title>linker&#45;&gt;runtime&#45;portable</title>
<path fill="none" stroke="black" d="M403.596,-282.111C413.748,-282.818 427.294,-283.761 440.534,-284.683"/>
<polygon fill="black" stroke="black" points="446.582,-285.105 440.409,-287.381 443.589,-284.896 440.597,-284.688 440.597,-284.688 440.597,-284.688 443.589,-284.896 440.784,-281.994 446.582,-285.105 446.582,-285.105"/>
</g>
<!-- linker&#45;&gt;runtime -->
<g id="edge52" class="edge"><title>linker&#45;&gt;runtime</title>
<path fill="none" stroke="black" d="M403.596,-277.652C419.023,-274.582 442.283,-269.953 460.403,-266.347"/>
<polygon fill="black" stroke="black" points="466.332,-265.167 460.975,-268.986 463.39,-265.753 460.448,-266.338 460.448,-266.338 460.448,-266.338 463.39,-265.753 459.921,-263.69 466.332,-265.167 466.332,-265.167"/>
</g>
<!-- symreader -->
<g id="node20" class="node"><title>symreader</title>
<g id="a_node20"><a xlink:title="Inputs ready">
<polygon fill="#f7caac" stroke="black" points="309,-280.955 252,-280.955 252,-258.955 309,-258.955 309,-280.955"/>
<polyline fill="none" stroke="black" points="259.333,-280.955 252,-273.621 "/>
<polyline fill="none" stroke="black" points="252,-266.288 259.333,-258.955 "/>
<polyline fill="none" stroke="black" points="301.667,-258.955 309,-266.288 "/>
<polyline fill="none" stroke="black" points="309,-273.621 301.667,-280.955 "/>
<text text-anchor="middle" x="280.5" y="-267.155" font-family="Times New Roman,serif" font-size="11.00">symreader</text>
</a>
</g>
</g>
<!-- symreader&#45;&gt;runtime -->
<g id="edge51" class="edge"><title>symreader&#45;&gt;runtime</title>
<path fill="none" stroke="black" d="M309.282,-268.741C348.895,-267.01 421.146,-263.854 460.388,-262.139"/>
<polygon fill="black" stroke="black" points="466.392,-261.877 460.516,-264.836 463.395,-262.008 460.398,-262.139 460.398,-262.139 460.398,-262.139 463.395,-262.008 460.28,-259.441 466.392,-261.877 466.392,-261.877"/>
</g>
<!-- test&#45;templates -->
<g id="node21" class="node"><title>test&#45;templates</title>
<g id="a_node21"><a xlink:title="Inputs ready">
<polygon fill="#f7caac" stroke="black" points="316.5,-28.9547 244.5,-28.9547 244.5,-6.95473 316.5,-6.95473 316.5,-28.9547"/>
<polyline fill="none" stroke="black" points="251.833,-28.9547 244.5,-21.6214 "/>
<polyline fill="none" stroke="black" points="244.5,-14.2881 251.833,-6.95473 "/>
<polyline fill="none" stroke="black" points="309.167,-6.95473 316.5,-14.2881 "/>
<polyline fill="none" stroke="black" points="316.5,-21.6214 309.167,-28.9547 "/>
<text text-anchor="middle" x="280.5" y="-15.1547" font-family="Times New Roman,serif" font-size="11.00">test&#45;templates</text>
</a>
</g>
</g>
<!-- test&#45;templates&#45;&gt;installer -->
<g id="edge30" class="edge"><title>test&#45;templates&#45;&gt;installer</title>
<path fill="none" stroke="black" d="M316.849,-16.2993C357.875,-14.5234 427.57,-11.9547 487.5,-11.9547 487.5,-11.9547 487.5,-11.9547 660,-11.9547 718.305,-11.9547 746.782,19.049 791,-18.9547 809.354,-34.7291 816.573,-107.702 818.971,-141.583"/>
<polygon fill="black" stroke="black" points="819.389,-147.809 816.293,-142.003 819.188,-144.816 818.987,-141.823 818.987,-141.823 818.987,-141.823 819.188,-144.816 821.681,-141.642 819.389,-147.809 819.389,-147.809"/>
</g>
<!-- xliff&#45;tasks -->
<g id="node22" class="node"><title>xliff&#45;tasks</title>
<g id="a_node22"><a xlink:title="Inputs ready">
<polygon fill="#f7caac" stroke="black" points="307.5,-180.955 253.5,-180.955 253.5,-158.955 307.5,-158.955 307.5,-180.955"/>
<polyline fill="none" stroke="black" points="260.833,-180.955 253.5,-173.621 "/>
<polyline fill="none" stroke="black" points="253.5,-166.288 260.833,-158.955 "/>
<polyline fill="none" stroke="black" points="300.167,-158.955 307.5,-166.288 "/>
<polyline fill="none" stroke="black" points="307.5,-173.621 300.167,-180.955 "/>
<text text-anchor="middle" x="280.5" y="-167.155" font-family="Times New Roman,serif" font-size="11.00">xliff&#45;tasks</text>
</a>
</g>
</g>
<!-- xliff&#45;tasks&#45;&gt;fsharp -->
<g id="edge15" class="edge"><title>xliff&#45;tasks&#45;&gt;fsharp</title>
<path fill="none" stroke="black" d="M291.274,-158.884C300.8,-148.976 316.262,-135.094 333,-128.955 439.399,-89.9273 578.796,-105.963 633.997,-114.7"/>
<polygon fill="black" stroke="black" points="639.998,-115.674 633.643,-117.377 637.037,-115.193 634.075,-114.712 634.075,-114.712 634.075,-114.712 637.037,-115.193 634.508,-112.047 639.998,-115.674 639.998,-115.674"/>
</g>
<!-- xliff&#45;tasks&#45;&gt;installer -->
<g id="edge32" class="edge"><title>xliff&#45;tasks&#45;&gt;installer</title>
<path fill="none" stroke="black" d="M302.129,-181.158C311.381,-185.869 322.545,-191.132 333,-194.955 382.101,-212.907 395.125,-217.46 447,-223.955 523.052,-233.476 724.714,-237.436 791,-198.955 800.161,-193.636 807.233,-184.14 812.098,-175.735"/>
<polygon fill="black" stroke="black" points="815.113,-170.155 814.636,-176.717 813.687,-172.794 812.261,-175.434 812.261,-175.434 812.261,-175.434 813.687,-172.794 809.885,-174.15 815.113,-170.155 815.113,-170.155"/>
</g>
<!-- xliff&#45;tasks&#45;&gt;roslyn -->
<g id="edge44" class="edge"><title>xliff&#45;tasks&#45;&gt;roslyn</title>
<path fill="none" stroke="black" d="M288.404,-181.215C297.953,-197.255 315.127,-227.856 325,-255.955 330.721,-272.238 322.349,-280.374 333,-293.955 340.131,-303.047 351.394,-309.022 361.618,-312.842"/>
<polygon fill="black" stroke="black" points="367.478,-314.85 360.927,-315.459 364.64,-313.877 361.802,-312.905 361.802,-312.905 361.802,-312.905 364.64,-313.877 362.677,-310.351 367.478,-314.85 367.478,-314.85"/>
</g>
<!-- xliff&#45;tasks&#45;&gt;sdk -->
<g id="edge57" class="edge"><title>xliff&#45;tasks&#45;&gt;sdk</title>
<path fill="none" stroke="black" d="M286.594,-158.888C294.239,-143.76 310.25,-117.219 333,-105.955 368.548,-88.3534 655.653,-87.1126 690,-106.955 695.874,-110.348 693.594,-114.796 698,-119.955 706.438,-129.833 717.471,-139.354 726.558,-146.516"/>
<polygon fill="black" stroke="black" points="731.378,-150.239 724.98,-148.708 729.004,-148.405 726.63,-146.571 726.63,-146.571 726.63,-146.571 729.004,-148.405 728.281,-144.435 731.378,-150.239 731.378,-150.239"/>
</g>
<!-- s1 -->
<g id="node23" class="node"><title>s1</title>
<g id="a_node23"><a xlink:title="1">
<path fill="#ffe599" stroke="black" stroke-dasharray="5,2" d="M155.667,-169.955C155.667,-169.955 31.3333,-169.955 31.3333,-169.955 27.6667,-169.955 24,-166.288 24,-162.621 24,-162.621 24,-155.288 24,-155.288 24,-151.621 27.6667,-147.955 31.3333,-147.955 31.3333,-147.955 155.667,-147.955 155.667,-147.955 159.333,-147.955 163,-151.621 163,-155.288 163,-155.288 163,-162.621 163,-162.621 163,-166.288 159.333,-169.955 155.667,-169.955"/>
<text text-anchor="middle" x="93.5" y="-156.155" font-family="Times New Roman,serif" font-size="11.00">#1 &#45; Local build infra merged</text>
</a>
</g>
</g>
<!-- s2 -->
<g id="node24" class="node"><title>s2</title>
<g id="a_node24"><a xlink:title="2">
<polygon fill="#f0fe86" stroke="black" stroke-dasharray="5,2" points="144,-142.955 43,-142.955 43,-120.955 144,-120.955 144,-142.955"/>
<text text-anchor="middle" x="93.5" y="-129.155" font-family="Times New Roman,serif" font-size="11.00">#2 &#45; CI implemented</text>
</a>
</g>
</g>
<!-- s3 -->
<g id="node25" class="node"><title>s3</title>
<g id="a_node25"><a xlink:title="3">
<path fill="#b4c6e7" stroke="black" stroke-width="2" d="M139.167,-115.955C139.167,-115.955 47.8333,-115.955 47.8333,-115.955 44.1667,-115.955 40.5,-112.288 40.5,-108.621 40.5,-108.621 40.5,-101.288 40.5,-101.288 40.5,-97.6214 44.1667,-93.9547 47.8333,-93.9547 47.8333,-93.9547 139.167,-93.9547 139.167,-93.9547 142.833,-93.9547 146.5,-97.6214 146.5,-101.288 146.5,-101.288 146.5,-108.621 146.5,-108.621 146.5,-112.288 142.833,-115.955 139.167,-115.955"/>
<text text-anchor="middle" x="93.5" y="-102.155" font-family="Times New Roman,serif" font-size="11.00">#3 &#45; Artifacts greenlit</text>
</a>
</g>
</g>
<!-- application&#45;insights -->
<g id="node26" class="node"><title>application&#45;insights</title>
<g id="a_node26"><a xlink:title="3">
<path fill="#b4c6e7" stroke="black" stroke-width="2" d="M783.667,-107.955C783.667,-107.955 705.333,-107.955 705.333,-107.955 701.667,-107.955 698,-104.288 698,-100.621 698,-100.621 698,-93.2881 698,-93.2881 698,-89.6214 701.667,-85.9547 705.333,-85.9547 705.333,-85.9547 783.667,-85.9547 783.667,-85.9547 787.333,-85.9547 791,-89.6214 791,-93.2881 791,-93.2881 791,-100.621 791,-100.621 791,-104.288 787.333,-107.955 783.667,-107.955"/>
<text text-anchor="middle" x="744.5" y="-94.1547" font-family="Times New Roman,serif" font-size="11.00">application&#45;insights</text>
</a>
</g>
</g>
<!-- application&#45;insights&#45;&gt;installer -->
<g id="edge16" class="edge"><title>application&#45;insights&#45;&gt;installer</title>
<path fill="none" stroke="black" d="M785.136,-108.022C787.199,-109.205 789.172,-110.512 791,-111.955 800.94,-119.801 808.343,-132.061 813.18,-142.093"/>
<polygon fill="black" stroke="black" points="815.732,-147.692 810.787,-143.352 814.488,-144.962 813.244,-142.232 813.244,-142.232 813.244,-142.232 814.488,-144.962 815.7,-141.112 815.732,-147.692 815.732,-147.692"/>
</g>
<!-- arcade -->
<g id="node27" class="node"><title>arcade</title>
<g id="a_node27"><a xlink:title="3">
<path fill="#b4c6e7" stroke="black" stroke-width="2" d="M220.667,-261.955C220.667,-261.955 194.333,-261.955 194.333,-261.955 190.667,-261.955 187,-258.288 187,-254.621 187,-254.621 187,-247.288 187,-247.288 187,-243.621 190.667,-239.955 194.333,-239.955 194.333,-239.955 220.667,-239.955 220.667,-239.955 224.333,-239.955 228,-243.621 228,-247.288 228,-247.288 228,-254.621 228,-254.621 228,-258.288 224.333,-261.955 220.667,-261.955"/>
<text text-anchor="middle" x="207.5" y="-248.155" font-family="Times New Roman,serif" font-size="11.00">arcade</text>
</a>
</g>
</g>
<!-- arcade&#45;&gt;aspnetcore -->
<g id="edge3" class="edge"><title>arcade&#45;&gt;aspnetcore</title>
<path fill="none" stroke="black" d="M209.66,-262.167C212.522,-287.425 220.814,-347.541 236,-359.955 261.664,-380.934 351.852,-366.955 385,-366.955 385,-366.955 385,-366.955 489.5,-366.955 547.99,-366.955 569.534,-379.523 620,-349.955 633.591,-341.992 643.835,-327.067 650.242,-315.411"/>
<polygon fill="black" stroke="black" points="653.076,-309.997 652.685,-316.565 651.685,-312.655 650.293,-315.313 650.293,-315.313 650.293,-315.313 651.685,-312.655 647.901,-314.06 653.076,-309.997 653.076,-309.997"/>
</g>
<!-- arcade&#45;&gt;fsharp -->
<g id="edge11" class="edge"><title>arcade&#45;&gt;fsharp</title>
<path fill="none" stroke="black" d="M209.219,-239.894C210.952,-220.961 216.767,-181.879 236,-155.955 266.628,-114.669 283.711,-107.556 333,-92.9547 377.292,-79.8335 604.309,-101.617 620,-104.955 624.642,-105.942 629.478,-107.382 634.083,-108.967"/>
<polygon fill="black" stroke="black" points="639.76,-111.03 633.199,-111.519 636.94,-110.006 634.121,-108.981 634.121,-108.981 634.121,-108.981 636.94,-110.006 635.043,-106.443 639.76,-111.03 639.76,-111.03"/>
</g>
<!-- arcade&#45;&gt;installer -->
<g id="edge17" class="edge"><title>arcade&#45;&gt;installer</title>
<path fill="none" stroke="black" d="M209.393,-261.968C211.809,-288.737 219.439,-356.043 236,-369.955 286.779,-412.61 318.682,-377.955 385,-377.955 385,-377.955 385,-377.955 660,-377.955 722.479,-377.955 751.46,-375.33 791,-326.955 809.769,-303.991 816.924,-214.025 819.147,-176.033"/>
<polygon fill="black" stroke="black" points="819.484,-169.985 821.846,-176.126 819.317,-172.98 819.15,-175.975 819.15,-175.975 819.15,-175.975 819.317,-172.98 816.454,-175.825 819.484,-169.985 819.484,-169.985"/>
</g>
<!-- arcade&#45;&gt;msbuild -->
<g id="edge33" class="edge"><title>arcade&#45;&gt;msbuild</title>
<path fill="none" stroke="black" d="M228.072,-250.606C278.249,-249.762 415.581,-247.763 530,-248.955 536.764,-249.025 544.064,-249.151 550.879,-249.291"/>
<polygon fill="black" stroke="black" points="556.973,-249.422 550.916,-251.992 553.974,-249.357 550.974,-249.293 550.974,-249.293 550.974,-249.293 553.974,-249.357 551.032,-246.594 556.973,-249.422 556.973,-249.422"/>
</g>
<!-- arcade&#45;&gt;roslyn -->
<g id="edge41" class="edge"><title>arcade&#45;&gt;roslyn</title>
<path fill="none" stroke="black" d="M209.17,-262.032C210.81,-278.164 216.471,-307.645 236,-320.955 255.754,-334.418 324.638,-327.4 361.423,-322.456"/>
<polygon fill="black" stroke="black" points="367.469,-321.623 361.894,-325.117 364.497,-322.033 361.525,-322.442 361.525,-322.442 361.525,-322.442 364.497,-322.033 361.157,-319.767 367.469,-321.623 367.469,-321.623"/>
</g>
<!-- arcade&#45;&gt;runtime&#45;portable -->
<g id="edge45" class="edge"><title>arcade&#45;&gt;runtime&#45;portable</title>
<path fill="none" stroke="black" d="M214.932,-262.098C219.751,-269.338 227.042,-278.271 236,-282.955 276.024,-303.884 393.894,-295.274 439,-292.955 439.476,-292.93 439.954,-292.904 440.434,-292.877"/>
<polygon fill="black" stroke="black" points="446.772,-292.46 440.962,-295.549 443.778,-292.657 440.785,-292.854 440.785,-292.854 440.785,-292.854 443.778,-292.657 440.607,-290.16 446.772,-292.46 446.772,-292.46"/>
</g>
<!-- arcade&#45;&gt;runtime -->
<g id="edge50" class="edge"><title>arcade&#45;&gt;runtime</title>
<path fill="none" stroke="black" d="M228.119,-251.658C276.967,-253.409 404.13,-257.967 460.23,-259.977"/>
<polygon fill="black" stroke="black" points="466.391,-260.198 460.298,-262.681 463.393,-260.091 460.395,-259.983 460.395,-259.983 460.395,-259.983 463.393,-260.091 460.492,-257.285 466.391,-260.198 466.391,-260.198"/>
</g>
<!-- arcade&#45;&gt;sdk -->
<g id="edge56" class="edge"><title>arcade&#45;&gt;sdk</title>
<path fill="none" stroke="black" d="M208.417,-239.907C208.401,-203.917 210.423,-91.0429 236,-67.9547 260.606,-45.7438 351.852,-60.9547 385,-60.9547 385,-60.9547 385,-60.9547 580,-60.9547 604.494,-60.9547 671.635,-51.7475 690,-67.9547 704.248,-80.5282 689.423,-92.9983 698,-109.955 704.935,-123.664 716.86,-136.295 726.762,-145.298"/>
<polygon fill="black" stroke="black" points="731.429,-149.415 725.144,-147.471 729.18,-147.43 726.93,-145.446 726.93,-145.446 726.93,-145.446 729.18,-147.43 728.716,-143.421 731.429,-149.415 731.429,-149.415"/>
</g>
<!-- arcade&#45;&gt;aspnet&#45;xdt -->
<g id="edge2" class="edge"><title>arcade&#45;&gt;aspnet&#45;xdt</title>
<path fill="none" stroke="black" d="M209.029,-239.782C210.757,-207.822 217.252,-116.917 236,-94.9547 238.924,-91.5295 242.67,-88.8855 246.733,-86.8446"/>
<polygon fill="black" stroke="black" points="252.425,-84.4188 247.964,-89.2553 249.665,-85.5951 246.905,-86.7715 246.905,-86.7715 246.905,-86.7715 249.665,-85.5951 245.846,-84.2877 252.425,-84.4188 252.425,-84.4188"/>
</g>
<!-- arcade&#45;&gt;clicommandlineparser -->
<g id="edge9" class="edge"><title>arcade&#45;&gt;clicommandlineparser</title>
<path fill="none" stroke="black" d="M208.362,-239.831C208.148,-202.46 209.563,-82.3429 236,-56.9547 259.558,-34.3321 295.875,-30.3002 326.757,-32.061"/>
<polygon fill="black" stroke="black" points="332.855,-32.4866 326.682,-34.7622 329.862,-32.2777 326.87,-32.0688 326.87,-32.0688 326.87,-32.0688 329.862,-32.2777 327.058,-29.3753 332.855,-32.4866 332.855,-32.4866"/>
</g>
<!-- arcade&#45;&gt;command&#45;line&#45;api -->
<g id="edge10" class="edge"><title>arcade&#45;&gt;command&#45;line&#45;api</title>
<path fill="none" stroke="black" d="M209.228,-261.976C210.951,-279.215 216.724,-312.587 236,-331.955 236.092,-332.047 236.184,-332.138 236.276,-332.229"/>
<polygon fill="black" stroke="black" points="240.803,-335.952 234.454,-334.226 238.486,-334.047 236.169,-332.141 236.169,-332.141 236.169,-332.141 238.486,-334.047 237.884,-330.056 240.803,-335.952 240.803,-335.952"/>
</g>
<!-- arcade&#45;&gt;symreader -->
<g id="edge66" class="edge"><title>arcade&#45;&gt;symreader</title>
<path fill="none" stroke="black" d="M228.277,-256.247C233.755,-257.713 239.859,-259.347 245.89,-260.96"/>
<polygon fill="black" stroke="black" points="251.87,-262.561 245.376,-263.618 248.972,-261.785 246.074,-261.01 246.074,-261.01 246.074,-261.01 248.972,-261.785 246.772,-258.401 251.87,-262.561 251.87,-262.561"/>
</g>
<!-- arcade&#45;&gt;test&#45;templates -->
<g id="edge69" class="edge"><title>arcade&#45;&gt;test&#45;templates</title>
<path fill="none" stroke="black" d="M208.667,-239.9C209.441,-201.533 213.672,-74.6803 236,-41.9547 238.473,-38.3299 241.681,-35.198 245.235,-32.5062"/>
<polygon fill="black" stroke="black" points="250.257,-29.1034 246.804,-34.704 247.774,-30.786 245.29,-32.4687 245.29,-32.4687 245.29,-32.4687 247.774,-30.786 243.776,-30.2334 250.257,-29.1034 250.257,-29.1034"/>
</g>
<!-- cssparser -->
<g id="node28" class="node"><title>cssparser</title>
<g id="a_node28"><a xlink:title="3">
<path fill="#b4c6e7" stroke="black" stroke-width="2" d="M598.167,-347.955C598.167,-347.955 559.833,-347.955 559.833,-347.955 556.167,-347.955 552.5,-344.288 552.5,-340.621 552.5,-340.621 552.5,-333.288 552.5,-333.288 552.5,-329.621 556.167,-325.955 559.833,-325.955 559.833,-325.955 598.167,-325.955 598.167,-325.955 601.833,-325.955 605.5,-329.621 605.5,-333.288 605.5,-333.288 605.5,-340.621 605.5,-340.621 605.5,-344.288 601.833,-347.955 598.167,-347.955"/>
<text text-anchor="middle" x="579" y="-334.155" font-family="Times New Roman,serif" font-size="11.00">cssparser</text>
</a>
</g>
</g>
<!-- cssparser&#45;&gt;aspnetcore -->
<g id="edge4" class="edge"><title>cssparser&#45;&gt;aspnetcore</title>
<path fill="none" stroke="black" d="M605.691,-328.128C610.513,-326.245 615.462,-324.155 620,-321.955 625.198,-319.434 630.607,-316.42 635.659,-313.416"/>
<polygon fill="black" stroke="black" points="640.974,-310.184 637.25,-315.608 638.411,-311.743 635.847,-313.301 635.847,-313.301 635.847,-313.301 638.411,-311.743 634.445,-310.994 640.974,-310.184 640.974,-310.184"/>
</g>
<!-- humanizer -->
<g id="node29" class="node"><title>humanizer</title>
<g id="a_node29"><a xlink:title="3">
<path fill="#b4c6e7" stroke="black" stroke-width="2" d="M301.167,-319.955C301.167,-319.955 259.833,-319.955 259.833,-319.955 256.167,-319.955 252.5,-316.288 252.5,-312.621 252.5,-312.621 252.5,-305.288 252.5,-305.288 252.5,-301.621 256.167,-297.955 259.833,-297.955 259.833,-297.955 301.167,-297.955 301.167,-297.955 304.833,-297.955 308.5,-301.621 308.5,-305.288 308.5,-305.288 308.5,-312.621 308.5,-312.621 308.5,-316.288 304.833,-319.955 301.167,-319.955"/>
<text text-anchor="middle" x="280.5" y="-306.155" font-family="Times New Roman,serif" font-size="11.00">humanizer</text>
</a>
</g>
</g>
<!-- humanizer&#45;&gt;roslyn -->
<g id="edge43" class="edge"><title>humanizer&#45;&gt;roslyn</title>
<path fill="none" stroke="black" d="M308.693,-311.582C324.939,-313.152 345.389,-315.128 361.028,-316.639"/>
<polygon fill="black" stroke="black" points="367.41,-317.255 361.178,-319.366 364.424,-316.967 361.437,-316.678 361.437,-316.678 361.437,-316.678 364.424,-316.967 361.697,-313.991 367.41,-317.255 367.41,-317.255"/>
</g>
<!-- netcorecli&#45;fsc -->
<g id="node30" class="node"><title>netcorecli&#45;fsc</title>
<g id="a_node30"><a xlink:title="3">
<path fill="#b4c6e7" stroke="black" stroke-width="2" d="M772.667,-52.9547C772.667,-52.9547 716.333,-52.9547 716.333,-52.9547 712.667,-52.9547 709,-49.2881 709,-45.6214 709,-45.6214 709,-38.2881 709,-38.2881 709,-34.6214 712.667,-30.9547 716.333,-30.9547 716.333,-30.9547 772.667,-30.9547 772.667,-30.9547 776.333,-30.9547 780,-34.6214 780,-38.2881 780,-38.2881 780,-45.6214 780,-45.6214 780,-49.2881 776.333,-52.9547 772.667,-52.9547"/>
<text text-anchor="middle" x="744.5" y="-39.1547" font-family="Times New Roman,serif" font-size="11.00">netcorecli&#45;fsc</text>
</a>
</g>
</g>
<!-- netcorecli&#45;fsc&#45;&gt;installer -->
<g id="edge22" class="edge"><title>netcorecli&#45;fsc&#45;&gt;installer</title>
<path fill="none" stroke="black" d="M780.427,-49.4038C784.351,-51.3617 788.006,-53.8337 791,-56.9547 813.273,-80.1701 818.651,-119.22 819.821,-141.668"/>
<polygon fill="black" stroke="black" points="820.057,-147.8 817.128,-141.908 819.942,-144.802 819.826,-141.804 819.826,-141.804 819.826,-141.804 819.942,-144.802 822.524,-141.7 820.057,-147.8 820.057,-147.8"/>
</g>
<!-- newtonsoft&#45;json -->
<g id="node31" class="node"><title>newtonsoft&#45;json</title>
<g id="a_node31"><a xlink:title="3">
<path fill="#b4c6e7" stroke="black" stroke-width="2" d="M418.667,-153.955C418.667,-153.955 353.333,-153.955 353.333,-153.955 349.667,-153.955 346,-150.288 346,-146.621 346,-146.621 346,-139.288 346,-139.288 346,-135.621 349.667,-131.955 353.333,-131.955 353.333,-131.955 418.667,-131.955 418.667,-131.955 422.333,-131.955 426,-135.621 426,-139.288 426,-139.288 426,-146.621 426,-146.621 426,-150.288 422.333,-153.955 418.667,-153.955"/>
<text text-anchor="middle" x="386" y="-140.155" font-family="Times New Roman,serif" font-size="11.00">newtonsoft&#45;json</text>
</a>
</g>
</g>
<!-- newtonsoft&#45;json&#45;&gt;fsharp -->
<g id="edge14" class="edge"><title>newtonsoft&#45;json&#45;&gt;fsharp</title>
<path fill="none" stroke="black" d="M426.318,-136.609C433.199,-135.627 440.299,-134.694 447,-133.955 514.288,-126.528 594.074,-122.019 633.471,-120.077"/>
<polygon fill="black" stroke="black" points="639.893,-119.766 634.031,-122.753 636.897,-119.911 633.9,-120.056 633.9,-120.056 633.9,-120.056 636.897,-119.911 633.769,-117.359 639.893,-119.766 639.893,-119.766"/>
</g>
<!-- newtonsoft&#45;json&#45;&gt;installer -->
<g id="edge23" class="edge"><title>newtonsoft&#45;json&#45;&gt;installer</title>
<path fill="none" stroke="black" d="M426.133,-141.331C464.735,-139.871 525.424,-137.955 578,-137.955 578,-137.955 578,-137.955 660,-137.955 718.305,-137.955 734.53,-130.441 791,-144.955 791.88,-145.181 792.765,-145.435 793.651,-145.712"/>
<polygon fill="black" stroke="black" points="799.467,-147.832 792.906,-148.314 796.649,-146.804 793.83,-145.777 793.83,-145.777 793.83,-145.777 796.649,-146.804 794.755,-143.24 799.467,-147.832 799.467,-147.832"/>
</g>
<!-- newtonsoft&#45;json&#45;&gt;nuget&#45;client -->
<g id="edge36" class="edge"><title>newtonsoft&#45;json&#45;&gt;nuget&#45;client</title>
<path fill="none" stroke="black" d="M424.667,-131.873C432.048,-129.817 439.749,-127.753 447,-125.955 507.984,-110.83 579.646,-96.2045 621.806,-87.9185"/>
<polygon fill="black" stroke="black" points="627.807,-86.7426 622.438,-90.546 624.863,-87.3195 621.919,-87.8963 621.919,-87.8963 621.919,-87.8963 624.863,-87.3195 621.4,-85.2467 627.807,-86.7426 627.807,-86.7426"/>
</g>
<!-- newtonsoft&#45;json&#45;&gt;runtime&#45;portable -->
<g id="edge47" class="edge"><title>newtonsoft&#45;json&#45;&gt;runtime&#45;portable</title>
<path fill="none" stroke="black" d="M422.934,-154.052C429.202,-157.544 434.988,-162.082 439,-167.955 451.272,-185.918 435.463,-245.085 447.45,-271.473"/>
<polygon fill="black" stroke="black" points="450.67,-276.866 445.276,-273.099 449.132,-274.29 447.594,-271.714 447.594,-271.714 447.594,-271.714 449.132,-274.29 449.912,-270.33 450.67,-276.866 450.67,-276.866"/>
</g>
<!-- newtonsoft&#45;json&#45;&gt;runtime -->
<g id="edge53" class="edge"><title>newtonsoft&#45;json&#45;&gt;runtime</title>
<path fill="none" stroke="black" d="M422.113,-153.965C428.604,-157.481 434.686,-162.051 439,-167.955 454.093,-188.61 434.92,-202.405 447,-224.955 451.331,-233.04 458.238,-240.188 465.13,-245.941"/>
<polygon fill="black" stroke="black" points="469.868,-249.695 463.488,-248.085 467.516,-247.832 465.165,-245.968 465.165,-245.968 465.165,-245.968 467.516,-247.832 466.842,-243.852 469.868,-249.695 469.868,-249.695"/>
</g>
<!-- newtonsoft&#45;json&#45;&gt;sdk -->
<g id="edge60" class="edge"><title>newtonsoft&#45;json&#45;&gt;sdk</title>
<path fill="none" stroke="black" d="M426.172,-144.713C502.822,-148.153 669.977,-155.655 725.308,-158.138"/>
<polygon fill="black" stroke="black" points="731.488,-158.416 725.372,-160.844 728.491,-158.281 725.494,-158.146 725.494,-158.146 725.494,-158.146 728.491,-158.281 725.615,-155.449 731.488,-158.416 731.488,-158.416"/>
</g>
<!-- newtonsoft&#45;json&#45;&gt;templating -->
<g id="edge68" class="edge"><title>newtonsoft&#45;json&#45;&gt;templating</title>
<path fill="none" stroke="black" d="M398.139,-131.76C416.099,-113.711 451.503,-78.1308 471.944,-57.5883"/>
<polygon fill="black" stroke="black" points="476.311,-53.1995 473.993,-59.3572 474.195,-55.3261 472.079,-57.4527 472.079,-57.4527 472.079,-57.4527 474.195,-55.3261 470.165,-55.5483 476.311,-53.1995 476.311,-53.1995"/>
</g>
<!-- newtonsoft&#45;json&#45;&gt;vstest -->
<g id="edge72" class="edge"><title>newtonsoft&#45;json&#45;&gt;vstest</title>
<path fill="none" stroke="black" d="M423.375,-154.001C462.095,-165.758 522.193,-184.008 554.893,-193.938"/>
<polygon fill="black" stroke="black" points="560.668,-195.692 554.143,-196.532 557.798,-194.82 554.927,-193.948 554.927,-193.948 554.927,-193.948 557.798,-194.82 555.712,-191.365 560.668,-195.692 560.668,-195.692"/>
</g>
<!-- newtonsoft&#45;json901 -->
<g id="node32" class="node"><title>newtonsoft&#45;json901</title>
<g id="a_node32"><a xlink:title="3">
<path fill="#b4c6e7" stroke="black" stroke-width="2" d="M426.667,-192.955C426.667,-192.955 345.333,-192.955 345.333,-192.955 341.667,-192.955 338,-189.288 338,-185.621 338,-185.621 338,-178.288 338,-178.288 338,-174.621 341.667,-170.955 345.333,-170.955 345.333,-170.955 426.667,-170.955 426.667,-170.955 430.333,-170.955 434,-174.621 434,-178.288 434,-178.288 434,-185.621 434,-185.621 434,-189.288 430.333,-192.955 426.667,-192.955"/>
<text text-anchor="middle" x="386" y="-179.155" font-family="Times New Roman,serif" font-size="11.00">newtonsoft&#45;json901</text>
</a>
</g>
</g>
<!-- newtonsoft&#45;json901&#45;&gt;fsharp -->
<g id="edge13" class="edge"><title>newtonsoft&#45;json901&#45;&gt;fsharp</title>
<path fill="none" stroke="black" d="M430.556,-170.939C436.086,-169.578 441.672,-168.221 447,-166.955 523.682,-148.729 543.206,-145.704 620,-127.955 624.451,-126.926 629.191,-125.815 633.759,-124.737"/>
<polygon fill="black" stroke="black" points="639.84,-123.298 634.624,-127.307 636.921,-123.989 634.002,-124.68 634.002,-124.68 634.002,-124.68 636.921,-123.989 633.38,-122.053 639.84,-123.298 639.84,-123.298"/>
</g>
<!-- newtonsoft&#45;json901&#45;&gt;installer -->
<g id="edge24" class="edge"><title>newtonsoft&#45;json901&#45;&gt;installer</title>
<path fill="none" stroke="black" d="M434.224,-183.114C525.823,-184.98 724.46,-187.05 791,-171.955 791.646,-171.808 792.295,-171.647 792.945,-171.473"/>
<polygon fill="black" stroke="black" points="798.791,-169.595 793.904,-174 795.935,-170.512 793.079,-171.43 793.079,-171.43 793.079,-171.43 795.935,-170.512 792.253,-168.859 798.791,-169.595 798.791,-169.595"/>
</g>
<!-- newtonsoft&#45;json901&#45;&gt;runtime&#45;portable -->
<g id="edge48" class="edge"><title>newtonsoft&#45;json901&#45;&gt;runtime&#45;portable</title>
<path fill="none" stroke="black" d="M391.555,-193.122C399.843,-212.122 419.143,-250.826 447,-272.955 447.11,-273.042 447.221,-273.129 447.332,-273.216"/>
<polygon fill="black" stroke="black" points="452.656,-276.796 446.171,-275.688 450.167,-275.122 447.677,-273.448 447.677,-273.448 447.677,-273.448 450.167,-275.122 449.184,-271.207 452.656,-276.796 452.656,-276.796"/>
</g>
<!-- newtonsoft&#45;json901&#45;&gt;runtime -->
<g id="edge54" class="edge"><title>newtonsoft&#45;json901&#45;&gt;runtime</title>
<path fill="none" stroke="black" d="M401.399,-193.274C419.112,-207.197 449.225,-230.868 468.734,-246.203"/>
<polygon fill="black" stroke="black" points="473.452,-249.912 467.066,-248.326 471.093,-248.058 468.734,-246.204 468.734,-246.204 468.734,-246.204 471.093,-248.058 470.403,-244.081 473.452,-249.912 473.452,-249.912"/>
</g>
<!-- newtonsoft&#45;json901&#45;&gt;sdk -->
<g id="edge61" class="edge"><title>newtonsoft&#45;json901&#45;&gt;sdk</title>
<path fill="none" stroke="black" d="M434.164,-178.799C438.503,-178.512 442.833,-178.227 447,-177.955 552.447,-171.061 679.005,-163.033 725.357,-160.101"/>
<polygon fill="black" stroke="black" points="731.355,-159.722 725.537,-162.795 728.361,-159.911 725.367,-160.1 725.367,-160.1 725.367,-160.1 728.361,-159.911 725.196,-157.406 731.355,-159.722 731.355,-159.722"/>
</g>
<!-- source&#45;build&#45;reference&#45;packages -->
<g id="node33" class="node"><title>source&#45;build&#45;reference&#45;packages</title>
<g id="a_node33"><a xlink:title="3">
<path fill="#b4c6e7" stroke="black" stroke-width="2" d="M163.667,-288.955C163.667,-288.955 23.3333,-288.955 23.3333,-288.955 19.6667,-288.955 16,-285.288 16,-281.621 16,-281.621 16,-274.288 16,-274.288 16,-270.621 19.6667,-266.955 23.3333,-266.955 23.3333,-266.955 163.667,-266.955 163.667,-266.955 167.333,-266.955 171,-270.621 171,-274.288 171,-274.288 171,-281.621 171,-281.621 171,-285.288 167.333,-288.955 163.667,-288.955"/>
<text text-anchor="middle" x="93.5" y="-275.155" font-family="Times New Roman,serif" font-size="11.00">source&#45;build&#45;reference&#45;packages</text>
</a>
</g>
</g>
<!-- sourcelink -->
<g id="node34" class="node"><title>sourcelink</title>
<g id="a_node34"><a xlink:title="3">
<path fill="#b4c6e7" stroke="black" stroke-width="2" d="M113.667,-261.955C113.667,-261.955 73.3333,-261.955 73.3333,-261.955 69.6667,-261.955 66,-258.288 66,-254.621 66,-254.621 66,-247.288 66,-247.288 66,-243.621 69.6667,-239.955 73.3333,-239.955 73.3333,-239.955 113.667,-239.955 113.667,-239.955 117.333,-239.955 121,-243.621 121,-247.288 121,-247.288 121,-254.621 121,-254.621 121,-258.288 117.333,-261.955 113.667,-261.955"/>
<text text-anchor="middle" x="93.5" y="-248.155" font-family="Times New Roman,serif" font-size="11.00">sourcelink</text>
</a>
</g>
</g>
<!-- sourcelink&#45;&gt;arcade -->
<g id="edge1" class="edge"><title>sourcelink&#45;&gt;arcade</title>
<path fill="none" stroke="black" d="M121.042,-250.955C139.017,-250.955 162.653,-250.955 180.51,-250.955"/>
<polygon fill="black" stroke="black" points="186.807,-250.955 180.807,-253.655 183.807,-250.955 180.807,-250.955 180.807,-250.955 180.807,-250.955 183.807,-250.955 180.807,-248.255 186.807,-250.955 186.807,-250.955"/>
</g>
<!-- s4 -->
<g id="node35" class="node"><title>s4</title>
<g id="a_node35"><a xlink:title="4">
<polygon fill="#cfafe7" stroke="black" stroke-width="2" points="171,-88.9547 16,-88.9547 16,-66.9547 171,-66.9547 171,-88.9547"/>
<text text-anchor="middle" x="93.5" y="-75.1547" font-family="Times New Roman,serif" font-size="11.00">#4 &#45; Prebuilt regressions blocked</text>
</a>
</g>
</g>
</g>
</svg>
