<?xml version="1.0" encoding="UTF-8" standalone="no"?>
<!DOCTYPE svg PUBLIC "-//W3C//DTD SVG 1.1//EN"
 "http://www.w3.org/Graphics/SVG/1.1/DTD/svg11.dtd">
<!-- Generated by graphviz version 2.38.0 (20140413.2041)
 -->
<!-- Title: %3 Pages: 1 -->
<svg width="851pt" height="464pt"
 viewBox="0.00 0.00 851.00 464.00" xmlns="http://www.w3.org/2000/svg" xmlns:xlink="http://www.w3.org/1999/xlink">
<g id="graph0" class="graph" transform="scale(1 1) rotate(0) translate(4 460)">
<title>%3</title>
<polygon fill="white" stroke="none" points="-4,4 -4,-460 847,-460 847,4 -4,4"/>
<g id="clust1" class="cluster"><title>clusterLegend</title>
<polygon fill="#ebebeb" stroke="#ebebeb" points="8,-29 8,-202 179,-202 179,-29 8,-29"/>
</g>
<!-- pre0 -->
<g id="node1" class="node"><title>pre0</title>
<g id="a_node1"><a xlink:title="Built">
<path fill="#f5f5f5" stroke="black" stroke-dasharray="1,5" d="M115.167,-194C115.167,-194 71.8333,-194 71.8333,-194 68.1667,-194 64.5,-190.333 64.5,-186.667 64.5,-186.667 64.5,-179.333 64.5,-179.333 64.5,-175.667 68.1667,-172 71.8333,-172 71.8333,-172 115.167,-172 115.167,-172 118.833,-172 122.5,-175.667 122.5,-179.333 122.5,-179.333 122.5,-186.667 122.5,-186.667 122.5,-190.333 118.833,-194 115.167,-194"/>
<text text-anchor="middle" x="93.5" y="-180.2" font-family="Times New Roman,serif" font-size="11.00">Built in 5.0</text>
</a>
</g>
</g>
<!-- aspnetcore -->
<g id="node2" class="node"><title>aspnetcore</title>
<g id="a_node2"><a xlink:title="Built">
<path fill="#f5f5f5" stroke="black" stroke-dasharray="1,5" d="M681.167,-186C681.167,-186 636.833,-186 636.833,-186 633.167,-186 629.5,-182.333 629.5,-178.667 629.5,-178.667 629.5,-171.333 629.5,-171.333 629.5,-167.667 633.167,-164 636.833,-164 636.833,-164 681.167,-164 681.167,-164 684.833,-164 688.5,-167.667 688.5,-171.333 688.5,-171.333 688.5,-178.667 688.5,-178.667 688.5,-182.333 684.833,-186 681.167,-186"/>
<text text-anchor="middle" x="659" y="-172.2" font-family="Times New Roman,serif" font-size="11.00">aspnetcore</text>
</a>
</g>
</g>
<!-- installer -->
<g id="node5" class="node"><title>installer</title>
<g id="a_node5"><a xlink:title="Built">
<path fill="#f5f5f5" stroke="black" stroke-dasharray="1,5" d="M835.667,-265C835.667,-265 806.333,-265 806.333,-265 802.667,-265 799,-261.333 799,-257.667 799,-257.667 799,-250.333 799,-250.333 799,-246.667 802.667,-243 806.333,-243 806.333,-243 835.667,-243 835.667,-243 839.333,-243 843,-246.667 843,-250.333 843,-250.333 843,-257.667 843,-257.667 843,-261.333 839.333,-265 835.667,-265"/>
<text text-anchor="middle" x="821" y="-251.2" font-family="Times New Roman,serif" font-size="11.00">installer</text>
</a>
</g>
</g>
<!-- aspnetcore&#45;&gt;installer -->
<g id="edge19" class="edge"><title>aspnetcore&#45;&gt;installer</title>
<path fill="none" stroke="black" d="M688.701,-175.517C717.164,-177.371 760.781,-183.974 791,-206 801.523,-213.67 808.967,-226.428 813.676,-236.864"/>
<polygon fill="black" stroke="black" points="816.135,-242.683 811.313,-238.208 814.967,-239.92 813.8,-237.157 813.8,-237.157 813.8,-237.157 814.967,-239.92 816.287,-236.106 816.135,-242.683 816.135,-242.683"/>
</g>
<!-- common -->
<g id="node3" class="node"><title>common</title>
<g id="a_node3"><a xlink:title="Built">
<path fill="#f5f5f5" stroke="black" stroke-dasharray="1,5" d="M505.167,-349C505.167,-349 471.833,-349 471.833,-349 468.167,-349 464.5,-345.333 464.5,-341.667 464.5,-341.667 464.5,-334.333 464.5,-334.333 464.5,-330.667 468.167,-327 471.833,-327 471.833,-327 505.167,-327 505.167,-327 508.833,-327 512.5,-330.667 512.5,-334.333 512.5,-334.333 512.5,-341.667 512.5,-341.667 512.5,-345.333 508.833,-349 505.167,-349"/>
<text text-anchor="middle" x="488.5" y="-335.2" font-family="Times New Roman,serif" font-size="11.00">common</text>
</a>
</g>
</g>
<!-- nuget&#45;client -->
<g id="node7" class="node"><title>nuget&#45;client</title>
<g id="a_node7"><a xlink:title="Built">
<path fill="#f5f5f5" stroke="black" stroke-dasharray="1,5" d="M682.667,-336C682.667,-336 635.333,-336 635.333,-336 631.667,-336 628,-332.333 628,-328.667 628,-328.667 628,-321.333 628,-321.333 628,-317.667 631.667,-314 635.333,-314 635.333,-314 682.667,-314 682.667,-314 686.333,-314 690,-317.667 690,-321.333 690,-321.333 690,-328.667 690,-328.667 690,-332.333 686.333,-336 682.667,-336"/>
<text text-anchor="middle" x="659" y="-322.2" font-family="Times New Roman,serif" font-size="11.00">nuget&#45;client</text>
</a>
</g>
</g>
<!-- common&#45;&gt;nuget&#45;client -->
<g id="edge37" class="edge"><title>common&#45;&gt;nuget&#45;client</title>
<path fill="none" stroke="black" d="M512.576,-336.22C540.747,-334.046 588.715,-330.345 621.813,-327.792"/>
<polygon fill="black" stroke="black" points="627.812,-327.329 622.037,-330.483 624.821,-327.56 621.83,-327.791 621.83,-327.791 621.83,-327.791 624.821,-327.56 621.622,-325.099 627.812,-327.329 627.812,-327.329"/>
</g>
<!-- fsharp -->
<g id="node4" class="node"><title>fsharp</title>
<g id="a_node4"><a xlink:title="Built">
<path fill="#f5f5f5" stroke="black" stroke-dasharray="1,5" d="M670.667,-224C670.667,-224 647.333,-224 647.333,-224 643.667,-224 640,-220.333 640,-216.667 640,-216.667 640,-209.333 640,-209.333 640,-205.667 643.667,-202 647.333,-202 647.333,-202 670.667,-202 670.667,-202 674.333,-202 678,-205.667 678,-209.333 678,-209.333 678,-216.667 678,-216.667 678,-220.333 674.333,-224 670.667,-224"/>
<text text-anchor="middle" x="659" y="-210.2" font-family="Times New Roman,serif" font-size="11.00">fsharp</text>
</a>
</g>
</g>
<!-- fsharp&#45;&gt;installer -->
<g id="edge21" class="edge"><title>fsharp&#45;&gt;installer</title>
<path fill="none" stroke="black" d="M678.064,-209.682C704.414,-205.755 754.247,-201.837 791,-220 798.87,-223.889 805.449,-230.983 810.34,-237.689"/>
<polygon fill="black" stroke="black" points="813.745,-242.682 808.134,-239.246 812.055,-240.203 810.364,-237.725 810.364,-237.725 810.364,-237.725 812.055,-240.203 812.595,-236.203 813.745,-242.682 813.745,-242.682"/>
</g>
<!-- sdk -->
<g id="node12" class="node"><title>sdk</title>
<g id="a_node12"><a xlink:title="Built">
<path fill="#f5f5f5" stroke="black" stroke-dasharray="1,5" d="M750.167,-243C750.167,-243 738.833,-243 738.833,-243 735.167,-243 731.5,-239.333 731.5,-235.667 731.5,-235.667 731.5,-228.333 731.5,-228.333 731.5,-224.667 735.167,-221 738.833,-221 738.833,-221 750.167,-221 750.167,-221 753.833,-221 757.5,-224.667 757.5,-228.333 757.5,-228.333 757.5,-235.667 757.5,-235.667 757.5,-239.333 753.833,-243 750.167,-243"/>
<text text-anchor="middle" x="744.5" y="-229.2" font-family="Times New Roman,serif" font-size="11.00">sdk</text>
</a>
</g>
</g>
<!-- fsharp&#45;&gt;sdk -->
<g id="edge67" class="edge"><title>fsharp&#45;&gt;sdk</title>
<path fill="none" stroke="black" d="M678.118,-217.123C692.094,-220.303 711.338,-224.682 725.327,-227.865"/>
<polygon fill="black" stroke="black" points="731.347,-229.235 724.898,-230.536 728.422,-228.569 725.497,-227.903 725.497,-227.903 725.497,-227.903 728.422,-228.569 726.096,-225.271 731.347,-229.235 731.347,-229.235"/>
</g>
<!-- msbuild -->
<g id="node6" class="node"><title>msbuild</title>
<g id="a_node6"><a xlink:title="Built">
<path fill="#f5f5f5" stroke="black" stroke-dasharray="1,5" d="M593.667,-262C593.667,-262 564.333,-262 564.333,-262 560.667,-262 557,-258.333 557,-254.667 557,-254.667 557,-247.333 557,-247.333 557,-243.667 560.667,-240 564.333,-240 564.333,-240 593.667,-240 593.667,-240 597.333,-240 601,-243.667 601,-247.333 601,-247.333 601,-254.667 601,-254.667 601,-258.333 597.333,-262 593.667,-262"/>
<text text-anchor="middle" x="579" y="-248.2" font-family="Times New Roman,serif" font-size="11.00">msbuild</text>
</a>
</g>
</g>
<!-- msbuild&#45;&gt;aspnetcore -->
<g id="edge6" class="edge"><title>msbuild&#45;&gt;aspnetcore</title>
<path fill="none" stroke="black" d="M601.315,-240.917C608.103,-236.808 615.111,-231.479 620,-225 627.283,-215.349 621.201,-208.997 628,-199 630.166,-195.815 632.882,-192.846 635.789,-190.157"/>
<polygon fill="black" stroke="black" points="640.462,-186.171 637.649,-192.119 638.18,-188.118 635.897,-190.064 635.897,-190.064 635.897,-190.064 638.18,-188.118 634.145,-188.01 640.462,-186.171 640.462,-186.171"/>
</g>
<!-- msbuild&#45;&gt;fsharp -->
<g id="edge13" class="edge"><title>msbuild&#45;&gt;fsharp</title>
<path fill="none" stroke="black" d="M601.314,-240.616C611.513,-235.647 623.761,-229.681 634.257,-224.567"/>
<polygon fill="black" stroke="black" points="639.885,-221.825 635.673,-226.881 637.188,-223.139 634.491,-224.453 634.491,-224.453 634.491,-224.453 637.188,-223.139 633.308,-222.026 639.885,-221.825 639.885,-221.825"/>
</g>
<!-- msbuild&#45;&gt;installer -->
<g id="edge22" class="edge"><title>msbuild&#45;&gt;installer</title>
<path fill="none" stroke="black" d="M601.298,-251.266C644.886,-251.811 744.216,-253.053 792.556,-253.657"/>
<polygon fill="black" stroke="black" points="798.749,-253.734 792.716,-256.359 795.75,-253.697 792.75,-253.659 792.75,-253.659 792.75,-253.659 795.75,-253.697 792.784,-250.959 798.749,-253.734 798.749,-253.734"/>
</g>
<!-- msbuild&#45;&gt;nuget&#45;client -->
<g id="edge39" class="edge"><title>msbuild&#45;&gt;nuget&#45;client</title>
<path fill="none" stroke="black" d="M591.847,-262.239C605.21,-274.917 627.017,-295.606 641.913,-309.738"/>
<polygon fill="black" stroke="black" points="646.298,-313.898 640.086,-311.727 644.121,-311.833 641.945,-309.768 641.945,-309.768 641.945,-309.768 644.121,-311.833 643.803,-307.809 646.298,-313.898 646.298,-313.898"/>
</g>
<!-- msbuild&#45;&gt;sdk -->
<g id="edge61" class="edge"><title>msbuild&#45;&gt;sdk</title>
<path fill="none" stroke="black" d="M601.04,-248.555C633.409,-244.793 694.87,-237.651 725.38,-234.106"/>
<polygon fill="black" stroke="black" points="731.4,-233.406 725.751,-236.781 728.42,-233.752 725.44,-234.099 725.44,-234.099 725.44,-234.099 728.42,-233.752 725.128,-231.417 731.4,-233.406 731.4,-233.406"/>
</g>
<!-- nuget&#45;client&#45;&gt;installer -->
<g id="edge26" class="edge"><title>nuget&#45;client&#45;&gt;installer</title>
<path fill="none" stroke="black" d="M690.034,-328.168C718.503,-329.6 761.227,-327.515 791,-307 803.209,-298.587 810.777,-283.305 815.107,-271.305"/>
<polygon fill="black" stroke="black" points="817.083,-265.383 817.745,-271.929 816.134,-268.229 815.184,-271.074 815.184,-271.074 815.184,-271.074 816.134,-268.229 812.623,-270.22 817.083,-265.383 817.083,-265.383"/>
</g>
<!-- nuget&#45;client&#45;&gt;sdk -->
<g id="edge64" class="edge"><title>nuget&#45;client&#45;&gt;sdk</title>
<path fill="none" stroke="black" d="M669.906,-313.966C684.721,-297.466 712.707,-266.297 729.573,-247.512"/>
<polygon fill="black" stroke="black" points="733.606,-243.019 731.607,-249.288 731.602,-245.251 729.598,-247.484 729.598,-247.484 729.598,-247.484 731.602,-245.251 727.589,-245.68 733.606,-243.019 733.606,-243.019"/>
</g>
<!-- roslyn&#45;analyzers -->
<g id="node8" class="node"><title>roslyn&#45;analyzers</title>
<g id="a_node8"><a xlink:title="Built">
<path fill="#f5f5f5" stroke="black" stroke-dasharray="1,5" d="M612.667,-202C612.667,-202 545.333,-202 545.333,-202 541.667,-202 538,-198.333 538,-194.667 538,-194.667 538,-187.333 538,-187.333 538,-183.667 541.667,-180 545.333,-180 545.333,-180 612.667,-180 612.667,-180 616.333,-180 620,-183.667 620,-187.333 620,-187.333 620,-194.667 620,-194.667 620,-198.333 616.333,-202 612.667,-202"/>
<text text-anchor="middle" x="579" y="-188.2" font-family="Times New Roman,serif" font-size="11.00">roslyn&#45;analyzers</text>
</a>
</g>
</g>
<!-- roslyn&#45;analyzers&#45;&gt;aspnetcore -->
<g id="edge8" class="edge"><title>roslyn&#45;analyzers&#45;&gt;aspnetcore</title>
<path fill="none" stroke="black" d="M620.371,-182.719C621.3,-182.528 622.228,-182.338 623.154,-182.148"/>
<polygon fill="black" stroke="black" points="629.191,-180.91 623.856,-184.76 626.252,-181.512 623.314,-182.115 623.314,-182.115 623.314,-182.115 626.252,-181.512 622.771,-179.47 629.191,-180.91 629.191,-180.91"/>
</g>
<!-- roslyn&#45;analyzers&#45;&gt;sdk -->
<g id="edge65" class="edge"><title>roslyn&#45;analyzers&#45;&gt;sdk</title>
<path fill="none" stroke="black" d="M620.02,-190.505C641.251,-191.264 667.523,-193.852 690,-201 703.067,-205.156 716.414,-212.882 726.508,-219.581"/>
<polygon fill="black" stroke="black" points="731.471,-222.967 724.993,-221.816 728.993,-221.276 726.514,-219.586 726.514,-219.586 726.514,-219.586 728.993,-221.276 728.036,-217.355 731.471,-222.967 731.471,-222.967"/>
</g>
<!-- roslyn -->
<g id="node9" class="node"><title>roslyn</title>
<g id="a_node9"><a xlink:title="Built">
<path fill="#f5f5f5" stroke="black" stroke-dasharray="1,5" d="M397.167,-180C397.167,-180 374.833,-180 374.833,-180 371.167,-180 367.5,-176.333 367.5,-172.667 367.5,-172.667 367.5,-165.333 367.5,-165.333 367.5,-161.667 371.167,-158 374.833,-158 374.833,-158 397.167,-158 397.167,-158 400.833,-158 404.5,-161.667 404.5,-165.333 404.5,-165.333 404.5,-172.667 404.5,-172.667 404.5,-176.333 400.833,-180 397.167,-180"/>
<text text-anchor="middle" x="386" y="-166.2" font-family="Times New Roman,serif" font-size="11.00">roslyn</text>
</a>
</g>
</g>
<!-- roslyn&#45;&gt;aspnetcore -->
<g id="edge7" class="edge"><title>roslyn&#45;&gt;aspnetcore</title>
<path fill="none" stroke="black" d="M404.615,-168.942C431.607,-168.893 484.827,-168.96 530,-170 561.462,-170.724 597.252,-172.176 622.972,-173.329"/>
<polygon fill="black" stroke="black" points="629.285,-173.615 623.169,-176.041 626.289,-173.479 623.292,-173.343 623.292,-173.343 623.292,-173.343 626.289,-173.479 623.414,-170.646 629.285,-173.615 629.285,-173.615"/>
</g>
<!-- roslyn&#45;&gt;installer -->
<g id="edge27" class="edge"><title>roslyn&#45;&gt;installer</title>
<path fill="none" stroke="black" d="M404.625,-160.77C432.299,-148.349 487.957,-125.375 538,-117 573.945,-110.984 584.057,-110.974 620,-117 699.29,-130.294 733.481,-119.829 791,-176 807.754,-192.362 814.918,-219.275 817.92,-236.818"/>
<polygon fill="black" stroke="black" points="818.847,-242.821 815.262,-237.303 818.389,-239.856 817.931,-236.891 817.931,-236.891 817.931,-236.891 818.389,-239.856 820.599,-236.479 818.847,-242.821 818.847,-242.821"/>
</g>
<!-- roslyn&#45;&gt;msbuild -->
<g id="edge36" class="edge"><title>roslyn&#45;&gt;msbuild</title>
<path fill="none" stroke="black" d="M404.546,-172.336C440.287,-179.216 519.083,-194.851 530,-201 544.729,-209.296 557.747,-223.544 566.497,-234.714"/>
<polygon fill="black" stroke="black" points="570.208,-239.596 564.427,-236.453 568.392,-237.208 566.577,-234.819 566.577,-234.819 566.577,-234.819 568.392,-237.208 568.727,-233.186 570.208,-239.596 570.208,-239.596"/>
</g>
<!-- roslyn&#45;&gt;roslyn&#45;analyzers -->
<g id="edge42" class="edge"><title>roslyn&#45;&gt;roslyn&#45;analyzers</title>
<path fill="none" stroke="black" d="M404.725,-169.244C431.861,-169.841 485.266,-171.9 530,-179 530.477,-179.076 530.957,-179.154 531.438,-179.234"/>
<polygon fill="black" stroke="black" points="537.774,-180.4 531.384,-181.97 534.823,-179.857 531.873,-179.314 531.873,-179.314 531.873,-179.314 534.823,-179.857 532.361,-176.659 537.774,-180.4 537.774,-180.4"/>
</g>
<!-- runtime&#45;portable -->
<g id="node10" class="node"><title>runtime&#45;portable</title>
<g id="a_node10"><a xlink:title="Built">
<path fill="#f5f5f5" stroke="black" stroke-dasharray="1,5" d="M522.667,-224C522.667,-224 454.333,-224 454.333,-224 450.667,-224 447,-220.333 447,-216.667 447,-216.667 447,-209.333 447,-209.333 447,-205.667 450.667,-202 454.333,-202 454.333,-202 522.667,-202 522.667,-202 526.333,-202 530,-205.667 530,-209.333 530,-209.333 530,-216.667 530,-216.667 530,-220.333 526.333,-224 522.667,-224"/>
<text text-anchor="middle" x="488.5" y="-210.2" font-family="Times New Roman,serif" font-size="11.00">runtime&#45;portable</text>
</a>
</g>
</g>
<!-- roslyn&#45;&gt;runtime&#45;portable -->
<g id="edge51" class="edge"><title>roslyn&#45;&gt;runtime&#45;portable</title>
<path fill="none" stroke="black" d="M404.648,-178.08C416.494,-184.038 432.523,-191.837 447,-198 448.233,-198.525 449.492,-199.05 450.766,-199.572"/>
<polygon fill="black" stroke="black" points="456.423,-201.836 449.849,-202.113 453.638,-200.721 450.853,-199.607 450.853,-199.607 450.853,-199.607 453.638,-200.721 451.856,-197.1 456.423,-201.836 456.423,-201.836"/>
</g>
<!-- runtime -->
<g id="node11" class="node"><title>runtime</title>
<g id="a_node11"><a xlink:title="Built">
<path fill="#f5f5f5" stroke="black" stroke-dasharray="1,5" d="M503.167,-251C503.167,-251 473.833,-251 473.833,-251 470.167,-251 466.5,-247.333 466.5,-243.667 466.5,-243.667 466.5,-236.333 466.5,-236.333 466.5,-232.667 470.167,-229 473.833,-229 473.833,-229 503.167,-229 503.167,-229 506.833,-229 510.5,-232.667 510.5,-236.333 510.5,-236.333 510.5,-243.667 510.5,-243.667 510.5,-247.333 506.833,-251 503.167,-251"/>
<text text-anchor="middle" x="488.5" y="-237.2" font-family="Times New Roman,serif" font-size="11.00">runtime</text>
</a>
</g>
</g>
<!-- roslyn&#45;&gt;runtime -->
<g id="edge57" class="edge"><title>roslyn&#45;&gt;runtime</title>
<path fill="none" stroke="black" d="M404.994,-177.49C416.109,-183.527 429.931,-192.581 439,-204 445.211,-211.821 439.905,-217.97 447,-225 450.752,-228.717 455.505,-231.524 460.425,-233.641"/>
<polygon fill="black" stroke="black" points="466.226,-235.822 459.66,-236.238 463.418,-234.766 460.61,-233.711 460.61,-233.711 460.61,-233.711 463.418,-234.766 461.56,-231.183 466.226,-235.822 466.226,-235.822"/>
</g>
<!-- runtime&#45;&gt;aspnetcore -->
<g id="edge5" class="edge"><title>runtime&#45;&gt;aspnetcore</title>
<path fill="none" stroke="black" d="M510.686,-234.628C545.061,-225.841 610.157,-208.883 620,-204 624.168,-201.932 631.974,-196.113 639.433,-190.224"/>
<polygon fill="black" stroke="black" points="644.492,-186.182 641.49,-192.037 642.148,-188.055 639.804,-189.928 639.804,-189.928 639.804,-189.928 642.148,-188.055 638.119,-187.818 644.492,-186.182 644.492,-186.182"/>
</g>
<!-- runtime&#45;&gt;installer -->
<g id="edge28" class="edge"><title>runtime&#45;&gt;installer</title>
<path fill="none" stroke="black" d="M507.176,-251.202C516.058,-256.179 527.206,-261.475 538,-264 629.262,-285.345 741.617,-269.201 792.567,-259.681"/>
<polygon fill="black" stroke="black" points="798.761,-258.499 793.373,-262.276 795.814,-259.061 792.867,-259.623 792.867,-259.623 792.867,-259.623 795.814,-259.061 792.361,-256.971 798.761,-258.499 798.761,-258.499"/>
</g>
<!-- runtime&#45;&gt;msbuild -->
<g id="edge35" class="edge"><title>runtime&#45;&gt;msbuild</title>
<path fill="none" stroke="black" d="M510.923,-242.663C522.881,-244.149 537.901,-246.016 550.695,-247.606"/>
<polygon fill="black" stroke="black" points="556.774,-248.362 550.487,-250.301 553.797,-247.992 550.82,-247.622 550.82,-247.622 550.82,-247.622 553.797,-247.992 551.153,-244.942 556.774,-248.362 556.774,-248.362"/>
</g>
<!-- runtime&#45;&gt;roslyn&#45;analyzers -->
<g id="edge41" class="edge"><title>runtime&#45;&gt;roslyn&#45;analyzers</title>
<path fill="none" stroke="black" d="M510.5,-234.152C517.03,-231.836 524.066,-228.804 530,-225 534.233,-222.286 534.093,-220.165 538,-217 542.923,-213.012 548.476,-209.085 553.842,-205.54"/>
<polygon fill="black" stroke="black" points="559.117,-202.133 555.541,-207.657 556.597,-203.761 554.076,-205.389 554.076,-205.389 554.076,-205.389 556.597,-203.761 552.612,-203.12 559.117,-202.133 559.117,-202.133"/>
</g>
<!-- runtime&#45;&gt;sdk -->
<g id="edge60" class="edge"><title>runtime&#45;&gt;sdk</title>
<path fill="none" stroke="black" d="M510.719,-239.332C559.585,-237.793 679.376,-234.02 725.233,-232.575"/>
<polygon fill="black" stroke="black" points="731.445,-232.38 725.533,-235.267 728.447,-232.474 725.448,-232.569 725.448,-232.569 725.448,-232.569 728.447,-232.474 725.363,-229.87 731.445,-232.38 731.445,-232.38"/>
</g>
<!-- vstest -->
<g id="node14" class="node"><title>vstest</title>
<g id="a_node14"><a xlink:title="Built">
<path fill="#f5f5f5" stroke="black" stroke-dasharray="1,5" d="M589.667,-322C589.667,-322 568.333,-322 568.333,-322 564.667,-322 561,-318.333 561,-314.667 561,-314.667 561,-307.333 561,-307.333 561,-303.667 564.667,-300 568.333,-300 568.333,-300 589.667,-300 589.667,-300 593.333,-300 597,-303.667 597,-307.333 597,-307.333 597,-314.667 597,-314.667 597,-318.333 593.333,-322 589.667,-322"/>
<text text-anchor="middle" x="579" y="-308.2" font-family="Times New Roman,serif" font-size="11.00">vstest</text>
</a>
</g>
</g>
<!-- runtime&#45;&gt;vstest -->
<g id="edge73" class="edge"><title>runtime&#45;&gt;vstest</title>
<path fill="none" stroke="black" d="M500.571,-251.308C510.096,-260.778 524.412,-274.407 538,-285 543.501,-289.289 549.712,-293.57 555.57,-297.384"/>
<polygon fill="black" stroke="black" points="560.82,-300.742 554.311,-299.783 558.293,-299.125 555.766,-297.509 555.766,-297.509 555.766,-297.509 558.293,-299.125 557.221,-295.234 560.82,-300.742 560.82,-300.742"/>
</g>
<!-- sdk&#45;&gt;installer -->
<g id="edge29" class="edge"><title>sdk&#45;&gt;installer</title>
<path fill="none" stroke="black" d="M757.802,-235.633C767.392,-238.465 781.064,-242.502 793.148,-246.071"/>
<polygon fill="black" stroke="black" points="798.928,-247.777 792.409,-248.668 796.051,-246.928 793.174,-246.078 793.174,-246.078 793.174,-246.078 796.051,-246.928 793.939,-243.489 798.928,-247.777 798.928,-247.777"/>
</g>
<!-- templating -->
<g id="node13" class="node"><title>templating</title>
<g id="a_node13"><a xlink:title="Built">
<path fill="#f5f5f5" stroke="black" stroke-dasharray="1,5" d="M509.167,-420C509.167,-420 467.833,-420 467.833,-420 464.167,-420 460.5,-416.333 460.5,-412.667 460.5,-412.667 460.5,-405.333 460.5,-405.333 460.5,-401.667 464.167,-398 467.833,-398 467.833,-398 509.167,-398 509.167,-398 512.833,-398 516.5,-401.667 516.5,-405.333 516.5,-405.333 516.5,-412.667 516.5,-412.667 516.5,-416.333 512.833,-420 509.167,-420"/>
<text text-anchor="middle" x="488.5" y="-406.2" font-family="Times New Roman,serif" font-size="11.00">templating</text>
</a>
</g>
</g>
<!-- templating&#45;&gt;installer -->
<g id="edge30" class="edge"><title>templating&#45;&gt;installer</title>
<path fill="none" stroke="black" d="M516.74,-411.698C583.049,-417.65 750.395,-428.769 791,-394 809.383,-378.259 816.587,-305.268 818.976,-271.377"/>
<polygon fill="black" stroke="black" points="819.392,-265.149 821.686,-271.316 819.192,-268.142 818.992,-271.136 818.992,-271.136 818.992,-271.136 819.192,-268.142 816.298,-270.956 819.392,-265.149 819.392,-265.149"/>
</g>
<!-- vstest&#45;&gt;installer -->
<g id="edge32" class="edge"><title>vstest&#45;&gt;installer</title>
<path fill="none" stroke="black" d="M597.197,-311.09C641.382,-311.052 757.744,-309.179 791,-291 799.446,-286.383 806.265,-278.167 811.163,-270.648"/>
<polygon fill="black" stroke="black" points="814.53,-265.106 813.723,-271.636 812.972,-267.67 811.415,-270.234 811.415,-270.234 811.415,-270.234 812.972,-267.67 809.107,-268.832 814.53,-265.106 814.53,-265.106"/>
</g>
<!-- vstest&#45;&gt;sdk -->
<g id="edge66" class="edge"><title>vstest&#45;&gt;sdk</title>
<path fill="none" stroke="black" d="M597.142,-304.612C604.224,-301.962 612.513,-298.848 620,-296 651.167,-284.146 660.525,-284.593 690,-269 702.751,-262.255 716.097,-253.029 726.27,-245.477"/>
<polygon fill="black" stroke="black" points="731.28,-241.703 728.112,-247.47 728.884,-243.508 726.488,-245.313 726.488,-245.313 726.488,-245.313 728.884,-243.508 724.863,-243.157 731.28,-241.703 731.28,-241.703"/>
</g>
<!-- pre1 -->
<g id="node15" class="node"><title>pre1</title>
<g id="a_node15"><a xlink:title="Inputs ready">
<polygon fill="#f7caac" stroke="black" points="126,-167 61,-167 61,-145 126,-145 126,-167"/>
<polyline fill="none" stroke="black" points="68.3333,-167 61,-159.667 "/>
<polyline fill="none" stroke="black" points="61,-152.333 68.3333,-145 "/>
<polyline fill="none" stroke="black" points="118.667,-145 126,-152.333 "/>
<polyline fill="none" stroke="black" points="126,-159.667 118.667,-167 "/>
<text text-anchor="middle" x="93.5" y="-153.2" font-family="Times New Roman,serif" font-size="11.00">Inputs ready</text>
</a>
</g>
</g>
<!-- aspnet&#45;xdt -->
<g id="node16" class="node"><title>aspnet&#45;xdt</title>
<g id="a_node16"><a xlink:title="Inputs ready">
<polygon fill="#f7caac" stroke="black" points="308.5,-334 252.5,-334 252.5,-312 308.5,-312 308.5,-334"/>
<polyline fill="none" stroke="black" points="259.833,-334 252.5,-326.667 "/>
<polyline fill="none" stroke="black" points="252.5,-319.333 259.833,-312 "/>
<polyline fill="none" stroke="black" points="301.167,-312 308.5,-319.333 "/>
<polyline fill="none" stroke="black" points="308.5,-326.667 301.167,-334 "/>
<text text-anchor="middle" x="280.5" y="-320.2" font-family="Times New Roman,serif" font-size="11.00">aspnet&#45;xdt</text>
</a>
</g>
</g>
<!-- aspnet&#45;xdt&#45;&gt;nuget&#45;client -->
<g id="edge40" class="edge"><title>aspnet&#45;xdt&#45;&gt;nuget&#45;client</title>
<path fill="none" stroke="black" d="M308.732,-330.807C341.291,-339.701 397.591,-353.688 447,-359 483.678,-362.943 493.125,-360.024 530,-359 570.046,-357.888 582.418,-367.876 620,-354 628.189,-350.977 636.064,-345.542 642.501,-340.187"/>
<polygon fill="black" stroke="black" points="647.124,-336.15 644.38,-342.13 644.864,-338.123 642.604,-340.097 642.604,-340.097 642.604,-340.097 644.864,-338.123 640.828,-338.063 647.124,-336.15 647.124,-336.15"/>
</g>
<!-- clicommandlineparser -->
<g id="node17" class="node"><title>clicommandlineparser</title>
<g id="a_node17"><a xlink:title="Inputs ready">
<polygon fill="#f7caac" stroke="black" points="439,-456 333,-456 333,-434 439,-434 439,-456"/>
<polyline fill="none" stroke="black" points="340.333,-456 333,-448.667 "/>
<polyline fill="none" stroke="black" points="333,-441.333 340.333,-434 "/>
<polyline fill="none" stroke="black" points="431.667,-434 439,-441.333 "/>
<polyline fill="none" stroke="black" points="439,-448.667 431.667,-456 "/>
<text text-anchor="middle" x="386" y="-442.2" font-family="Times New Roman,serif" font-size="11.00">clicommandlineparser</text>
</a>
</g>
</g>
<!-- clicommandlineparser&#45;&gt;installer -->
<g id="edge20" class="edge"><title>clicommandlineparser&#45;&gt;installer</title>
<path fill="none" stroke="black" d="M439.282,-443.315C477.665,-442.222 531.069,-441 578,-441 578,-441 578,-441 660,-441 718.359,-441 747.862,-471.306 791,-432 814.348,-410.726 818.907,-312.415 819.791,-271.716"/>
<polygon fill="black" stroke="black" points="819.907,-265.478 822.494,-271.527 819.851,-268.478 819.795,-271.477 819.795,-271.477 819.795,-271.477 819.851,-268.478 817.095,-271.427 819.907,-265.478 819.907,-265.478"/>
</g>
<!-- clicommandlineparser&#45;&gt;templating -->
<g id="edge69" class="edge"><title>clicommandlineparser&#45;&gt;templating</title>
<path fill="none" stroke="black" d="M417.973,-433.905C429.571,-429.751 442.784,-425.018 454.554,-420.802"/>
<polygon fill="black" stroke="black" points="460.203,-418.778 455.465,-423.343 457.379,-419.79 454.554,-420.802 454.554,-420.802 454.554,-420.802 457.379,-419.79 453.644,-418.26 460.203,-418.778 460.203,-418.778"/>
</g>
<!-- command&#45;line&#45;api -->
<g id="node18" class="node"><title>command&#45;line&#45;api</title>
<g id="a_node18"><a xlink:title="Inputs ready">
<polygon fill="#f7caac" stroke="black" points="325,-180 236,-180 236,-158 325,-158 325,-180"/>
<polyline fill="none" stroke="black" points="243.333,-180 236,-172.667 "/>
<polyline fill="none" stroke="black" points="236,-165.333 243.333,-158 "/>
<polyline fill="none" stroke="black" points="317.667,-158 325,-165.333 "/>
<polyline fill="none" stroke="black" points="325,-172.667 317.667,-180 "/>
<text text-anchor="middle" x="280.5" y="-166.2" font-family="Times New Roman,serif" font-size="11.00">command&#45;line&#45;api</text>
</a>
</g>
</g>
<!-- command&#45;line&#45;api&#45;&gt;roslyn -->
<g id="edge44" class="edge"><title>command&#45;line&#45;api&#45;&gt;roslyn</title>
<path fill="none" stroke="black" d="M325.093,-169C337.562,-169 350.68,-169 361.451,-169"/>
<polygon fill="black" stroke="black" points="367.498,-169 361.498,-171.7 364.498,-169 361.498,-169 361.498,-169 361.498,-169 364.498,-169 361.498,-166.3 367.498,-169 367.498,-169"/>
</g>
<!-- diagnostics -->
<g id="node19" class="node"><title>diagnostics</title>
<g id="a_node19"><a xlink:title="Inputs ready">
<polygon fill="#f7caac" stroke="black" points="518,-322 459,-322 459,-300 518,-300 518,-322"/>
<polyline fill="none" stroke="black" points="466.333,-322 459,-314.667 "/>
<polyline fill="none" stroke="black" points="459,-307.333 466.333,-300 "/>
<polyline fill="none" stroke="black" points="510.667,-300 518,-307.333 "/>
<polyline fill="none" stroke="black" points="518,-314.667 510.667,-322 "/>
<text text-anchor="middle" x="488.5" y="-308.2" font-family="Times New Roman,serif" font-size="11.00">diagnostics</text>
</a>
</g>
</g>
<!-- diagnostics&#45;&gt;vstest -->
<g id="edge72" class="edge"><title>diagnostics&#45;&gt;vstest</title>
<path fill="none" stroke="black" d="M518.478,-311C530.193,-311 543.536,-311 554.615,-311"/>
<polygon fill="black" stroke="black" points="560.848,-311 554.848,-313.7 557.848,-311 554.848,-311 554.848,-311 554.848,-311 557.848,-311 554.848,-308.3 560.848,-311 560.848,-311"/>
</g>
<!-- linker -->
<g id="node20" class="node"><title>linker</title>
<g id="a_node20"><a xlink:title="Inputs ready">
<polygon fill="#f7caac" stroke="black" points="403.5,-229 368.5,-229 368.5,-207 403.5,-207 403.5,-229"/>
<polyline fill="none" stroke="black" points="375.833,-229 368.5,-221.667 "/>
<polyline fill="none" stroke="black" points="368.5,-214.333 375.833,-207 "/>
<polyline fill="none" stroke="black" points="396.167,-207 403.5,-214.333 "/>
<polyline fill="none" stroke="black" points="403.5,-221.667 396.167,-229 "/>
<text text-anchor="middle" x="386" y="-215.2" font-family="Times New Roman,serif" font-size="11.00">linker</text>
</a>
</g>
</g>
<!-- linker&#45;&gt;runtime&#45;portable -->
<g id="edge48" class="edge"><title>linker&#45;&gt;runtime&#45;portable</title>
<path fill="none" stroke="black" d="M403.596,-217.174C413.748,-216.669 427.294,-215.995 440.534,-215.337"/>
<polygon fill="black" stroke="black" points="446.582,-215.036 440.724,-218.031 443.586,-215.185 440.589,-215.334 440.589,-215.334 440.589,-215.334 443.586,-215.185 440.455,-212.637 446.582,-215.036 446.582,-215.036"/>
</g>
<!-- linker&#45;&gt;runtime -->
<g id="edge54" class="edge"><title>linker&#45;&gt;runtime</title>
<path fill="none" stroke="black" d="M403.596,-221.633C419.023,-225.01 442.283,-230.102 460.403,-234.068"/>
<polygon fill="black" stroke="black" points="466.332,-235.366 459.894,-236.721 463.402,-234.725 460.471,-234.083 460.471,-234.083 460.471,-234.083 463.402,-234.725 461.049,-231.446 466.332,-235.366 466.332,-235.366"/>
</g>
<!-- symreader -->
<g id="node21" class="node"><title>symreader</title>
<g id="a_node21"><a xlink:title="Inputs ready">
<polygon fill="#f7caac" stroke="black" points="309,-251 252,-251 252,-229 309,-229 309,-251"/>
<polyline fill="none" stroke="black" points="259.333,-251 252,-243.667 "/>
<polyline fill="none" stroke="black" points="252,-236.333 259.333,-229 "/>
<polyline fill="none" stroke="black" points="301.667,-229 309,-236.333 "/>
<polyline fill="none" stroke="black" points="309,-243.667 301.667,-251 "/>
<text text-anchor="middle" x="280.5" y="-237.2" font-family="Times New Roman,serif" font-size="11.00">symreader</text>
</a>
</g>
</g>
<!-- symreader&#45;&gt;runtime -->
<g id="edge53" class="edge"><title>symreader&#45;&gt;runtime</title>
<path fill="none" stroke="black" d="M309.028,-240.633C316.78,-240.785 325.22,-240.924 333,-241 380.109,-241.457 391.891,-241.486 439,-241 445.835,-240.93 453.21,-240.803 460.097,-240.664"/>
<polygon fill="black" stroke="black" points="466.254,-240.533 460.313,-243.36 463.255,-240.597 460.255,-240.66 460.255,-240.66 460.255,-240.66 463.255,-240.597 460.198,-237.961 466.254,-240.533 466.254,-240.533"/>
</g>
<!-- test&#45;templates -->
<g id="node22" class="node"><title>test&#45;templates</title>
<g id="a_node22"><a xlink:title="Inputs ready">
<polygon fill="#f7caac" stroke="black" points="316.5,-425 244.5,-425 244.5,-403 316.5,-403 316.5,-425"/>
<polyline fill="none" stroke="black" points="251.833,-425 244.5,-417.667 "/>
<polyline fill="none" stroke="black" points="244.5,-410.333 251.833,-403 "/>
<polyline fill="none" stroke="black" points="309.167,-403 316.5,-410.333 "/>
<polyline fill="none" stroke="black" points="316.5,-417.667 309.167,-425 "/>
<text text-anchor="middle" x="280.5" y="-411.2" font-family="Times New Roman,serif" font-size="11.00">test&#45;templates</text>
</a>
</g>
</g>
<!-- test&#45;templates&#45;&gt;installer -->
<g id="edge31" class="edge"><title>test&#45;templates&#45;&gt;installer</title>
<path fill="none" stroke="black" d="M316.619,-416.733C372.098,-420.807 483.437,-428 578,-428 578,-428 578,-428 660,-428 718.831,-428 748.557,-449.74 791,-409 810.523,-390.26 817.187,-308.027 819.21,-271.542"/>
<polygon fill="black" stroke="black" points="819.536,-265.287 821.92,-271.419 819.38,-268.283 819.224,-271.279 819.224,-271.279 819.224,-271.279 819.38,-268.283 816.528,-271.138 819.536,-265.287 819.536,-265.287"/>
</g>
<!-- xliff&#45;tasks -->
<g id="node23" class="node"><title>xliff&#45;tasks</title>
<g id="a_node23"><a xlink:title="Inputs ready">
<polygon fill="#f7caac" stroke="black" points="307.5,-112 253.5,-112 253.5,-90 307.5,-90 307.5,-112"/>
<polyline fill="none" stroke="black" points="260.833,-112 253.5,-104.667 "/>
<polyline fill="none" stroke="black" points="253.5,-97.3333 260.833,-90 "/>
<polyline fill="none" stroke="black" points="300.167,-90 307.5,-97.3333 "/>
<polyline fill="none" stroke="black" points="307.5,-104.667 300.167,-112 "/>
<text text-anchor="middle" x="280.5" y="-98.2" font-family="Times New Roman,serif" font-size="11.00">xliff&#45;tasks</text>
</a>
</g>
</g>
<!-- xliff&#45;tasks&#45;&gt;fsharp -->
<g id="edge16" class="edge"><title>xliff&#45;tasks&#45;&gt;fsharp</title>
<path fill="none" stroke="black" d="M307.617,-108.998C313.96,-111.946 320.27,-115.864 325,-121 332.048,-128.653 324.867,-136.511 333,-143 336.14,-145.505 616.445,-177.129 620,-179 624.736,-181.493 624.156,-184.277 628,-188 631.493,-191.383 635.383,-194.832 639.174,-198.046"/>
<polygon fill="black" stroke="black" points="643.885,-201.967 637.546,-200.204 641.579,-200.048 639.273,-198.129 639.273,-198.129 639.273,-198.129 641.579,-200.048 641.001,-196.053 643.885,-201.967 643.885,-201.967"/>
</g>
<!-- xliff&#45;tasks&#45;&gt;installer -->
<g id="edge33" class="edge"><title>xliff&#45;tasks&#45;&gt;installer</title>
<path fill="none" stroke="black" d="M295.44,-89.7551C305.309,-82.47 319.196,-73.5246 333,-69 398.447,-47.5476 418.627,-57 487.5,-57 487.5,-57 487.5,-57 660,-57 719.934,-57 750.033,-45.2531 791,-89 810.827,-110.172 817.363,-198.518 819.283,-236.508"/>
<polygon fill="black" stroke="black" points="819.571,-242.574 816.589,-236.709 819.428,-239.577 819.286,-236.58 819.286,-236.58 819.286,-236.58 819.428,-239.577 821.983,-236.452 819.571,-242.574 819.571,-242.574"/>
</g>
<!-- xliff&#45;tasks&#45;&gt;roslyn -->
<g id="edge46" class="edge"><title>xliff&#45;tasks&#45;&gt;roslyn</title>
<path fill="none" stroke="black" d="M307.569,-107.168C314.066,-109.838 320.463,-113.631 325,-119 335.299,-131.188 322.038,-142.405 333,-154 340.27,-161.69 351.208,-165.517 361.179,-167.391"/>
<polygon fill="black" stroke="black" points="367.221,-168.323 360.879,-170.077 364.256,-167.866 361.291,-167.408 361.291,-167.408 361.291,-167.408 364.256,-167.866 361.703,-164.74 367.221,-168.323 367.221,-168.323"/>
</g>
<!-- xliff&#45;tasks&#45;&gt;sdk -->
<g id="edge59" class="edge"><title>xliff&#45;tasks&#45;&gt;sdk</title>
<path fill="none" stroke="black" d="M307.588,-93.1663C377.769,-73.817 573.163,-31.5316 690,-121 720.559,-144.401 734.59,-189.738 740.23,-214.617"/>
<polygon fill="black" stroke="black" points="741.547,-220.767 737.65,-215.465 740.919,-217.833 740.291,-214.9 740.291,-214.9 740.291,-214.9 740.919,-217.833 742.931,-214.334 741.547,-220.767 741.547,-220.767"/>
</g>
<!-- s1 -->
<g id="node24" class="node"><title>s1</title>
<g id="a_node24"><a xlink:title="1">
<path fill="#ffe599" stroke="black" stroke-dasharray="5,2" d="M155.667,-140C155.667,-140 31.3333,-140 31.3333,-140 27.6667,-140 24,-136.333 24,-132.667 24,-132.667 24,-125.333 24,-125.333 24,-121.667 27.6667,-118 31.3333,-118 31.3333,-118 155.667,-118 155.667,-118 159.333,-118 163,-121.667 163,-125.333 163,-125.333 163,-132.667 163,-132.667 163,-136.333 159.333,-140 155.667,-140"/>
<text text-anchor="middle" x="93.5" y="-126.2" font-family="Times New Roman,serif" font-size="11.00">#1 &#45; Local build infra merged</text>
</a>
</g>
</g>
<!-- s2 -->
<g id="node25" class="node"><title>s2</title>
<g id="a_node25"><a xlink:title="2">
<polygon fill="#f0fe86" stroke="black" stroke-dasharray="5,2" points="144,-113 43,-113 43,-91 144,-91 144,-113"/>
<text text-anchor="middle" x="93.5" y="-99.2" font-family="Times New Roman,serif" font-size="11.00">#2 &#45; CI implemented</text>
</a>
</g>
</g>
<!-- application&#45;insights -->
<g id="node26" class="node"><title>application&#45;insights</title>
<g id="a_node26"><a xlink:title="2">
<polygon fill="#f0fe86" stroke="black" stroke-dasharray="5,2" points="791,-49 698,-49 698,-27 791,-27 791,-49"/>
<text text-anchor="middle" x="744.5" y="-35.2" font-family="Times New Roman,serif" font-size="11.00">application&#45;insights</text>
</a>
</g>
</g>
<!-- application&#45;insights&#45;&gt;installer -->
<g id="edge17" class="edge"><title>application&#45;insights&#45;&gt;installer</title>
<path fill="none" stroke="black" d="M787.103,-49.1723C788.515,-50.326 789.824,-51.5979 791,-53 814.272,-80.7523 818.869,-193.421 819.777,-236.832"/>
<polygon fill="black" stroke="black" points="819.889,-242.949 817.079,-237 819.834,-239.949 819.779,-236.95 819.779,-236.95 819.779,-236.95 819.834,-239.949 822.478,-236.9 819.889,-242.949 819.889,-242.949"/>
</g>
<!-- cssparser -->
<g id="node27" class="node"><title>cssparser</title>
<g id="a_node27"><a xlink:title="2">
<polygon fill="#f0fe86" stroke="black" stroke-dasharray="5,2" points="605.5,-142 552.5,-142 552.5,-120 605.5,-120 605.5,-142"/>
<text text-anchor="middle" x="579" y="-128.2" font-family="Times New Roman,serif" font-size="11.00">cssparser</text>
</a>
</g>
</g>
<!-- cssparser&#45;&gt;aspnetcore -->
<g id="edge4" class="edge"><title>cssparser&#45;&gt;aspnetcore</title>
<path fill="none" stroke="black" d="M605.893,-139.437C610.696,-141.356 615.587,-143.559 620,-146 627.035,-149.892 634.187,-154.991 640.36,-159.826"/>
<polygon fill="black" stroke="black" points="645.292,-163.794 638.924,-162.136 642.954,-161.913 640.617,-160.033 640.617,-160.033 640.617,-160.033 642.954,-161.913 642.309,-157.929 645.292,-163.794 645.292,-163.794"/>
</g>
<!-- humanizer -->
<g id="node28" class="node"><title>humanizer</title>
<g id="a_node28"><a xlink:title="2">
<polygon fill="#f0fe86" stroke="black" stroke-dasharray="5,2" points="308.5,-153 252.5,-153 252.5,-131 308.5,-131 308.5,-153"/>
<text text-anchor="middle" x="280.5" y="-139.2" font-family="Times New Roman,serif" font-size="11.00">humanizer</text>
</a>
</g>
</g>
<!-- humanizer&#45;&gt;roslyn -->
<g id="edge45" class="edge"><title>humanizer&#45;&gt;roslyn</title>
<path fill="none" stroke="black" d="M308.693,-149.094C325.084,-153.37 345.754,-158.762 361.446,-162.855"/>
<polygon fill="black" stroke="black" points="367.41,-164.411 360.922,-165.509 364.507,-163.654 361.604,-162.897 361.604,-162.897 361.604,-162.897 364.507,-163.654 362.286,-160.284 367.41,-164.411 367.41,-164.411"/>
</g>
<!-- netcorecli&#45;fsc -->
<g id="node29" class="node"><title>netcorecli&#45;fsc</title>
<g id="a_node29"><a xlink:title="2">
<polygon fill="#f0fe86" stroke="black" stroke-dasharray="5,2" points="780,-22 709,-22 709,-0 780,-0 780,-22"/>
<text text-anchor="middle" x="744.5" y="-8.2" font-family="Times New Roman,serif" font-size="11.00">netcorecli&#45;fsc</text>
</a>
</g>
</g>
<!-- netcorecli&#45;fsc&#45;&gt;installer -->
<g id="edge23" class="edge"><title>netcorecli&#45;fsc&#45;&gt;installer</title>
<path fill="none" stroke="black" d="M780.444,-17.806C784.467,-19.8634 788.143,-22.5344 791,-26 817.484,-58.1259 820.061,-189.383 820.108,-236.806"/>
<polygon fill="black" stroke="black" points="820.101,-242.922 817.408,-236.918 820.104,-239.922 820.108,-236.922 820.108,-236.922 820.108,-236.922 820.104,-239.922 822.808,-236.925 820.101,-242.922 820.101,-242.922"/>
</g>
<!-- newtonsoft&#45;json -->
<g id="node30" class="node"><title>newtonsoft&#45;json</title>
<g id="a_node30"><a xlink:title="2">
<polygon fill="#f0fe86" stroke="black" stroke-dasharray="5,2" points="426,-303 346,-303 346,-281 426,-281 426,-303"/>
<text text-anchor="middle" x="386" y="-289.2" font-family="Times New Roman,serif" font-size="11.00">newtonsoft&#45;json</text>
</a>
</g>
</g>
<!-- newtonsoft&#45;json&#45;&gt;common -->
<g id="edge11" class="edge"><title>newtonsoft&#45;json&#45;&gt;common</title>
<path fill="none" stroke="black" d="M406.975,-303.1C418.505,-309.309 433.378,-316.985 447,-323 450.687,-324.628 454.611,-326.233 458.51,-327.754"/>
<polygon fill="black" stroke="black" points="464.174,-329.915 457.606,-330.299 461.371,-328.845 458.568,-327.776 458.568,-327.776 458.568,-327.776 461.371,-328.845 459.53,-325.254 464.174,-329.915 464.174,-329.915"/>
</g>
<!-- newtonsoft&#45;json&#45;&gt;fsharp -->
<g id="edge15" class="edge"><title>newtonsoft&#45;json&#45;&gt;fsharp</title>
<path fill="none" stroke="black" d="M426.182,-281.224C433.079,-279.609 440.219,-278.114 447,-277 485.06,-270.746 586.167,-281.52 620,-263 633.479,-255.622 643.634,-241.213 650.04,-229.751"/>
<polygon fill="black" stroke="black" points="652.881,-224.405 652.45,-230.97 651.473,-227.054 650.065,-229.703 650.065,-229.703 650.065,-229.703 651.473,-227.054 647.681,-228.436 652.881,-224.405 652.881,-224.405"/>
</g>
<!-- newtonsoft&#45;json&#45;&gt;installer -->
<g id="edge24" class="edge"><title>newtonsoft&#45;json&#45;&gt;installer</title>
<path fill="none" stroke="black" d="M393.508,-303.186C403.097,-318.548 422.555,-345.773 447,-359 498.8,-387.029 519.103,-379 578,-379 578,-379 578,-379 660,-379 723.495,-379 746.266,-367.061 791,-322 804.925,-307.973 812.591,-286.215 816.489,-271.103"/>
<polygon fill="black" stroke="black" points="817.936,-265.075 819.161,-271.54 817.236,-267.992 816.535,-270.909 816.535,-270.909 816.535,-270.909 817.236,-267.992 813.91,-270.279 817.936,-265.075 817.936,-265.075"/>
</g>
<!-- newtonsoft&#45;json&#45;&gt;nuget&#45;client -->
<g id="edge38" class="edge"><title>newtonsoft&#45;json&#45;&gt;nuget&#45;client</title>
<path fill="none" stroke="black" d="M394.331,-303.132C404.309,-317.152 423.629,-340.551 447,-350 506.772,-374.167 583.279,-353.682 625.81,-338.251"/>
<polygon fill="black" stroke="black" points="631.58,-336.112 626.892,-340.729 628.767,-337.154 625.954,-338.197 625.954,-338.197 625.954,-338.197 628.767,-337.154 625.016,-335.665 631.58,-336.112 631.58,-336.112"/>
</g>
<!-- newtonsoft&#45;json&#45;&gt;runtime&#45;portable -->
<g id="edge49" class="edge"><title>newtonsoft&#45;json&#45;&gt;runtime&#45;portable</title>
<path fill="none" stroke="black" d="M395.092,-280.531C405.594,-266.4 425.177,-242.491 447,-228 447.398,-227.736 447.802,-227.475 448.21,-227.218"/>
<polygon fill="black" stroke="black" points="453.745,-224.095 449.846,-229.395 451.132,-225.569 448.519,-227.044 448.519,-227.044 448.519,-227.044 451.132,-225.569 447.192,-224.692 453.745,-224.095 453.745,-224.095"/>
</g>
<!-- newtonsoft&#45;json&#45;&gt;runtime -->
<g id="edge55" class="edge"><title>newtonsoft&#45;json&#45;&gt;runtime</title>
<path fill="none" stroke="black" d="M408.313,-280.972C423.636,-273.044 444.405,-262.298 460.828,-253.8"/>
<polygon fill="black" stroke="black" points="466.217,-251.012 462.129,-256.167 463.553,-252.391 460.888,-253.769 460.888,-253.769 460.888,-253.769 463.553,-252.391 459.648,-251.371 466.217,-251.012 466.217,-251.012"/>
</g>
<!-- newtonsoft&#45;json&#45;&gt;sdk -->
<g id="edge62" class="edge"><title>newtonsoft&#45;json&#45;&gt;sdk</title>
<path fill="none" stroke="black" d="M426.153,-291.652C472.776,-290.586 552.79,-286.691 620,-273 658.774,-265.102 702.304,-248.818 725.931,-239.321"/>
<polygon fill="black" stroke="black" points="731.493,-237.062 726.95,-241.821 728.714,-238.191 725.934,-239.319 725.934,-239.319 725.934,-239.319 728.714,-238.191 724.918,-236.818 731.493,-237.062 731.493,-237.062"/>
</g>
<!-- newtonsoft&#45;json&#45;&gt;templating -->
<g id="edge70" class="edge"><title>newtonsoft&#45;json&#45;&gt;templating</title>
<path fill="none" stroke="black" d="M392.388,-303.142C401.633,-321.434 421.96,-358.264 447,-383 451.28,-387.228 456.356,-391.134 461.442,-394.565"/>
<polygon fill="black" stroke="black" points="466.502,-397.833 459.996,-396.846 463.981,-396.205 461.461,-394.578 461.461,-394.578 461.461,-394.578 463.981,-396.205 462.926,-392.31 466.502,-397.833 466.502,-397.833"/>
</g>
<!-- newtonsoft&#45;json&#45;&gt;vstest -->
<g id="edge74" class="edge"><title>newtonsoft&#45;json&#45;&gt;vstest</title>
<path fill="none" stroke="black" d="M426.045,-291.854C454.906,-292.244 495.085,-293.832 530,-299 538.099,-300.199 546.821,-302.168 554.579,-304.168"/>
<polygon fill="black" stroke="black" points="560.835,-305.84 554.341,-306.9 557.936,-305.065 555.038,-304.291 555.038,-304.291 555.038,-304.291 557.936,-305.065 555.735,-301.682 560.835,-305.84 560.835,-305.84"/>
</g>
<!-- newtonsoft&#45;json901 -->
<g id="node31" class="node"><title>newtonsoft&#45;json901</title>
<g id="a_node31"><a xlink:title="2">
<polygon fill="#f0fe86" stroke="black" stroke-dasharray="5,2" points="434,-142 338,-142 338,-120 434,-120 434,-142"/>
<text text-anchor="middle" x="386" y="-128.2" font-family="Times New Roman,serif" font-size="11.00">newtonsoft&#45;json901</text>
</a>
</g>
</g>
<!-- newtonsoft&#45;json901&#45;&gt;fsharp -->
<g id="edge14" class="edge"><title>newtonsoft&#45;json901&#45;&gt;fsharp</title>
<path fill="none" stroke="black" d="M434.238,-134.34C462.211,-136.719 498.274,-140.485 530,-146 570.569,-153.053 588.907,-141.003 620,-168 627.229,-174.277 622.373,-180.255 628,-188 630.575,-191.545 633.762,-194.893 637.088,-197.918"/>
<polygon fill="black" stroke="black" points="641.664,-201.831 635.349,-199.984 639.384,-199.881 637.104,-197.932 637.104,-197.932 637.104,-197.932 639.384,-199.881 638.858,-195.879 641.664,-201.831 641.664,-201.831"/>
</g>
<!-- newtonsoft&#45;json901&#45;&gt;installer -->
<g id="edge25" class="edge"><title>newtonsoft&#45;json901&#45;&gt;installer</title>
<path fill="none" stroke="black" d="M413.508,-119.935C423.814,-115.991 435.814,-111.829 447,-109 504.035,-94.5738 519.169,-90 578,-90 578,-90 578,-90 660,-90 720.5,-90 749.32,-83.1479 791,-127 805.91,-142.687 814.735,-205.9 818.24,-236.811"/>
<polygon fill="black" stroke="black" points="818.907,-242.888 815.568,-237.218 818.58,-239.906 818.252,-236.924 818.252,-236.924 818.252,-236.924 818.58,-239.906 820.936,-236.629 818.907,-242.888 818.907,-242.888"/>
</g>
<!-- newtonsoft&#45;json901&#45;&gt;runtime&#45;portable -->
<g id="edge50" class="edge"><title>newtonsoft&#45;json901&#45;&gt;runtime&#45;portable</title>
<path fill="none" stroke="black" d="M416.897,-142.068C424.49,-145.594 432.368,-149.923 439,-155 454.321,-166.729 468.039,-184.112 476.942,-196.789"/>
<polygon fill="black" stroke="black" points="480.454,-201.903 474.832,-198.485 478.756,-199.43 477.058,-196.957 477.058,-196.957 477.058,-196.957 478.756,-199.43 479.284,-195.429 480.454,-201.903 480.454,-201.903"/>
</g>
<!-- newtonsoft&#45;json901&#45;&gt;runtime -->
<g id="edge56" class="edge"><title>newtonsoft&#45;json901&#45;&gt;runtime</title>
<path fill="none" stroke="black" d="M423.796,-142.102C429.674,-145.385 435.096,-149.602 439,-155 457.349,-180.374 427.679,-200.358 447,-225 450.465,-229.42 455.37,-232.538 460.576,-234.736"/>
<polygon fill="black" stroke="black" points="466.288,-236.78 459.729,-237.301 463.463,-235.77 460.639,-234.759 460.639,-234.759 460.639,-234.759 463.463,-235.77 461.548,-232.217 466.288,-236.78 466.288,-236.78"/>
</g>
<!-- newtonsoft&#45;json901&#45;&gt;sdk -->
<g id="edge63" class="edge"><title>newtonsoft&#45;json901&#45;&gt;sdk</title>
<path fill="none" stroke="black" d="M433.927,-119.991C481.671,-110.77 557.348,-101.647 620,-119 654.965,-128.685 663.03,-136.731 690,-161 707.984,-177.183 724.003,-200.167 733.72,-215.556"/>
<polygon fill="black" stroke="black" points="737.007,-220.856 731.55,-217.18 735.426,-218.307 733.845,-215.757 733.845,-215.757 733.845,-215.757 735.426,-218.307 736.139,-214.334 737.007,-220.856 737.007,-220.856"/>
</g>
<!-- s3 -->
<g id="node32" class="node"><title>s3</title>
<g id="a_node32"><a xlink:title="3">
<path fill="#b4c6e7" stroke="black" stroke-width="2" d="M139.167,-86C139.167,-86 47.8333,-86 47.8333,-86 44.1667,-86 40.5,-82.3333 40.5,-78.6667 40.5,-78.6667 40.5,-71.3333 40.5,-71.3333 40.5,-67.6667 44.1667,-64 47.8333,-64 47.8333,-64 139.167,-64 139.167,-64 142.833,-64 146.5,-67.6667 146.5,-71.3333 146.5,-71.3333 146.5,-78.6667 146.5,-78.6667 146.5,-82.3333 142.833,-86 139.167,-86"/>
<text text-anchor="middle" x="93.5" y="-72.2" font-family="Times New Roman,serif" font-size="11.00">#3 &#45; Artifacts greenlit</text>
</a>
</g>
</g>
<!-- arcade -->
<g id="node33" class="node"><title>arcade</title>
<g id="a_node33"><a xlink:title="3">
<path fill="#b4c6e7" stroke="black" stroke-width="2" d="M220.667,-232C220.667,-232 194.333,-232 194.333,-232 190.667,-232 187,-228.333 187,-224.667 187,-224.667 187,-217.333 187,-217.333 187,-213.667 190.667,-210 194.333,-210 194.333,-210 220.667,-210 220.667,-210 224.333,-210 228,-213.667 228,-217.333 228,-217.333 228,-224.667 228,-224.667 228,-228.333 224.333,-232 220.667,-232"/>
<text text-anchor="middle" x="207.5" y="-218.2" font-family="Times New Roman,serif" font-size="11.00">arcade</text>
</a>
</g>
</g>
<!-- arcade&#45;&gt;aspnetcore -->
<g id="edge3" class="edge"><title>arcade&#45;&gt;aspnetcore</title>
<path fill="none" stroke="black" d="M209.09,-209.915C210.89,-180.753 217.376,-103.041 236,-87 286.249,-43.7211 318.682,-79 385,-79 385,-79 385,-79 489.5,-79 549.909,-79 571.441,-81.0661 620,-117 634.266,-127.557 644.703,-145.189 650.99,-158.247"/>
<polygon fill="black" stroke="black" points="653.585,-163.883 648.623,-159.562 652.33,-161.158 651.076,-158.433 651.076,-158.433 651.076,-158.433 652.33,-161.158 653.528,-157.303 653.585,-163.883 653.585,-163.883"/>
</g>
<!-- arcade&#45;&gt;fsharp -->
<g id="edge12" class="edge"><title>arcade&#45;&gt;fsharp</title>
<path fill="none" stroke="black" d="M226.037,-209.889C229.244,-208.311 232.642,-206.916 236,-206 326.523,-181.312 353.184,-200.556 447,-199 483.884,-198.388 494.098,-190.525 530,-199 533.869,-199.913 534.172,-201.927 538,-203 570.152,-212.016 608.897,-213.674 633.492,-213.646"/>
<polygon fill="black" stroke="black" points="639.732,-213.602 633.751,-216.344 636.732,-213.623 633.732,-213.645 633.732,-213.645 633.732,-213.645 636.732,-213.623 633.713,-210.945 639.732,-213.602 639.732,-213.602"/>
</g>
<!-- arcade&#45;&gt;installer -->
<g id="edge18" class="edge"><title>arcade&#45;&gt;installer</title>
<path fill="none" stroke="black" d="M207.907,-232.045C207.318,-254.521 209.201,-305.989 236,-336 282.915,-388.539 314.563,-390 385,-390 385,-390 385,-390 660,-390 695.279,-390 766.676,-377.416 791,-353 812.974,-330.943 818.477,-293.191 819.746,-271.23"/>
<polygon fill="black" stroke="black" points="820.01,-265.219 822.444,-271.332 819.878,-268.216 819.747,-271.213 819.747,-271.213 819.747,-271.213 819.878,-268.216 817.049,-271.095 820.01,-265.219 820.01,-265.219"/>
</g>
<!-- arcade&#45;&gt;msbuild -->
<g id="edge34" class="edge"><title>arcade&#45;&gt;msbuild</title>
<path fill="none" stroke="black" d="M214.87,-232.092C219.661,-239.238 226.945,-247.928 236,-252 291.851,-277.114 479.74,-261.107 550.624,-253.941"/>
<polygon fill="black" stroke="black" points="556.716,-253.318 551.022,-256.615 553.731,-253.623 550.747,-253.929 550.747,-253.929 550.747,-253.929 553.731,-253.623 550.472,-251.243 556.716,-253.318 556.716,-253.318"/>
</g>
<!-- arcade&#45;&gt;roslyn -->
<g id="edge43" class="edge"><title>arcade&#45;&gt;roslyn</title>
<path fill="none" stroke="black" d="M208.021,-209.701C207.87,-189.765 210.823,-148.693 236,-130 251.879,-118.21 308.955,-118.436 325,-130 334.121,-136.574 324.889,-146.214 333,-154 340.522,-161.22 351.293,-164.999 361.084,-166.964"/>
<polygon fill="black" stroke="black" points="367.015,-167.967 360.649,-169.629 364.057,-167.467 361.099,-166.967 361.099,-166.967 361.099,-166.967 364.057,-167.467 361.55,-164.304 367.015,-167.967 367.015,-167.967"/>
</g>
<!-- arcade&#45;&gt;runtime&#45;portable -->
<g id="edge47" class="edge"><title>arcade&#45;&gt;runtime&#45;portable</title>
<path fill="none" stroke="black" d="M228.019,-218.083C230.699,-217.706 233.416,-217.334 236,-217 325.608,-205.405 348.877,-199.53 439,-206 439.477,-206.034 439.957,-206.07 440.439,-206.108"/>
<polygon fill="black" stroke="black" points="446.794,-206.693 440.572,-208.832 443.807,-206.418 440.819,-206.143 440.819,-206.143 440.819,-206.143 443.807,-206.418 441.067,-203.455 446.794,-206.693 446.794,-206.693"/>
</g>
<!-- arcade&#45;&gt;runtime -->
<g id="edge52" class="edge"><title>arcade&#45;&gt;runtime</title>
<path fill="none" stroke="black" d="M228.407,-221.08C251.696,-221.43 291.355,-222.829 325,-228 328.622,-228.557 329.379,-229.435 333,-230 377.133,-236.887 429.073,-239.047 460.087,-239.714"/>
<polygon fill="black" stroke="black" points="466.377,-239.835 460.326,-242.419 463.378,-239.778 460.378,-239.72 460.378,-239.72 460.378,-239.72 463.378,-239.778 460.43,-237.02 466.377,-239.835 466.377,-239.835"/>
</g>
<!-- arcade&#45;&gt;sdk -->
<g id="edge58" class="edge"><title>arcade&#45;&gt;sdk</title>
<path fill="none" stroke="black" d="M208.82,-209.63C209.984,-177.135 215.101,-84.9261 236,-65 284.317,-18.9328 318.242,-46 385,-46 385,-46 385,-46 489.5,-46 580.455,-46 623.314,-25.1471 690,-87 727.128,-121.437 738.59,-183.904 742.05,-214.357"/>
<polygon fill="black" stroke="black" points="742.705,-220.691 739.402,-215.001 742.397,-217.707 742.088,-214.723 742.088,-214.723 742.088,-214.723 742.397,-217.707 744.773,-214.445 742.705,-220.691 742.705,-220.691"/>
</g>
<!-- arcade&#45;&gt;aspnet&#45;xdt -->
<g id="edge2" class="edge"><title>arcade&#45;&gt;aspnet&#45;xdt</title>
<path fill="none" stroke="black" d="M215.595,-232.149C221.066,-240.669 228.877,-252.667 236,-263 246.351,-278.016 258.576,-294.799 267.426,-306.788"/>
<polygon fill="black" stroke="black" points="270.997,-311.613 265.257,-308.397 269.212,-309.202 267.428,-306.79 267.428,-306.79 267.428,-306.79 269.212,-309.202 269.598,-305.184 270.997,-311.613 270.997,-311.613"/>
</g>
<!-- arcade&#45;&gt;clicommandlineparser -->
<g id="edge9" class="edge"><title>arcade&#45;&gt;clicommandlineparser</title>
<path fill="none" stroke="black" d="M208.266,-232.03C207.688,-270.87 207.93,-400.444 236,-428 259.34,-450.913 295.654,-455.432 326.588,-454.092"/>
<polygon fill="black" stroke="black" points="332.697,-453.75 326.858,-456.781 329.702,-453.917 326.707,-454.085 326.707,-454.085 326.707,-454.085 329.702,-453.917 326.556,-451.39 332.697,-453.75 332.697,-453.75"/>
</g>
<!-- arcade&#45;&gt;command&#45;line&#45;api -->
<g id="edge10" class="edge"><title>arcade&#45;&gt;command&#45;line&#45;api</title>
<path fill="none" stroke="black" d="M214.345,-209.859C219.161,-201.663 226.7,-190.807 236,-184 236.242,-183.823 236.486,-183.648 236.732,-183.475"/>
<polygon fill="black" stroke="black" points="242.174,-180.121 238.483,-185.568 239.62,-181.695 237.066,-183.269 237.066,-183.269 237.066,-183.269 239.62,-181.695 235.649,-180.971 242.174,-180.121 242.174,-180.121"/>
</g>
<!-- arcade&#45;&gt;symreader -->
<g id="edge68" class="edge"><title>arcade&#45;&gt;symreader</title>
<path fill="none" stroke="black" d="M228.277,-226.293C233.755,-227.758 239.859,-229.392 245.89,-231.006"/>
<polygon fill="black" stroke="black" points="251.87,-232.606 245.376,-233.663 248.972,-231.831 246.074,-231.055 246.074,-231.055 246.074,-231.055 248.972,-231.831 246.772,-228.447 251.87,-232.606 251.87,-232.606"/>
</g>
<!-- arcade&#45;&gt;test&#45;templates -->
<g id="edge71" class="edge"><title>arcade&#45;&gt;test&#45;templates</title>
<path fill="none" stroke="black" d="M208.932,-232.299C210.446,-266.528 216.523,-368.313 236,-394 237.441,-395.9 239.105,-397.625 240.924,-399.191"/>
<polygon fill="black" stroke="black" points="246.055,-402.975 239.624,-401.587 243.641,-401.195 241.226,-399.414 241.226,-399.414 241.226,-399.414 243.641,-401.195 242.828,-397.241 246.055,-402.975 246.055,-402.975"/>
</g>
<!-- source&#45;build&#45;reference&#45;packages -->
<g id="node34" class="node"><title>source&#45;build&#45;reference&#45;packages</title>
<g id="a_node34"><a xlink:title="3">
<path fill="#b4c6e7" stroke="black" stroke-width="2" d="M163.667,-259C163.667,-259 23.3333,-259 23.3333,-259 19.6667,-259 16,-255.333 16,-251.667 16,-251.667 16,-244.333 16,-244.333 16,-240.667 19.6667,-237 23.3333,-237 23.3333,-237 163.667,-237 163.667,-237 167.333,-237 171,-240.667 171,-244.333 171,-244.333 171,-251.667 171,-251.667 171,-255.333 167.333,-259 163.667,-259"/>
<text text-anchor="middle" x="93.5" y="-245.2" font-family="Times New Roman,serif" font-size="11.00">source&#45;build&#45;reference&#45;packages</text>
</a>
</g>
</g>
<!-- sourcelink -->
<g id="node35" class="node"><title>sourcelink</title>
<g id="a_node35"><a xlink:title="3">
<path fill="#b4c6e7" stroke="black" stroke-width="2" d="M113.667,-232C113.667,-232 73.3333,-232 73.3333,-232 69.6667,-232 66,-228.333 66,-224.667 66,-224.667 66,-217.333 66,-217.333 66,-213.667 69.6667,-210 73.3333,-210 73.3333,-210 113.667,-210 113.667,-210 117.333,-210 121,-213.667 121,-217.333 121,-217.333 121,-224.667 121,-224.667 121,-228.333 117.333,-232 113.667,-232"/>
<text text-anchor="middle" x="93.5" y="-218.2" font-family="Times New Roman,serif" font-size="11.00">sourcelink</text>
</a>
</g>
</g>
<!-- sourcelink&#45;&gt;arcade -->
<g id="edge1" class="edge"><title>sourcelink&#45;&gt;arcade</title>
<path fill="none" stroke="black" d="M121.042,-221C139.017,-221 162.653,-221 180.51,-221"/>
<polygon fill="black" stroke="black" points="186.807,-221 180.807,-223.7 183.807,-221 180.807,-221 180.807,-221 180.807,-221 183.807,-221 180.807,-218.3 186.807,-221 186.807,-221"/>
</g>
<!-- s4 -->
<g id="node36" class="node"><title>s4</title>
<g id="a_node36"><a xlink:title="4">
<polygon fill="#cfafe7" stroke="black" stroke-width="2" points="171,-59 16,-59 16,-37 171,-37 171,-59"/>
<text text-anchor="middle" x="93.5" y="-45.2" font-family="Times New Roman,serif" font-size="11.00">#4 &#45; Prebuilt regressions blocked</text>
</a>
</g>
</g>
</g>
</svg>
