<?xml version="1.0" encoding="UTF-8" standalone="no"?>
<!DOCTYPE svg PUBLIC "-//W3C//DTD SVG 1.1//EN"
 "http://www.w3.org/Graphics/SVG/1.1/DTD/svg11.dtd">
<!-- Generated by graphviz version 2.38.0 (20140413.2041)
 -->
<!-- Title: %3 Pages: 1 -->
<svg width="851pt" height="482pt"
 viewBox="0.00 0.00 851.00 482.16" xmlns="http://www.w3.org/2000/svg" xmlns:xlink="http://www.w3.org/1999/xlink">
<g id="graph0" class="graph" transform="scale(1 1) rotate(0) translate(4 478.157)">
<title>%3</title>
<polygon fill="white" stroke="none" points="-4,4 -4,-478.157 847,-478.157 847,4 -4,4"/>
<g id="clust1" class="cluster"><title>clusterLegend</title>
<polygon fill="#ebebeb" stroke="#ebebeb" points="8,-37 8,-210 179,-210 179,-37 8,-37"/>
</g>
<!-- pre0 -->
<g id="node1" class="node"><title>pre0</title>
<g id="a_node1"><a xlink:title="Built">
<path fill="#f5f5f5" stroke="black" stroke-dasharray="1,5" d="M115.167,-202C115.167,-202 71.8333,-202 71.8333,-202 68.1667,-202 64.5,-198.333 64.5,-194.667 64.5,-194.667 64.5,-187.333 64.5,-187.333 64.5,-183.667 68.1667,-180 71.8333,-180 71.8333,-180 115.167,-180 115.167,-180 118.833,-180 122.5,-183.667 122.5,-187.333 122.5,-187.333 122.5,-194.667 122.5,-194.667 122.5,-198.333 118.833,-202 115.167,-202"/>
<text text-anchor="middle" x="93.5" y="-188.2" font-family="Times New Roman,serif" font-size="11.00">Built in 5.0</text>
</a>
</g>
</g>
<!-- aspnetcore -->
<g id="node2" class="node"><title>aspnetcore</title>
<g id="a_node2"><a xlink:title="Built">
<path fill="#f5f5f5" stroke="black" stroke-dasharray="1,5" d="M681.167,-161C681.167,-161 636.833,-161 636.833,-161 633.167,-161 629.5,-157.333 629.5,-153.667 629.5,-153.667 629.5,-146.333 629.5,-146.333 629.5,-142.667 633.167,-139 636.833,-139 636.833,-139 681.167,-139 681.167,-139 684.833,-139 688.5,-142.667 688.5,-146.333 688.5,-146.333 688.5,-153.667 688.5,-153.667 688.5,-157.333 684.833,-161 681.167,-161"/>
<text text-anchor="middle" x="659" y="-147.2" font-family="Times New Roman,serif" font-size="11.00">aspnetcore</text>
</a>
</g>
</g>
<!-- installer -->
<g id="node5" class="node"><title>installer</title>
<g id="a_node5"><a xlink:title="Built">
<path fill="#f5f5f5" stroke="black" stroke-dasharray="1,5" d="M835.667,-276C835.667,-276 806.333,-276 806.333,-276 802.667,-276 799,-272.333 799,-268.667 799,-268.667 799,-261.333 799,-261.333 799,-257.667 802.667,-254 806.333,-254 806.333,-254 835.667,-254 835.667,-254 839.333,-254 843,-257.667 843,-261.333 843,-261.333 843,-268.667 843,-268.667 843,-272.333 839.333,-276 835.667,-276"/>
<text text-anchor="middle" x="821" y="-262.2" font-family="Times New Roman,serif" font-size="11.00">installer</text>
</a>
</g>
</g>
<!-- aspnetcore&#45;&gt;installer -->
<g id="edge19" class="edge"><title>aspnetcore&#45;&gt;installer</title>
<path fill="none" stroke="black" d="M688.616,-151.339C717.843,-154.184 762.815,-162.858 791,-189 807.545,-204.346 814.734,-230.144 817.801,-247.367"/>
<polygon fill="black" stroke="black" points="818.817,-253.729 815.205,-248.229 818.344,-250.766 817.871,-247.804 817.871,-247.804 817.871,-247.804 818.344,-250.766 820.537,-247.378 818.817,-253.729 818.817,-253.729"/>
</g>
<!-- common -->
<g id="node3" class="node"><title>common</title>
<g id="a_node3"><a xlink:title="Built">
<path fill="#f5f5f5" stroke="black" stroke-dasharray="1,5" d="M505.167,-371C505.167,-371 471.833,-371 471.833,-371 468.167,-371 464.5,-367.333 464.5,-363.667 464.5,-363.667 464.5,-356.333 464.5,-356.333 464.5,-352.667 468.167,-349 471.833,-349 471.833,-349 505.167,-349 505.167,-349 508.833,-349 512.5,-352.667 512.5,-356.333 512.5,-356.333 512.5,-363.667 512.5,-363.667 512.5,-367.333 508.833,-371 505.167,-371"/>
<text text-anchor="middle" x="488.5" y="-357.2" font-family="Times New Roman,serif" font-size="11.00">common</text>
</a>
</g>
</g>
<!-- nuget&#45;client -->
<g id="node7" class="node"><title>nuget&#45;client</title>
<g id="a_node7"><a xlink:title="Built">
<path fill="#f5f5f5" stroke="black" stroke-dasharray="1,5" d="M682.667,-356C682.667,-356 635.333,-356 635.333,-356 631.667,-356 628,-352.333 628,-348.667 628,-348.667 628,-341.333 628,-341.333 628,-337.667 631.667,-334 635.333,-334 635.333,-334 682.667,-334 682.667,-334 686.333,-334 690,-337.667 690,-341.333 690,-341.333 690,-348.667 690,-348.667 690,-352.333 686.333,-356 682.667,-356"/>
<text text-anchor="middle" x="659" y="-342.2" font-family="Times New Roman,serif" font-size="11.00">nuget&#45;client</text>
</a>
</g>
</g>
<!-- common&#45;&gt;nuget&#45;client -->
<g id="edge37" class="edge"><title>common&#45;&gt;nuget&#45;client</title>
<path fill="none" stroke="black" d="M512.576,-357.946C540.747,-355.438 588.715,-351.168 621.813,-348.221"/>
<polygon fill="black" stroke="black" points="627.812,-347.687 622.075,-350.909 624.824,-347.953 621.835,-348.219 621.835,-348.219 621.835,-348.219 624.824,-347.953 621.596,-345.53 627.812,-347.687 627.812,-347.687"/>
</g>
<!-- fsharp -->
<g id="node4" class="node"><title>fsharp</title>
<g id="a_node4"><a xlink:title="Built">
<path fill="#f5f5f5" stroke="black" stroke-dasharray="1,5" d="M670.667,-267C670.667,-267 647.333,-267 647.333,-267 643.667,-267 640,-263.333 640,-259.667 640,-259.667 640,-252.333 640,-252.333 640,-248.667 643.667,-245 647.333,-245 647.333,-245 670.667,-245 670.667,-245 674.333,-245 678,-248.667 678,-252.333 678,-252.333 678,-259.667 678,-259.667 678,-263.333 674.333,-267 670.667,-267"/>
<text text-anchor="middle" x="659" y="-253.2" font-family="Times New Roman,serif" font-size="11.00">fsharp</text>
</a>
</g>
</g>
<!-- fsharp&#45;&gt;installer -->
<g id="edge21" class="edge"><title>fsharp&#45;&gt;installer</title>
<path fill="none" stroke="black" d="M678.043,-257.015C706.009,-258.588 760.002,-261.625 792.741,-263.467"/>
<polygon fill="black" stroke="black" points="798.991,-263.818 792.849,-266.177 795.996,-263.65 793,-263.481 793,-263.481 793,-263.481 795.996,-263.65 793.152,-260.785 798.991,-263.818 798.991,-263.818"/>
</g>
<!-- sdk -->
<g id="node12" class="node"><title>sdk</title>
<g id="a_node12"><a xlink:title="Built">
<path fill="#f5f5f5" stroke="black" stroke-dasharray="1,5" d="M750.167,-257C750.167,-257 738.833,-257 738.833,-257 735.167,-257 731.5,-253.333 731.5,-249.667 731.5,-249.667 731.5,-242.333 731.5,-242.333 731.5,-238.667 735.167,-235 738.833,-235 738.833,-235 750.167,-235 750.167,-235 753.833,-235 757.5,-238.667 757.5,-242.333 757.5,-242.333 757.5,-249.667 757.5,-249.667 757.5,-253.333 753.833,-257 750.167,-257"/>
<text text-anchor="middle" x="744.5" y="-243.2" font-family="Times New Roman,serif" font-size="11.00">sdk</text>
</a>
</g>
</g>
<!-- fsharp&#45;&gt;sdk -->
<g id="edge67" class="edge"><title>fsharp&#45;&gt;sdk</title>
<path fill="none" stroke="black" d="M678.118,-253.83C692.094,-252.156 711.338,-249.852 725.327,-248.176"/>
<polygon fill="black" stroke="black" points="731.347,-247.455 725.711,-250.85 728.369,-247.812 725.39,-248.169 725.39,-248.169 725.39,-248.169 728.369,-247.812 725.069,-245.488 731.347,-247.455 731.347,-247.455"/>
</g>
<!-- msbuild -->
<g id="node6" class="node"><title>msbuild</title>
<g id="a_node6"><a xlink:title="Built">
<path fill="#f5f5f5" stroke="black" stroke-dasharray="1,5" d="M593.667,-207C593.667,-207 564.333,-207 564.333,-207 560.667,-207 557,-203.333 557,-199.667 557,-199.667 557,-192.333 557,-192.333 557,-188.667 560.667,-185 564.333,-185 564.333,-185 593.667,-185 593.667,-185 597.333,-185 601,-188.667 601,-192.333 601,-192.333 601,-199.667 601,-199.667 601,-203.333 597.333,-207 593.667,-207"/>
<text text-anchor="middle" x="579" y="-193.2" font-family="Times New Roman,serif" font-size="11.00">msbuild</text>
</a>
</g>
</g>
<!-- msbuild&#45;&gt;aspnetcore -->
<g id="edge6" class="edge"><title>msbuild&#45;&gt;aspnetcore</title>
<path fill="none" stroke="black" d="M601.344,-189.453C607.55,-187.167 614.212,-184.326 620,-181 627.647,-176.606 635.328,-170.692 641.763,-165.207"/>
<polygon fill="black" stroke="black" points="646.42,-161.129 643.685,-167.113 644.163,-163.106 641.906,-165.082 641.906,-165.082 641.906,-165.082 644.163,-163.106 640.127,-163.051 646.42,-161.129 646.42,-161.129"/>
</g>
<!-- msbuild&#45;&gt;fsharp -->
<g id="edge13" class="edge"><title>msbuild&#45;&gt;fsharp</title>
<path fill="none" stroke="black" d="M594.306,-207.005C606.762,-216.587 624.928,-230.56 638.674,-241.134"/>
<polygon fill="black" stroke="black" points="643.52,-244.862 637.118,-243.343 641.142,-243.033 638.764,-241.203 638.764,-241.203 638.764,-241.203 641.142,-243.033 640.411,-239.063 643.52,-244.862 643.52,-244.862"/>
</g>
<!-- msbuild&#45;&gt;installer -->
<g id="edge22" class="edge"><title>msbuild&#45;&gt;installer</title>
<path fill="none" stroke="black" d="M601.02,-189.598C641.591,-178.598 731.895,-160.849 791,-200 807.045,-210.628 814.301,-232.384 817.523,-247.793"/>
<polygon fill="black" stroke="black" points="818.671,-253.957 814.918,-248.553 818.122,-251.008 817.572,-248.059 817.572,-248.059 817.572,-248.059 818.122,-251.008 820.227,-247.564 818.671,-253.957 818.671,-253.957"/>
</g>
<!-- msbuild&#45;&gt;nuget&#45;client -->
<g id="edge39" class="edge"><title>msbuild&#45;&gt;nuget&#45;client</title>
<path fill="none" stroke="black" d="M587.126,-207.366C595.396,-220.721 609.269,-243.645 620,-264 631.484,-285.783 643.318,-311.649 650.663,-328.189"/>
<polygon fill="black" stroke="black" points="653.158,-333.835 648.263,-329.438 651.946,-331.091 650.733,-328.347 650.733,-328.347 650.733,-328.347 651.946,-331.091 653.203,-327.256 653.158,-333.835 653.158,-333.835"/>
</g>
<!-- msbuild&#45;&gt;sdk -->
<g id="edge61" class="edge"><title>msbuild&#45;&gt;sdk</title>
<path fill="none" stroke="black" d="M601.01,-199.734C623.396,-203.997 659.708,-211.729 690,-222 702.25,-226.153 715.519,-232.096 725.779,-237.029"/>
<polygon fill="black" stroke="black" points="731.441,-239.796 724.865,-239.587 728.745,-238.479 726.05,-237.162 726.05,-237.162 726.05,-237.162 728.745,-238.479 727.235,-234.736 731.441,-239.796 731.441,-239.796"/>
</g>
<!-- nuget&#45;client&#45;&gt;installer -->
<g id="edge26" class="edge"><title>nuget&#45;client&#45;&gt;installer</title>
<path fill="none" stroke="black" d="M690.015,-347.321C718.669,-347.968 761.704,-344.666 791,-323 804.224,-313.22 811.799,-295.714 815.866,-282.484"/>
<polygon fill="black" stroke="black" points="817.59,-276.386 818.556,-282.894 816.774,-279.273 815.958,-282.16 815.958,-282.16 815.958,-282.16 816.774,-279.273 813.36,-281.425 817.59,-276.386 817.59,-276.386"/>
</g>
<!-- nuget&#45;client&#45;&gt;sdk -->
<g id="edge64" class="edge"><title>nuget&#45;client&#45;&gt;sdk</title>
<path fill="none" stroke="black" d="M670.435,-333.839C676.278,-327.512 683.645,-319.402 690,-312 704.251,-295.403 719.947,-275.884 730.629,-262.4"/>
<polygon fill="black" stroke="black" points="734.603,-257.37 733.002,-263.752 732.744,-259.724 730.884,-262.078 730.884,-262.078 730.884,-262.078 732.744,-259.724 728.765,-260.404 734.603,-257.37 734.603,-257.37"/>
</g>
<!-- roslyn&#45;analyzers -->
<g id="node8" class="node"><title>roslyn&#45;analyzers</title>
<g id="a_node8"><a xlink:title="Built">
<path fill="#f5f5f5" stroke="black" stroke-dasharray="1,5" d="M612.667,-180C612.667,-180 545.333,-180 545.333,-180 541.667,-180 538,-176.333 538,-172.667 538,-172.667 538,-165.333 538,-165.333 538,-161.667 541.667,-158 545.333,-158 545.333,-158 612.667,-158 612.667,-158 616.333,-158 620,-161.667 620,-165.333 620,-165.333 620,-172.667 620,-172.667 620,-176.333 616.333,-180 612.667,-180"/>
<text text-anchor="middle" x="579" y="-166.2" font-family="Times New Roman,serif" font-size="11.00">roslyn&#45;analyzers</text>
</a>
</g>
</g>
<!-- roslyn&#45;analyzers&#45;&gt;aspnetcore -->
<g id="edge8" class="edge"><title>roslyn&#45;analyzers&#45;&gt;aspnetcore</title>
<path fill="none" stroke="black" d="M620.371,-159.166C621.3,-158.94 622.228,-158.714 623.154,-158.488"/>
<polygon fill="black" stroke="black" points="629.191,-157.018 624.001,-161.061 626.276,-157.728 623.362,-158.438 623.362,-158.438 623.362,-158.438 626.276,-157.728 622.723,-155.814 629.191,-157.018 629.191,-157.018"/>
</g>
<!-- roslyn&#45;analyzers&#45;&gt;sdk -->
<g id="edge65" class="edge"><title>roslyn&#45;analyzers&#45;&gt;sdk</title>
<path fill="none" stroke="black" d="M620.256,-178.649C641.675,-184.644 668.047,-193.429 690,-205 703.344,-212.034 716.815,-222.38 726.901,-230.919"/>
<polygon fill="black" stroke="black" points="731.565,-234.943 725.259,-233.068 729.294,-232.983 727.022,-231.023 727.022,-231.023 727.022,-231.023 729.294,-232.983 728.786,-228.979 731.565,-234.943 731.565,-234.943"/>
</g>
<!-- roslyn -->
<g id="node9" class="node"><title>roslyn</title>
<g id="a_node9"><a xlink:title="Built">
<path fill="#f5f5f5" stroke="black" stroke-dasharray="1,5" d="M397.167,-171C397.167,-171 374.833,-171 374.833,-171 371.167,-171 367.5,-167.333 367.5,-163.667 367.5,-163.667 367.5,-156.333 367.5,-156.333 367.5,-152.667 371.167,-149 374.833,-149 374.833,-149 397.167,-149 397.167,-149 400.833,-149 404.5,-152.667 404.5,-156.333 404.5,-156.333 404.5,-163.667 404.5,-163.667 404.5,-167.333 400.833,-171 397.167,-171"/>
<text text-anchor="middle" x="386" y="-157.2" font-family="Times New Roman,serif" font-size="11.00">roslyn</text>
</a>
</g>
</g>
<!-- roslyn&#45;&gt;aspnetcore -->
<g id="edge7" class="edge"><title>roslyn&#45;&gt;aspnetcore</title>
<path fill="none" stroke="black" d="M404.532,-157.598C443.344,-152.577 539.467,-141.773 620,-146 621.048,-146.055 622.111,-146.118 623.183,-146.189"/>
<polygon fill="black" stroke="black" points="629.392,-146.664 623.203,-148.898 626.4,-146.435 623.409,-146.206 623.409,-146.206 623.409,-146.206 626.4,-146.435 623.615,-143.514 629.392,-146.664 629.392,-146.664"/>
</g>
<!-- roslyn&#45;&gt;installer -->
<g id="edge27" class="edge"><title>roslyn&#45;&gt;installer</title>
<path fill="none" stroke="black" d="M401.924,-148.737C432.947,-126.481 507.404,-79 578,-79 578,-79 578,-79 660,-79 726.652,-79 752.186,-97.8156 791,-152 811.915,-181.198 817.77,-224.165 819.393,-247.816"/>
<polygon fill="black" stroke="black" points="819.747,-253.947 816.705,-248.113 819.574,-250.952 819.401,-247.957 819.401,-247.957 819.401,-247.957 819.574,-250.952 822.096,-247.801 819.747,-253.947 819.747,-253.947"/>
</g>
<!-- roslyn&#45;&gt;msbuild -->
<g id="edge36" class="edge"><title>roslyn&#45;&gt;msbuild</title>
<path fill="none" stroke="black" d="M404.83,-161.171C432.104,-163.229 485.685,-168.332 530,-179 536.844,-180.648 544.074,-182.915 550.788,-185.257"/>
<polygon fill="black" stroke="black" points="556.783,-187.413 550.223,-187.923 553.96,-186.398 551.137,-185.382 551.137,-185.382 551.137,-185.382 553.96,-186.398 552.051,-182.842 556.783,-187.413 556.783,-187.413"/>
</g>
<!-- roslyn&#45;&gt;roslyn&#45;analyzers -->
<g id="edge42" class="edge"><title>roslyn&#45;&gt;roslyn&#45;analyzers</title>
<path fill="none" stroke="black" d="M404.626,-160.831C433.263,-162.18 490.804,-164.891 531.736,-166.82"/>
<polygon fill="black" stroke="black" points="537.902,-167.111 531.781,-169.525 534.905,-166.969 531.909,-166.828 531.909,-166.828 531.909,-166.828 534.905,-166.969 532.036,-164.131 537.902,-167.111 537.902,-167.111"/>
</g>
<!-- runtime&#45;portable -->
<g id="node10" class="node"><title>runtime&#45;portable</title>
<g id="a_node10"><a xlink:title="Built">
<path fill="#f5f5f5" stroke="black" stroke-dasharray="1,5" d="M522.667,-229C522.667,-229 454.333,-229 454.333,-229 450.667,-229 447,-225.333 447,-221.667 447,-221.667 447,-214.333 447,-214.333 447,-210.667 450.667,-207 454.333,-207 454.333,-207 522.667,-207 522.667,-207 526.333,-207 530,-210.667 530,-214.333 530,-214.333 530,-221.667 530,-221.667 530,-225.333 526.333,-229 522.667,-229"/>
<text text-anchor="middle" x="488.5" y="-215.2" font-family="Times New Roman,serif" font-size="11.00">runtime&#45;portable</text>
</a>
</g>
</g>
<!-- roslyn&#45;&gt;runtime&#45;portable -->
<g id="edge51" class="edge"><title>roslyn&#45;&gt;runtime&#45;portable</title>
<path fill="none" stroke="black" d="M404.209,-171.2C414.509,-178.077 427.743,-187.224 439,-196 442.726,-198.905 442.94,-200.584 447,-203 447.58,-203.345 448.169,-203.684 448.766,-204.018"/>
<polygon fill="black" stroke="black" points="454.317,-206.865 447.746,-206.529 451.647,-205.496 448.978,-204.127 448.978,-204.127 448.978,-204.127 451.647,-205.496 450.21,-201.724 454.317,-206.865 454.317,-206.865"/>
</g>
<!-- runtime -->
<g id="node11" class="node"><title>runtime</title>
<g id="a_node11"><a xlink:title="Built">
<path fill="#f5f5f5" stroke="black" stroke-dasharray="1,5" d="M503.167,-202C503.167,-202 473.833,-202 473.833,-202 470.167,-202 466.5,-198.333 466.5,-194.667 466.5,-194.667 466.5,-187.333 466.5,-187.333 466.5,-183.667 470.167,-180 473.833,-180 473.833,-180 503.167,-180 503.167,-180 506.833,-180 510.5,-183.667 510.5,-187.333 510.5,-187.333 510.5,-194.667 510.5,-194.667 510.5,-198.333 506.833,-202 503.167,-202"/>
<text text-anchor="middle" x="488.5" y="-188.2" font-family="Times New Roman,serif" font-size="11.00">runtime</text>
</a>
</g>
</g>
<!-- roslyn&#45;&gt;runtime -->
<g id="edge57" class="edge"><title>roslyn&#45;&gt;runtime</title>
<path fill="none" stroke="black" d="M404.811,-165.473C414.853,-168.561 427.628,-172.492 439,-176 445.974,-178.152 453.512,-180.481 460.518,-182.648"/>
<polygon fill="black" stroke="black" points="466.254,-184.422 459.725,-185.228 463.388,-183.535 460.522,-182.649 460.522,-182.649 460.522,-182.649 463.388,-183.535 461.32,-180.069 466.254,-184.422 466.254,-184.422"/>
</g>
<!-- runtime&#45;&gt;aspnetcore -->
<g id="edge5" class="edge"><title>runtime&#45;&gt;aspnetcore</title>
<path fill="none" stroke="black" d="M501.196,-179.965C510.417,-172.016 524.015,-161.866 538,-157 565.437,-147.454 598.516,-146.219 622.99,-147.08"/>
<polygon fill="black" stroke="black" points="629.018,-147.341 622.907,-149.779 626.021,-147.211 623.024,-147.082 623.024,-147.082 623.024,-147.082 626.021,-147.211 623.14,-144.384 629.018,-147.341 629.018,-147.341"/>
</g>
<!-- runtime&#45;&gt;installer -->
<g id="edge28" class="edge"><title>runtime&#45;&gt;installer</title>
<path fill="none" stroke="black" d="M510.904,-199.761C519.232,-202.834 528.936,-206.013 538,-208 648.328,-232.192 690.411,-180.625 791,-232 798.429,-235.794 804.804,-242.37 809.669,-248.658"/>
<polygon fill="black" stroke="black" points="813.391,-253.805 807.687,-250.525 811.633,-251.374 809.875,-248.943 809.875,-248.943 809.875,-248.943 811.633,-251.374 812.063,-247.361 813.391,-253.805 813.391,-253.805"/>
</g>
<!-- runtime&#45;&gt;msbuild -->
<g id="edge35" class="edge"><title>runtime&#45;&gt;msbuild</title>
<path fill="none" stroke="black" d="M510.923,-192.21C522.881,-192.886 537.901,-193.735 550.695,-194.457"/>
<polygon fill="black" stroke="black" points="556.774,-194.801 550.631,-197.158 553.779,-194.632 550.783,-194.462 550.783,-194.462 550.783,-194.462 553.779,-194.632 550.936,-191.767 556.774,-194.801 556.774,-194.801"/>
</g>
<!-- runtime&#45;&gt;roslyn&#45;analyzers -->
<g id="edge41" class="edge"><title>runtime&#45;&gt;roslyn&#45;analyzers</title>
<path fill="none" stroke="black" d="M510.923,-185.674C517.238,-184.105 524.407,-182.323 531.65,-180.522"/>
<polygon fill="black" stroke="black" points="537.736,-179.009 532.564,-183.077 534.824,-179.733 531.913,-180.457 531.913,-180.457 531.913,-180.457 534.824,-179.733 531.261,-177.837 537.736,-179.009 537.736,-179.009"/>
</g>
<!-- runtime&#45;&gt;sdk -->
<g id="edge60" class="edge"><title>runtime&#45;&gt;sdk</title>
<path fill="none" stroke="black" d="M510.663,-195.905C517.348,-198.185 524.434,-201.435 530,-206 535.246,-210.302 532.236,-215.422 538,-219 566.82,-236.889 656.541,-227.425 690,-233 701.868,-234.978 715,-238.153 725.283,-240.871"/>
<polygon fill="black" stroke="black" points="731.281,-242.489 724.785,-243.533 728.384,-241.708 725.488,-240.926 725.488,-240.926 725.488,-240.926 728.384,-241.708 726.191,-238.319 731.281,-242.489 731.281,-242.489"/>
</g>
<!-- vstest -->
<g id="node14" class="node"><title>vstest</title>
<g id="a_node14"><a xlink:title="Built">
<path fill="#f5f5f5" stroke="black" stroke-dasharray="1,5" d="M589.667,-289C589.667,-289 568.333,-289 568.333,-289 564.667,-289 561,-285.333 561,-281.667 561,-281.667 561,-274.333 561,-274.333 561,-270.667 564.667,-267 568.333,-267 568.333,-267 589.667,-267 589.667,-267 593.333,-267 597,-270.667 597,-274.333 597,-274.333 597,-281.667 597,-281.667 597,-285.333 593.333,-289 589.667,-289"/>
<text text-anchor="middle" x="579" y="-275.2" font-family="Times New Roman,serif" font-size="11.00">vstest</text>
</a>
</g>
</g>
<!-- runtime&#45;&gt;vstest -->
<g id="edge73" class="edge"><title>runtime&#45;&gt;vstest</title>
<path fill="none" stroke="black" d="M510.9,-195.054C517.758,-197.283 524.89,-200.719 530,-206 537.818,-214.08 532.528,-220.178 538,-230 544.503,-241.674 554.01,-253.227 562.123,-262.073"/>
<polygon fill="black" stroke="black" points="566.46,-266.693 560.385,-264.166 564.407,-264.505 562.353,-262.318 562.353,-262.318 562.353,-262.318 564.407,-264.505 564.322,-260.47 566.46,-266.693 566.46,-266.693"/>
</g>
<!-- sdk&#45;&gt;installer -->
<g id="edge29" class="edge"><title>sdk&#45;&gt;installer</title>
<path fill="none" stroke="black" d="M757.802,-249.137C767.304,-251.561 780.815,-255.007 792.818,-258.068"/>
<polygon fill="black" stroke="black" points="798.928,-259.626 792.447,-260.759 796.021,-258.885 793.114,-258.143 793.114,-258.143 793.114,-258.143 796.021,-258.885 793.782,-255.527 798.928,-259.626 798.928,-259.626"/>
</g>
<!-- templating -->
<g id="node13" class="node"><title>templating</title>
<g id="a_node13"><a xlink:title="Built">
<path fill="#f5f5f5" stroke="black" stroke-dasharray="1,5" d="M509.167,-431C509.167,-431 467.833,-431 467.833,-431 464.167,-431 460.5,-427.333 460.5,-423.667 460.5,-423.667 460.5,-416.333 460.5,-416.333 460.5,-412.667 464.167,-409 467.833,-409 467.833,-409 509.167,-409 509.167,-409 512.833,-409 516.5,-412.667 516.5,-416.333 516.5,-416.333 516.5,-423.667 516.5,-423.667 516.5,-427.333 512.833,-431 509.167,-431"/>
<text text-anchor="middle" x="488.5" y="-417.2" font-family="Times New Roman,serif" font-size="11.00">templating</text>
</a>
</g>
</g>
<!-- templating&#45;&gt;installer -->
<g id="edge30" class="edge"><title>templating&#45;&gt;installer</title>
<path fill="none" stroke="black" d="M516.74,-422.698C583.049,-428.65 750.395,-439.769 791,-405 809.383,-389.259 816.587,-316.268 818.976,-282.377"/>
<polygon fill="black" stroke="black" points="819.392,-276.149 821.686,-282.316 819.192,-279.142 818.992,-282.136 818.992,-282.136 818.992,-282.136 819.192,-279.142 816.298,-281.956 819.392,-276.149 819.392,-276.149"/>
</g>
<!-- vstest&#45;&gt;installer -->
<g id="edge32" class="edge"><title>vstest&#45;&gt;installer</title>
<path fill="none" stroke="black" d="M597.161,-278.284C618.815,-278.541 657.193,-278.66 690,-277 725.626,-275.197 766.581,-271.075 792.849,-268.168"/>
<polygon fill="black" stroke="black" points="798.873,-267.493 793.21,-270.844 795.891,-267.827 792.91,-268.161 792.91,-268.161 792.91,-268.161 795.891,-267.827 792.609,-265.478 798.873,-267.493 798.873,-267.493"/>
</g>
<!-- vstest&#45;&gt;sdk -->
<g id="edge66" class="edge"><title>vstest&#45;&gt;sdk</title>
<path fill="none" stroke="black" d="M597.03,-278.019C618.872,-277.688 657.78,-275.898 690,-268 702.231,-265.002 715.315,-259.663 725.483,-254.995"/>
<polygon fill="black" stroke="black" points="731.104,-252.347 726.827,-257.347 728.39,-253.626 725.676,-254.904 725.676,-254.904 725.676,-254.904 728.39,-253.626 724.525,-252.462 731.104,-252.347 731.104,-252.347"/>
</g>
<!-- pre1 -->
<g id="node15" class="node"><title>pre1</title>
<g id="a_node15"><a xlink:title="Inputs ready">
<polygon fill="#f7caac" stroke="black" points="126,-175 61,-175 61,-153 126,-153 126,-175"/>
<polyline fill="none" stroke="black" points="68.3333,-175 61,-167.667 "/>
<polyline fill="none" stroke="black" points="61,-160.333 68.3333,-153 "/>
<polyline fill="none" stroke="black" points="118.667,-153 126,-160.333 "/>
<polyline fill="none" stroke="black" points="126,-167.667 118.667,-175 "/>
<text text-anchor="middle" x="93.5" y="-161.2" font-family="Times New Roman,serif" font-size="11.00">Inputs ready</text>
</a>
</g>
</g>
<!-- application&#45;insights -->
<g id="node16" class="node"><title>application&#45;insights</title>
<g id="a_node16"><a xlink:title="Inputs ready">
<polygon fill="#f7caac" stroke="black" points="791,-49 698,-49 698,-27 791,-27 791,-49"/>
<polyline fill="none" stroke="black" points="705.333,-49 698,-41.6667 "/>
<polyline fill="none" stroke="black" points="698,-34.3333 705.333,-27 "/>
<polyline fill="none" stroke="black" points="783.667,-27 791,-34.3333 "/>
<polyline fill="none" stroke="black" points="791,-41.6667 783.667,-49 "/>
<text text-anchor="middle" x="744.5" y="-35.2" font-family="Times New Roman,serif" font-size="11.00">application&#45;insights</text>
</a>
</g>
</g>
<!-- application&#45;insights&#45;&gt;installer -->
<g id="edge17" class="edge"><title>application&#45;insights&#45;&gt;installer</title>
<path fill="none" stroke="black" d="M787.115,-49.1615C788.524,-50.3181 789.829,-51.5936 791,-53 815.576,-82.527 819.371,-202.724 819.921,-247.808"/>
<polygon fill="black" stroke="black" points="819.981,-253.895 817.222,-247.922 819.952,-250.896 819.922,-247.896 819.922,-247.896 819.922,-247.896 819.952,-250.896 822.622,-247.869 819.981,-253.895 819.981,-253.895"/>
</g>
<!-- aspnet&#45;xdt -->
<g id="node17" class="node"><title>aspnet&#45;xdt</title>
<g id="a_node17"><a xlink:title="Inputs ready">
<polygon fill="#f7caac" stroke="black" points="308.5,-369 252.5,-369 252.5,-347 308.5,-347 308.5,-369"/>
<polyline fill="none" stroke="black" points="259.833,-369 252.5,-361.667 "/>
<polyline fill="none" stroke="black" points="252.5,-354.333 259.833,-347 "/>
<polyline fill="none" stroke="black" points="301.167,-347 308.5,-354.333 "/>
<polyline fill="none" stroke="black" points="308.5,-361.667 301.167,-369 "/>
<text text-anchor="middle" x="280.5" y="-355.2" font-family="Times New Roman,serif" font-size="11.00">aspnet&#45;xdt</text>
</a>
</g>
</g>
<!-- aspnet&#45;xdt&#45;&gt;nuget&#45;client -->
<g id="edge40" class="edge"><title>aspnet&#45;xdt&#45;&gt;nuget&#45;client</title>
<path fill="none" stroke="black" d="M308.645,-362.297C341.355,-367.24 398.033,-375.052 447,-378 483.822,-380.217 493.147,-379.635 530,-378 570.118,-376.22 582.078,-383.213 620,-370 626.851,-367.613 633.679,-363.719 639.618,-359.708"/>
<polygon fill="black" stroke="black" points="644.798,-356.03 641.468,-361.705 642.352,-357.767 639.905,-359.504 639.905,-359.504 639.905,-359.504 642.352,-357.767 638.342,-357.302 644.798,-356.03 644.798,-356.03"/>
</g>
<!-- clicommandlineparser -->
<g id="node18" class="node"><title>clicommandlineparser</title>
<g id="a_node18"><a xlink:title="Inputs ready">
<polygon fill="#f7caac" stroke="black" points="439,-457 333,-457 333,-435 439,-435 439,-457"/>
<polyline fill="none" stroke="black" points="340.333,-457 333,-449.667 "/>
<polyline fill="none" stroke="black" points="333,-442.333 340.333,-435 "/>
<polyline fill="none" stroke="black" points="431.667,-435 439,-442.333 "/>
<polyline fill="none" stroke="black" points="439,-449.667 431.667,-457 "/>
<text text-anchor="middle" x="386" y="-443.2" font-family="Times New Roman,serif" font-size="11.00">clicommandlineparser</text>
</a>
</g>
</g>
<!-- clicommandlineparser&#45;&gt;installer -->
<g id="edge20" class="edge"><title>clicommandlineparser&#45;&gt;installer</title>
<path fill="none" stroke="black" d="M439.282,-447.685C477.665,-448.778 531.069,-450 578,-450 578,-450 578,-450 660,-450 689.153,-450 769.302,-462.47 791,-443 814.51,-421.904 818.975,-323.49 819.812,-282.74"/>
<polygon fill="black" stroke="black" points="819.921,-276.494 822.516,-282.54 819.869,-279.494 819.816,-282.493 819.816,-282.493 819.816,-282.493 819.869,-279.494 817.117,-282.446 819.921,-276.494 819.921,-276.494"/>
</g>
<!-- clicommandlineparser&#45;&gt;templating -->
<g id="edge69" class="edge"><title>clicommandlineparser&#45;&gt;templating</title>
<path fill="none" stroke="black" d="M429.621,-434.974C437.892,-432.834 446.444,-430.621 454.355,-428.575"/>
<polygon fill="black" stroke="black" points="460.264,-427.046 455.131,-431.163 457.36,-427.798 454.455,-428.549 454.455,-428.549 454.455,-428.549 457.36,-427.798 453.779,-425.935 460.264,-427.046 460.264,-427.046"/>
</g>
<!-- command&#45;line&#45;api -->
<g id="node19" class="node"><title>command&#45;line&#45;api</title>
<g id="a_node19"><a xlink:title="Inputs ready">
<polygon fill="#f7caac" stroke="black" points="325,-172 236,-172 236,-150 325,-150 325,-172"/>
<polyline fill="none" stroke="black" points="243.333,-172 236,-164.667 "/>
<polyline fill="none" stroke="black" points="236,-157.333 243.333,-150 "/>
<polyline fill="none" stroke="black" points="317.667,-150 325,-157.333 "/>
<polyline fill="none" stroke="black" points="325,-164.667 317.667,-172 "/>
<text text-anchor="middle" x="280.5" y="-158.2" font-family="Times New Roman,serif" font-size="11.00">command&#45;line&#45;api</text>
</a>
</g>
</g>
<!-- command&#45;line&#45;api&#45;&gt;roslyn -->
<g id="edge44" class="edge"><title>command&#45;line&#45;api&#45;&gt;roslyn</title>
<path fill="none" stroke="black" d="M325.093,-160.579C337.562,-160.458 350.68,-160.332 361.451,-160.228"/>
<polygon fill="black" stroke="black" points="367.498,-160.169 361.525,-162.927 364.499,-160.198 361.499,-160.227 361.499,-160.227 361.499,-160.227 364.499,-160.198 361.473,-157.527 367.498,-160.169 367.498,-160.169"/>
</g>
<!-- cssparser -->
<g id="node20" class="node"><title>cssparser</title>
<g id="a_node20"><a xlink:title="Inputs ready">
<polygon fill="#f7caac" stroke="black" points="605.5,-120 552.5,-120 552.5,-98 605.5,-98 605.5,-120"/>
<polyline fill="none" stroke="black" points="559.833,-120 552.5,-112.667 "/>
<polyline fill="none" stroke="black" points="552.5,-105.333 559.833,-98 "/>
<polyline fill="none" stroke="black" points="598.167,-98 605.5,-105.333 "/>
<polyline fill="none" stroke="black" points="605.5,-112.667 598.167,-120 "/>
<text text-anchor="middle" x="579" y="-106.2" font-family="Times New Roman,serif" font-size="11.00">cssparser</text>
</a>
</g>
</g>
<!-- cssparser&#45;&gt;aspnetcore -->
<g id="edge4" class="edge"><title>cssparser&#45;&gt;aspnetcore</title>
<path fill="none" stroke="black" d="M605.793,-117.623C610.605,-119.525 615.525,-121.674 620,-124 626.19,-127.218 632.577,-131.264 638.306,-135.2"/>
<polygon fill="black" stroke="black" points="643.358,-138.756 636.898,-137.51 640.905,-137.029 638.452,-135.302 638.452,-135.302 638.452,-135.302 640.905,-137.029 640.006,-133.094 643.358,-138.756 643.358,-138.756"/>
</g>
<!-- diagnostics -->
<g id="node21" class="node"><title>diagnostics</title>
<g id="a_node21"><a xlink:title="Inputs ready">
<polygon fill="#f7caac" stroke="black" points="518,-289 459,-289 459,-267 518,-267 518,-289"/>
<polyline fill="none" stroke="black" points="466.333,-289 459,-281.667 "/>
<polyline fill="none" stroke="black" points="459,-274.333 466.333,-267 "/>
<polyline fill="none" stroke="black" points="510.667,-267 518,-274.333 "/>
<polyline fill="none" stroke="black" points="518,-281.667 510.667,-289 "/>
<text text-anchor="middle" x="488.5" y="-275.2" font-family="Times New Roman,serif" font-size="11.00">diagnostics</text>
</a>
</g>
</g>
<!-- diagnostics&#45;&gt;vstest -->
<g id="edge72" class="edge"><title>diagnostics&#45;&gt;vstest</title>
<path fill="none" stroke="black" d="M518.478,-278C530.193,-278 543.536,-278 554.615,-278"/>
<polygon fill="black" stroke="black" points="560.848,-278 554.848,-280.7 557.848,-278 554.848,-278 554.848,-278 554.848,-278 557.848,-278 554.848,-275.3 560.848,-278 560.848,-278"/>
</g>
<!-- humanizer -->
<g id="node22" class="node"><title>humanizer</title>
<g id="a_node22"><a xlink:title="Inputs ready">
<polygon fill="#f7caac" stroke="black" points="308.5,-145 252.5,-145 252.5,-123 308.5,-123 308.5,-145"/>
<polyline fill="none" stroke="black" points="259.833,-145 252.5,-137.667 "/>
<polyline fill="none" stroke="black" points="252.5,-130.333 259.833,-123 "/>
<polyline fill="none" stroke="black" points="301.167,-123 308.5,-130.333 "/>
<polyline fill="none" stroke="black" points="308.5,-137.667 301.167,-145 "/>
<text text-anchor="middle" x="280.5" y="-131.2" font-family="Times New Roman,serif" font-size="11.00">humanizer</text>
</a>
</g>
</g>
<!-- humanizer&#45;&gt;roslyn -->
<g id="edge45" class="edge"><title>humanizer&#45;&gt;roslyn</title>
<path fill="none" stroke="black" d="M308.693,-140.831C325.084,-144.949 345.754,-150.141 361.446,-154.083"/>
<polygon fill="black" stroke="black" points="367.41,-155.581 360.933,-156.738 364.5,-154.85 361.59,-154.119 361.59,-154.119 361.59,-154.119 364.5,-154.85 362.248,-151.501 367.41,-155.581 367.41,-155.581"/>
</g>
<!-- linker -->
<g id="node23" class="node"><title>linker</title>
<g id="a_node23"><a xlink:title="Inputs ready">
<polygon fill="#f7caac" stroke="black" points="403.5,-221 368.5,-221 368.5,-199 403.5,-199 403.5,-221"/>
<polyline fill="none" stroke="black" points="375.833,-221 368.5,-213.667 "/>
<polyline fill="none" stroke="black" points="368.5,-206.333 375.833,-199 "/>
<polyline fill="none" stroke="black" points="396.167,-199 403.5,-206.333 "/>
<polyline fill="none" stroke="black" points="403.5,-213.667 396.167,-221 "/>
<text text-anchor="middle" x="386" y="-207.2" font-family="Times New Roman,serif" font-size="11.00">linker</text>
</a>
</g>
</g>
<!-- linker&#45;&gt;runtime&#45;portable -->
<g id="edge48" class="edge"><title>linker&#45;&gt;runtime&#45;portable</title>
<path fill="none" stroke="black" d="M403.596,-211.321C413.748,-212.129 427.294,-213.207 440.534,-214.261"/>
<polygon fill="black" stroke="black" points="446.582,-214.743 440.387,-216.958 443.592,-214.505 440.601,-214.267 440.601,-214.267 440.601,-214.267 443.592,-214.505 440.815,-211.575 446.582,-214.743 446.582,-214.743"/>
</g>
<!-- linker&#45;&gt;runtime -->
<g id="edge54" class="edge"><title>linker&#45;&gt;runtime</title>
<path fill="none" stroke="black" d="M403.596,-206.863C419.023,-203.946 442.283,-199.548 460.403,-196.123"/>
<polygon fill="black" stroke="black" points="466.332,-195.002 460.938,-198.77 463.385,-195.559 460.437,-196.117 460.437,-196.117 460.437,-196.117 463.385,-195.559 459.935,-193.464 466.332,-195.002 466.332,-195.002"/>
</g>
<!-- netcorecli&#45;fsc -->
<g id="node24" class="node"><title>netcorecli&#45;fsc</title>
<g id="a_node24"><a xlink:title="Inputs ready">
<polygon fill="#f7caac" stroke="black" points="780,-22 709,-22 709,-0 780,-0 780,-22"/>
<polyline fill="none" stroke="black" points="716.333,-22 709,-14.6667 "/>
<polyline fill="none" stroke="black" points="709,-7.33333 716.333,-0 "/>
<polyline fill="none" stroke="black" points="772.667,-0 780,-7.33333 "/>
<polyline fill="none" stroke="black" points="780,-14.6667 772.667,-22 "/>
<text text-anchor="middle" x="744.5" y="-8.2" font-family="Times New Roman,serif" font-size="11.00">netcorecli&#45;fsc</text>
</a>
</g>
</g>
<!-- netcorecli&#45;fsc&#45;&gt;installer -->
<g id="edge23" class="edge"><title>netcorecli&#45;fsc&#45;&gt;installer</title>
<path fill="none" stroke="black" d="M780.015,-17.5643C784.21,-19.6533 788.048,-22.3975 791,-26 818.828,-59.9552 820.513,-199.115 820.222,-247.959"/>
<polygon fill="black" stroke="black" points="820.173,-253.974 817.522,-247.952 820.197,-250.974 820.222,-247.974 820.222,-247.974 820.222,-247.974 820.197,-250.974 822.922,-247.996 820.173,-253.974 820.173,-253.974"/>
</g>
<!-- newtonsoft&#45;json -->
<g id="node25" class="node"><title>newtonsoft&#45;json</title>
<g id="a_node25"><a xlink:title="Inputs ready">
<polygon fill="#f7caac" stroke="black" points="426,-352 346,-352 346,-330 426,-330 426,-352"/>
<polyline fill="none" stroke="black" points="353.333,-352 346,-344.667 "/>
<polyline fill="none" stroke="black" points="346,-337.333 353.333,-330 "/>
<polyline fill="none" stroke="black" points="418.667,-330 426,-337.333 "/>
<polyline fill="none" stroke="black" points="426,-344.667 418.667,-352 "/>
<text text-anchor="middle" x="386" y="-338.2" font-family="Times New Roman,serif" font-size="11.00">newtonsoft&#45;json</text>
</a>
</g>
</g>
<!-- newtonsoft&#45;json&#45;&gt;common -->
<g id="edge11" class="edge"><title>newtonsoft&#45;json&#45;&gt;common</title>
<path fill="none" stroke="black" d="M426.144,-348.4C436.824,-350.419 448.209,-352.572 458.235,-354.467"/>
<polygon fill="black" stroke="black" points="464.284,-355.611 457.886,-357.149 461.336,-355.053 458.388,-354.496 458.388,-354.496 458.388,-354.496 461.336,-355.053 458.89,-351.843 464.284,-355.611 464.284,-355.611"/>
</g>
<!-- newtonsoft&#45;json&#45;&gt;fsharp -->
<g id="edge15" class="edge"><title>newtonsoft&#45;json&#45;&gt;fsharp</title>
<path fill="none" stroke="black" d="M426.283,-338.781C474.436,-334.67 557.351,-323.001 620,-290 628.909,-285.307 637.404,-278.072 644.093,-271.48"/>
<polygon fill="black" stroke="black" points="648.418,-267.059 646.152,-273.236 646.32,-269.203 644.222,-271.348 644.222,-271.348 644.222,-271.348 646.32,-269.203 642.292,-269.459 648.418,-267.059 648.418,-267.059"/>
</g>
<!-- newtonsoft&#45;json&#45;&gt;installer -->
<g id="edge24" class="edge"><title>newtonsoft&#45;json&#45;&gt;installer</title>
<path fill="none" stroke="black" d="M401.462,-352.107C413.131,-360.511 430.298,-371.652 447,-378 502.257,-399 518.887,-401 578,-401 578,-401 578,-401 660,-401 724.414,-401 747.04,-386.081 791,-339 805.881,-323.062 813.441,-298.604 817.047,-282.217"/>
<polygon fill="black" stroke="black" points="818.282,-276.157 819.73,-282.575 817.683,-279.097 817.084,-282.036 817.084,-282.036 817.084,-282.036 817.683,-279.097 814.438,-281.497 818.282,-276.157 818.282,-276.157"/>
</g>
<!-- newtonsoft&#45;json&#45;&gt;nuget&#45;client -->
<g id="edge38" class="edge"><title>newtonsoft&#45;json&#45;&gt;nuget&#45;client</title>
<path fill="none" stroke="black" d="M403.219,-352.095C414.836,-359.342 431.164,-368.151 447,-372 507.493,-386.704 579.808,-370.336 622.146,-357.441"/>
<polygon fill="black" stroke="black" points="627.917,-355.649 622.989,-360.007 625.052,-356.539 622.187,-357.429 622.187,-357.429 622.187,-357.429 625.052,-356.539 621.386,-354.85 627.917,-355.649 627.917,-355.649"/>
</g>
<!-- newtonsoft&#45;json&#45;&gt;runtime&#45;portable -->
<g id="edge49" class="edge"><title>newtonsoft&#45;json&#45;&gt;runtime&#45;portable</title>
<path fill="none" stroke="black" d="M395.341,-329.87C406.747,-314.749 427.97,-286.968 447,-264 455.477,-253.769 465.321,-242.574 473.181,-233.789"/>
<polygon fill="black" stroke="black" points="477.322,-229.179 475.321,-235.447 475.317,-231.411 473.313,-233.643 473.313,-233.643 473.313,-233.643 475.317,-231.411 471.304,-231.838 477.322,-229.179 477.322,-229.179"/>
</g>
<!-- newtonsoft&#45;json&#45;&gt;runtime -->
<g id="edge55" class="edge"><title>newtonsoft&#45;json&#45;&gt;runtime</title>
<path fill="none" stroke="black" d="M396.459,-329.936C408.466,-315.237 428.835,-287.971 439,-261 447.711,-237.885 431.463,-225.203 447,-206 450.533,-201.634 455.466,-198.538 460.677,-196.344"/>
<polygon fill="black" stroke="black" points="466.387,-194.299 461.649,-198.864 463.563,-195.31 460.739,-196.322 460.739,-196.322 460.739,-196.322 463.563,-195.31 459.828,-193.78 466.387,-194.299 466.387,-194.299"/>
</g>
<!-- newtonsoft&#45;json&#45;&gt;sdk -->
<g id="edge62" class="edge"><title>newtonsoft&#45;json&#45;&gt;sdk</title>
<path fill="none" stroke="black" d="M426.419,-342.268C486.856,-342.542 604.397,-336.365 690,-290 704.122,-282.351 718.069,-270.709 728.181,-261.321"/>
<polygon fill="black" stroke="black" points="732.544,-257.188 730.044,-263.275 730.366,-259.251 728.188,-261.314 728.188,-261.314 728.188,-261.314 730.366,-259.251 726.331,-259.354 732.544,-257.188 732.544,-257.188"/>
</g>
<!-- newtonsoft&#45;json&#45;&gt;templating -->
<g id="edge70" class="edge"><title>newtonsoft&#45;json&#45;&gt;templating</title>
<path fill="none" stroke="black" d="M395.092,-352.469C405.594,-366.6 425.177,-390.509 447,-405 449.374,-406.576 451.935,-408.015 454.576,-409.322"/>
<polygon fill="black" stroke="black" points="460.074,-411.823 453.495,-411.797 457.343,-410.581 454.613,-409.339 454.613,-409.339 454.613,-409.339 457.343,-410.581 455.731,-406.881 460.074,-411.823 460.074,-411.823"/>
</g>
<!-- newtonsoft&#45;json&#45;&gt;vstest -->
<g id="edge74" class="edge"><title>newtonsoft&#45;json&#45;&gt;vstest</title>
<path fill="none" stroke="black" d="M420.707,-329.882C459.22,-317.179 521.23,-296.725 554.729,-285.676"/>
<polygon fill="black" stroke="black" points="560.64,-283.726 555.788,-288.17 557.791,-284.666 554.942,-285.605 554.942,-285.605 554.942,-285.605 557.791,-284.666 554.097,-283.041 560.64,-283.726 560.64,-283.726"/>
</g>
<!-- newtonsoft&#45;json901 -->
<g id="node26" class="node"><title>newtonsoft&#45;json901</title>
<g id="a_node26"><a xlink:title="Inputs ready">
<polygon fill="#f7caac" stroke="black" points="434,-259 338,-259 338,-237 434,-237 434,-259"/>
<polyline fill="none" stroke="black" points="345.333,-259 338,-251.667 "/>
<polyline fill="none" stroke="black" points="338,-244.333 345.333,-237 "/>
<polyline fill="none" stroke="black" points="426.667,-237 434,-244.333 "/>
<polyline fill="none" stroke="black" points="434,-251.667 426.667,-259 "/>
<text text-anchor="middle" x="386" y="-245.2" font-family="Times New Roman,serif" font-size="11.00">newtonsoft&#45;json901</text>
</a>
</g>
</g>
<!-- newtonsoft&#45;json901&#45;&gt;fsharp -->
<g id="edge14" class="edge"><title>newtonsoft&#45;json901&#45;&gt;fsharp</title>
<path fill="none" stroke="black" d="M434.205,-249.393C492.309,-251.109 588.781,-253.957 633.655,-255.281"/>
<polygon fill="black" stroke="black" points="639.891,-255.465 633.813,-257.987 636.892,-255.377 633.893,-255.288 633.893,-255.288 633.893,-255.288 636.892,-255.377 633.973,-252.589 639.891,-255.465 639.891,-255.465"/>
</g>
<!-- newtonsoft&#45;json901&#45;&gt;installer -->
<g id="edge25" class="edge"><title>newtonsoft&#45;json901&#45;&gt;installer</title>
<path fill="none" stroke="black" d="M399.388,-259.239C410.903,-269.081 428.949,-283.021 447,-291 501.455,-315.07 518.463,-319 578,-319 578,-319 578,-319 660,-319 709.955,-319 764.294,-295.076 795.05,-279.077"/>
<polygon fill="black" stroke="black" points="800.511,-276.189 796.469,-281.38 797.859,-277.591 795.207,-278.993 795.207,-278.993 795.207,-278.993 797.859,-277.591 793.945,-276.606 800.511,-276.189 800.511,-276.189"/>
</g>
<!-- newtonsoft&#45;json901&#45;&gt;runtime&#45;portable -->
<g id="edge50" class="edge"><title>newtonsoft&#45;json901&#45;&gt;runtime&#45;portable</title>
<path fill="none" stroke="black" d="M425.643,-236.942C430.15,-235.626 434.679,-234.291 439,-233 441.375,-232.29 443.814,-231.555 446.273,-230.81"/>
<polygon fill="black" stroke="black" points="452.03,-229.056 447.077,-233.387 449.16,-229.93 446.29,-230.804 446.29,-230.804 446.29,-230.804 449.16,-229.93 445.503,-228.222 452.03,-229.056 452.03,-229.056"/>
</g>
<!-- newtonsoft&#45;json901&#45;&gt;runtime -->
<g id="edge56" class="edge"><title>newtonsoft&#45;json901&#45;&gt;runtime</title>
<path fill="none" stroke="black" d="M418.938,-236.866C426.163,-233.265 433.357,-228.69 439,-223 444.88,-217.071 440.849,-211.648 447,-206 450.89,-202.428 455.706,-199.686 460.643,-197.587"/>
<polygon fill="black" stroke="black" points="466.446,-195.409 461.778,-200.045 463.638,-196.463 460.829,-197.518 460.829,-197.518 460.829,-197.518 463.638,-196.463 459.88,-194.99 466.446,-195.409 466.446,-195.409"/>
</g>
<!-- newtonsoft&#45;json901&#45;&gt;sdk -->
<g id="edge63" class="edge"><title>newtonsoft&#45;json901&#45;&gt;sdk</title>
<path fill="none" stroke="black" d="M434.238,-246.445C493.849,-244.696 599.529,-242.31 690,-244 701.698,-244.219 714.826,-244.706 725.151,-245.145"/>
<polygon fill="black" stroke="black" points="731.179,-245.409 725.067,-247.843 728.182,-245.277 725.185,-245.146 725.185,-245.146 725.185,-245.146 728.182,-245.277 725.303,-242.448 731.179,-245.409 731.179,-245.409"/>
</g>
<!-- symreader -->
<g id="node27" class="node"><title>symreader</title>
<g id="a_node27"><a xlink:title="Inputs ready">
<polygon fill="#f7caac" stroke="black" points="309,-221 252,-221 252,-199 309,-199 309,-221"/>
<polyline fill="none" stroke="black" points="259.333,-221 252,-213.667 "/>
<polyline fill="none" stroke="black" points="252,-206.333 259.333,-199 "/>
<polyline fill="none" stroke="black" points="301.667,-199 309,-206.333 "/>
<polyline fill="none" stroke="black" points="309,-213.667 301.667,-221 "/>
<text text-anchor="middle" x="280.5" y="-207.2" font-family="Times New Roman,serif" font-size="11.00">symreader</text>
</a>
</g>
</g>
<!-- symreader&#45;&gt;runtime -->
<g id="edge53" class="edge"><title>symreader&#45;&gt;runtime</title>
<path fill="none" stroke="black" d="M309.122,-202.58C316.801,-200.787 325.179,-199.079 333,-198 377.201,-191.902 429.12,-190.771 460.112,-190.728"/>
<polygon fill="black" stroke="black" points="466.397,-190.734 460.395,-193.428 463.397,-190.731 460.397,-190.729 460.397,-190.729 460.397,-190.729 463.397,-190.731 460.4,-188.029 466.397,-190.734 466.397,-190.734"/>
</g>
<!-- test&#45;templates -->
<g id="node28" class="node"><title>test&#45;templates</title>
<g id="a_node28"><a xlink:title="Inputs ready">
<polygon fill="#f7caac" stroke="black" points="316.5,-415 244.5,-415 244.5,-393 316.5,-393 316.5,-415"/>
<polyline fill="none" stroke="black" points="251.833,-415 244.5,-407.667 "/>
<polyline fill="none" stroke="black" points="244.5,-400.333 251.833,-393 "/>
<polyline fill="none" stroke="black" points="309.167,-393 316.5,-400.333 "/>
<polyline fill="none" stroke="black" points="316.5,-407.667 309.167,-415 "/>
<text text-anchor="middle" x="280.5" y="-401.2" font-family="Times New Roman,serif" font-size="11.00">test&#45;templates</text>
</a>
</g>
</g>
<!-- test&#45;templates&#45;&gt;installer -->
<g id="edge31" class="edge"><title>test&#45;templates&#45;&gt;installer</title>
<path fill="none" stroke="black" d="M316.527,-411.122C349.914,-417.627 401.673,-426.971 447,-432 504.95,-438.429 519.695,-439 578,-439 578,-439 578,-439 660,-439 718.831,-439 748.557,-460.74 791,-420 810.523,-401.26 817.187,-319.027 819.21,-282.542"/>
<polygon fill="black" stroke="black" points="819.536,-276.287 821.92,-282.419 819.38,-279.283 819.224,-282.279 819.224,-282.279 819.224,-282.279 819.38,-279.283 816.528,-282.138 819.536,-276.287 819.536,-276.287"/>
</g>
<!-- xliff&#45;tasks -->
<g id="node29" class="node"><title>xliff&#45;tasks</title>
<g id="a_node29"><a xlink:title="Inputs ready">
<polygon fill="#f7caac" stroke="black" points="307.5,-104 253.5,-104 253.5,-82 307.5,-82 307.5,-104"/>
<polyline fill="none" stroke="black" points="260.833,-104 253.5,-96.6667 "/>
<polyline fill="none" stroke="black" points="253.5,-89.3333 260.833,-82 "/>
<polyline fill="none" stroke="black" points="300.167,-82 307.5,-89.3333 "/>
<polyline fill="none" stroke="black" points="307.5,-96.6667 300.167,-104 "/>
<text text-anchor="middle" x="280.5" y="-90.2" font-family="Times New Roman,serif" font-size="11.00">xliff&#45;tasks</text>
</a>
</g>
</g>
<!-- xliff&#45;tasks&#45;&gt;fsharp -->
<g id="edge16" class="edge"><title>xliff&#45;tasks&#45;&gt;fsharp</title>
<path fill="none" stroke="black" d="M307.71,-94.5198C378.657,-99.1303 572.319,-115.16 620,-155 633.187,-166.019 646.989,-213.112 653.752,-238.919"/>
<polygon fill="black" stroke="black" points="655.315,-244.986 651.203,-239.849 654.566,-242.081 653.818,-239.176 653.818,-239.176 653.818,-239.176 654.566,-242.081 656.432,-238.502 655.315,-244.986 655.315,-244.986"/>
</g>
<!-- xliff&#45;tasks&#45;&gt;installer -->
<g id="edge33" class="edge"><title>xliff&#45;tasks&#45;&gt;installer</title>
<path fill="none" stroke="black" d="M307.585,-85.4532C346.436,-74.8969 421.968,-57 487.5,-57 487.5,-57 487.5,-57 660,-57 719.191,-57 749.669,-38.6282 791,-81 813.935,-104.512 818.732,-206.562 819.735,-247.708"/>
<polygon fill="black" stroke="black" points="819.865,-253.767 817.037,-247.827 819.801,-250.768 819.736,-247.769 819.736,-247.769 819.736,-247.769 819.801,-250.768 822.435,-247.71 819.865,-253.767 819.865,-253.767"/>
</g>
<!-- xliff&#45;tasks&#45;&gt;roslyn -->
<g id="edge46" class="edge"><title>xliff&#45;tasks&#45;&gt;roslyn</title>
<path fill="none" stroke="black" d="M303.604,-104.236C310.9,-108.565 318.741,-113.941 325,-120 329.606,-124.458 328.259,-127.686 333,-132 341.367,-139.615 352.183,-145.868 361.781,-150.517"/>
<polygon fill="black" stroke="black" points="367.264,-153.068 360.685,-152.985 364.544,-151.803 361.824,-150.537 361.824,-150.537 361.824,-150.537 364.544,-151.803 362.962,-148.089 367.264,-153.068 367.264,-153.068"/>
</g>
<!-- xliff&#45;tasks&#45;&gt;sdk -->
<g id="edge59" class="edge"><title>xliff&#45;tasks&#45;&gt;sdk</title>
<path fill="none" stroke="black" d="M307.513,-92.3784C346.589,-91.4997 422.76,-90 487.5,-90 487.5,-90 487.5,-90 580,-90 632.991,-90 653.586,-97.5017 690,-136 715.854,-163.334 731.547,-205.519 738.76,-228.907"/>
<polygon fill="black" stroke="black" points="740.492,-234.703 736.187,-229.727 739.633,-231.829 738.774,-228.954 738.774,-228.954 738.774,-228.954 739.633,-231.829 741.361,-228.181 740.492,-234.703 740.492,-234.703"/>
</g>
<!-- s1 -->
<g id="node30" class="node"><title>s1</title>
<g id="a_node30"><a xlink:title="1">
<path fill="#ffe599" stroke="black" stroke-dasharray="5,2" d="M155.667,-148C155.667,-148 31.3333,-148 31.3333,-148 27.6667,-148 24,-144.333 24,-140.667 24,-140.667 24,-133.333 24,-133.333 24,-129.667 27.6667,-126 31.3333,-126 31.3333,-126 155.667,-126 155.667,-126 159.333,-126 163,-129.667 163,-133.333 163,-133.333 163,-140.667 163,-140.667 163,-144.333 159.333,-148 155.667,-148"/>
<text text-anchor="middle" x="93.5" y="-134.2" font-family="Times New Roman,serif" font-size="11.00">#1 &#45; Local build infra merged</text>
</a>
</g>
</g>
<!-- s2 -->
<g id="node31" class="node"><title>s2</title>
<g id="a_node31"><a xlink:title="2">
<polygon fill="#f0fe86" stroke="black" stroke-dasharray="5,2" points="144,-121 43,-121 43,-99 144,-99 144,-121"/>
<text text-anchor="middle" x="93.5" y="-107.2" font-family="Times New Roman,serif" font-size="11.00">#2 &#45; CI implemented</text>
</a>
</g>
</g>
<!-- s3 -->
<g id="node32" class="node"><title>s3</title>
<g id="a_node32"><a xlink:title="3">
<path fill="#b4c6e7" stroke="black" stroke-width="2" d="M139.167,-94C139.167,-94 47.8333,-94 47.8333,-94 44.1667,-94 40.5,-90.3333 40.5,-86.6667 40.5,-86.6667 40.5,-79.3333 40.5,-79.3333 40.5,-75.6667 44.1667,-72 47.8333,-72 47.8333,-72 139.167,-72 139.167,-72 142.833,-72 146.5,-75.6667 146.5,-79.3333 146.5,-79.3333 146.5,-86.6667 146.5,-86.6667 146.5,-90.3333 142.833,-94 139.167,-94"/>
<text text-anchor="middle" x="93.5" y="-80.2" font-family="Times New Roman,serif" font-size="11.00">#3 &#45; Artifacts greenlit</text>
</a>
</g>
</g>
<!-- arcade -->
<g id="node33" class="node"><title>arcade</title>
<g id="a_node33"><a xlink:title="3">
<path fill="#b4c6e7" stroke="black" stroke-width="2" d="M220.667,-240C220.667,-240 194.333,-240 194.333,-240 190.667,-240 187,-236.333 187,-232.667 187,-232.667 187,-225.333 187,-225.333 187,-221.667 190.667,-218 194.333,-218 194.333,-218 220.667,-218 220.667,-218 224.333,-218 228,-221.667 228,-225.333 228,-225.333 228,-232.667 228,-232.667 228,-236.333 224.333,-240 220.667,-240"/>
<text text-anchor="middle" x="207.5" y="-226.2" font-family="Times New Roman,serif" font-size="11.00">arcade</text>
</a>
</g>
</g>
<!-- arcade&#45;&gt;aspnetcore -->
<g id="edge3" class="edge"><title>arcade&#45;&gt;aspnetcore</title>
<path fill="none" stroke="black" d="M208.859,-217.558C210.111,-185.765 215.412,-97.483 236,-79 285.411,-34.6399 318.598,-68 385,-68 385,-68 385,-68 489.5,-68 548.728,-68 570.624,-62.2888 620,-95 634.096,-104.338 644.455,-120.861 650.765,-133.366"/>
<polygon fill="black" stroke="black" points="653.378,-138.788 648.341,-134.555 652.076,-136.086 650.774,-133.383 650.774,-133.383 650.774,-133.383 652.076,-136.086 653.206,-132.211 653.378,-138.788 653.378,-138.788"/>
</g>
<!-- arcade&#45;&gt;fsharp -->
<g id="edge12" class="edge"><title>arcade&#45;&gt;fsharp</title>
<path fill="none" stroke="black" d="M228.058,-235.45C252.345,-243.09 295.194,-255.364 333,-260 391.074,-267.121 568.33,-260.08 633.567,-257.149"/>
<polygon fill="black" stroke="black" points="639.882,-256.862 634.011,-259.831 636.885,-256.998 633.889,-257.134 633.889,-257.134 633.889,-257.134 636.885,-256.998 633.766,-254.437 639.882,-256.862 639.882,-256.862"/>
</g>
<!-- arcade&#45;&gt;installer -->
<g id="edge18" class="edge"><title>arcade&#45;&gt;installer</title>
<path fill="none" stroke="black" d="M208.337,-240.049C208.001,-278.97 208.958,-408.923 236,-438 281.833,-487.282 317.699,-465 385,-465 385,-465 385,-465 660,-465 718.508,-465 748.508,-492.22 791,-452 815.291,-429.009 819.287,-324.299 819.905,-282.403"/>
<polygon fill="black" stroke="black" points="819.978,-276.24 822.607,-282.271 819.943,-279.24 819.907,-282.239 819.907,-282.239 819.907,-282.239 819.943,-279.24 817.207,-282.208 819.978,-276.24 819.978,-276.24"/>
</g>
<!-- arcade&#45;&gt;msbuild -->
<g id="edge34" class="edge"><title>arcade&#45;&gt;msbuild</title>
<path fill="none" stroke="black" d="M209.653,-217.941C212.502,-193.038 220.768,-133.813 236,-122 267.258,-97.7598 289.348,-104.865 325,-122 330.13,-124.466 328.056,-129.18 333,-132 374.331,-155.572 392.22,-138.309 439,-147 479.809,-154.582 496.29,-143.783 530,-168 535.51,-171.958 532.763,-176.687 538,-181 541.784,-184.116 546.28,-186.623 550.869,-188.628"/>
<polygon fill="black" stroke="black" points="556.684,-190.907 550.112,-191.231 553.891,-189.812 551.097,-188.717 551.097,-188.717 551.097,-188.717 553.891,-189.812 552.082,-186.204 556.684,-190.907 556.684,-190.907"/>
</g>
<!-- arcade&#45;&gt;roslyn -->
<g id="edge43" class="edge"><title>arcade&#45;&gt;roslyn</title>
<path fill="none" stroke="black" d="M212.749,-217.779C217.064,-208.003 224.726,-194.283 236,-187 269.634,-165.272 285.639,-180.354 325,-173 337.111,-170.737 350.518,-167.868 361.581,-165.4"/>
<polygon fill="black" stroke="black" points="367.463,-164.077 362.202,-168.028 364.537,-164.736 361.61,-165.394 361.61,-165.394 361.61,-165.394 364.537,-164.736 361.017,-162.76 367.463,-164.077 367.463,-164.077"/>
</g>
<!-- arcade&#45;&gt;runtime&#45;portable -->
<g id="edge47" class="edge"><title>arcade&#45;&gt;runtime&#45;portable</title>
<path fill="none" stroke="black" d="M228.248,-228.746C268.114,-228.156 361.054,-226.395 439,-222 439.474,-221.973 439.952,-221.946 440.431,-221.918"/>
<polygon fill="black" stroke="black" points="446.759,-221.514 440.943,-224.59 443.765,-221.705 440.771,-221.896 440.771,-221.896 440.771,-221.896 443.765,-221.705 440.599,-219.201 446.759,-221.514 446.759,-221.514"/>
</g>
<!-- arcade&#45;&gt;runtime -->
<g id="edge52" class="edge"><title>arcade&#45;&gt;runtime</title>
<path fill="none" stroke="black" d="M215.194,-217.836C220.035,-210.852 227.249,-202.376 236,-198 274.558,-178.717 403.182,-185.009 460.054,-188.901"/>
<polygon fill="black" stroke="black" points="466.3,-189.338 460.126,-191.612 463.307,-189.129 460.315,-188.919 460.315,-188.919 460.315,-188.919 463.307,-189.129 460.504,-186.226 466.3,-189.338 466.3,-189.338"/>
</g>
<!-- arcade&#45;&gt;sdk -->
<g id="edge58" class="edge"><title>arcade&#45;&gt;sdk</title>
<path fill="none" stroke="black" d="M219.282,-240.043C224.085,-244.511 230.006,-249.443 236,-253 296.705,-289.025 314.41,-308 385,-308 385,-308 385,-308 489.5,-308 534.585,-308 647.825,-292.936 690,-277 702.709,-272.198 715.928,-264.567 726.047,-258.078"/>
<polygon fill="black" stroke="black" points="731.326,-254.616 727.789,-260.164 728.817,-256.261 726.309,-257.906 726.309,-257.906 726.309,-257.906 728.817,-256.261 724.828,-255.648 731.326,-254.616 731.326,-254.616"/>
</g>
<!-- arcade&#45;&gt;aspnet&#45;xdt -->
<g id="edge2" class="edge"><title>arcade&#45;&gt;aspnet&#45;xdt</title>
<path fill="none" stroke="black" d="M210.568,-240.125C213.994,-256.69 221.904,-288.415 236,-312 242.756,-323.304 252.717,-334.103 261.402,-342.394"/>
<polygon fill="black" stroke="black" points="266.068,-346.729 259.834,-344.623 263.87,-344.687 261.672,-342.645 261.672,-342.645 261.672,-342.645 263.87,-344.687 263.51,-340.667 266.068,-346.729 266.068,-346.729"/>
</g>
<!-- arcade&#45;&gt;clicommandlineparser -->
<g id="edge9" class="edge"><title>arcade&#45;&gt;clicommandlineparser</title>
<path fill="none" stroke="black" d="M208.491,-240.012C208.698,-276.453 211.321,-392.281 236,-418 258.979,-441.947 295.47,-449.097 326.587,-450.187"/>
<polygon fill="black" stroke="black" points="332.733,-450.327 326.673,-452.889 329.734,-450.258 326.735,-450.19 326.735,-450.19 326.735,-450.19 329.734,-450.258 326.797,-447.491 332.733,-450.327 332.733,-450.327"/>
</g>
<!-- arcade&#45;&gt;command&#45;line&#45;api -->
<g id="edge10" class="edge"><title>arcade&#45;&gt;command&#45;line&#45;api</title>
<path fill="none" stroke="black" d="M211.616,-217.689C215.464,-205.736 223.131,-187.109 236,-176 236.106,-175.909 236.212,-175.818 236.319,-175.728"/>
<polygon fill="black" stroke="black" points="241.477,-172.023 238.179,-177.716 239.04,-173.773 236.603,-175.523 236.603,-175.523 236.603,-175.523 239.04,-173.773 235.028,-173.331 241.477,-172.023 241.477,-172.023"/>
</g>
<!-- arcade&#45;&gt;symreader -->
<g id="edge68" class="edge"><title>arcade&#45;&gt;symreader</title>
<path fill="none" stroke="black" d="M228.277,-223.707C233.755,-222.242 239.859,-220.608 245.89,-218.994"/>
<polygon fill="black" stroke="black" points="251.87,-217.394 246.772,-221.553 248.972,-218.169 246.074,-218.945 246.074,-218.945 246.074,-218.945 248.972,-218.169 245.376,-216.337 251.87,-217.394 251.87,-217.394"/>
</g>
<!-- arcade&#45;&gt;test&#45;templates -->
<g id="edge71" class="edge"><title>arcade&#45;&gt;test&#45;templates</title>
<path fill="none" stroke="black" d="M208.005,-240.016C207.388,-265.383 208.867,-329.035 236,-372 240.308,-378.822 246.636,-384.674 253.139,-389.437"/>
<polygon fill="black" stroke="black" points="258.115,-392.865 251.642,-391.684 255.644,-391.163 253.174,-389.461 253.174,-389.461 253.174,-389.461 255.644,-391.163 254.706,-387.237 258.115,-392.865 258.115,-392.865"/>
</g>
<!-- source&#45;build&#45;reference&#45;packages -->
<g id="node34" class="node"><title>source&#45;build&#45;reference&#45;packages</title>
<g id="a_node34"><a xlink:title="3">
<path fill="#b4c6e7" stroke="black" stroke-width="2" d="M163.667,-267C163.667,-267 23.3333,-267 23.3333,-267 19.6667,-267 16,-263.333 16,-259.667 16,-259.667 16,-252.333 16,-252.333 16,-248.667 19.6667,-245 23.3333,-245 23.3333,-245 163.667,-245 163.667,-245 167.333,-245 171,-248.667 171,-252.333 171,-252.333 171,-259.667 171,-259.667 171,-263.333 167.333,-267 163.667,-267"/>
<text text-anchor="middle" x="93.5" y="-253.2" font-family="Times New Roman,serif" font-size="11.00">source&#45;build&#45;reference&#45;packages</text>
</a>
</g>
</g>
<!-- sourcelink -->
<g id="node35" class="node"><title>sourcelink</title>
<g id="a_node35"><a xlink:title="3">
<path fill="#b4c6e7" stroke="black" stroke-width="2" d="M113.667,-240C113.667,-240 73.3333,-240 73.3333,-240 69.6667,-240 66,-236.333 66,-232.667 66,-232.667 66,-225.333 66,-225.333 66,-221.667 69.6667,-218 73.3333,-218 73.3333,-218 113.667,-218 113.667,-218 117.333,-218 121,-221.667 121,-225.333 121,-225.333 121,-232.667 121,-232.667 121,-236.333 117.333,-240 113.667,-240"/>
<text text-anchor="middle" x="93.5" y="-226.2" font-family="Times New Roman,serif" font-size="11.00">sourcelink</text>
</a>
</g>
</g>
<!-- sourcelink&#45;&gt;arcade -->
<g id="edge1" class="edge"><title>sourcelink&#45;&gt;arcade</title>
<path fill="none" stroke="black" d="M121.042,-229C139.017,-229 162.653,-229 180.51,-229"/>
<polygon fill="black" stroke="black" points="186.807,-229 180.807,-231.7 183.807,-229 180.807,-229 180.807,-229 180.807,-229 183.807,-229 180.807,-226.3 186.807,-229 186.807,-229"/>
</g>
<!-- s4 -->
<g id="node36" class="node"><title>s4</title>
<g id="a_node36"><a xlink:title="4">
<polygon fill="#cfafe7" stroke="black" stroke-width="2" points="171,-67 16,-67 16,-45 171,-45 171,-67"/>
<text text-anchor="middle" x="93.5" y="-53.2" font-family="Times New Roman,serif" font-size="11.00">#4 &#45; Prebuilt regressions blocked</text>
</a>
</g>
</g>
</g>
</svg>
