<?xml version="1.0" encoding="UTF-8" standalone="no"?>
<!DOCTYPE svg PUBLIC "-//W3C//DTD SVG 1.1//EN"
 "http://www.w3.org/Graphics/SVG/1.1/DTD/svg11.dtd">
<!-- Generated by graphviz version 2.38.0 (20140413.2041)
 -->
<!-- Title: %3 Pages: 1 -->
<svg width="851pt" height="444pt"
 viewBox="0.00 0.00 851.00 443.52" xmlns="http://www.w3.org/2000/svg" xmlns:xlink="http://www.w3.org/1999/xlink">
<g id="graph0" class="graph" transform="scale(1 1) rotate(0) translate(4 439.522)">
<title>%3</title>
<polygon fill="white" stroke="none" points="-4,4 -4,-439.522 847,-439.522 847,4 -4,4"/>
<g id="clust1" class="cluster"><title>clusterLegend</title>
<polygon fill="#ebebeb" stroke="#ebebeb" points="8,-17.7002 8,-190.7 179,-190.7 179,-17.7002 8,-17.7002"/>
</g>
<!-- pre0 -->
<g id="node1" class="node"><title>pre0</title>
<g id="a_node1"><a xlink:title="Built">
<path fill="#f5f5f5" stroke="black" stroke-dasharray="1,5" d="M115.167,-182.7C115.167,-182.7 71.8333,-182.7 71.8333,-182.7 68.1667,-182.7 64.5,-179.034 64.5,-175.367 64.5,-175.367 64.5,-168.034 64.5,-168.034 64.5,-164.367 68.1667,-160.7 71.8333,-160.7 71.8333,-160.7 115.167,-160.7 115.167,-160.7 118.833,-160.7 122.5,-164.367 122.5,-168.034 122.5,-168.034 122.5,-175.367 122.5,-175.367 122.5,-179.034 118.833,-182.7 115.167,-182.7"/>
<text text-anchor="middle" x="93.5" y="-168.9" font-family="Times New Roman,serif" font-size="11.00">Built in 5.0</text>
</a>
</g>
</g>
<!-- aspnet&#45;xdt -->
<g id="node2" class="node"><title>aspnet&#45;xdt</title>
<g id="a_node2"><a xlink:title="Built">
<path fill="#f5f5f5" stroke="black" stroke-dasharray="1,5" d="M301.167,-341.7C301.167,-341.7 259.833,-341.7 259.833,-341.7 256.167,-341.7 252.5,-338.034 252.5,-334.367 252.5,-334.367 252.5,-327.034 252.5,-327.034 252.5,-323.367 256.167,-319.7 259.833,-319.7 259.833,-319.7 301.167,-319.7 301.167,-319.7 304.833,-319.7 308.5,-323.367 308.5,-327.034 308.5,-327.034 308.5,-334.367 308.5,-334.367 308.5,-338.034 304.833,-341.7 301.167,-341.7"/>
<text text-anchor="middle" x="280.5" y="-327.9" font-family="Times New Roman,serif" font-size="11.00">aspnet&#45;xdt</text>
</a>
</g>
</g>
<!-- nuget&#45;client -->
<g id="node8" class="node"><title>nuget&#45;client</title>
<g id="a_node8"><a xlink:title="Built">
<path fill="#f5f5f5" stroke="black" stroke-dasharray="1,5" d="M682.667,-331.7C682.667,-331.7 635.333,-331.7 635.333,-331.7 631.667,-331.7 628,-328.034 628,-324.367 628,-324.367 628,-317.034 628,-317.034 628,-313.367 631.667,-309.7 635.333,-309.7 635.333,-309.7 682.667,-309.7 682.667,-309.7 686.333,-309.7 690,-313.367 690,-317.034 690,-317.034 690,-324.367 690,-324.367 690,-328.034 686.333,-331.7 682.667,-331.7"/>
<text text-anchor="middle" x="659" y="-317.9" font-family="Times New Roman,serif" font-size="11.00">nuget&#45;client</text>
</a>
</g>
</g>
<!-- aspnet&#45;xdt&#45;&gt;nuget&#45;client -->
<g id="edge40" class="edge"><title>aspnet&#45;xdt&#45;&gt;nuget&#45;client</title>
<path fill="none" stroke="black" d="M308.736,-334.609C354.486,-340.643 449.652,-350.912 530,-344.7 570.361,-341.58 580.373,-338.973 620,-330.7 620.634,-330.568 621.274,-330.431 621.918,-330.292"/>
<polygon fill="black" stroke="black" points="627.784,-328.952 622.535,-332.92 624.859,-329.62 621.934,-330.288 621.934,-330.288 621.934,-330.288 624.859,-329.62 621.333,-327.656 627.784,-328.952 627.784,-328.952"/>
</g>
<!-- aspnetcore -->
<g id="node3" class="node"><title>aspnetcore</title>
<g id="a_node3"><a xlink:title="Built">
<path fill="#f5f5f5" stroke="black" stroke-dasharray="1,5" d="M681.167,-91.7002C681.167,-91.7002 636.833,-91.7002 636.833,-91.7002 633.167,-91.7002 629.5,-88.0336 629.5,-84.3669 629.5,-84.3669 629.5,-77.0336 629.5,-77.0336 629.5,-73.3669 633.167,-69.7002 636.833,-69.7002 636.833,-69.7002 681.167,-69.7002 681.167,-69.7002 684.833,-69.7002 688.5,-73.3669 688.5,-77.0336 688.5,-77.0336 688.5,-84.3669 688.5,-84.3669 688.5,-88.0336 684.833,-91.7002 681.167,-91.7002"/>
<text text-anchor="middle" x="659" y="-77.9002" font-family="Times New Roman,serif" font-size="11.00">aspnetcore</text>
</a>
</g>
</g>
<!-- installer -->
<g id="node16" class="node"><title>installer</title>
<g id="a_node16"><a xlink:title="Built">
<path fill="#f5f5f5" stroke="black" stroke-dasharray="1,5" d="M835.667,-219.7C835.667,-219.7 806.333,-219.7 806.333,-219.7 802.667,-219.7 799,-216.034 799,-212.367 799,-212.367 799,-205.034 799,-205.034 799,-201.367 802.667,-197.7 806.333,-197.7 806.333,-197.7 835.667,-197.7 835.667,-197.7 839.333,-197.7 843,-201.367 843,-205.034 843,-205.034 843,-212.367 843,-212.367 843,-216.034 839.333,-219.7 835.667,-219.7"/>
<text text-anchor="middle" x="821" y="-205.9" font-family="Times New Roman,serif" font-size="11.00">installer</text>
</a>
</g>
</g>
<!-- aspnetcore&#45;&gt;installer -->
<g id="edge19" class="edge"><title>aspnetcore&#45;&gt;installer</title>
<path fill="none" stroke="black" d="M688.574,-78.3505C717.982,-77.5673 763.3,-81.1593 791,-106.7 814.775,-128.622 819.577,-168.484 820.249,-191.345"/>
<polygon fill="black" stroke="black" points="820.342,-197.585 817.553,-191.625 820.297,-194.585 820.252,-191.585 820.252,-191.585 820.252,-191.585 820.297,-194.585 822.952,-191.545 820.342,-197.585 820.342,-197.585"/>
</g>
<!-- clicommandlineparser -->
<g id="node4" class="node"><title>clicommandlineparser</title>
<g id="a_node4"><a xlink:title="Built">
<path fill="#f5f5f5" stroke="black" stroke-dasharray="1,5" d="M431.667,-417.7C431.667,-417.7 340.333,-417.7 340.333,-417.7 336.667,-417.7 333,-414.034 333,-410.367 333,-410.367 333,-403.034 333,-403.034 333,-399.367 336.667,-395.7 340.333,-395.7 340.333,-395.7 431.667,-395.7 431.667,-395.7 435.333,-395.7 439,-399.367 439,-403.034 439,-403.034 439,-410.367 439,-410.367 439,-414.034 435.333,-417.7 431.667,-417.7"/>
<text text-anchor="middle" x="386" y="-403.9" font-family="Times New Roman,serif" font-size="11.00">clicommandlineparser</text>
</a>
</g>
</g>
<!-- templating -->
<g id="node14" class="node"><title>templating</title>
<g id="a_node14"><a xlink:title="Built">
<path fill="#f5f5f5" stroke="black" stroke-dasharray="1,5" d="M509.167,-391.7C509.167,-391.7 467.833,-391.7 467.833,-391.7 464.167,-391.7 460.5,-388.034 460.5,-384.367 460.5,-384.367 460.5,-377.034 460.5,-377.034 460.5,-373.367 464.167,-369.7 467.833,-369.7 467.833,-369.7 509.167,-369.7 509.167,-369.7 512.833,-369.7 516.5,-373.367 516.5,-377.034 516.5,-377.034 516.5,-384.367 516.5,-384.367 516.5,-388.034 512.833,-391.7 509.167,-391.7"/>
<text text-anchor="middle" x="488.5" y="-377.9" font-family="Times New Roman,serif" font-size="11.00">templating</text>
</a>
</g>
</g>
<!-- clicommandlineparser&#45;&gt;templating -->
<g id="edge69" class="edge"><title>clicommandlineparser&#45;&gt;templating</title>
<path fill="none" stroke="black" d="M429.621,-395.674C437.892,-393.534 446.444,-391.322 454.355,-389.275"/>
<polygon fill="black" stroke="black" points="460.264,-387.746 455.131,-391.863 457.36,-388.498 454.455,-389.249 454.455,-389.249 454.455,-389.249 457.36,-388.498 453.779,-386.635 460.264,-387.746 460.264,-387.746"/>
</g>
<!-- clicommandlineparser&#45;&gt;installer -->
<g id="edge20" class="edge"><title>clicommandlineparser&#45;&gt;installer</title>
<path fill="none" stroke="black" d="M439.282,-408.385C477.665,-409.478 531.069,-410.7 578,-410.7 578,-410.7 578,-410.7 660,-410.7 689.153,-410.7 769.438,-423.32 791,-403.7 816.945,-380.092 819.934,-269.273 820.095,-226.037"/>
<polygon fill="black" stroke="black" points="820.1,-219.934 822.795,-225.936 820.098,-222.934 820.095,-225.934 820.095,-225.934 820.095,-225.934 820.098,-222.934 817.395,-225.932 820.1,-219.934 820.1,-219.934"/>
</g>
<!-- command&#45;line&#45;api -->
<g id="node5" class="node"><title>command&#45;line&#45;api</title>
<g id="a_node5"><a xlink:title="Built">
<path fill="#f5f5f5" stroke="black" stroke-dasharray="1,5" d="M317.667,-99.7002C317.667,-99.7002 243.333,-99.7002 243.333,-99.7002 239.667,-99.7002 236,-96.0336 236,-92.3669 236,-92.3669 236,-85.0336 236,-85.0336 236,-81.3669 239.667,-77.7002 243.333,-77.7002 243.333,-77.7002 317.667,-77.7002 317.667,-77.7002 321.333,-77.7002 325,-81.3669 325,-85.0336 325,-85.0336 325,-92.3669 325,-92.3669 325,-96.0336 321.333,-99.7002 317.667,-99.7002"/>
<text text-anchor="middle" x="280.5" y="-85.9002" font-family="Times New Roman,serif" font-size="11.00">command&#45;line&#45;api</text>
</a>
</g>
</g>
<!-- roslyn -->
<g id="node9" class="node"><title>roslyn</title>
<g id="a_node9"><a xlink:title="Built">
<path fill="#f5f5f5" stroke="black" stroke-dasharray="1,5" d="M397.167,-91.7002C397.167,-91.7002 374.833,-91.7002 374.833,-91.7002 371.167,-91.7002 367.5,-88.0336 367.5,-84.3669 367.5,-84.3669 367.5,-77.0336 367.5,-77.0336 367.5,-73.3669 371.167,-69.7002 374.833,-69.7002 374.833,-69.7002 397.167,-69.7002 397.167,-69.7002 400.833,-69.7002 404.5,-73.3669 404.5,-77.0336 404.5,-77.0336 404.5,-84.3669 404.5,-84.3669 404.5,-88.0336 400.833,-91.7002 397.167,-91.7002"/>
<text text-anchor="middle" x="386" y="-77.9002" font-family="Times New Roman,serif" font-size="11.00">roslyn</text>
</a>
</g>
</g>
<!-- command&#45;line&#45;api&#45;&gt;roslyn -->
<g id="edge44" class="edge"><title>command&#45;line&#45;api&#45;&gt;roslyn</title>
<path fill="none" stroke="black" d="M325.093,-85.3307C337.562,-84.3669 350.68,-83.353 361.451,-82.5205"/>
<polygon fill="black" stroke="black" points="367.498,-82.053 361.724,-85.2075 364.507,-82.2843 361.516,-82.5155 361.516,-82.5155 361.516,-82.5155 364.507,-82.2843 361.308,-79.8235 367.498,-82.053 367.498,-82.053"/>
</g>
<!-- fsharp -->
<g id="node6" class="node"><title>fsharp</title>
<g id="a_node6"><a xlink:title="Built">
<path fill="#f5f5f5" stroke="black" stroke-dasharray="1,5" d="M670.667,-263.7C670.667,-263.7 647.333,-263.7 647.333,-263.7 643.667,-263.7 640,-260.034 640,-256.367 640,-256.367 640,-249.034 640,-249.034 640,-245.367 643.667,-241.7 647.333,-241.7 647.333,-241.7 670.667,-241.7 670.667,-241.7 674.333,-241.7 678,-245.367 678,-249.034 678,-249.034 678,-256.367 678,-256.367 678,-260.034 674.333,-263.7 670.667,-263.7"/>
<text text-anchor="middle" x="659" y="-249.9" font-family="Times New Roman,serif" font-size="11.00">fsharp</text>
</a>
</g>
</g>
<!-- sdk -->
<g id="node13" class="node"><title>sdk</title>
<g id="a_node13"><a xlink:title="Built">
<path fill="#f5f5f5" stroke="black" stroke-dasharray="1,5" d="M750.167,-238.7C750.167,-238.7 738.833,-238.7 738.833,-238.7 735.167,-238.7 731.5,-235.034 731.5,-231.367 731.5,-231.367 731.5,-224.034 731.5,-224.034 731.5,-220.367 735.167,-216.7 738.833,-216.7 738.833,-216.7 750.167,-216.7 750.167,-216.7 753.833,-216.7 757.5,-220.367 757.5,-224.034 757.5,-224.034 757.5,-231.367 757.5,-231.367 757.5,-235.034 753.833,-238.7 750.167,-238.7"/>
<text text-anchor="middle" x="744.5" y="-224.9" font-family="Times New Roman,serif" font-size="11.00">sdk</text>
</a>
</g>
</g>
<!-- fsharp&#45;&gt;sdk -->
<g id="edge67" class="edge"><title>fsharp&#45;&gt;sdk</title>
<path fill="none" stroke="black" d="M678.118,-247.276C692.094,-243.091 711.338,-237.33 725.327,-233.141"/>
<polygon fill="black" stroke="black" points="731.347,-231.339 726.374,-235.646 728.473,-232.199 725.599,-233.06 725.599,-233.06 725.599,-233.06 728.473,-232.199 724.825,-230.473 731.347,-231.339 731.347,-231.339"/>
</g>
<!-- fsharp&#45;&gt;installer -->
<g id="edge21" class="edge"><title>fsharp&#45;&gt;installer</title>
<path fill="none" stroke="black" d="M678.056,-255.009C704.396,-257.533 754.218,-259.059 791,-240.7 798.232,-237.09 804.517,-230.846 809.368,-224.825"/>
<polygon fill="black" stroke="black" points="813.096,-219.884 811.638,-226.3 811.29,-222.279 809.483,-224.674 809.483,-224.674 809.483,-224.674 811.29,-222.279 807.327,-223.048 813.096,-219.884 813.096,-219.884"/>
</g>
<!-- msbuild -->
<g id="node7" class="node"><title>msbuild</title>
<g id="a_node7"><a xlink:title="Built">
<path fill="#f5f5f5" stroke="black" stroke-dasharray="1,5" d="M593.667,-189.7C593.667,-189.7 564.333,-189.7 564.333,-189.7 560.667,-189.7 557,-186.034 557,-182.367 557,-182.367 557,-175.034 557,-175.034 557,-171.367 560.667,-167.7 564.333,-167.7 564.333,-167.7 593.667,-167.7 593.667,-167.7 597.333,-167.7 601,-171.367 601,-175.034 601,-175.034 601,-182.367 601,-182.367 601,-186.034 597.333,-189.7 593.667,-189.7"/>
<text text-anchor="middle" x="579" y="-175.9" font-family="Times New Roman,serif" font-size="11.00">msbuild</text>
</a>
</g>
</g>
<!-- msbuild&#45;&gt;aspnetcore -->
<g id="edge6" class="edge"><title>msbuild&#45;&gt;aspnetcore</title>
<path fill="none" stroke="black" d="M588.948,-167.458C602.818,-150.031 629.557,-116.437 645.383,-96.5526"/>
<polygon fill="black" stroke="black" points="649.157,-91.811 647.533,-98.187 647.289,-94.1583 645.42,-96.5055 645.42,-96.5055 645.42,-96.5055 647.289,-94.1583 643.308,-94.8241 649.157,-91.811 649.157,-91.811"/>
</g>
<!-- msbuild&#45;&gt;fsharp -->
<g id="edge13" class="edge"><title>msbuild&#45;&gt;fsharp</title>
<path fill="none" stroke="black" d="M601.262,-183.86C607.739,-186.139 614.573,-189.324 620,-193.7 627.517,-199.763 640.297,-220.943 648.938,-236.191"/>
<polygon fill="black" stroke="black" points="651.917,-241.502 646.627,-237.59 650.45,-238.886 648.982,-236.269 648.982,-236.269 648.982,-236.269 650.45,-238.886 651.337,-234.948 651.917,-241.502 651.917,-241.502"/>
</g>
<!-- msbuild&#45;&gt;nuget&#45;client -->
<g id="edge39" class="edge"><title>msbuild&#45;&gt;nuget&#45;client</title>
<path fill="none" stroke="black" d="M601.383,-182.102C608.345,-184.278 615.445,-187.847 620,-193.7 629.887,-206.405 623.166,-250.345 628,-265.7 632.339,-279.482 640.253,-293.771 646.864,-304.33"/>
<polygon fill="black" stroke="black" points="650.176,-309.488 644.662,-305.898 648.555,-306.964 646.934,-304.439 646.934,-304.439 646.934,-304.439 648.555,-306.964 649.206,-302.981 650.176,-309.488 650.176,-309.488"/>
</g>
<!-- msbuild&#45;&gt;sdk -->
<g id="edge61" class="edge"><title>msbuild&#45;&gt;sdk</title>
<path fill="none" stroke="black" d="M601.04,-185.006C633.409,-194.707 694.87,-213.126 725.38,-222.27"/>
<polygon fill="black" stroke="black" points="731.4,-224.074 724.877,-224.938 728.526,-223.213 725.652,-222.351 725.652,-222.351 725.652,-222.351 728.526,-223.213 726.427,-219.765 731.4,-224.074 731.4,-224.074"/>
</g>
<!-- msbuild&#45;&gt;installer -->
<g id="edge22" class="edge"><title>msbuild&#45;&gt;installer</title>
<path fill="none" stroke="black" d="M601.298,-181.363C644.886,-186.811 744.216,-199.227 792.556,-205.27"/>
<polygon fill="black" stroke="black" points="798.749,-206.044 792.461,-207.979 795.772,-205.672 792.796,-205.3 792.796,-205.3 792.796,-205.3 795.772,-205.672 793.131,-202.62 798.749,-206.044 798.749,-206.044"/>
</g>
<!-- nuget&#45;client&#45;&gt;sdk -->
<g id="edge64" class="edge"><title>nuget&#45;client&#45;&gt;sdk</title>
<path fill="none" stroke="black" d="M685.499,-309.683C687.123,-308.471 688.646,-307.145 690,-305.7 696.264,-299.014 693.386,-294.616 698,-286.7 707.119,-271.055 719.872,-254.876 729.557,-243.427"/>
<polygon fill="black" stroke="black" points="733.5,-238.825 731.647,-245.138 731.548,-241.103 729.596,-243.381 729.596,-243.381 729.596,-243.381 731.548,-241.103 727.546,-241.624 733.5,-238.825 733.5,-238.825"/>
</g>
<!-- nuget&#45;client&#45;&gt;installer -->
<g id="edge26" class="edge"><title>nuget&#45;client&#45;&gt;installer</title>
<path fill="none" stroke="black" d="M690.239,-310.17C718.66,-299.157 761.173,-279.698 791,-252.7 799.538,-244.972 806.691,-234.206 811.757,-225.258"/>
<polygon fill="black" stroke="black" points="814.635,-219.965 814.141,-226.526 813.202,-222.6 811.769,-225.236 811.769,-225.236 811.769,-225.236 813.202,-222.6 809.397,-223.946 814.635,-219.965 814.635,-219.965"/>
</g>
<!-- roslyn&#45;&gt;aspnetcore -->
<g id="edge7" class="edge"><title>roslyn&#45;&gt;aspnetcore</title>
<path fill="none" stroke="black" d="M404.533,-72.9681C444.151,-56.6411 543.115,-22.3173 620,-49.7002 628.82,-52.8416 637.075,-59.0044 643.622,-65.0132"/>
<polygon fill="black" stroke="black" points="648.277,-69.5256 642.089,-67.2881 646.123,-67.4375 643.969,-65.3494 643.969,-65.3494 643.969,-65.3494 646.123,-67.4375 645.848,-63.4108 648.277,-69.5256 648.277,-69.5256"/>
</g>
<!-- roslyn&#45;&gt;msbuild -->
<g id="edge36" class="edge"><title>roslyn&#45;&gt;msbuild</title>
<path fill="none" stroke="black" d="M404.714,-85.1269C442.401,-94.5657 527.33,-115.956 530,-117.7 547.131,-128.891 560.827,-148.267 569.136,-162.181"/>
<polygon fill="black" stroke="black" points="572.155,-167.402 566.814,-163.56 570.653,-164.805 569.151,-162.208 569.151,-162.208 569.151,-162.208 570.653,-164.805 571.488,-160.856 572.155,-167.402 572.155,-167.402"/>
</g>
<!-- roslyn&#45;analyzers -->
<g id="node10" class="node"><title>roslyn&#45;analyzers</title>
<g id="a_node10"><a xlink:title="Built">
<path fill="#f5f5f5" stroke="black" stroke-dasharray="1,5" d="M612.667,-110.7C612.667,-110.7 545.333,-110.7 545.333,-110.7 541.667,-110.7 538,-107.034 538,-103.367 538,-103.367 538,-96.0336 538,-96.0336 538,-92.3669 541.667,-88.7002 545.333,-88.7002 545.333,-88.7002 612.667,-88.7002 612.667,-88.7002 616.333,-88.7002 620,-92.3669 620,-96.0336 620,-96.0336 620,-103.367 620,-103.367 620,-107.034 616.333,-110.7 612.667,-110.7"/>
<text text-anchor="middle" x="579" y="-96.9002" font-family="Times New Roman,serif" font-size="11.00">roslyn&#45;analyzers</text>
</a>
</g>
</g>
<!-- roslyn&#45;&gt;roslyn&#45;analyzers -->
<g id="edge42" class="edge"><title>roslyn&#45;&gt;roslyn&#45;analyzers</title>
<path fill="none" stroke="black" d="M404.626,-82.4537C433.263,-85.3023 490.804,-91.0263 531.736,-95.098"/>
<polygon fill="black" stroke="black" points="537.902,-95.7114 531.664,-97.8042 534.917,-95.4144 531.931,-95.1174 531.931,-95.1174 531.931,-95.1174 534.917,-95.4144 532.199,-92.4307 537.902,-95.7114 537.902,-95.7114"/>
</g>
<!-- runtime -->
<g id="node11" class="node"><title>runtime</title>
<g id="a_node11"><a xlink:title="Built">
<path fill="#f5f5f5" stroke="black" stroke-dasharray="1,5" d="M503.167,-140.7C503.167,-140.7 473.833,-140.7 473.833,-140.7 470.167,-140.7 466.5,-137.034 466.5,-133.367 466.5,-133.367 466.5,-126.034 466.5,-126.034 466.5,-122.367 470.167,-118.7 473.833,-118.7 473.833,-118.7 503.167,-118.7 503.167,-118.7 506.833,-118.7 510.5,-122.367 510.5,-126.034 510.5,-126.034 510.5,-133.367 510.5,-133.367 510.5,-137.034 506.833,-140.7 503.167,-140.7"/>
<text text-anchor="middle" x="488.5" y="-126.9" font-family="Times New Roman,serif" font-size="11.00">runtime</text>
</a>
</g>
</g>
<!-- roslyn&#45;&gt;runtime -->
<g id="edge57" class="edge"><title>roslyn&#45;&gt;runtime</title>
<path fill="none" stroke="black" d="M404.934,-88.6954C415.246,-93.6105 428.246,-100.36 439,-107.7 442.902,-110.363 442.94,-112.284 447,-114.7 451.168,-117.18 455.816,-119.365 460.434,-121.245"/>
<polygon fill="black" stroke="black" points="466.231,-123.463 459.662,-123.84 463.429,-122.391 460.627,-121.319 460.627,-121.319 460.627,-121.319 463.429,-122.391 461.592,-118.797 466.231,-123.463 466.231,-123.463"/>
</g>
<!-- runtime&#45;portable -->
<g id="node12" class="node"><title>runtime&#45;portable</title>
<g id="a_node12"><a xlink:title="Built">
<path fill="#f5f5f5" stroke="black" stroke-dasharray="1,5" d="M522.667,-178.7C522.667,-178.7 454.333,-178.7 454.333,-178.7 450.667,-178.7 447,-175.034 447,-171.367 447,-171.367 447,-164.034 447,-164.034 447,-160.367 450.667,-156.7 454.333,-156.7 454.333,-156.7 522.667,-156.7 522.667,-156.7 526.333,-156.7 530,-160.367 530,-164.034 530,-164.034 530,-171.367 530,-171.367 530,-175.034 526.333,-178.7 522.667,-178.7"/>
<text text-anchor="middle" x="488.5" y="-164.9" font-family="Times New Roman,serif" font-size="11.00">runtime&#45;portable</text>
</a>
</g>
</g>
<!-- roslyn&#45;&gt;runtime&#45;portable -->
<g id="edge51" class="edge"><title>roslyn&#45;&gt;runtime&#45;portable</title>
<path fill="none" stroke="black" d="M401.958,-91.8859C413.111,-100.744 428.216,-113.888 439,-127.7 443.65,-133.656 441.829,-137.192 447,-142.7 450.659,-146.597 455.054,-150.121 459.581,-153.211"/>
<polygon fill="black" stroke="black" points="464.918,-156.636 458.41,-155.668 462.393,-155.016 459.868,-153.396 459.868,-153.396 459.868,-153.396 462.393,-155.016 461.327,-151.124 464.918,-156.636 464.918,-156.636"/>
</g>
<!-- roslyn&#45;&gt;installer -->
<g id="edge27" class="edge"><title>roslyn&#45;&gt;installer</title>
<path fill="none" stroke="black" d="M399.876,-69.6642C411.431,-60.3893 429.257,-47.5771 447,-40.7002 501.916,-19.4158 519.103,-20.7002 578,-20.7002 578,-20.7002 578,-20.7002 660,-20.7002 723.495,-20.7002 750.626,-28.6947 791,-77.7002 818.287,-110.821 821.319,-164.116 820.874,-191.395"/>
<polygon fill="black" stroke="black" points="820.711,-197.43 818.174,-191.359 820.792,-194.431 820.873,-191.432 820.873,-191.432 820.873,-191.432 820.792,-194.431 823.572,-191.505 820.711,-197.43 820.711,-197.43"/>
</g>
<!-- roslyn&#45;analyzers&#45;&gt;aspnetcore -->
<g id="edge8" class="edge"><title>roslyn&#45;analyzers&#45;&gt;aspnetcore</title>
<path fill="none" stroke="black" d="M620.371,-89.8663C621.3,-89.6399 622.228,-89.4138 623.154,-89.1885"/>
<polygon fill="black" stroke="black" points="629.191,-87.7178 624.001,-91.7612 626.276,-88.4278 623.362,-89.1379 623.362,-89.1379 623.362,-89.1379 626.276,-88.4278 622.723,-86.5146 629.191,-87.7178 629.191,-87.7178"/>
</g>
<!-- roslyn&#45;analyzers&#45;&gt;sdk -->
<g id="edge65" class="edge"><title>roslyn&#45;analyzers&#45;&gt;sdk</title>
<path fill="none" stroke="black" d="M620.039,-95.5031C643.558,-95.3658 672.092,-99.6209 690,-117.7 706.455,-134.313 688.702,-148.245 698,-169.7 704.946,-185.729 717.421,-201.155 727.554,-212.063"/>
<polygon fill="black" stroke="black" points="731.73,-216.45 725.637,-213.966 729.661,-214.277 727.593,-212.104 727.593,-212.104 727.593,-212.104 729.661,-214.277 729.548,-210.242 731.73,-216.45 731.73,-216.45"/>
</g>
<!-- runtime&#45;&gt;aspnetcore -->
<g id="edge5" class="edge"><title>runtime&#45;&gt;aspnetcore</title>
<path fill="none" stroke="black" d="M498.551,-118.475C507.414,-108.407 521.902,-94.2418 538,-87.7002 565.091,-76.6914 598.477,-75.637 623.151,-76.9379"/>
<polygon fill="black" stroke="black" points="629.227,-77.3148 623.071,-79.6381 626.233,-77.129 623.239,-76.9433 623.239,-76.9433 623.239,-76.9433 626.233,-77.129 623.406,-74.2485 629.227,-77.3148 629.227,-77.3148"/>
</g>
<!-- runtime&#45;&gt;msbuild -->
<g id="edge35" class="edge"><title>runtime&#45;&gt;msbuild</title>
<path fill="none" stroke="black" d="M510.5,-135.549C517.03,-137.864 524.066,-140.897 530,-144.7 534.233,-147.414 534.093,-149.535 538,-152.7 542.923,-156.689 548.476,-160.615 553.842,-164.161"/>
<polygon fill="black" stroke="black" points="559.117,-167.567 552.612,-166.58 556.597,-165.939 554.076,-164.312 554.076,-164.312 554.076,-164.312 556.597,-165.939 555.541,-162.044 559.117,-167.567 559.117,-167.567"/>
</g>
<!-- runtime&#45;&gt;roslyn&#45;analyzers -->
<g id="edge41" class="edge"><title>runtime&#45;&gt;roslyn&#45;analyzers</title>
<path fill="none" stroke="black" d="M510.923,-122.438C519.562,-119.51 529.798,-116.04 539.639,-112.704"/>
<polygon fill="black" stroke="black" points="545.372,-110.761 540.556,-115.244 542.531,-111.724 539.689,-112.687 539.689,-112.687 539.689,-112.687 542.531,-111.724 538.823,-110.13 545.372,-110.761 545.372,-110.761"/>
</g>
<!-- runtime&#45;&gt;sdk -->
<g id="edge60" class="edge"><title>runtime&#45;&gt;sdk</title>
<path fill="none" stroke="black" d="M510.643,-133.783C548.273,-141.594 628.668,-160.777 690,-192.7 702.576,-199.246 715.922,-207.973 726.138,-215.076"/>
<polygon fill="black" stroke="black" points="731.174,-218.621 724.714,-217.375 728.721,-216.894 726.268,-215.167 726.268,-215.167 726.268,-215.167 728.721,-216.894 727.823,-212.959 731.174,-218.621 731.174,-218.621"/>
</g>
<!-- vstest -->
<g id="node15" class="node"><title>vstest</title>
<g id="a_node15"><a xlink:title="Built">
<path fill="#f5f5f5" stroke="black" stroke-dasharray="1,5" d="M589.667,-216.7C589.667,-216.7 568.333,-216.7 568.333,-216.7 564.667,-216.7 561,-213.034 561,-209.367 561,-209.367 561,-202.034 561,-202.034 561,-198.367 564.667,-194.7 568.333,-194.7 568.333,-194.7 589.667,-194.7 589.667,-194.7 593.333,-194.7 597,-198.367 597,-202.034 597,-202.034 597,-209.367 597,-209.367 597,-213.034 593.333,-216.7 589.667,-216.7"/>
<text text-anchor="middle" x="579" y="-202.9" font-family="Times New Roman,serif" font-size="11.00">vstest</text>
</a>
</g>
</g>
<!-- runtime&#45;&gt;vstest -->
<g id="edge73" class="edge"><title>runtime&#45;&gt;vstest</title>
<path fill="none" stroke="black" d="M510.524,-133.072C517.684,-135.247 525.107,-138.822 530,-144.7 543.275,-160.65 524.757,-174.724 538,-190.7 542.348,-195.946 548.728,-199.359 555.12,-201.578"/>
<polygon fill="black" stroke="black" points="560.936,-203.3 554.417,-204.186 558.06,-202.448 555.183,-201.597 555.183,-201.597 555.183,-201.597 558.06,-202.448 555.949,-199.008 560.936,-203.3 560.936,-203.3"/>
</g>
<!-- runtime&#45;&gt;installer -->
<g id="edge28" class="edge"><title>runtime&#45;&gt;installer</title>
<path fill="none" stroke="black" d="M510.711,-127.356C575.622,-120.388 768.532,-101.279 791,-117.7 814.172,-134.636 819.267,-170.273 820.136,-191.578"/>
<polygon fill="black" stroke="black" points="820.286,-197.694 817.44,-191.762 820.213,-194.695 820.139,-191.696 820.139,-191.696 820.139,-191.696 820.213,-194.695 822.838,-191.63 820.286,-197.694 820.286,-197.694"/>
</g>
<!-- sdk&#45;&gt;installer -->
<g id="edge29" class="edge"><title>sdk&#45;&gt;installer</title>
<path fill="none" stroke="black" d="M757.802,-224.563C767.304,-222.139 780.815,-218.694 792.818,-215.633"/>
<polygon fill="black" stroke="black" points="798.928,-214.074 793.782,-218.173 796.021,-214.816 793.114,-215.557 793.114,-215.557 793.114,-215.557 796.021,-214.816 792.447,-212.941 798.928,-214.074 798.928,-214.074"/>
</g>
<!-- templating&#45;&gt;installer -->
<g id="edge30" class="edge"><title>templating&#45;&gt;installer</title>
<path fill="none" stroke="black" d="M516.825,-382.343C583.327,-385.735 751.08,-390.452 791,-354.7 809.86,-337.81 816.838,-261.247 819.075,-226.25"/>
<polygon fill="black" stroke="black" points="819.461,-219.835 821.795,-225.986 819.28,-222.83 819.1,-225.824 819.1,-225.824 819.1,-225.824 819.28,-222.83 816.405,-225.662 819.461,-219.835 819.461,-219.835"/>
</g>
<!-- vstest&#45;&gt;sdk -->
<g id="edge66" class="edge"><title>vstest&#45;&gt;sdk</title>
<path fill="none" stroke="black" d="M597.32,-208.293C606.444,-209.642 617.822,-211.297 628,-212.7 662.275,-217.425 702.331,-222.535 725.128,-225.404"/>
<polygon fill="black" stroke="black" points="731.353,-226.186 725.063,-228.117 728.376,-225.812 725.399,-225.438 725.399,-225.438 725.399,-225.438 728.376,-225.812 725.736,-222.759 731.353,-226.186 731.353,-226.186"/>
</g>
<!-- vstest&#45;&gt;installer -->
<g id="edge32" class="edge"><title>vstest&#45;&gt;installer</title>
<path fill="none" stroke="black" d="M597.26,-205.916C638.489,-206.431 742.966,-207.737 792.777,-208.36"/>
<polygon fill="black" stroke="black" points="798.859,-208.436 792.826,-211.061 795.86,-208.398 792.86,-208.361 792.86,-208.361 792.86,-208.361 795.86,-208.398 792.894,-205.661 798.859,-208.436 798.859,-208.436"/>
</g>
<!-- symreader -->
<g id="node17" class="node"><title>symreader</title>
<g id="a_node17"><a xlink:title="Built">
<path fill="#f5f5f5" stroke="black" stroke-dasharray="1,5" d="M301.667,-164.7C301.667,-164.7 259.333,-164.7 259.333,-164.7 255.667,-164.7 252,-161.034 252,-157.367 252,-157.367 252,-150.034 252,-150.034 252,-146.367 255.667,-142.7 259.333,-142.7 259.333,-142.7 301.667,-142.7 301.667,-142.7 305.333,-142.7 309,-146.367 309,-150.034 309,-150.034 309,-157.367 309,-157.367 309,-161.034 305.333,-164.7 301.667,-164.7"/>
<text text-anchor="middle" x="280.5" y="-150.9" font-family="Times New Roman,serif" font-size="11.00">symreader</text>
</a>
</g>
</g>
<!-- symreader&#45;&gt;runtime -->
<g id="edge53" class="edge"><title>symreader&#45;&gt;runtime</title>
<path fill="none" stroke="black" d="M309.196,-146.538C314.68,-144.474 320.215,-141.891 325,-138.7 329.453,-135.731 328.118,-131.893 333,-129.7 374.291,-111.158 428.279,-117.061 460.283,-123.239"/>
<polygon fill="black" stroke="black" points="466.38,-124.471 459.964,-125.929 463.439,-123.876 460.499,-123.282 460.499,-123.282 460.499,-123.282 463.439,-123.876 461.034,-120.636 466.38,-124.471 466.38,-124.471"/>
</g>
<!-- common -->
<g id="node18" class="node"><title>common</title>
<g id="a_node18"><a xlink:title="Built">
<path fill="#f5f5f5" stroke="black" stroke-dasharray="1,5" d="M505.167,-342.7C505.167,-342.7 471.833,-342.7 471.833,-342.7 468.167,-342.7 464.5,-339.034 464.5,-335.367 464.5,-335.367 464.5,-328.034 464.5,-328.034 464.5,-324.367 468.167,-320.7 471.833,-320.7 471.833,-320.7 505.167,-320.7 505.167,-320.7 508.833,-320.7 512.5,-324.367 512.5,-328.034 512.5,-328.034 512.5,-335.367 512.5,-335.367 512.5,-339.034 508.833,-342.7 505.167,-342.7"/>
<text text-anchor="middle" x="488.5" y="-328.9" font-family="Times New Roman,serif" font-size="11.00">common</text>
</a>
</g>
</g>
<!-- common&#45;&gt;nuget&#45;client -->
<g id="edge37" class="edge"><title>common&#45;&gt;nuget&#45;client</title>
<path fill="none" stroke="black" d="M512.576,-330.194C540.747,-328.355 588.715,-325.223 621.813,-323.063"/>
<polygon fill="black" stroke="black" points="627.812,-322.671 622,-325.756 624.818,-322.866 621.825,-323.062 621.825,-323.062 621.825,-323.062 624.818,-322.866 621.649,-320.368 627.812,-322.671 627.812,-322.671"/>
</g>
<!-- test&#45;templates -->
<g id="node19" class="node"><title>test&#45;templates</title>
<g id="a_node19"><a xlink:title="Built">
<path fill="#f5f5f5" stroke="black" stroke-dasharray="1,5" d="M309.167,-434.7C309.167,-434.7 251.833,-434.7 251.833,-434.7 248.167,-434.7 244.5,-431.034 244.5,-427.367 244.5,-427.367 244.5,-420.034 244.5,-420.034 244.5,-416.367 248.167,-412.7 251.833,-412.7 251.833,-412.7 309.167,-412.7 309.167,-412.7 312.833,-412.7 316.5,-416.367 316.5,-420.034 316.5,-420.034 316.5,-427.367 316.5,-427.367 316.5,-431.034 312.833,-434.7 309.167,-434.7"/>
<text text-anchor="middle" x="280.5" y="-420.9" font-family="Times New Roman,serif" font-size="11.00">test&#45;templates</text>
</a>
</g>
</g>
<!-- test&#45;templates&#45;&gt;installer -->
<g id="edge31" class="edge"><title>test&#45;templates&#45;&gt;installer</title>
<path fill="none" stroke="black" d="M316.857,-424.252C357.89,-424.844 427.593,-425.7 487.5,-425.7 487.5,-425.7 487.5,-425.7 660,-425.7 718.466,-425.7 748.654,-454.013 791,-413.7 817.861,-388.129 820.261,-270.586 820.182,-225.956"/>
<polygon fill="black" stroke="black" points="820.155,-219.92 822.882,-225.907 820.168,-222.92 820.182,-225.92 820.182,-225.92 820.182,-225.92 820.168,-222.92 817.482,-225.932 820.155,-219.92 820.155,-219.92"/>
</g>
<!-- pre1 -->
<g id="node20" class="node"><title>pre1</title>
<g id="a_node20"><a xlink:title="Inputs ready">
<polygon fill="#f7caac" stroke="black" points="126,-155.7 61,-155.7 61,-133.7 126,-133.7 126,-155.7"/>
<polyline fill="none" stroke="black" points="68.3333,-155.7 61,-148.367 "/>
<polyline fill="none" stroke="black" points="61,-141.034 68.3333,-133.7 "/>
<polyline fill="none" stroke="black" points="118.667,-133.7 126,-141.034 "/>
<polyline fill="none" stroke="black" points="126,-148.367 118.667,-155.7 "/>
<text text-anchor="middle" x="93.5" y="-141.9" font-family="Times New Roman,serif" font-size="11.00">Inputs ready</text>
</a>
</g>
</g>
<!-- application&#45;insights -->
<g id="node21" class="node"><title>application&#45;insights</title>
<g id="a_node21"><a xlink:title="Inputs ready">
<polygon fill="#f7caac" stroke="black" points="791,-167.7 698,-167.7 698,-145.7 791,-145.7 791,-167.7"/>
<polyline fill="none" stroke="black" points="705.333,-167.7 698,-160.367 "/>
<polyline fill="none" stroke="black" points="698,-153.034 705.333,-145.7 "/>
<polyline fill="none" stroke="black" points="783.667,-145.7 791,-153.034 "/>
<polyline fill="none" stroke="black" points="791,-160.367 783.667,-167.7 "/>
<text text-anchor="middle" x="744.5" y="-153.9" font-family="Times New Roman,serif" font-size="11.00">application&#45;insights</text>
</a>
</g>
</g>
<!-- application&#45;insights&#45;&gt;installer -->
<g id="edge17" class="edge"><title>application&#45;insights&#45;&gt;installer</title>
<path fill="none" stroke="black" d="M784.498,-167.778C786.77,-168.962 788.958,-170.266 791,-171.7 798.664,-177.083 805.284,-185.074 810.256,-192.254"/>
<polygon fill="black" stroke="black" points="813.727,-197.529 808.174,-194.001 812.079,-195.023 810.43,-192.517 810.43,-192.517 810.43,-192.517 812.079,-195.023 812.685,-191.033 813.727,-197.529 813.727,-197.529"/>
</g>
<!-- netcorecli&#45;fsc -->
<g id="node22" class="node"><title>netcorecli&#45;fsc</title>
<g id="a_node22"><a xlink:title="Inputs ready">
<polygon fill="#f7caac" stroke="black" points="780,-140.7 709,-140.7 709,-118.7 780,-118.7 780,-140.7"/>
<polyline fill="none" stroke="black" points="716.333,-140.7 709,-133.367 "/>
<polyline fill="none" stroke="black" points="709,-126.034 716.333,-118.7 "/>
<polyline fill="none" stroke="black" points="772.667,-118.7 780,-126.034 "/>
<polyline fill="none" stroke="black" points="780,-133.367 772.667,-140.7 "/>
<text text-anchor="middle" x="744.5" y="-126.9" font-family="Times New Roman,serif" font-size="11.00">netcorecli&#45;fsc</text>
</a>
</g>
</g>
<!-- netcorecli&#45;fsc&#45;&gt;installer -->
<g id="edge23" class="edge"><title>netcorecli&#45;fsc&#45;&gt;installer</title>
<path fill="none" stroke="black" d="M780.001,-137.589C783.995,-139.475 787.783,-141.81 791,-144.7 804.693,-157.001 812.319,-177.036 816.273,-191.414"/>
<polygon fill="black" stroke="black" points="817.84,-197.574 813.744,-192.424 817.1,-194.666 816.361,-191.759 816.361,-191.759 816.361,-191.759 817.1,-194.666 818.977,-191.093 817.84,-197.574 817.84,-197.574"/>
</g>
<!-- newtonsoft&#45;json -->
<g id="node23" class="node"><title>newtonsoft&#45;json</title>
<g id="a_node23"><a xlink:title="Inputs ready">
<polygon fill="#f7caac" stroke="black" points="426,-312.7 346,-312.7 346,-290.7 426,-290.7 426,-312.7"/>
<polyline fill="none" stroke="black" points="353.333,-312.7 346,-305.367 "/>
<polyline fill="none" stroke="black" points="346,-298.034 353.333,-290.7 "/>
<polyline fill="none" stroke="black" points="418.667,-290.7 426,-298.034 "/>
<polyline fill="none" stroke="black" points="426,-305.367 418.667,-312.7 "/>
<text text-anchor="middle" x="386" y="-298.9" font-family="Times New Roman,serif" font-size="11.00">newtonsoft&#45;json</text>
</a>
</g>
</g>
<!-- newtonsoft&#45;json&#45;&gt;fsharp -->
<g id="edge15" class="edge"><title>newtonsoft&#45;json&#45;&gt;fsharp</title>
<path fill="none" stroke="black" d="M426.304,-295.722C472.736,-288.481 552.239,-275.527 620,-261.7 624.476,-260.787 629.228,-259.731 633.8,-258.671"/>
<polygon fill="black" stroke="black" points="639.882,-257.235 634.663,-261.241 636.962,-257.925 634.042,-258.614 634.042,-258.614 634.042,-258.614 636.962,-257.925 633.422,-255.986 639.882,-257.235 639.882,-257.235"/>
</g>
<!-- newtonsoft&#45;json&#45;&gt;nuget&#45;client -->
<g id="edge38" class="edge"><title>newtonsoft&#45;json&#45;&gt;nuget&#45;client</title>
<path fill="none" stroke="black" d="M426.116,-304.443C478.514,-308.116 570.779,-314.585 621.7,-318.155"/>
<polygon fill="black" stroke="black" points="627.7,-318.576 621.525,-320.85 624.707,-318.366 621.714,-318.156 621.714,-318.156 621.714,-318.156 624.707,-318.366 621.903,-315.463 627.7,-318.576 627.7,-318.576"/>
</g>
<!-- newtonsoft&#45;json&#45;&gt;runtime -->
<g id="edge55" class="edge"><title>newtonsoft&#45;json&#45;&gt;runtime</title>
<path fill="none" stroke="black" d="M394.542,-290.492C406.043,-272.839 427.804,-237.122 439,-203.7 446.149,-182.361 434.344,-172.309 447,-153.7 450.516,-148.53 455.547,-144.307 460.874,-140.926"/>
<polygon fill="black" stroke="black" points="466.255,-137.823 462.407,-143.159 463.656,-139.322 461.057,-140.821 461.057,-140.821 461.057,-140.821 463.656,-139.322 459.708,-138.482 466.255,-137.823 466.255,-137.823"/>
</g>
<!-- newtonsoft&#45;json&#45;&gt;runtime&#45;portable -->
<g id="edge49" class="edge"><title>newtonsoft&#45;json&#45;&gt;runtime&#45;portable</title>
<path fill="none" stroke="black" d="M392.29,-290.565C401.688,-271.425 422.616,-231.562 447,-202.7 453.042,-195.548 460.602,-188.605 467.548,-182.813"/>
<polygon fill="black" stroke="black" points="472.233,-178.999 469.284,-184.881 469.906,-180.893 467.58,-182.787 467.58,-182.787 467.58,-182.787 469.906,-180.893 465.875,-180.693 472.233,-178.999 472.233,-178.999"/>
</g>
<!-- newtonsoft&#45;json&#45;&gt;sdk -->
<g id="edge62" class="edge"><title>newtonsoft&#45;json&#45;&gt;sdk</title>
<path fill="none" stroke="black" d="M426.152,-301.915C503.498,-301.975 670.153,-300.167 690,-283.7 701.282,-274.34 688.952,-263.235 698,-251.7 704.939,-242.855 716.054,-236.906 725.562,-233.143"/>
<polygon fill="black" stroke="black" points="731.222,-231.077 726.512,-235.671 728.404,-232.106 725.586,-233.135 725.586,-233.135 725.586,-233.135 728.404,-232.106 724.66,-230.598 731.222,-231.077 731.222,-231.077"/>
</g>
<!-- newtonsoft&#45;json&#45;&gt;templating -->
<g id="edge70" class="edge"><title>newtonsoft&#45;json&#45;&gt;templating</title>
<path fill="none" stroke="black" d="M398.5,-312.814C410.256,-323.942 429.258,-341.293 447,-354.7 452.308,-358.711 458.232,-362.743 463.876,-366.393"/>
<polygon fill="black" stroke="black" points="468.954,-369.628 462.442,-368.682 466.423,-368.016 463.893,-366.404 463.893,-366.404 463.893,-366.404 466.423,-368.016 465.343,-364.127 468.954,-369.628 468.954,-369.628"/>
</g>
<!-- newtonsoft&#45;json&#45;&gt;vstest -->
<g id="edge74" class="edge"><title>newtonsoft&#45;json&#45;&gt;vstest</title>
<path fill="none" stroke="black" d="M408.91,-290.688C445.371,-272.362 518.142,-235.786 555.19,-217.165"/>
<polygon fill="black" stroke="black" points="560.819,-214.336 556.67,-219.443 558.138,-215.683 555.458,-217.03 555.458,-217.03 555.458,-217.03 558.138,-215.683 554.245,-214.618 560.819,-214.336 560.819,-214.336"/>
</g>
<!-- newtonsoft&#45;json&#45;&gt;installer -->
<g id="edge24" class="edge"><title>newtonsoft&#45;json&#45;&gt;installer</title>
<path fill="none" stroke="black" d="M398.729,-312.96C410.07,-323.052 428.248,-337.234 447,-343.7 502.12,-362.707 519.695,-350.7 578,-350.7 578,-350.7 578,-350.7 660,-350.7 725.395,-350.7 747.22,-332.278 791,-283.7 805.769,-267.313 813.355,-242.579 816.998,-226.047"/>
<polygon fill="black" stroke="black" points="818.248,-219.936 819.691,-226.355 817.647,-222.875 817.045,-225.814 817.045,-225.814 817.045,-225.814 817.647,-222.875 814.4,-225.273 818.248,-219.936 818.248,-219.936"/>
</g>
<!-- newtonsoft&#45;json&#45;&gt;common -->
<g id="edge11" class="edge"><title>newtonsoft&#45;json&#45;&gt;common</title>
<path fill="none" stroke="black" d="M423.852,-312.701C435.291,-316.115 447.729,-319.828 458.55,-323.058"/>
<polygon fill="black" stroke="black" points="464.378,-324.798 457.857,-325.669 461.504,-323.94 458.629,-323.082 458.629,-323.082 458.629,-323.082 461.504,-323.94 459.401,-320.495 464.378,-324.798 464.378,-324.798"/>
</g>
<!-- newtonsoft&#45;json901 -->
<g id="node24" class="node"><title>newtonsoft&#45;json901</title>
<g id="a_node24"><a xlink:title="Inputs ready">
<polygon fill="#f7caac" stroke="black" points="434,-201.7 338,-201.7 338,-179.7 434,-179.7 434,-201.7"/>
<polyline fill="none" stroke="black" points="345.333,-201.7 338,-194.367 "/>
<polyline fill="none" stroke="black" points="338,-187.034 345.333,-179.7 "/>
<polyline fill="none" stroke="black" points="426.667,-179.7 434,-187.034 "/>
<polyline fill="none" stroke="black" points="434,-194.367 426.667,-201.7 "/>
<text text-anchor="middle" x="386" y="-187.9" font-family="Times New Roman,serif" font-size="11.00">newtonsoft&#45;json901</text>
</a>
</g>
</g>
<!-- newtonsoft&#45;json901&#45;&gt;fsharp -->
<g id="edge14" class="edge"><title>newtonsoft&#45;json901&#45;&gt;fsharp</title>
<path fill="none" stroke="black" d="M396.72,-202.021C407.614,-213.811 426.462,-231.659 447,-239.7 480.361,-252.762 585.557,-253.462 633.618,-253.058"/>
<polygon fill="black" stroke="black" points="639.734,-252.998 633.761,-255.757 636.734,-253.028 633.734,-253.057 633.734,-253.057 633.734,-253.057 636.734,-253.028 633.708,-250.357 639.734,-252.998 639.734,-252.998"/>
</g>
<!-- newtonsoft&#45;json901&#45;&gt;runtime -->
<g id="edge56" class="edge"><title>newtonsoft&#45;json901&#45;&gt;runtime</title>
<path fill="none" stroke="black" d="M404.802,-179.608C416.713,-172.215 432.757,-162.311 447,-153.7 452.246,-150.529 457.894,-147.156 463.258,-143.971"/>
<polygon fill="black" stroke="black" points="468.503,-140.864 464.717,-146.246 465.922,-142.393 463.341,-143.923 463.341,-143.923 463.341,-143.923 465.922,-142.393 461.965,-141.6 468.503,-140.864 468.503,-140.864"/>
</g>
<!-- newtonsoft&#45;json901&#45;&gt;runtime&#45;portable -->
<g id="edge50" class="edge"><title>newtonsoft&#45;json901&#45;&gt;runtime&#45;portable</title>
<path fill="none" stroke="black" d="M434.013,-179.941C436.293,-179.419 438.582,-178.895 440.86,-178.374"/>
<polygon fill="black" stroke="black" points="446.856,-177.002 441.61,-180.972 443.932,-177.671 441.007,-178.34 441.007,-178.34 441.007,-178.34 443.932,-177.671 440.405,-175.709 446.856,-177.002 446.856,-177.002"/>
</g>
<!-- newtonsoft&#45;json901&#45;&gt;sdk -->
<g id="edge63" class="edge"><title>newtonsoft&#45;json901&#45;&gt;sdk</title>
<path fill="none" stroke="black" d="M399.749,-201.834C411.223,-211.062 429,-223.48 447,-228.7 499.496,-243.926 668.937,-233.202 725.171,-229.104"/>
<polygon fill="black" stroke="black" points="731.452,-228.64 725.668,-231.775 728.46,-228.861 725.469,-229.082 725.469,-229.082 725.469,-229.082 728.46,-228.861 725.269,-226.39 731.452,-228.64 731.452,-228.64"/>
</g>
<!-- newtonsoft&#45;json901&#45;&gt;installer -->
<g id="edge25" class="edge"><title>newtonsoft&#45;json901&#45;&gt;installer</title>
<path fill="none" stroke="black" d="M434.201,-191.601C469.546,-191.446 514.378,-189.234 530,-179.7 535.791,-176.166 532.078,-170.01 538,-166.7 569.814,-148.923 583.659,-163.953 620,-166.7 696.655,-172.495 718.213,-167.97 791,-192.7 792.906,-193.348 794.832,-194.117 796.738,-194.963"/>
<polygon fill="black" stroke="black" points="802.355,-197.686 795.778,-197.498 799.655,-196.377 796.956,-195.068 796.956,-195.068 796.956,-195.068 799.655,-196.377 798.133,-192.639 802.355,-197.686 802.355,-197.686"/>
</g>
<!-- xliff&#45;tasks -->
<g id="node25" class="node"><title>xliff&#45;tasks</title>
<g id="a_node25"><a xlink:title="Inputs ready">
<polygon fill="#f7caac" stroke="black" points="307.5,-126.7 253.5,-126.7 253.5,-104.7 307.5,-104.7 307.5,-126.7"/>
<polyline fill="none" stroke="black" points="260.833,-126.7 253.5,-119.367 "/>
<polyline fill="none" stroke="black" points="253.5,-112.034 260.833,-104.7 "/>
<polyline fill="none" stroke="black" points="300.167,-104.7 307.5,-112.034 "/>
<polyline fill="none" stroke="black" points="307.5,-119.367 300.167,-126.7 "/>
<text text-anchor="middle" x="280.5" y="-112.9" font-family="Times New Roman,serif" font-size="11.00">xliff&#45;tasks</text>
</a>
</g>
</g>
<!-- xliff&#45;tasks&#45;&gt;fsharp -->
<g id="edge16" class="edge"><title>xliff&#45;tasks&#45;&gt;fsharp</title>
<path fill="none" stroke="black" d="M307.033,-126.758C313.381,-130.284 319.839,-134.616 325,-139.7 330.105,-144.73 326.82,-150.072 333,-153.7 342.438,-159.242 521.817,-148.431 530,-155.7 550.772,-174.152 519.939,-196.588 538,-217.7 550.432,-232.233 602.626,-243.345 633.938,-248.858"/>
<polygon fill="black" stroke="black" points="639.904,-249.885 633.533,-251.527 636.948,-249.376 633.992,-248.867 633.992,-248.867 633.992,-248.867 636.948,-249.376 634.45,-246.206 639.904,-249.885 639.904,-249.885"/>
</g>
<!-- xliff&#45;tasks&#45;&gt;roslyn -->
<g id="edge46" class="edge"><title>xliff&#45;tasks&#45;&gt;roslyn</title>
<path fill="none" stroke="black" d="M307.648,-107.76C313.461,-105.7 319.521,-103.315 325,-100.7 328.784,-98.8941 329.171,-97.4089 333,-95.7002 341.924,-91.7182 352.179,-88.496 361.211,-86.0735"/>
<polygon fill="black" stroke="black" points="367.237,-84.5245 362.098,-88.6332 364.332,-85.2714 361.426,-86.0182 361.426,-86.0182 361.426,-86.0182 364.332,-85.2714 360.754,-83.4032 367.237,-84.5245 367.237,-84.5245"/>
</g>
<!-- xliff&#45;tasks&#45;&gt;sdk -->
<g id="edge59" class="edge"><title>xliff&#45;tasks&#45;&gt;sdk</title>
<path fill="none" stroke="black" d="M307.63,-111.452C315.737,-110.322 324.718,-109.261 333,-108.7 461.005,-100.041 497.99,-100.029 620,-139.7 651.711,-150.011 662.659,-147.612 690,-166.7 707.334,-178.802 722.731,-197.679 732.505,-211.228"/>
<polygon fill="black" stroke="black" points="736.091,-216.314 730.427,-212.967 734.362,-213.862 732.633,-211.411 732.633,-211.411 732.633,-211.411 734.362,-213.862 734.84,-209.855 736.091,-216.314 736.091,-216.314"/>
</g>
<!-- xliff&#45;tasks&#45;&gt;installer -->
<g id="edge33" class="edge"><title>xliff&#45;tasks&#45;&gt;installer</title>
<path fill="none" stroke="black" d="M307.93,-111.227C314.27,-109.005 320.501,-105.679 325,-100.7 335.409,-89.1833 322.891,-78.4812 333,-66.7002 380.663,-11.156 414.309,-9.70024 487.5,-9.70024 487.5,-9.70024 487.5,-9.70024 660,-9.70024 718.466,-9.70024 748.387,18.3294 791,-21.7002 815.377,-44.5995 819.323,-149.364 819.916,-191.286"/>
<polygon fill="black" stroke="black" points="819.985,-197.453 817.218,-191.483 819.952,-194.453 819.918,-191.453 819.918,-191.453 819.918,-191.453 819.952,-194.453 822.618,-191.423 819.985,-197.453 819.985,-197.453"/>
</g>
<!-- humanizer -->
<g id="node26" class="node"><title>humanizer</title>
<g id="a_node26"><a xlink:title="Inputs ready">
<polygon fill="#f7caac" stroke="black" points="308.5,-72.7002 252.5,-72.7002 252.5,-50.7002 308.5,-50.7002 308.5,-72.7002"/>
<polyline fill="none" stroke="black" points="259.833,-72.7002 252.5,-65.3669 "/>
<polyline fill="none" stroke="black" points="252.5,-58.0336 259.833,-50.7002 "/>
<polyline fill="none" stroke="black" points="301.167,-50.7002 308.5,-58.0336 "/>
<polyline fill="none" stroke="black" points="308.5,-65.3669 301.167,-72.7002 "/>
<text text-anchor="middle" x="280.5" y="-58.9002" font-family="Times New Roman,serif" font-size="11.00">humanizer</text>
</a>
</g>
</g>
<!-- humanizer&#45;&gt;roslyn -->
<g id="edge45" class="edge"><title>humanizer&#45;&gt;roslyn</title>
<path fill="none" stroke="black" d="M308.693,-66.6923C325.084,-69.7013 345.754,-73.4957 361.446,-76.3763"/>
<polygon fill="black" stroke="black" points="367.41,-77.4711 361.021,-79.0433 364.459,-76.9294 361.508,-76.3877 361.508,-76.3877 361.508,-76.3877 364.459,-76.9294 361.996,-73.732 367.41,-77.4711 367.41,-77.4711"/>
</g>
<!-- linker -->
<g id="node27" class="node"><title>linker</title>
<g id="a_node27"><a xlink:title="Inputs ready">
<polygon fill="#f7caac" stroke="black" points="403.5,-152.7 368.5,-152.7 368.5,-130.7 403.5,-130.7 403.5,-152.7"/>
<polyline fill="none" stroke="black" points="375.833,-152.7 368.5,-145.367 "/>
<polyline fill="none" stroke="black" points="368.5,-138.034 375.833,-130.7 "/>
<polyline fill="none" stroke="black" points="396.167,-130.7 403.5,-138.034 "/>
<polyline fill="none" stroke="black" points="403.5,-145.367 396.167,-152.7 "/>
<text text-anchor="middle" x="386" y="-138.9" font-family="Times New Roman,serif" font-size="11.00">linker</text>
</a>
</g>
</g>
<!-- linker&#45;&gt;runtime -->
<g id="edge54" class="edge"><title>linker&#45;&gt;runtime</title>
<path fill="none" stroke="black" d="M403.596,-139.719C418.889,-137.893 441.879,-135.147 459.929,-132.992"/>
<polygon fill="black" stroke="black" points="466.332,-132.228 460.695,-135.62 463.353,-132.583 460.375,-132.939 460.375,-132.939 460.375,-132.939 463.353,-132.583 460.055,-130.258 466.332,-132.228 466.332,-132.228"/>
</g>
<!-- linker&#45;&gt;runtime&#45;portable -->
<g id="edge48" class="edge"><title>linker&#45;&gt;runtime&#45;portable</title>
<path fill="none" stroke="black" d="M403.596,-145.994C413.748,-148.62 427.294,-152.124 440.534,-155.55"/>
<polygon fill="black" stroke="black" points="446.582,-157.115 440.097,-158.226 443.678,-156.363 440.773,-155.612 440.773,-155.612 440.773,-155.612 443.678,-156.363 441.45,-152.998 446.582,-157.115 446.582,-157.115"/>
</g>
<!-- cssparser -->
<g id="node28" class="node"><title>cssparser</title>
<g id="a_node28"><a xlink:title="Inputs ready">
<polygon fill="#f7caac" stroke="black" points="605.5,-72.7002 552.5,-72.7002 552.5,-50.7002 605.5,-50.7002 605.5,-72.7002"/>
<polyline fill="none" stroke="black" points="559.833,-72.7002 552.5,-65.3669 "/>
<polyline fill="none" stroke="black" points="552.5,-58.0336 559.833,-50.7002 "/>
<polyline fill="none" stroke="black" points="598.167,-50.7002 605.5,-58.0336 "/>
<polyline fill="none" stroke="black" points="605.5,-65.3669 598.167,-72.7002 "/>
<text text-anchor="middle" x="579" y="-58.9002" font-family="Times New Roman,serif" font-size="11.00">cssparser</text>
</a>
</g>
</g>
<!-- cssparser&#45;&gt;aspnetcore -->
<g id="edge4" class="edge"><title>cssparser&#45;&gt;aspnetcore</title>
<path fill="none" stroke="black" d="M605.54,-67.9216C611.272,-69.3177 617.445,-70.8215 623.474,-72.2901"/>
<polygon fill="black" stroke="black" points="629.433,-73.7416 622.965,-74.9449 626.518,-73.0316 623.604,-72.3216 623.604,-72.3216 623.604,-72.3216 626.518,-73.0316 624.243,-69.6983 629.433,-73.7416 629.433,-73.7416"/>
</g>
<!-- diagnostics -->
<g id="node29" class="node"><title>diagnostics</title>
<g id="a_node29"><a xlink:title="Inputs ready">
<polygon fill="#f7caac" stroke="black" points="518,-227.7 459,-227.7 459,-205.7 518,-205.7 518,-227.7"/>
<polyline fill="none" stroke="black" points="466.333,-227.7 459,-220.367 "/>
<polyline fill="none" stroke="black" points="459,-213.034 466.333,-205.7 "/>
<polyline fill="none" stroke="black" points="510.667,-205.7 518,-213.034 "/>
<polyline fill="none" stroke="black" points="518,-220.367 510.667,-227.7 "/>
<text text-anchor="middle" x="488.5" y="-213.9" font-family="Times New Roman,serif" font-size="11.00">diagnostics</text>
</a>
</g>
</g>
<!-- diagnostics&#45;&gt;vstest -->
<g id="edge72" class="edge"><title>diagnostics&#45;&gt;vstest</title>
<path fill="none" stroke="black" d="M518.478,-213.098C530.193,-211.642 543.536,-209.984 554.615,-208.607"/>
<polygon fill="black" stroke="black" points="560.848,-207.832 555.227,-211.252 557.871,-208.202 554.894,-208.572 554.894,-208.572 554.894,-208.572 557.871,-208.202 554.561,-205.893 560.848,-207.832 560.848,-207.832"/>
</g>
<!-- arcade -->
<g id="node30" class="node"><title>arcade</title>
<g id="a_node30"><a xlink:title="Inputs ready">
<polygon fill="#f7caac" stroke="black" points="228,-220.7 187,-220.7 187,-198.7 228,-198.7 228,-220.7"/>
<polyline fill="none" stroke="black" points="194.333,-220.7 187,-213.367 "/>
<polyline fill="none" stroke="black" points="187,-206.034 194.333,-198.7 "/>
<polyline fill="none" stroke="black" points="220.667,-198.7 228,-206.034 "/>
<polyline fill="none" stroke="black" points="228,-213.367 220.667,-220.7 "/>
<text text-anchor="middle" x="207.5" y="-206.9" font-family="Times New Roman,serif" font-size="11.00">arcade</text>
</a>
</g>
</g>
<!-- arcade&#45;&gt;aspnet&#45;xdt -->
<g id="edge2" class="edge"><title>arcade&#45;&gt;aspnet&#45;xdt</title>
<path fill="none" stroke="black" d="M211.177,-220.843C215.105,-235.881 223.366,-263.152 236,-283.7 243.075,-295.208 253.233,-306.379 261.954,-314.941"/>
<polygon fill="black" stroke="black" points="266.622,-319.415 260.422,-317.213 264.456,-317.339 262.29,-315.263 262.29,-315.263 262.29,-315.263 264.456,-317.339 264.158,-313.314 266.622,-319.415 266.622,-319.415"/>
</g>
<!-- arcade&#45;&gt;aspnetcore -->
<g id="edge3" class="edge"><title>arcade&#45;&gt;aspnetcore</title>
<path fill="none" stroke="black" d="M208.546,-198.653C208.94,-164.247 212.119,-60.0353 236,-38.7002 285.439,5.46776 318.705,-31.7002 385,-31.7002 385,-31.7002 385,-31.7002 489.5,-31.7002 547.583,-31.7002 567.56,-13.7255 620,-38.7002 631.685,-44.2655 641.4,-55.211 648.082,-64.5329"/>
<polygon fill="black" stroke="black" points="651.475,-69.5003 645.861,-66.0688 649.782,-67.0231 648.09,-64.5458 648.09,-64.5458 648.09,-64.5458 649.782,-67.0231 650.32,-63.0229 651.475,-69.5003 651.475,-69.5003"/>
</g>
<!-- arcade&#45;&gt;clicommandlineparser -->
<g id="edge9" class="edge"><title>arcade&#45;&gt;clicommandlineparser</title>
<path fill="none" stroke="black" d="M208.478,-220.886C208.655,-256.786 211.23,-368.13 236,-391.7 248.908,-403.983 290.71,-407.413 326.763,-407.949"/>
<polygon fill="black" stroke="black" points="332.956,-408.014 326.928,-410.651 329.956,-407.983 326.956,-407.951 326.956,-407.951 326.956,-407.951 329.956,-407.983 326.985,-405.251 332.956,-408.014 332.956,-408.014"/>
</g>
<!-- arcade&#45;&gt;command&#45;line&#45;api -->
<g id="edge10" class="edge"><title>arcade&#45;&gt;command&#45;line&#45;api</title>
<path fill="none" stroke="black" d="M208.151,-198.496C208.111,-178.289 210.794,-135.305 236.035,-104.667"/>
<polygon fill="black" stroke="black" points="240.282,-99.8612 238.332,-106.145 238.296,-102.109 236.309,-104.357 236.309,-104.357 236.309,-104.357 238.296,-102.109 234.286,-102.569 240.282,-99.8612 240.282,-99.8612"/>
</g>
<!-- arcade&#45;&gt;fsharp -->
<g id="edge12" class="edge"><title>arcade&#45;&gt;fsharp</title>
<path fill="none" stroke="black" d="M228.142,-218.729C260.24,-232.633 326.253,-257.7 385,-257.7 385,-257.7 385,-257.7 489.5,-257.7 540.808,-257.7 600.864,-255.355 633.625,-253.877"/>
<polygon fill="black" stroke="black" points="639.803,-253.594 633.933,-256.566 636.806,-253.732 633.809,-253.869 633.809,-253.869 633.809,-253.869 636.806,-253.732 633.686,-251.172 639.803,-253.594 639.803,-253.594"/>
</g>
<!-- arcade&#45;&gt;msbuild -->
<g id="edge34" class="edge"><title>arcade&#45;&gt;msbuild</title>
<path fill="none" stroke="black" d="M228.288,-210.29C278.973,-211.421 417.398,-212.128 530,-190.7 536.719,-189.422 543.902,-187.778 550.61,-186.119"/>
<polygon fill="black" stroke="black" points="556.611,-184.602 551.456,-188.69 553.702,-185.337 550.794,-186.073 550.794,-186.073 550.794,-186.073 553.702,-185.337 550.132,-183.455 556.611,-184.602 556.611,-184.602"/>
</g>
<!-- arcade&#45;&gt;roslyn -->
<g id="edge43" class="edge"><title>arcade&#45;&gt;roslyn</title>
<path fill="none" stroke="black" d="M208.643,-198.383C209.325,-165.131 213.263,-68.8629 236,-49.7002 272.479,-18.9564 331.619,-46.9999 363.309,-66.1993"/>
<polygon fill="black" stroke="black" points="368.524,-69.4296 362.001,-68.5652 365.974,-67.8497 363.423,-66.2699 363.423,-66.2699 363.423,-66.2699 365.974,-67.8497 364.845,-63.9746 368.524,-69.4296 368.524,-69.4296"/>
</g>
<!-- arcade&#45;&gt;runtime -->
<g id="edge52" class="edge"><title>arcade&#45;&gt;runtime</title>
<path fill="none" stroke="black" d="M209.66,-198.535C211.889,-183.167 218.251,-155.799 236,-141.7 267.354,-116.795 289.862,-146.901 325,-127.7 329.696,-125.134 328.118,-120.893 333,-118.7 375.977,-99.4009 392.182,-113.458 439,-118.7 445.963,-119.48 453.386,-120.871 460.277,-122.407"/>
<polygon fill="black" stroke="black" points="466.427,-123.845 459.97,-125.108 463.506,-123.162 460.585,-122.479 460.585,-122.479 460.585,-122.479 463.506,-123.162 461.2,-119.85 466.427,-123.845 466.427,-123.845"/>
</g>
<!-- arcade&#45;&gt;runtime&#45;portable -->
<g id="edge47" class="edge"><title>arcade&#45;&gt;runtime&#45;portable</title>
<path fill="none" stroke="black" d="M228.12,-203.694C252.47,-196.501 295.382,-184.677 333,-178.7 368.977,-172.984 410.142,-170.238 440.93,-168.918"/>
<polygon fill="black" stroke="black" points="446.944,-168.673 441.059,-171.615 443.947,-168.795 440.949,-168.918 440.949,-168.918 440.949,-168.918 443.947,-168.795 440.839,-166.22 446.944,-168.673 446.944,-168.673"/>
</g>
<!-- arcade&#45;&gt;sdk -->
<g id="edge58" class="edge"><title>arcade&#45;&gt;sdk</title>
<path fill="none" stroke="black" d="M215.909,-220.977C220.848,-227.645 227.907,-235.732 236,-240.7 294.337,-276.514 316.547,-279.7 385,-279.7 385,-279.7 385,-279.7 580,-279.7 629.283,-279.7 649.024,-293.084 690,-265.7 695.958,-261.718 692.848,-256.681 698,-251.7 705.795,-244.164 716.43,-238.378 725.458,-234.377"/>
<polygon fill="black" stroke="black" points="731.112,-232.005 726.624,-236.816 728.346,-233.166 725.579,-234.326 725.579,-234.326 725.579,-234.326 728.346,-233.166 724.535,-231.836 731.112,-232.005 731.112,-232.005"/>
</g>
<!-- arcade&#45;&gt;installer -->
<g id="edge18" class="edge"><title>arcade&#45;&gt;installer</title>
<path fill="none" stroke="black" d="M209.284,-221.034C211.524,-250.089 218.928,-326.182 236,-343.7 303.193,-412.647 351.679,-379.191 447,-392.7 504.728,-400.882 519.695,-399.7 578,-399.7 578,-399.7 578,-399.7 660,-399.7 719.537,-399.7 749.633,-414.519 791,-371.7 810.917,-351.084 817.402,-263.642 819.296,-226.024"/>
<polygon fill="black" stroke="black" points="819.58,-220.018 821.993,-226.139 819.438,-223.014 819.296,-226.011 819.296,-226.011 819.296,-226.011 819.438,-223.014 816.599,-225.883 819.58,-220.018 819.58,-220.018"/>
</g>
<!-- arcade&#45;&gt;symreader -->
<g id="edge68" class="edge"><title>arcade&#45;&gt;symreader</title>
<path fill="none" stroke="black" d="M213.5,-198.467C218.122,-189.271 225.812,-176.542 236,-168.7 239.074,-166.334 242.547,-164.326 246.158,-162.625"/>
<polygon fill="black" stroke="black" points="251.906,-160.197 247.429,-165.019 249.142,-161.364 246.378,-162.531 246.378,-162.531 246.378,-162.531 249.142,-161.364 245.328,-160.044 251.906,-160.197 251.906,-160.197"/>
</g>
<!-- arcade&#45;&gt;test&#45;templates -->
<g id="edge71" class="edge"><title>arcade&#45;&gt;test&#45;templates</title>
<path fill="none" stroke="black" d="M208.615,-220.739C209.216,-257.862 212.938,-377.499 236,-406.7 237.011,-407.981 238.133,-409.165 239.34,-410.26"/>
<polygon fill="black" stroke="black" points="244.375,-414.059 237.959,-412.601 241.98,-412.252 239.585,-410.445 239.585,-410.445 239.585,-410.445 241.98,-412.252 241.211,-408.29 244.375,-414.059 244.375,-414.059"/>
</g>
<!-- s1 -->
<g id="node31" class="node"><title>s1</title>
<g id="a_node31"><a xlink:title="1">
<path fill="#ffe599" stroke="black" stroke-dasharray="5,2" d="M137.667,-128.7C137.667,-128.7 49.3333,-128.7 49.3333,-128.7 45.6667,-128.7 42,-125.034 42,-121.367 42,-121.367 42,-114.034 42,-114.034 42,-110.367 45.6667,-106.7 49.3333,-106.7 49.3333,-106.7 137.667,-106.7 137.667,-106.7 141.333,-106.7 145,-110.367 145,-114.034 145,-114.034 145,-121.367 145,-121.367 145,-125.034 141.333,-128.7 137.667,-128.7"/>
<text text-anchor="middle" x="93.5" y="-114.9" font-family="Times New Roman,serif" font-size="11.00">#1 &#45; Local build infra</text>
</a>
</g>
</g>
<!-- s2 -->
<g id="node32" class="node"><title>s2</title>
<g id="a_node32"><a xlink:title="2">
<polygon fill="#f0fe86" stroke="black" stroke-dasharray="5,2" points="144,-101.7 43,-101.7 43,-79.7002 144,-79.7002 144,-101.7"/>
<text text-anchor="middle" x="93.5" y="-87.9002" font-family="Times New Roman,serif" font-size="11.00">#2 &#45; CI implemented</text>
</a>
</g>
</g>
<!-- s3 -->
<g id="node33" class="node"><title>s3</title>
<g id="a_node33"><a xlink:title="3">
<path fill="#b4c6e7" stroke="black" stroke-width="2" d="M139.167,-74.7002C139.167,-74.7002 47.8333,-74.7002 47.8333,-74.7002 44.1667,-74.7002 40.5,-71.0336 40.5,-67.3669 40.5,-67.3669 40.5,-60.0336 40.5,-60.0336 40.5,-56.3669 44.1667,-52.7002 47.8333,-52.7002 47.8333,-52.7002 139.167,-52.7002 139.167,-52.7002 142.833,-52.7002 146.5,-56.3669 146.5,-60.0336 146.5,-60.0336 146.5,-67.3669 146.5,-67.3669 146.5,-71.0336 142.833,-74.7002 139.167,-74.7002"/>
<text text-anchor="middle" x="93.5" y="-60.9002" font-family="Times New Roman,serif" font-size="11.00">#3 &#45; Artifacts greenlit</text>
</a>
</g>
</g>
<!-- sourcelink -->
<g id="node34" class="node"><title>sourcelink</title>
<g id="a_node34"><a xlink:title="3">
<path fill="#b4c6e7" stroke="black" stroke-width="2" d="M113.667,-220.7C113.667,-220.7 73.3333,-220.7 73.3333,-220.7 69.6667,-220.7 66,-217.034 66,-213.367 66,-213.367 66,-206.034 66,-206.034 66,-202.367 69.6667,-198.7 73.3333,-198.7 73.3333,-198.7 113.667,-198.7 113.667,-198.7 117.333,-198.7 121,-202.367 121,-206.034 121,-206.034 121,-213.367 121,-213.367 121,-217.034 117.333,-220.7 113.667,-220.7"/>
<text text-anchor="middle" x="93.5" y="-206.9" font-family="Times New Roman,serif" font-size="11.00">sourcelink</text>
</a>
</g>
</g>
<!-- sourcelink&#45;&gt;arcade -->
<g id="edge1" class="edge"><title>sourcelink&#45;&gt;arcade</title>
<path fill="none" stroke="black" d="M121.042,-209.7C139.017,-209.7 162.653,-209.7 180.51,-209.7"/>
<polygon fill="black" stroke="black" points="186.807,-209.7 180.807,-212.4 183.807,-209.7 180.807,-209.7 180.807,-209.7 180.807,-209.7 183.807,-209.7 180.807,-207 186.807,-209.7 186.807,-209.7"/>
</g>
<!-- source&#45;build&#45;reference&#45;packages -->
<g id="node35" class="node"><title>source&#45;build&#45;reference&#45;packages</title>
<g id="a_node35"><a xlink:title="3">
<path fill="#b4c6e7" stroke="black" stroke-width="2" d="M163.667,-247.7C163.667,-247.7 23.3333,-247.7 23.3333,-247.7 19.6667,-247.7 16,-244.034 16,-240.367 16,-240.367 16,-233.034 16,-233.034 16,-229.367 19.6667,-225.7 23.3333,-225.7 23.3333,-225.7 163.667,-225.7 163.667,-225.7 167.333,-225.7 171,-229.367 171,-233.034 171,-233.034 171,-240.367 171,-240.367 171,-244.034 167.333,-247.7 163.667,-247.7"/>
<text text-anchor="middle" x="93.5" y="-233.9" font-family="Times New Roman,serif" font-size="11.00">source&#45;build&#45;reference&#45;packages</text>
</a>
</g>
</g>
<!-- s4 -->
<g id="node36" class="node"><title>s4</title>
<g id="a_node36"><a xlink:title="4">
<polygon fill="#cfafe7" stroke="black" stroke-width="2" points="171,-47.7002 16,-47.7002 16,-25.7002 171,-25.7002 171,-47.7002"/>
<text text-anchor="middle" x="93.5" y="-33.9002" font-family="Times New Roman,serif" font-size="11.00">#4 &#45; Prebuilt regressions blocked</text>
</a>
</g>
</g>
</g>
</svg>
