<?xml version="1.0" encoding="UTF-8" standalone="no"?>
<!DOCTYPE svg PUBLIC "-//W3C//DTD SVG 1.1//EN"
 "http://www.w3.org/Graphics/SVG/1.1/DTD/svg11.dtd">
<!-- Generated by graphviz version 2.38.0 (20140413.2041)
 -->
<!-- Title: %3 Pages: 1 -->
<svg width="1777pt" height="908pt"
 viewBox="0.00 0.00 1777.25 908.00" xmlns="http://www.w3.org/2000/svg" xmlns:xlink="http://www.w3.org/1999/xlink">
<g id="graph0" class="graph" transform="scale(1 1) rotate(0) translate(4 904)">
<title>%3</title>
<polygon fill="white" stroke="none" points="-4,4 -4,-904 1773.25,-904 1773.25,4 -4,4"/>
<!-- sourcelink -->
<g id="node1" class="node"><title>sourcelink</title>
<ellipse fill="gold" stroke="gold" cx="1200" cy="-18" rx="48.1917" ry="18"/>
<text text-anchor="middle" x="1200" y="-14.3" font-family="Times New Roman,serif" font-size="14.00">sourcelink</text>
</g>
<!-- arcade -->
<g id="node7" class="node"><title>arcade</title>
<ellipse fill="#cae1ff" stroke="#cae1ff" cx="1200" cy="-90" rx="34.394" ry="18"/>
<text text-anchor="middle" x="1200" y="-86.3" font-family="Times New Roman,serif" font-size="14.00">arcade</text>
</g>
<!-- sourcelink&#45;&gt;arcade -->
<g id="edge1" class="edge"><title>sourcelink&#45;&gt;arcade</title>
<path fill="none" stroke="black" d="M1200,-36.3034C1200,-44.0173 1200,-53.2875 1200,-61.8876"/>
<polygon fill="black" stroke="black" points="1196.5,-61.8956 1200,-71.8957 1203.5,-61.8957 1196.5,-61.8956"/>
</g>
<!-- xliff&#45;tasks -->
<g id="node2" class="node"><title>xliff&#45;tasks</title>
<ellipse fill="gold" stroke="gold" cx="198" cy="-90" rx="46.2923" ry="18"/>
<text text-anchor="middle" x="198" y="-86.3" font-family="Times New Roman,serif" font-size="14.00">xliff&#45;tasks</text>
</g>
<!-- roslyn -->
<g id="node10" class="node"><title>roslyn</title>
<ellipse fill="#cae1ff" stroke="#cae1ff" cx="586" cy="-162" rx="33.2948" ry="18"/>
<text text-anchor="middle" x="586" y="-158.3" font-family="Times New Roman,serif" font-size="14.00">roslyn</text>
</g>
<!-- xliff&#45;tasks&#45;&gt;roslyn -->
<g id="edge73" class="edge"><title>xliff&#45;tasks&#45;&gt;roslyn</title>
<path fill="none" stroke="black" d="M239.155,-98.425C313.757,-111.884 470.478,-140.158 544.98,-153.6"/>
<polygon fill="black" stroke="black" points="544.467,-157.063 554.93,-155.395 545.71,-150.175 544.467,-157.063"/>
</g>
<!-- cli -->
<g id="node15" class="node"><title>cli</title>
<ellipse fill="#cae1ff" stroke="#cae1ff" cx="983" cy="-738" rx="27" ry="18"/>
<text text-anchor="middle" x="983" y="-734.3" font-family="Times New Roman,serif" font-size="14.00">cli</text>
</g>
<!-- xliff&#45;tasks&#45;&gt;cli -->
<g id="edge30" class="edge"><title>xliff&#45;tasks&#45;&gt;cli</title>
<path fill="none" stroke="black" d="M159.354,-100.039C101.732,-116.075 0,-155.377 0,-233 0,-233 0,-233 0,-307 0,-575.133 217.11,-597.773 471,-684 559.263,-713.976 843.682,-730.293 945.944,-735.306"/>
<polygon fill="black" stroke="black" points="945.943,-738.81 956.1,-735.796 946.28,-731.818 945.943,-738.81"/>
</g>
<!-- sdk -->
<g id="node20" class="node"><title>sdk</title>
<ellipse fill="#cae1ff" stroke="#cae1ff" cx="413" cy="-522" rx="27" ry="18"/>
<text text-anchor="middle" x="413" y="-518.3" font-family="Times New Roman,serif" font-size="14.00">sdk</text>
</g>
<!-- xliff&#45;tasks&#45;&gt;sdk -->
<g id="edge75" class="edge"><title>xliff&#45;tasks&#45;&gt;sdk</title>
<path fill="none" stroke="black" d="M185.723,-107.482C158.235,-146.546 96.8875,-247.239 133,-324 181.875,-427.89 316.411,-487.161 379.509,-509.998"/>
<polygon fill="black" stroke="black" points="378.404,-513.32 388.999,-513.352 380.736,-506.72 378.404,-513.32"/>
</g>
<!-- fsharp -->
<g id="node31" class="node"><title>fsharp</title>
<ellipse fill="#cae1ff" stroke="#cae1ff" cx="350" cy="-378" rx="33.5952" ry="18"/>
<text text-anchor="middle" x="350" y="-374.3" font-family="Times New Roman,serif" font-size="14.00">fsharp</text>
</g>
<!-- xliff&#45;tasks&#45;&gt;fsharp -->
<g id="edge64" class="edge"><title>xliff&#45;tasks&#45;&gt;fsharp</title>
<path fill="none" stroke="black" d="M209.46,-107.525C232.092,-140.648 283.25,-217.995 317,-288 326.857,-308.446 335.66,-332.654 341.69,-350.657"/>
<polygon fill="black" stroke="black" points="338.381,-351.801 344.825,-360.211 345.032,-349.618 338.381,-351.801"/>
</g>
<!-- newtonsoft&#45;json901 -->
<g id="node3" class="node"><title>newtonsoft&#45;json901</title>
<ellipse fill="gold" stroke="gold" cx="225" cy="-306" rx="82.5854" ry="18"/>
<text text-anchor="middle" x="225" y="-302.3" font-family="Times New Roman,serif" font-size="14.00">newtonsoft&#45;json901</text>
</g>
<!-- core&#45;setup -->
<g id="node9" class="node"><title>core&#45;setup</title>
<ellipse fill="#cae1ff" stroke="#cae1ff" cx="845" cy="-378" rx="49.2915" ry="18"/>
<text text-anchor="middle" x="845" y="-374.3" font-family="Times New Roman,serif" font-size="14.00">core&#45;setup</text>
</g>
<!-- newtonsoft&#45;json901&#45;&gt;core&#45;setup -->
<g id="edge46" class="edge"><title>newtonsoft&#45;json901&#45;&gt;core&#45;setup</title>
<path fill="none" stroke="black" d="M305.72,-309.77C415.496,-314.635 617.606,-327.497 787,-360 791.116,-360.79 795.359,-361.747 799.589,-362.8"/>
<polygon fill="black" stroke="black" points="798.809,-366.214 809.372,-365.397 800.605,-359.448 798.809,-366.214"/>
</g>
<!-- newtonsoft&#45;json901&#45;&gt;cli -->
<g id="edge24" class="edge"><title>newtonsoft&#45;json901&#45;&gt;cli</title>
<path fill="none" stroke="black" d="M229.098,-324.009C233.893,-342.385 242.763,-372.223 255,-396 340.168,-561.486 384.428,-619.473 559,-684 629.876,-710.198 856.452,-728.263 946.039,-734.549"/>
<polygon fill="black" stroke="black" points="946.048,-738.058 956.266,-735.257 946.532,-731.075 946.048,-738.058"/>
</g>
<!-- newtonsoft&#45;json901&#45;&gt;sdk -->
<g id="edge79" class="edge"><title>newtonsoft&#45;json901&#45;&gt;sdk</title>
<path fill="none" stroke="black" d="M235.123,-324.27C253.769,-355.225 295.877,-421.282 342,-468 355.031,-481.2 371.54,-493.724 385.358,-503.28"/>
<polygon fill="black" stroke="black" points="383.74,-506.411 393.986,-509.108 387.659,-500.61 383.74,-506.411"/>
</g>
<!-- core&#45;sdk -->
<g id="node25" class="node"><title>core&#45;sdk</title>
<ellipse fill="#cae1ff" stroke="#cae1ff" cx="415" cy="-882" rx="42.7926" ry="18"/>
<text text-anchor="middle" x="415" y="-878.3" font-family="Times New Roman,serif" font-size="14.00">core&#45;sdk</text>
</g>
<!-- newtonsoft&#45;json901&#45;&gt;core&#45;sdk -->
<g id="edge35" class="edge"><title>newtonsoft&#45;json901&#45;&gt;core&#45;sdk</title>
<path fill="none" stroke="black" d="M190.332,-322.496C172.808,-331.577 152.114,-344.348 137,-360 80.7936,-418.208 52,-440.084 52,-521 52,-521 52,-521 52,-739 52,-805.665 267.02,-853.827 366.085,-872.478"/>
<polygon fill="black" stroke="black" points="365.682,-875.963 376.153,-874.347 366.959,-869.081 365.682,-875.963"/>
</g>
<!-- toolset -->
<g id="node26" class="node"><title>toolset</title>
<ellipse fill="#cae1ff" stroke="#cae1ff" cx="664" cy="-810" rx="35.194" ry="18"/>
<text text-anchor="middle" x="664" y="-806.3" font-family="Times New Roman,serif" font-size="14.00">toolset</text>
</g>
<!-- newtonsoft&#45;json901&#45;&gt;toolset -->
<g id="edge89" class="edge"><title>newtonsoft&#45;json901&#45;&gt;toolset</title>
<path fill="none" stroke="black" d="M205.08,-323.581C167.528,-356.826 90,-435.78 90,-521 90,-521 90,-521 90,-667 90,-724.856 132.447,-731.803 185,-756 261.598,-791.268 514.555,-803.856 618.646,-807.614"/>
<polygon fill="black" stroke="black" points="618.714,-811.119 628.83,-807.971 618.959,-804.123 618.714,-811.119"/>
</g>
<!-- core&#45;setup&#45;portable -->
<g id="node28" class="node"><title>core&#45;setup&#45;portable</title>
<ellipse fill="#cae1ff" stroke="#cae1ff" cx="696" cy="-378" rx="81.7856" ry="18"/>
<text text-anchor="middle" x="696" y="-374.3" font-family="Times New Roman,serif" font-size="14.00">core&#45;setup&#45;portable</text>
</g>
<!-- newtonsoft&#45;json901&#45;&gt;core&#45;setup&#45;portable -->
<g id="edge40" class="edge"><title>newtonsoft&#45;json901&#45;&gt;core&#45;setup&#45;portable</title>
<path fill="none" stroke="black" d="M291.484,-316.881C378.129,-329.758 529.288,-352.223 620.263,-365.744"/>
<polygon fill="black" stroke="black" points="619.828,-369.218 630.234,-367.226 620.857,-362.294 619.828,-369.218"/>
</g>
<!-- newtonsoft&#45;json901&#45;&gt;fsharp -->
<g id="edge62" class="edge"><title>newtonsoft&#45;json901&#45;&gt;fsharp</title>
<path fill="none" stroke="black" d="M253.678,-323.059C272.967,-333.862 298.407,-348.108 318.299,-359.247"/>
<polygon fill="black" stroke="black" points="316.85,-362.447 327.285,-364.28 320.27,-356.34 316.85,-362.447"/>
</g>
<!-- linker -->
<g id="node4" class="node"><title>linker</title>
<ellipse fill="gold" stroke="gold" cx="898" cy="-162" rx="30.5947" ry="18"/>
<text text-anchor="middle" x="898" y="-158.3" font-family="Times New Roman,serif" font-size="14.00">linker</text>
</g>
<!-- corefx -->
<g id="node17" class="node"><title>corefx</title>
<ellipse fill="#cae1ff" stroke="#cae1ff" cx="952" cy="-306" rx="34.394" ry="18"/>
<text text-anchor="middle" x="952" y="-302.3" font-family="Times New Roman,serif" font-size="14.00">corefx</text>
</g>
<!-- linker&#45;&gt;corefx -->
<g id="edge58" class="edge"><title>linker&#45;&gt;corefx</title>
<path fill="none" stroke="black" d="M919.852,-174.89C934.193,-184.034 951.763,-198.123 960,-216 968.996,-235.525 965.909,-259.99 961.184,-278.326"/>
<polygon fill="black" stroke="black" points="957.782,-277.492 958.374,-288.07 964.508,-279.431 957.782,-277.492"/>
</g>
<!-- coreclr -->
<g id="node27" class="node"><title>coreclr</title>
<ellipse fill="#cae1ff" stroke="#cae1ff" cx="726" cy="-234" rx="36.2938" ry="18"/>
<text text-anchor="middle" x="726" y="-230.3" font-family="Times New Roman,serif" font-size="14.00">coreclr</text>
</g>
<!-- linker&#45;&gt;coreclr -->
<g id="edge51" class="edge"><title>linker&#45;&gt;coreclr</title>
<path fill="none" stroke="black" d="M873.357,-173.029C844.358,-184.831 795.939,-204.537 762.563,-218.12"/>
<polygon fill="black" stroke="black" points="761.095,-214.939 753.152,-221.95 763.733,-221.422 761.095,-214.939"/>
</g>
<!-- coreclr&#45;portable -->
<g id="node29" class="node"><title>coreclr&#45;portable</title>
<ellipse fill="#cae1ff" stroke="#cae1ff" cx="849" cy="-234" rx="68.7879" ry="18"/>
<text text-anchor="middle" x="849" y="-230.3" font-family="Times New Roman,serif" font-size="14.00">coreclr&#45;portable</text>
</g>
<!-- linker&#45;&gt;coreclr&#45;portable -->
<g id="edge49" class="edge"><title>linker&#45;&gt;coreclr&#45;portable</title>
<path fill="none" stroke="black" d="M886.881,-178.884C880.914,-187.408 873.42,-198.114 866.676,-207.749"/>
<polygon fill="black" stroke="black" points="863.625,-206.003 860.758,-216.203 869.36,-210.017 863.625,-206.003"/>
</g>
<!-- corefx&#45;portable -->
<g id="node30" class="node"><title>corefx&#45;portable</title>
<ellipse fill="#cae1ff" stroke="#cae1ff" cx="833" cy="-306" rx="66.8882" ry="18"/>
<text text-anchor="middle" x="833" y="-302.3" font-family="Times New Roman,serif" font-size="14.00">corefx&#45;portable</text>
</g>
<!-- linker&#45;&gt;corefx&#45;portable -->
<g id="edge54" class="edge"><title>linker&#45;&gt;corefx&#45;portable</title>
<path fill="none" stroke="black" d="M910.571,-178.634C923.777,-197.095 940.853,-228.286 927,-252 917.591,-268.106 901.283,-279.701 884.865,-287.857"/>
<polygon fill="black" stroke="black" points="883.396,-284.68 875.776,-292.042 886.323,-291.039 883.396,-284.68"/>
</g>
<!-- application&#45;insights -->
<g id="node5" class="node"><title>application&#45;insights</title>
<ellipse fill="gold" stroke="gold" cx="811" cy="-666" rx="80.6858" ry="18"/>
<text text-anchor="middle" x="811" y="-662.3" font-family="Times New Roman,serif" font-size="14.00">application&#45;insights</text>
</g>
<!-- application&#45;insights&#45;&gt;cli -->
<g id="edge17" class="edge"><title>application&#45;insights&#45;&gt;cli</title>
<path fill="none" stroke="black" d="M847.898,-682.017C878.583,-694.505 921.81,-712.097 951.037,-723.992"/>
<polygon fill="black" stroke="black" points="949.793,-727.264 960.374,-727.792 952.432,-720.781 949.793,-727.264"/>
</g>
<!-- netcorecli&#45;fsc -->
<g id="node6" class="node"><title>netcorecli&#45;fsc</title>
<ellipse fill="gold" stroke="gold" cx="254" cy="-738" rx="59.5901" ry="18"/>
<text text-anchor="middle" x="254" y="-734.3" font-family="Times New Roman,serif" font-size="14.00">netcorecli&#45;fsc</text>
</g>
<!-- netcorecli&#45;fsc&#45;&gt;toolset -->
<g id="edge87" class="edge"><title>netcorecli&#45;fsc&#45;&gt;toolset</title>
<path fill="none" stroke="black" d="M299.291,-749.928C308.752,-752.063 318.682,-754.197 328,-756 432.351,-776.191 556.052,-794.188 620.316,-803.096"/>
<polygon fill="black" stroke="black" points="620.098,-806.599 630.483,-804.498 621.055,-799.665 620.098,-806.599"/>
</g>
<!-- aspnet&#45;extensions -->
<g id="node8" class="node"><title>aspnet&#45;extensions</title>
<ellipse fill="#cae1ff" stroke="#cae1ff" cx="839" cy="-450" rx="75.2868" ry="18"/>
<text text-anchor="middle" x="839" y="-446.3" font-family="Times New Roman,serif" font-size="14.00">aspnet&#45;extensions</text>
</g>
<!-- arcade&#45;&gt;aspnet&#45;extensions -->
<g id="edge2" class="edge"><title>arcade&#45;&gt;aspnet&#45;extensions</title>
<path fill="none" stroke="black" d="M1230.47,-98.7647C1321.17,-123.412 1578.53,-205.313 1503,-324 1462.44,-387.743 1421.92,-376.217 1349,-396 1181.86,-441.347 1133.03,-412.044 961,-432 944.904,-433.867 927.648,-436.118 911.329,-438.363"/>
<polygon fill="black" stroke="black" points="910.73,-434.912 901.307,-439.756 911.694,-441.846 910.73,-434.912"/>
</g>
<!-- arcade&#45;&gt;roslyn -->
<g id="edge72" class="edge"><title>arcade&#45;&gt;roslyn</title>
<path fill="none" stroke="black" d="M1166.55,-94.8132C1062.45,-106.682 744.239,-142.96 628.586,-156.145"/>
<polygon fill="black" stroke="black" points="627.899,-152.701 618.359,-157.311 628.692,-159.655 627.899,-152.701"/>
</g>
<!-- aspnet&#45;xdt -->
<g id="node11" class="node"><title>aspnet&#45;xdt</title>
<ellipse fill="#cae1ff" stroke="#cae1ff" cx="1621" cy="-594" rx="48.9926" ry="18"/>
<text text-anchor="middle" x="1621" y="-590.3" font-family="Times New Roman,serif" font-size="14.00">aspnet&#45;xdt</text>
</g>
<!-- arcade&#45;&gt;aspnet&#45;xdt -->
<g id="edge5" class="edge"><title>arcade&#45;&gt;aspnet&#45;xdt</title>
<path fill="none" stroke="black" d="M1233.33,-94.6105C1334.96,-106.532 1634,-148.767 1634,-233 1634,-233 1634,-233 1634,-451 1634,-491.171 1628.78,-537.47 1624.95,-565.987"/>
<polygon fill="black" stroke="black" points="1621.47,-565.612 1623.57,-575.997 1628.4,-566.57 1621.47,-565.612"/>
</g>
<!-- aspnetcore&#45;tooling -->
<g id="node12" class="node"><title>aspnetcore&#45;tooling</title>
<ellipse fill="#cae1ff" stroke="#cae1ff" cx="692" cy="-522" rx="77.9862" ry="18"/>
<text text-anchor="middle" x="692" y="-518.3" font-family="Times New Roman,serif" font-size="14.00">aspnetcore&#45;tooling</text>
</g>
<!-- arcade&#45;&gt;aspnetcore&#45;tooling -->
<g id="edge6" class="edge"><title>arcade&#45;&gt;aspnetcore&#45;tooling</title>
<path fill="none" stroke="black" d="M1230.47,-98.7647C1321.17,-123.412 1578.53,-205.313 1503,-324 1462.44,-387.743 1419.95,-370.033 1349,-396 1149.95,-468.849 900.687,-501.365 774.048,-514.026"/>
<polygon fill="black" stroke="black" points="773.642,-510.549 764.033,-515.012 774.328,-517.516 773.642,-510.549"/>
</g>
<!-- msbuild -->
<g id="node13" class="node"><title>msbuild</title>
<ellipse fill="#cae1ff" stroke="#cae1ff" cx="480" cy="-378" rx="39.7935" ry="18"/>
<text text-anchor="middle" x="480" y="-374.3" font-family="Times New Roman,serif" font-size="14.00">msbuild</text>
</g>
<!-- arcade&#45;&gt;msbuild -->
<g id="edge65" class="edge"><title>arcade&#45;&gt;msbuild</title>
<path fill="none" stroke="black" d="M1165.61,-91.7448C1037.82,-94.7864 594.979,-107.867 544,-144 478.157,-190.668 475.132,-298.781 477.694,-349.632"/>
<polygon fill="black" stroke="black" points="474.216,-350.088 478.326,-359.853 481.202,-349.656 474.216,-350.088"/>
</g>
<!-- aspnetcore -->
<g id="node14" class="node"><title>aspnetcore</title>
<ellipse fill="#cae1ff" stroke="#cae1ff" cx="586" cy="-594" rx="50.0912" ry="18"/>
<text text-anchor="middle" x="586" y="-590.3" font-family="Times New Roman,serif" font-size="14.00">aspnetcore</text>
</g>
<!-- arcade&#45;&gt;aspnetcore -->
<g id="edge11" class="edge"><title>arcade&#45;&gt;aspnetcore</title>
<path fill="none" stroke="black" d="M1207.14,-107.667C1222.8,-146.714 1256.64,-246.653 1229,-324 1201.15,-401.917 1176.69,-417.689 1111,-468 1049.09,-515.414 1025.87,-518.186 951,-540 845.969,-570.603 718.562,-583.964 645.424,-589.467"/>
<polygon fill="black" stroke="black" points="644.756,-586.006 635.036,-590.223 645.264,-592.988 644.756,-586.006"/>
</g>
<!-- arcade&#45;&gt;cli -->
<g id="edge16" class="edge"><title>arcade&#45;&gt;cli</title>
<path fill="none" stroke="black" d="M1234.11,-92.6763C1322.99,-97.4401 1559.7,-112.777 1631,-144 1687.04,-168.538 1736,-171.825 1736,-233 1736,-233 1736,-233 1736,-595 1736,-619.542 1892.36,-593.739 1525,-684 1339.5,-729.577 1109.21,-736.226 1020.37,-737.003"/>
<polygon fill="black" stroke="black" points="1020.22,-733.504 1010.25,-737.071 1020.27,-740.504 1020.22,-733.504"/>
</g>
<!-- clicommandlineparser -->
<g id="node16" class="node"><title>clicommandlineparser</title>
<ellipse fill="#cae1ff" stroke="#cae1ff" cx="1404" cy="-306" rx="89.8845" ry="18"/>
<text text-anchor="middle" x="1404" y="-302.3" font-family="Times New Roman,serif" font-size="14.00">clicommandlineparser</text>
</g>
<!-- arcade&#45;&gt;clicommandlineparser -->
<g id="edge31" class="edge"><title>arcade&#45;&gt;clicommandlineparser</title>
<path fill="none" stroke="black" d="M1218.22,-105.438C1230.9,-115.751 1247.97,-130.19 1262,-144 1308.08,-189.368 1356.92,-247.19 1383.62,-279.748"/>
<polygon fill="black" stroke="black" points="1381.19,-282.311 1390.23,-287.844 1386.61,-277.884 1381.19,-282.311"/>
</g>
<!-- arcade&#45;&gt;corefx -->
<g id="edge57" class="edge"><title>arcade&#45;&gt;corefx</title>
<path fill="none" stroke="black" d="M1186.06,-106.77C1158.93,-136.97 1096.38,-204.21 1036,-252 1019.72,-264.882 1000.18,-277.368 984.044,-286.982"/>
<polygon fill="black" stroke="black" points="981.843,-284.215 974.986,-292.292 985.383,-290.254 981.843,-284.215"/>
</g>
<!-- newtonsoft&#45;json -->
<g id="node19" class="node"><title>newtonsoft&#45;json</title>
<ellipse fill="#cae1ff" stroke="#cae1ff" cx="1150" cy="-306" rx="69.5877" ry="18"/>
<text text-anchor="middle" x="1150" y="-302.3" font-family="Times New Roman,serif" font-size="14.00">newtonsoft&#45;json</text>
</g>
<!-- arcade&#45;&gt;newtonsoft&#45;json -->
<g id="edge68" class="edge"><title>arcade&#45;&gt;newtonsoft&#45;json</title>
<path fill="none" stroke="black" d="M1200.25,-108.424C1200.18,-138.518 1197.81,-201.829 1181,-252 1177.82,-261.501 1172.79,-271.17 1167.71,-279.604"/>
<polygon fill="black" stroke="black" points="1164.65,-277.884 1162.25,-288.203 1170.56,-281.635 1164.65,-277.884"/>
</g>
<!-- arcade&#45;&gt;sdk -->
<g id="edge74" class="edge"><title>arcade&#45;&gt;sdk</title>
<path fill="none" stroke="black" d="M1165.42,-91.473C1032.58,-93.5812 559.76,-103.867 507,-144 486.66,-159.472 440.727,-226.117 406,-432 402.52,-452.63 404.656,-476.249 407.453,-493.969"/>
<polygon fill="black" stroke="black" points="404.065,-494.913 409.236,-504.16 410.961,-493.707 404.065,-494.913"/>
</g>
<!-- standard -->
<g id="node21" class="node"><title>standard</title>
<ellipse fill="#cae1ff" stroke="#cae1ff" cx="1130" cy="-234" rx="42.4939" ry="18"/>
<text text-anchor="middle" x="1130" y="-230.3" font-family="Times New Roman,serif" font-size="14.00">standard</text>
</g>
<!-- arcade&#45;&gt;standard -->
<g id="edge81" class="edge"><title>arcade&#45;&gt;standard</title>
<path fill="none" stroke="black" d="M1191.83,-107.567C1179.78,-132.019 1157.11,-177.996 1142.83,-206.977"/>
<polygon fill="black" stroke="black" points="1139.61,-205.581 1138.33,-216.098 1145.89,-208.676 1139.61,-205.581"/>
</g>
<!-- websdk -->
<g id="node23" class="node"><title>websdk</title>
<ellipse fill="#cae1ff" stroke="#cae1ff" cx="1477" cy="-666" rx="38.9931" ry="18"/>
<text text-anchor="middle" x="1477" y="-662.3" font-family="Times New Roman,serif" font-size="14.00">websdk</text>
</g>
<!-- arcade&#45;&gt;websdk -->
<g id="edge95" class="edge"><title>arcade&#45;&gt;websdk</title>
<path fill="none" stroke="black" d="M1234.23,-93.3232C1346.74,-101.885 1698,-136.353 1698,-233 1698,-233 1698,-233 1698,-523 1698,-563.447 1706.93,-582.746 1679,-612 1657.87,-634.126 1576.83,-650.111 1524.04,-658.438"/>
<polygon fill="black" stroke="black" points="1523.23,-655.02 1513.88,-660 1524.3,-661.939 1523.23,-655.02"/>
</g>
<!-- arcade&#45;&gt;corefx&#45;portable -->
<g id="edge53" class="edge"><title>arcade&#45;&gt;corefx&#45;portable</title>
<path fill="none" stroke="black" d="M1178.76,-104.405C1118.43,-142.466 950.036,-248.675 944,-252 921.939,-264.15 896.647,-276.354 875.782,-285.983"/>
<polygon fill="black" stroke="black" points="874.17,-282.872 866.535,-290.217 877.084,-289.237 874.17,-282.872"/>
</g>
<!-- arcade&#45;&gt;fsharp -->
<g id="edge61" class="edge"><title>arcade&#45;&gt;fsharp</title>
<path fill="none" stroke="black" d="M1165.37,-90.7191C1017.03,-89.8483 440.045,-89.9786 382,-144 352.578,-171.383 349.484,-294.451 349.624,-349.837"/>
<polygon fill="black" stroke="black" points="346.125,-349.986 349.688,-359.964 353.125,-349.942 346.125,-349.986"/>
</g>
<!-- aspnet&#45;extensions&#45;&gt;aspnetcore&#45;tooling -->
<g id="edge7" class="edge"><title>aspnet&#45;extensions&#45;&gt;aspnetcore&#45;tooling</title>
<path fill="none" stroke="black" d="M806.74,-466.362C785.273,-476.584 756.866,-490.111 733.689,-501.148"/>
<polygon fill="black" stroke="black" points="731.962,-498.094 724.438,-505.553 734.972,-504.414 731.962,-498.094"/>
</g>
<!-- vstest -->
<g id="node32" class="node"><title>vstest</title>
<ellipse fill="#cae1ff" stroke="#cae1ff" cx="910" cy="-522" rx="31.6951" ry="18"/>
<text text-anchor="middle" x="910" y="-518.3" font-family="Times New Roman,serif" font-size="14.00">vstest</text>
</g>
<!-- aspnet&#45;extensions&#45;&gt;vstest -->
<g id="edge92" class="edge"><title>aspnet&#45;extensions&#45;&gt;vstest</title>
<path fill="none" stroke="black" d="M855.826,-467.589C865.329,-476.959 877.329,-488.789 887.618,-498.933"/>
<polygon fill="black" stroke="black" points="885.169,-501.433 894.747,-505.962 890.083,-496.449 885.169,-501.433"/>
</g>
<!-- core&#45;setup&#45;&gt;aspnet&#45;extensions -->
<g id="edge3" class="edge"><title>core&#45;setup&#45;&gt;aspnet&#45;extensions</title>
<path fill="none" stroke="black" d="M843.517,-396.303C842.856,-404.017 842.061,-413.288 841.324,-421.888"/>
<polygon fill="black" stroke="black" points="837.833,-421.633 840.466,-431.896 844.807,-422.231 837.833,-421.633"/>
</g>
<!-- core&#45;setup&#45;&gt;aspnetcore&#45;tooling -->
<g id="edge8" class="edge"><title>core&#45;setup&#45;&gt;aspnetcore&#45;tooling</title>
<path fill="none" stroke="black" d="M809.592,-390.626C777.828,-401.684 734.369,-418.577 722,-432 706.338,-448.998 698.822,-474.459 695.234,-493.799"/>
<polygon fill="black" stroke="black" points="691.754,-493.392 693.617,-503.822 698.665,-494.507 691.754,-493.392"/>
</g>
<!-- core&#45;setup&#45;&gt;aspnetcore -->
<g id="edge13" class="edge"><title>core&#45;setup&#45;&gt;aspnetcore</title>
<path fill="none" stroke="black" d="M809.164,-390.612C772.527,-402.731 718.336,-421.413 699,-432 652.841,-457.273 633.12,-459.518 605,-504 593.285,-522.532 588.687,-547.123 586.934,-565.76"/>
<polygon fill="black" stroke="black" points="583.427,-565.728 586.197,-575.954 590.409,-566.232 583.427,-565.728"/>
</g>
<!-- core&#45;setup&#45;&gt;cli -->
<g id="edge19" class="edge"><title>core&#45;setup&#45;&gt;cli</title>
<path fill="none" stroke="black" d="M808.639,-390.387C789.018,-398.6 766.518,-411.85 755,-432 747.06,-445.891 748.898,-453.209 755,-468 776.515,-520.148 900.178,-602.852 934,-648 948.88,-667.864 962.206,-692.78 971.191,-711.193"/>
<polygon fill="black" stroke="black" points="968.131,-712.907 975.599,-720.423 974.448,-709.891 968.131,-712.907"/>
</g>
<!-- core&#45;setup&#45;&gt;sdk -->
<g id="edge76" class="edge"><title>core&#45;setup&#45;&gt;sdk</title>
<path fill="none" stroke="black" d="M809.356,-390.521C802.021,-392.588 794.306,-394.544 787,-396 714.438,-410.462 516.453,-389.34 456,-432 435.37,-446.558 424.249,-473.783 418.522,-494.305"/>
<polygon fill="black" stroke="black" points="415.119,-493.485 416.061,-504.038 421.906,-495.201 415.119,-493.485"/>
</g>
<!-- core&#45;setup&#45;&gt;vstest -->
<g id="edge93" class="edge"><title>core&#45;setup&#45;&gt;vstest</title>
<path fill="none" stroke="black" d="M877.045,-391.813C893.997,-400.437 913.27,-413.625 923,-432 933.297,-451.445 928.32,-476.448 921.764,-494.999"/>
<polygon fill="black" stroke="black" points="918.406,-493.976 918.046,-504.565 924.931,-496.512 918.406,-493.976"/>
</g>
<!-- roslyn&#45;&gt;aspnet&#45;extensions -->
<g id="edge4" class="edge"><title>roslyn&#45;&gt;aspnet&#45;extensions</title>
<path fill="none" stroke="black" d="M581.393,-179.884C570.989,-222.095 550.603,-333.313 605,-396 625.226,-419.309 700.435,-433.391 760.2,-441.119"/>
<polygon fill="black" stroke="black" points="760.047,-444.627 770.404,-442.397 760.917,-437.681 760.047,-444.627"/>
</g>
<!-- roslyn&#45;&gt;core&#45;setup -->
<g id="edge47" class="edge"><title>roslyn&#45;&gt;core&#45;setup</title>
<path fill="none" stroke="black" d="M600.87,-178.175C611.119,-188.701 625.001,-203.094 637,-216 680.93,-263.252 682.337,-285.355 734,-324 754.464,-339.308 780.052,-351.885 801.501,-360.941"/>
<polygon fill="black" stroke="black" points="800.452,-364.293 811.032,-364.85 803.108,-357.817 800.452,-364.293"/>
</g>
<!-- roslyn&#45;&gt;aspnetcore&#45;tooling -->
<g id="edge10" class="edge"><title>roslyn&#45;&gt;aspnetcore&#45;tooling</title>
<path fill="none" stroke="black" d="M577.902,-179.738C573.416,-189.952 568.294,-203.422 566,-216 551.601,-294.939 544.282,-324.147 580,-396 600.335,-436.908 637.77,-474.593 663.733,-497.659"/>
<polygon fill="black" stroke="black" points="661.553,-500.402 671.391,-504.336 666.154,-495.126 661.553,-500.402"/>
</g>
<!-- roslyn&#45;&gt;msbuild -->
<g id="edge67" class="edge"><title>roslyn&#45;&gt;msbuild</title>
<path fill="none" stroke="black" d="M567.976,-177.603C556.849,-187.441 543.025,-201.272 534,-216 507.592,-259.098 492.336,-316.68 485.139,-350.016"/>
<polygon fill="black" stroke="black" points="481.685,-349.436 483.081,-359.938 488.539,-350.857 481.685,-349.436"/>
</g>
<!-- roslyn&#45;&gt;aspnetcore -->
<g id="edge15" class="edge"><title>roslyn&#45;&gt;aspnetcore</title>
<path fill="none" stroke="black" d="M553.763,-166.881C459.071,-179.008 185.143,-219.52 133,-288 38.556,-412.034 234.14,-477.588 377,-540 427.017,-561.851 487.859,-576.005 530.97,-584.14"/>
<polygon fill="black" stroke="black" points="530.513,-587.615 540.981,-585.982 531.78,-580.73 530.513,-587.615"/>
</g>
<!-- roslyn&#45;&gt;cli -->
<g id="edge25" class="edge"><title>roslyn&#45;&gt;cli</title>
<path fill="none" stroke="black" d="M556.868,-170.788C457.281,-197.442 136.34,-283.614 133,-288 123.307,-300.73 126.525,-309.369 133,-324 233.318,-550.679 326.49,-598.057 559,-684 629.876,-710.198 856.452,-728.263 946.039,-734.549"/>
<polygon fill="black" stroke="black" points="946.048,-738.058 956.266,-735.257 946.532,-731.075 946.048,-738.058"/>
</g>
<!-- roslyn&#45;&gt;coreclr -->
<g id="edge52" class="edge"><title>roslyn&#45;&gt;coreclr</title>
<path fill="none" stroke="black" d="M609.749,-174.875C632.4,-186.2 666.745,-203.372 692.237,-216.118"/>
<polygon fill="black" stroke="black" points="690.68,-219.253 701.19,-220.595 693.811,-212.992 690.68,-219.253"/>
</g>
<!-- roslyn&#45;&gt;core&#45;setup&#45;portable -->
<g id="edge41" class="edge"><title>roslyn&#45;&gt;core&#45;setup&#45;portable</title>
<path fill="none" stroke="black" d="M594.449,-179.437C613.431,-216.366 659.586,-306.159 682.556,-350.845"/>
<polygon fill="black" stroke="black" points="679.533,-352.621 687.218,-359.915 685.759,-349.421 679.533,-352.621"/>
</g>
<!-- roslyn&#45;&gt;coreclr&#45;portable -->
<g id="edge50" class="edge"><title>roslyn&#45;&gt;coreclr&#45;portable</title>
<path fill="none" stroke="black" d="M615.15,-170.759C657.832,-182.119 738.161,-203.499 792.622,-217.994"/>
<polygon fill="black" stroke="black" points="791.912,-221.427 802.475,-220.617 793.712,-214.663 791.912,-221.427"/>
</g>
<!-- aspnet&#45;xdt&#45;&gt;websdk -->
<g id="edge97" class="edge"><title>aspnet&#45;xdt&#45;&gt;websdk</title>
<path fill="none" stroke="black" d="M1592.55,-608.83C1569.44,-620.065 1536.74,-635.962 1512.02,-647.978"/>
<polygon fill="black" stroke="black" points="1510.43,-644.856 1502.97,-652.375 1513.49,-651.151 1510.43,-644.856"/>
</g>
<!-- aspnetcore&#45;tooling&#45;&gt;aspnetcore -->
<g id="edge12" class="edge"><title>aspnetcore&#45;tooling&#45;&gt;aspnetcore</title>
<path fill="none" stroke="black" d="M667.415,-539.235C652.553,-549.05 633.46,-561.659 617.499,-572.199"/>
<polygon fill="black" stroke="black" points="615.416,-569.38 609,-577.811 619.274,-575.221 615.416,-569.38"/>
</g>
<!-- aspnetcore&#45;tooling&#45;&gt;toolset -->
<g id="edge84" class="edge"><title>aspnetcore&#45;tooling&#45;&gt;toolset</title>
<path fill="none" stroke="black" d="M690.332,-540.034C685.655,-587.808 672.383,-723.377 666.669,-781.734"/>
<polygon fill="black" stroke="black" points="663.185,-781.4 665.694,-791.694 670.152,-782.082 663.185,-781.4"/>
</g>
<!-- msbuild&#45;&gt;aspnetcore&#45;tooling -->
<g id="edge9" class="edge"><title>msbuild&#45;&gt;aspnetcore&#45;tooling</title>
<path fill="none" stroke="black" d="M501.762,-393.349C517.868,-403.985 540.331,-418.854 560,-432 593.858,-454.629 632.469,-480.693 659.146,-498.741"/>
<polygon fill="black" stroke="black" points="657.468,-501.831 667.711,-504.537 661.391,-496.034 657.468,-501.831"/>
</g>
<!-- msbuild&#45;&gt;aspnetcore -->
<g id="edge14" class="edge"><title>msbuild&#45;&gt;aspnetcore</title>
<path fill="none" stroke="black" d="M494.556,-394.815C503.319,-404.912 514.243,-418.584 522,-432 547.677,-476.408 567.546,-533.1 577.95,-566.001"/>
<polygon fill="black" stroke="black" points="574.685,-567.288 580.991,-575.802 581.37,-565.214 574.685,-567.288"/>
</g>
<!-- msbuild&#45;&gt;cli -->
<g id="edge21" class="edge"><title>msbuild&#45;&gt;cli</title>
<path fill="none" stroke="black" d="M477.414,-395.993C471.869,-439.451 464.026,-555.205 527,-612 589.003,-667.92 826.273,-610.753 901,-648 920.426,-657.683 919.299,-668.031 934,-684 943.283,-694.084 953.578,-705.226 962.326,-714.681"/>
<polygon fill="black" stroke="black" points="959.893,-717.205 969.254,-722.166 965.03,-712.45 959.893,-717.205"/>
</g>
<!-- nuget&#45;client -->
<g id="node18" class="node"><title>nuget&#45;client</title>
<ellipse fill="#cae1ff" stroke="#cae1ff" cx="1022" cy="-450" rx="51.9908" ry="18"/>
<text text-anchor="middle" x="1022" y="-446.3" font-family="Times New Roman,serif" font-size="14.00">nuget&#45;client</text>
</g>
<!-- msbuild&#45;&gt;nuget&#45;client -->
<g id="edge71" class="edge"><title>msbuild&#45;&gt;nuget&#45;client</title>
<path fill="none" stroke="black" d="M517.165,-384.277C542.012,-387.75 575.443,-392.318 605,-396 746.145,-413.585 782.183,-411.956 923,-432 937.31,-434.037 952.731,-436.537 967.044,-438.986"/>
<polygon fill="black" stroke="black" points="966.787,-442.494 977.238,-440.754 967.983,-435.597 966.787,-442.494"/>
</g>
<!-- msbuild&#45;&gt;sdk -->
<g id="edge77" class="edge"><title>msbuild&#45;&gt;sdk</title>
<path fill="none" stroke="black" d="M456.291,-392.468C442.52,-401.682 426.295,-415.249 418,-432 408.527,-451.129 407.811,-475.481 409.165,-493.875"/>
<polygon fill="black" stroke="black" points="405.692,-494.321 410.151,-503.932 412.658,-493.638 405.692,-494.321"/>
</g>
<!-- aspnetcore&#45;&gt;websdk -->
<g id="edge96" class="edge"><title>aspnetcore&#45;&gt;websdk</title>
<path fill="none" stroke="black" d="M634.537,-598.813C789.845,-611.015 1273.5,-649.013 1428.61,-661.198"/>
<polygon fill="black" stroke="black" points="1428.53,-664.703 1438.77,-661.997 1429.08,-657.724 1428.53,-664.703"/>
</g>
<!-- aspnetcore&#45;&gt;core&#45;sdk -->
<g id="edge33" class="edge"><title>aspnetcore&#45;&gt;core&#45;sdk</title>
<path fill="none" stroke="black" d="M541.249,-602.201C445.909,-618.55 227.945,-661.63 185,-720 129.543,-795.377 286.632,-848.248 368.654,-869.975"/>
<polygon fill="black" stroke="black" points="367.946,-873.407 378.504,-872.53 369.704,-866.631 367.946,-873.407"/>
</g>
<!-- cli&#45;&gt;toolset -->
<g id="edge85" class="edge"><title>cli&#45;&gt;toolset</title>
<path fill="none" stroke="black" d="M957.702,-744.551C902.896,-756.578 772.744,-785.138 705.623,-799.866"/>
<polygon fill="black" stroke="black" points="704.821,-796.459 695.803,-802.021 706.321,-803.296 704.821,-796.459"/>
</g>
<!-- clicommandlineparser&#45;&gt;cli -->
<g id="edge18" class="edge"><title>clicommandlineparser&#45;&gt;cli</title>
<path fill="none" stroke="black" d="M1410.65,-324.372C1414.2,-334.579 1418.2,-347.829 1420,-360 1422.34,-375.828 1421.95,-380.12 1420,-396 1403.88,-526.951 1445.88,-595.522 1348,-684 1300.34,-727.083 1103.13,-735.189 1020.1,-736.68"/>
<polygon fill="black" stroke="black" points="1020.04,-733.181 1010.1,-736.838 1020.15,-740.18 1020.04,-733.181"/>
</g>
<!-- templating -->
<g id="node22" class="node"><title>templating</title>
<ellipse fill="#cae1ff" stroke="#cae1ff" cx="1292" cy="-378" rx="48.1917" ry="18"/>
<text text-anchor="middle" x="1292" y="-374.3" font-family="Times New Roman,serif" font-size="14.00">templating</text>
</g>
<!-- clicommandlineparser&#45;&gt;templating -->
<g id="edge82" class="edge"><title>clicommandlineparser&#45;&gt;templating</title>
<path fill="none" stroke="black" d="M1378.02,-323.235C1361.96,-333.278 1341.2,-346.247 1324.11,-356.932"/>
<polygon fill="black" stroke="black" points="1322.17,-354.015 1315.55,-362.283 1325.88,-359.951 1322.17,-354.015"/>
</g>
<!-- corefx&#45;&gt;core&#45;setup -->
<g id="edge44" class="edge"><title>corefx&#45;&gt;core&#45;setup</title>
<path fill="none" stroke="black" d="M931.369,-320.497C915.959,-330.579 894.607,-344.547 876.989,-356.072"/>
<polygon fill="black" stroke="black" points="874.62,-353.44 868.168,-361.843 878.452,-359.298 874.62,-353.44"/>
</g>
<!-- corefx&#45;&gt;msbuild -->
<g id="edge66" class="edge"><title>corefx&#45;&gt;msbuild</title>
<path fill="none" stroke="black" d="M926.435,-318.356C920.783,-320.513 914.76,-322.547 909,-324 777.08,-357.289 739.968,-342.832 605,-360 579.356,-363.262 550.786,-367.13 527.44,-370.351"/>
<polygon fill="black" stroke="black" points="526.871,-366.897 517.446,-371.735 527.831,-373.831 526.871,-366.897"/>
</g>
<!-- corefx&#45;&gt;cli -->
<g id="edge20" class="edge"><title>corefx&#45;&gt;cli</title>
<path fill="none" stroke="black" d="M985.086,-311.525C1015.13,-317.418 1058.39,-330.686 1083,-360 1109.01,-390.979 1102,-408.553 1102,-449 1102,-449 1102,-449 1102,-595 1102,-651.191 1046.58,-696.818 1011.39,-720.132"/>
<polygon fill="black" stroke="black" points="1009.44,-717.222 1002.92,-725.571 1013.22,-723.111 1009.44,-717.222"/>
</g>
<!-- corefx&#45;&gt;core&#45;setup&#45;portable -->
<g id="edge38" class="edge"><title>corefx&#45;&gt;core&#45;setup&#45;portable</title>
<path fill="none" stroke="black" d="M925.821,-317.988C920.313,-320.119 914.504,-322.236 909,-324 860.791,-339.452 805.256,-353.14 762.982,-362.733"/>
<polygon fill="black" stroke="black" points="762.069,-359.351 753.081,-364.96 763.605,-366.18 762.069,-359.351"/>
</g>
<!-- nuget&#45;client&#45;&gt;cli -->
<g id="edge22" class="edge"><title>nuget&#45;client&#45;&gt;cli</title>
<path fill="none" stroke="black" d="M1019.68,-468.034C1013.16,-515.822 994.665,-651.456 986.711,-709.785"/>
<polygon fill="black" stroke="black" points="983.194,-709.674 985.311,-720.055 990.13,-710.62 983.194,-709.674"/>
</g>
<!-- nuget&#45;client&#45;&gt;sdk -->
<g id="edge80" class="edge"><title>nuget&#45;client&#45;&gt;sdk</title>
<path fill="none" stroke="black" d="M977.251,-459.334C960.296,-462.32 940.794,-465.55 923,-468 831.014,-480.663 550.268,-507.884 449.493,-517.527"/>
<polygon fill="black" stroke="black" points="449.108,-514.047 439.487,-518.483 449.774,-521.016 449.108,-514.047"/>
</g>
<!-- newtonsoft&#45;json&#45;&gt;core&#45;setup -->
<g id="edge45" class="edge"><title>newtonsoft&#45;json&#45;&gt;core&#45;setup</title>
<path fill="none" stroke="black" d="M1096.96,-317.852C1047.82,-328.088 972.761,-344.18 908,-360 903.037,-361.212 897.868,-362.525 892.719,-363.865"/>
<polygon fill="black" stroke="black" points="891.678,-360.52 882.903,-366.457 893.465,-367.288 891.678,-360.52"/>
</g>
<!-- newtonsoft&#45;json&#45;&gt;cli -->
<g id="edge23" class="edge"><title>newtonsoft&#45;json&#45;&gt;cli</title>
<path fill="none" stroke="black" d="M1159.04,-323.926C1177.11,-359.403 1216,-444.602 1216,-521 1216,-521 1216,-521 1216,-595 1216,-686.056 1084.64,-720.429 1019.18,-731.905"/>
<polygon fill="black" stroke="black" points="1018.56,-728.46 1009.28,-733.556 1019.71,-735.365 1018.56,-728.46"/>
</g>
<!-- newtonsoft&#45;json&#45;&gt;nuget&#45;client -->
<g id="edge69" class="edge"><title>newtonsoft&#45;json&#45;&gt;nuget&#45;client</title>
<path fill="none" stroke="black" d="M1101.23,-318.978C1053.37,-331.22 986.491,-349.836 979,-360 964.034,-380.307 980.434,-406.638 997.113,-425.38"/>
<polygon fill="black" stroke="black" points="994.788,-428.017 1004.19,-432.907 999.889,-423.223 994.788,-428.017"/>
</g>
<!-- newtonsoft&#45;json&#45;&gt;sdk -->
<g id="edge78" class="edge"><title>newtonsoft&#45;json&#45;&gt;sdk</title>
<path fill="none" stroke="black" d="M1100.16,-318.715C1063.49,-328.041 1012.79,-342.426 970,-360 938.73,-372.843 934.567,-383.907 903,-396 839.784,-420.216 820.648,-415.475 755,-432 642.514,-460.315 509.642,-495.35 447.847,-511.735"/>
<polygon fill="black" stroke="black" points="446.622,-508.439 437.854,-514.387 448.417,-515.205 446.622,-508.439"/>
</g>
<!-- newtonsoft&#45;json&#45;&gt;templating -->
<g id="edge83" class="edge"><title>newtonsoft&#45;json&#45;&gt;templating</title>
<path fill="none" stroke="black" d="M1180.81,-322.189C1202.61,-332.933 1231.93,-347.39 1255,-358.759"/>
<polygon fill="black" stroke="black" points="1253.62,-361.982 1264.14,-363.264 1256.71,-355.703 1253.62,-361.982"/>
</g>
<!-- newtonsoft&#45;json&#45;&gt;websdk -->
<g id="edge98" class="edge"><title>newtonsoft&#45;json&#45;&gt;websdk</title>
<path fill="none" stroke="black" d="M1210.21,-315.194C1285.21,-325.949 1405.33,-345.198 1420,-360 1495.5,-436.185 1488.04,-578.361 1480.99,-637.792"/>
<polygon fill="black" stroke="black" points="1477.5,-637.529 1479.7,-647.892 1484.44,-638.416 1477.5,-637.529"/>
</g>
<!-- common -->
<g id="node24" class="node"><title>common</title>
<ellipse fill="#cae1ff" stroke="#cae1ff" cx="1031" cy="-378" rx="42.7926" ry="18"/>
<text text-anchor="middle" x="1031" y="-374.3" font-family="Times New Roman,serif" font-size="14.00">common</text>
</g>
<!-- newtonsoft&#45;json&#45;&gt;common -->
<g id="edge32" class="edge"><title>newtonsoft&#45;json&#45;&gt;common</title>
<path fill="none" stroke="black" d="M1123.29,-322.709C1105.63,-333.102 1082.35,-346.794 1063.59,-357.827"/>
<polygon fill="black" stroke="black" points="1061.64,-354.917 1054.79,-363.004 1065.19,-360.951 1061.64,-354.917"/>
</g>
<!-- newtonsoft&#45;json&#45;&gt;core&#45;sdk -->
<g id="edge34" class="edge"><title>newtonsoft&#45;json&#45;&gt;core&#45;sdk</title>
<path fill="none" stroke="black" d="M1210.92,-314.865C1292.51,-325.849 1429.27,-346.006 1448,-360 1514.07,-409.356 1544,-585.027 1544,-665 1544,-665 1544,-665 1544,-739 1544,-848.872 691.387,-875.02 468.034,-879.985"/>
<polygon fill="black" stroke="black" points="467.801,-876.489 457.88,-880.205 467.953,-883.487 467.801,-876.489"/>
</g>
<!-- newtonsoft&#45;json&#45;&gt;toolset -->
<g id="edge88" class="edge"><title>newtonsoft&#45;json&#45;&gt;toolset</title>
<path fill="none" stroke="black" d="M1210.31,-314.968C1262.44,-323.234 1332.01,-338.054 1349,-360 1438.19,-475.219 1407.39,-586.632 1299,-684 1211,-763.044 838.22,-796.622 708.621,-806.053"/>
<polygon fill="black" stroke="black" points="708.363,-802.563 698.638,-806.767 708.862,-809.545 708.363,-802.563"/>
</g>
<!-- newtonsoft&#45;json&#45;&gt;core&#45;setup&#45;portable -->
<g id="edge39" class="edge"><title>newtonsoft&#45;json&#45;&gt;core&#45;setup&#45;portable</title>
<path fill="none" stroke="black" d="M1090.51,-315.392C1003.09,-327.777 844.093,-350.503 787,-360 780.024,-361.16 772.758,-362.424 765.508,-363.721"/>
<polygon fill="black" stroke="black" points="764.875,-360.279 755.659,-365.504 766.122,-367.167 764.875,-360.279"/>
</g>
<!-- newtonsoft&#45;json&#45;&gt;fsharp -->
<g id="edge63" class="edge"><title>newtonsoft&#45;json&#45;&gt;fsharp</title>
<path fill="none" stroke="black" d="M1088.22,-314.428C1059.85,-317.671 1025.75,-321.334 995,-324 744.762,-345.698 679.881,-326.117 431,-360 417.631,-361.82 403.172,-364.592 390.221,-367.373"/>
<polygon fill="black" stroke="black" points="389.216,-364.01 380.208,-369.587 390.728,-370.845 389.216,-364.01"/>
</g>
<!-- newtonsoft&#45;json&#45;&gt;vstest -->
<g id="edge94" class="edge"><title>newtonsoft&#45;json&#45;&gt;vstest</title>
<path fill="none" stroke="black" d="M1147.73,-324.064C1142.46,-356.796 1126.38,-428.635 1083,-468 1046.74,-500.897 990.516,-513.382 952.07,-518.116"/>
<polygon fill="black" stroke="black" points="951.285,-514.682 941.729,-519.257 952.052,-521.639 951.285,-514.682"/>
</g>
<!-- sdk&#45;&gt;cli -->
<g id="edge26" class="edge"><title>sdk&#45;&gt;cli</title>
<path fill="none" stroke="black" d="M423.425,-538.851C437.274,-558.712 463.566,-592.502 494,-612 642.562,-707.178 859.937,-729.964 945.973,-735.355"/>
<polygon fill="black" stroke="black" points="945.852,-738.854 956.039,-735.943 946.26,-731.866 945.852,-738.854"/>
</g>
<!-- standard&#45;&gt;core&#45;setup -->
<g id="edge48" class="edge"><title>standard&#45;&gt;core&#45;setup</title>
<path fill="none" stroke="black" d="M1112.37,-250.737C1084.47,-275.586 1032.8,-321.382 1028,-324 1021.9,-327.331 944.848,-349.155 892.693,-363.74"/>
<polygon fill="black" stroke="black" points="891.635,-360.401 882.945,-366.462 893.518,-367.143 891.635,-360.401"/>
</g>
<!-- standard&#45;&gt;cli -->
<g id="edge27" class="edge"><title>standard&#45;&gt;cli</title>
<path fill="none" stroke="black" d="M1156.56,-248.224C1212.52,-276.354 1338.3,-341.095 1349,-360 1375.31,-406.472 1406.51,-307.516 1306,-612 1294.91,-645.605 1300.05,-662.429 1272,-684 1233.04,-713.957 1088.99,-728.844 1020.13,-734.375"/>
<polygon fill="black" stroke="black" points="1019.45,-730.918 1009.75,-735.184 1020,-737.897 1019.45,-730.918"/>
</g>
<!-- standard&#45;&gt;corefx -->
<g id="edge60" class="edge"><title>standard&#45;&gt;corefx</title>
<path fill="none" stroke="black" d="M1099.8,-246.875C1069.06,-258.964 1021.38,-277.717 988.528,-290.635"/>
<polygon fill="black" stroke="black" points="986.869,-287.526 978.844,-294.443 989.431,-294.041 986.869,-287.526"/>
</g>
<!-- standard&#45;&gt;core&#45;setup&#45;portable -->
<g id="edge42" class="edge"><title>standard&#45;&gt;core&#45;setup&#45;portable</title>
<path fill="none" stroke="black" d="M1100.26,-247.113C1079.01,-256.542 1050.33,-270.881 1028,-288 1010.77,-301.205 1014.05,-313.592 995,-324 912.671,-368.989 879.336,-343.385 787,-360 780.305,-361.205 773.335,-362.476 766.366,-363.758"/>
<polygon fill="black" stroke="black" points="765.385,-360.381 756.187,-365.639 766.657,-367.264 765.385,-360.381"/>
</g>
<!-- standard&#45;&gt;corefx&#45;portable -->
<g id="edge56" class="edge"><title>standard&#45;&gt;corefx&#45;portable</title>
<path fill="none" stroke="black" d="M1093.88,-243.513C1043.5,-255.386 951.579,-277.052 891.397,-291.236"/>
<polygon fill="black" stroke="black" points="890.584,-287.832 881.654,-293.533 892.19,-294.645 890.584,-287.832"/>
</g>
<!-- templating&#45;&gt;cli -->
<g id="edge28" class="edge"><title>templating&#45;&gt;cli</title>
<path fill="none" stroke="black" d="M1292,-396.049C1292,-422.708 1292,-475.885 1292,-521 1292,-521 1292,-521 1292,-595 1292,-713.352 1102.53,-733.423 1020.32,-736.561"/>
<polygon fill="black" stroke="black" points="1020.04,-733.068 1010.15,-736.883 1020.26,-740.064 1020.04,-733.068"/>
</g>
<!-- websdk&#45;&gt;cli -->
<g id="edge29" class="edge"><title>websdk&#45;&gt;cli</title>
<path fill="none" stroke="black" d="M1441.64,-674.064C1424.82,-677.307 1404.41,-681.072 1386,-684 1251.43,-705.402 1090.6,-724.67 1019.67,-732.848"/>
<polygon fill="black" stroke="black" points="1019.01,-729.401 1009.48,-734.019 1019.81,-736.355 1019.01,-729.401"/>
</g>
<!-- websdk&#45;&gt;toolset -->
<g id="edge91" class="edge"><title>websdk&#45;&gt;toolset</title>
<path fill="none" stroke="black" d="M1472.13,-684.222C1465.21,-705.185 1450.34,-739.789 1424,-756 1363.16,-793.439 863.77,-805.433 709.333,-808.266"/>
<polygon fill="black" stroke="black" points="709.179,-804.768 699.243,-808.447 709.305,-811.767 709.179,-804.768"/>
</g>
<!-- common&#45;&gt;nuget&#45;client -->
<g id="edge70" class="edge"><title>common&#45;&gt;nuget&#45;client</title>
<path fill="none" stroke="black" d="M1028.78,-396.303C1027.78,-404.017 1026.59,-413.288 1025.49,-421.888"/>
<polygon fill="black" stroke="black" points="1022,-421.531 1024.2,-431.896 1028.95,-422.424 1022,-421.531"/>
</g>
<!-- toolset&#45;&gt;core&#45;sdk -->
<g id="edge36" class="edge"><title>toolset&#45;&gt;core&#45;sdk</title>
<path fill="none" stroke="black" d="M633.965,-819.444C590.431,-831.682 509.515,-854.43 459.174,-868.582"/>
<polygon fill="black" stroke="black" points="458.213,-865.216 449.533,-871.292 460.108,-871.955 458.213,-865.216"/>
</g>
<!-- coreclr&#45;&gt;core&#45;setup -->
<g id="edge43" class="edge"><title>coreclr&#45;&gt;core&#45;setup</title>
<path fill="none" stroke="black" d="M728.39,-252.1C731.833,-271.376 739.777,-302.787 757,-324 769.216,-339.047 786.918,-350.869 803.248,-359.494"/>
<polygon fill="black" stroke="black" points="802.143,-362.855 812.652,-364.202 805.277,-356.595 802.143,-362.855"/>
</g>
<!-- coreclr&#45;&gt;corefx -->
<g id="edge59" class="edge"><title>coreclr&#45;&gt;corefx</title>
<path fill="none" stroke="black" d="M753.444,-245.895C759.204,-248.033 765.27,-250.176 771,-252 831.399,-271.227 848.749,-268.312 909,-288 911.404,-288.785 913.867,-289.635 916.338,-290.521"/>
<polygon fill="black" stroke="black" points="915.213,-293.837 925.805,-294.06 917.664,-287.28 915.213,-293.837"/>
</g>
<!-- coreclr&#45;&gt;core&#45;setup&#45;portable -->
<g id="edge37" class="edge"><title>coreclr&#45;&gt;core&#45;setup&#45;portable</title>
<path fill="none" stroke="black" d="M722.381,-252.129C717.246,-276.436 707.793,-321.181 701.707,-349.987"/>
<polygon fill="black" stroke="black" points="698.274,-349.303 699.632,-359.811 705.123,-350.75 698.274,-349.303"/>
</g>
<!-- coreclr&#45;&gt;corefx&#45;portable -->
<g id="edge55" class="edge"><title>coreclr&#45;&gt;corefx&#45;portable</title>
<path fill="none" stroke="black" d="M747.14,-248.83C762.18,-258.669 782.687,-272.085 799.887,-283.337"/>
<polygon fill="black" stroke="black" points="798.249,-286.448 808.534,-288.994 802.082,-280.591 798.249,-286.448"/>
</g>
<!-- fsharp&#45;&gt;toolset -->
<g id="edge86" class="edge"><title>fsharp&#45;&gt;toolset</title>
<path fill="none" stroke="black" d="M334.312,-394.043C287.275,-440.954 155.064,-587.215 228,-684 240.252,-700.258 517.301,-771.838 623.278,-798.736"/>
<polygon fill="black" stroke="black" points="622.432,-802.132 632.986,-801.196 624.152,-795.347 622.432,-802.132"/>
</g>
<!-- vstest&#45;&gt;toolset -->
<g id="edge90" class="edge"><title>vstest&#45;&gt;toolset</title>
<path fill="none" stroke="black" d="M884.669,-533.184C844.265,-550.684 765.282,-590.244 721,-648 690.215,-688.153 702.326,-708.462 685,-756 681.833,-764.689 678.181,-774.095 674.819,-782.538"/>
<polygon fill="black" stroke="black" points="671.535,-781.323 671.052,-791.906 678.03,-783.934 671.535,-781.323"/>
</g>
</g>
</svg>
